<?xml version="1.0" encoding="UTF-8" standalone="no"?>
<svg
   xmlns:dc="http://purl.org/dc/elements/1.1/"
   xmlns:cc="http://creativecommons.org/ns#"
   xmlns:rdf="http://www.w3.org/1999/02/22-rdf-syntax-ns#"
   xmlns:svg="http://www.w3.org/2000/svg"
   xmlns="http://www.w3.org/2000/svg"
   xmlns:sodipodi="http://sodipodi.sourceforge.net/DTD/sodipodi-0.dtd"
   xmlns:inkscape="http://www.inkscape.org/namespaces/inkscape"
   sodipodi:docname="icono.svg"
   inkscape:version="1.0 (4035a4fb49, 2020-05-01)"
   inkscape:export-ydpi="181.42857"
   inkscape:export-xdpi="181.42857"
   inkscape:export-filename="E:\wamp\www\app\imagenes\icono.png"
   id="svg1820"
   version="1.1"
   viewBox="0 0 70 70"
   height="70mm"
   width="70mm">
  <defs
     id="defs1814">
    <clipPath
       clipPathUnits="userSpaceOnUse"
       id="clipPath736">
      <path
         d="m 2503.79,523.332 c -285.81,0 -517.5,51.488 -517.5,115 0,30.988 55.15,59.109 144.84,79.789 C 2183.78,648.789 2284.29,610 2463.91,610 c 29.71,0 61.58,1.059 95.76,3.219 189.36,11.961 296.7,41.89 351.16,96.133 69.2,-19.551 110.46,-44.211 110.46,-71.02 0,-63.512 -231.69,-115 -517.5,-115"
         id="path734" />
    </clipPath>
    <radialGradient
       fx="0"
       fy="0"
       cx="0"
       cy="0"
       r="1"
       gradientUnits="userSpaceOnUse"
       gradientTransform="matrix(2927.5,0,0,-2927.5,2510,2475)"
       spreadMethod="pad"
       id="radialGradient744">
      <stop
         style="stop-opacity:1;stop-color:#f0ecea"
         offset="0"
         id="stop738" />
      <stop
         style="stop-opacity:1;stop-color:#f0ecea"
         offset="0.696742"
         id="stop740" />
      <stop
         style="stop-opacity:1;stop-color:#e2dbd9"
         offset="1"
         id="stop742" />
    </radialGradient>
    <clipPath
       clipPathUnits="userSpaceOnUse"
       id="clipPath772">
      <path
         d="m 1917.17,1096.41 v 0 0 m -0.06,0.11 c 0,0 0,0 0,0.01 0,-0.01 0,0 0,-0.01 m -0.06,0.11 -0.01,0.01 c 0,0 0,0 0.01,-0.01 m -0.06,0.11 c -0.01,0.01 -0.01,0.01 -0.01,0.02 0,-0.01 0,-0.02 0.01,-0.02 m -0.06,0.11 c -0.01,0 -0.01,0.01 -0.02,0.02 0,0 0.01,-0.02 0.02,-0.02 m -0.07,0.1 c 0,0.02 -0.01,0.03 -0.01,0.04 0.01,-0.02 0.01,-0.02 0.01,-0.04 m -0.05,0.11 c -0.01,0.01 -0.02,0.03 -0.03,0.04 0.01,-0.01 0.02,-0.02 0.03,-0.04 m -0.06,0.11 c -0.01,0.02 -0.02,0.03 -0.03,0.04 0.01,-0.01 0.02,-0.02 0.03,-0.04 m -0.06,0.11 c -0.01,0.02 -0.02,0.03 -0.03,0.05 0.01,-0.02 0.02,-0.03 0.03,-0.05 m -0.06,0.11 c -0.01,0.02 -0.02,0.04 -0.03,0.05 0.01,-0.01 0.02,-0.03 0.03,-0.05 m -0.06,0.12 c -0.01,0.01 -0.02,0.03 -0.03,0.05 0.01,-0.02 0.02,-0.04 0.03,-0.05 m -0.06,0.11 c -0.01,0.01 -0.02,0.03 -0.03,0.05 0.01,-0.01 0.03,-0.04 0.03,-0.05 m -0.05,0.1 c -0.01,0.02 -0.02,0.04 -0.03,0.06 0.01,-0.02 0.02,-0.03 0.03,-0.06 m -0.06,0.11 c -0.01,0.02 -0.02,0.05 -0.03,0.07 0.01,-0.02 0.02,-0.04 0.03,-0.07 m -0.05,0.12 c -0.01,0.02 -0.02,0.04 -0.04,0.06 0.02,-0.02 0.02,-0.04 0.04,-0.06 m -0.06,0.11 c -0.01,0.02 -0.02,0.04 -0.03,0.07 0.01,-0.03 0.02,-0.05 0.03,-0.07 m -0.05,0.1 c -0.01,0.03 -0.02,0.05 -0.04,0.08 0.02,-0.03 0.03,-0.05 0.04,-0.08 m -0.05,0.1 c -0.01,0.03 -0.03,0.06 -0.04,0.1 0.02,-0.04 0.03,-0.07 0.04,-0.1 m -0.06,0.13 c -0.01,0.03 -0.02,0.05 -0.03,0.08 0.01,-0.02 0.02,-0.05 0.03,-0.08"
         id="path770" />
    </clipPath>
    <radialGradient
       fx="0"
       fy="0"
       cx="0"
       cy="0"
       r="1"
       gradientUnits="userSpaceOnUse"
       gradientTransform="matrix(2927.5,0,0,-2927.5,2510,2475)"
       spreadMethod="pad"
       id="radialGradient780">
      <stop
         style="stop-opacity:1;stop-color:#ddd5d0"
         offset="0"
         id="stop774" />
      <stop
         style="stop-opacity:1;stop-color:#ddd5d0"
         offset="0.696742"
         id="stop776" />
      <stop
         style="stop-opacity:1;stop-color:#d0c6c1"
         offset="1"
         id="stop778" />
    </radialGradient>
    <clipPath
       clipPathUnits="userSpaceOnUse"
       id="clipPath798">
      <path
         d="m 2085.75,832.719 c 0,0.043 -0.01,0.07 -0.02,0.113 0.01,-0.043 0.01,-0.07 0.02,-0.113 m -0.04,0.25 c -0.01,0.051 -0.01,0.09 -0.02,0.133 0.01,-0.032 0.02,-0.09 0.02,-0.133 m -0.04,0.242 c 0,0.051 -0.01,0.109 -0.02,0.16 0.01,-0.051 0.02,-0.109 0.02,-0.16 m -0.03,0.23 c -0.03,0.2 -0.06,0.399 -0.09,0.598 0.03,-0.199 0.06,-0.398 0.09,-0.598 m -0.1,0.641 c -0.01,0.059 -0.02,0.129 -0.03,0.188 0.01,-0.059 0.02,-0.122 0.03,-0.188 m -0.03,0.238 c -0.01,0.071 -0.02,0.129 -0.03,0.192 0.01,-0.063 0.02,-0.133 0.03,-0.192 m -0.04,0.25 c -0.04,0.289 -0.08,0.571 -0.12,0.86 0.04,-0.289 0.08,-0.571 0.12,-0.86 m -0.12,0.891 c -0.01,0.059 -0.02,0.129 -0.03,0.199 0.01,-0.07 0.02,-0.14 0.03,-0.199 m -0.04,0.25 c -0.01,0.059 -0.02,0.129 -0.03,0.187 0.01,-0.066 0.02,-0.128 0.03,-0.187 m -0.03,0.238 c -0.03,0.192 -0.05,0.383 -0.08,0.571 0.03,-0.188 0.05,-0.379 0.08,-0.571 m -0.09,0.68 c -0.01,0.043 -0.01,0.082 -0.02,0.133 0,-0.043 0.01,-0.09 0.02,-0.133 m -0.04,0.269 c 0,0.043 -0.01,0.071 -0.01,0.114 0,-0.032 0.01,-0.082 0.01,-0.114 m -0.04,0.293 c 0,0.02 0,0.051 -0.01,0.071 0.01,-0.032 0.01,-0.043 0.01,-0.071 m -0.07,0.618 c -0.01,0 -0.01,0 -0.01,0.011 l 0.01,-0.011 m 870.7,44.171 c -0.01,0.161 -0.03,0.309 -0.05,0.469 0.02,-0.16 0.04,-0.308 0.05,-0.469 m -0.06,0.571 c -0.01,0.129 -0.02,0.25 -0.04,0.379 0.01,-0.121 0.03,-0.258 0.04,-0.379 m -0.05,0.48 c -0.01,0.141 -0.03,0.278 -0.04,0.41 0.01,-0.132 0.03,-0.269 0.04,-0.41 m -0.05,0.461 c -6.77,60.727 -40.86,129.458 -81.83,192.668 h 0.01 c 40.97,-63.21 75.05,-131.941 81.82,-192.668"
         id="path796" />
    </clipPath>
    <radialGradient
       fx="0"
       fy="0"
       cx="0"
       cy="0"
       r="1"
       gradientUnits="userSpaceOnUse"
       gradientTransform="matrix(2927.5,0,0,-2927.5,2510,2475)"
       spreadMethod="pad"
       id="radialGradient806">
      <stop
         style="stop-opacity:1;stop-color:#f2e8ca"
         offset="0"
         id="stop800" />
      <stop
         style="stop-opacity:1;stop-color:#f2e8ca"
         offset="0.696742"
         id="stop802" />
      <stop
         style="stop-opacity:1;stop-color:#e4d8bb"
         offset="1"
         id="stop804" />
    </radialGradient>
  </defs>
  <sodipodi:namedview
     inkscape:window-maximized="0"
     inkscape:window-y="0"
     inkscape:window-x="90"
     inkscape:window-height="729"
     inkscape:window-width="1260"
     showgrid="false"
     inkscape:document-rotation="0"
     inkscape:current-layer="layer1"
     inkscape:document-units="mm"
     inkscape:cy="175.16697"
     inkscape:cx="111.96532"
     inkscape:zoom="1.4"
     inkscape:pageshadow="2"
     inkscape:pageopacity="0.0"
     borderopacity="1.0"
     bordercolor="#666666"
     pagecolor="#ffffff"
     id="base" />
  <metadata
     id="metadata1817">
    <rdf:RDF>
      <cc:Work
         rdf:about="">
        <dc:format>image/svg+xml</dc:format>
        <dc:type
           rdf:resource="http://purl.org/dc/dcmitype/StillImage" />
        <dc:title></dc:title>
      </cc:Work>
    </rdf:RDF>
  </metadata>
  <g
     id="layer1"
     inkscape:groupmode="layer"
     inkscape:label="Capa 1">
    <g
       transform="matrix(0.0535891,0,0,-0.0535891,-99.308346,95.538194)"
       id="g730">
      <g
         id="g732"
         clip-path="url(#clipPath736)">
        <path
           d="m 2503.79,523.332 c -285.81,0 -517.5,51.488 -517.5,115 0,30.988 55.15,59.109 144.84,79.789 C 2183.78,648.789 2284.29,610 2463.91,610 c 29.71,0 61.58,1.059 95.76,3.219 189.36,11.961 296.7,41.89 351.16,96.133 69.2,-19.551 110.46,-44.211 110.46,-71.02 0,-63.512 -231.69,-115 -517.5,-115"
           style="fill:url(#radialGradient744);fill-opacity:1;fill-rule:nonzero;stroke:none"
           id="path746" />
      </g>
    </g>
    <path
       d="m 32.934539,38.750359 c 0,0 -27.6685837,2.084623 -29.5640301,-2.084076 -1.8949102,-4.169777 16.4877551,-6.82297 28.4268761,-7.391007 11.939653,-0.569117 29.381285,-0.763647 32.97552,3.600114 5.305853,6.443553 -31.838366,5.874969 -31.838366,5.874969"
       style="fill:#734b26;fill-opacity:1;fill-rule:nonzero;stroke:none;stroke-width:0.053589"
       id="path748" />
    <path
       d="m 21.942886,27.995558 c 0,0 -10.801951,14.592207 -9.475628,22.931366 1.326869,8.337929 7.391006,12.886514 25.394797,11.749406 C 55.86586,61.539662 60.03509,57.369779 59.087089,48.273671 58.139637,39.176926 45.631945,26.669235 45.631945,26.669235 l -23.689059,1.326323"
       style="fill:#efe2bd;fill-opacity:1;fill-rule:nonzero;stroke:none;stroke-width:0.053589"
       id="path750" />
    <path
       d="m 48.800661,37.893471 c -1.902943,0.322603 -3.726045,0.95871 -5.660614,1.972075 1.019807,-1.42225 2.310765,-2.651049 3.789829,-3.585652 0.132311,-0.08416 0.172019,-0.259365 0.08796,-0.392799 -0.08461,-0.133373 -0.26099,-0.172018 -0.392814,-0.08841 -1.839172,1.162887 -3.403987,2.759831 -4.534716,4.619906 -0.09858,0.05089 -0.161841,0.157556 -0.152726,0.274919 0.01216,0.156479 0.151602,0.271168 0.306531,0.260975 l 0.02309,-0.0011 5.16e-4,5.17e-4 0.0015,-5.17e-4 c 1.944749,-0.152195 3.922733,0.341896 5.568985,1.392129 0.04709,0.03053 0.09965,0.04451 0.152195,0.04451 0.09327,0 0.185948,-0.04603 0.240087,-0.131247 0.08461,-0.132462 0.04557,-0.3077 -0.08734,-0.392313 -1.419577,-0.906728 -3.072801,-1.414762 -4.750681,-1.491399 1.88473,-0.988711 3.656928,-1.607667 5.503604,-1.921157 0.153805,-0.02628 0.258301,-0.173628 0.232037,-0.327965 -0.02689,-0.155415 -0.176303,-0.255627 -0.327966,-0.232583"
       style="fill:#734b26;fill-opacity:1;fill-rule:nonzero;stroke:none;stroke-width:0.053589"
       id="path752" />
    <path
       d="m 21.801947,37.893471 c 1.902412,0.322603 3.726045,0.95871 5.660083,1.972075 -1.019806,-1.42225 -2.310233,-2.651049 -3.789298,-3.585652 -0.132917,-0.08416 -0.172018,-0.259365 -0.0884,-0.392799 0.08521,-0.133373 0.260989,-0.172018 0.392814,-0.08841 1.839172,1.162887 3.404519,2.759831 4.534716,4.619906 0.09858,0.05089 0.162372,0.157556 0.152726,0.274919 -0.01215,0.156479 -0.151603,0.271168 -0.305999,0.260975 l -0.02309,-0.0011 -0.0011,5.17e-4 -0.0015,-5.17e-4 c -1.944748,-0.152195 -3.922733,0.341896 -5.568453,1.392129 -0.04709,0.03053 -0.100255,0.04451 -0.152726,0.04451 -0.09328,0 -0.185417,-0.04603 -0.239542,-0.131247 -0.08461,-0.132462 -0.04557,-0.3077 0.08674,-0.392313 1.420109,-0.906728 3.073334,-1.414762 4.750666,-1.491399 -1.884183,-0.988711 -3.656912,-1.607667 -5.503057,-1.921157 -0.154337,-0.02628 -0.258833,-0.173628 -0.232584,-0.327965 0.02674,-0.155415 0.17685,-0.255627 0.328513,-0.232583"
       style="fill:#734b26;fill-opacity:1;fill-rule:nonzero;stroke:none;stroke-width:0.053589"
       id="path754" />
    <path
       d="m 35.921606,47.909811 c -2.646767,0 -4.79999,-2.050809 -4.79999,-4.571159 v -0.469967 h 9.599417 v 0.469967 c 0,2.52035 -2.153208,4.571159 -4.799427,4.571159"
       style="fill:#734b26;fill-opacity:1;fill-rule:nonzero;stroke:none;stroke-width:0.053589"
       id="path756" />
    <path
       d="m 35.921606,46.969315 c 1.250764,0 2.359527,-0.565851 3.064751,-1.436242 -0.647895,-0.597037 -1.777013,-0.992843 -3.064751,-0.992843 -1.288286,0 -2.41795,0.395806 -3.065845,0.992843 0.70577,0.870391 1.815064,1.436242 3.065845,1.436242"
       style="fill:#f6b3ac;fill-opacity:1;fill-rule:nonzero;stroke:none;stroke-width:0.053589"
       id="path758" />
    <path
       d="m 29.463043,45.506929 c 0,0.800455 -1.631258,1.44958 -3.643528,1.44958 -2.012802,0 -3.64406,-0.649125 -3.64406,-1.44958 0,-0.800727 1.631258,-1.44964 3.64406,-1.44964 2.01227,0 3.643528,0.648913 3.643528,1.44964"
       style="fill:#f6b3ac;fill-opacity:1;fill-rule:nonzero;stroke:none;stroke-width:0.053589"
       id="path760" />
    <path
       d="m 48.897121,45.506929 c 0,0.800455 -1.631775,1.44958 -3.64406,1.44958 -2.012802,0 -3.644045,-0.649125 -3.644045,-1.44958 0,-0.800727 1.631243,-1.44964 3.644045,-1.44964 2.012285,0 3.64406,0.648913 3.64406,1.44964"
       style="fill:#f6b3ac;fill-opacity:1;fill-rule:nonzero;stroke:none;stroke-width:0.053589"
       id="path762" />
    <path
       d="m 64.765401,35.146493 0.0076,0.0031 0.04815,-0.06213 -0.05575,0.05848"
       style="fill:#ab937d;fill-opacity:1;fill-rule:nonzero;stroke:none;stroke-width:0.053589"
       id="path764" />
    <g
       transform="matrix(0.0535891,0,0,-0.0535891,-99.308346,95.538194)"
       id="g766">
      <g
         id="g768"
         clip-path="url(#clipPath772)">
        <path
           d="m 1917.17,1096.41 v 0 m -0.06,0.11 c 0,0 0,0 0,0.01 0,-0.01 0,0 0,-0.01 m -0.06,0.11 -0.01,0.01 c 0,0 0,0 0.01,-0.01 m -0.06,0.11 c -0.01,0.01 -0.01,0.01 -0.01,0.02 0,-0.01 0,-0.02 0.01,-0.02 m -0.06,0.11 c -0.01,0 -0.01,0.01 -0.02,0.02 0,0 0.01,-0.02 0.02,-0.02 m -0.07,0.1 c 0,0.02 -0.01,0.03 -0.01,0.04 0.01,-0.02 0.01,-0.02 0.01,-0.04 m -0.05,0.11 c -0.01,0.01 -0.02,0.03 -0.03,0.04 0.01,-0.01 0.02,-0.02 0.03,-0.04 m -0.06,0.11 c -0.01,0.02 -0.02,0.03 -0.03,0.04 0.01,-0.01 0.02,-0.02 0.03,-0.04 m -0.06,0.11 c -0.01,0.02 -0.02,0.03 -0.03,0.05 0.01,-0.02 0.02,-0.03 0.03,-0.05 m -0.06,0.11 c -0.01,0.02 -0.02,0.04 -0.03,0.05 0.01,-0.01 0.02,-0.03 0.03,-0.05 m -0.06,0.12 c -0.01,0.01 -0.02,0.03 -0.03,0.05 0.01,-0.02 0.02,-0.04 0.03,-0.05 m -0.06,0.11 c -0.01,0.01 -0.02,0.03 -0.03,0.05 0.01,-0.01 0.03,-0.04 0.03,-0.05 m -0.05,0.1 c -0.01,0.02 -0.02,0.04 -0.03,0.06 0.01,-0.02 0.02,-0.03 0.03,-0.06 m -0.06,0.11 c -0.01,0.02 -0.02,0.05 -0.03,0.07 0.01,-0.02 0.02,-0.04 0.03,-0.07 m -0.05,0.12 c -0.01,0.02 -0.02,0.04 -0.04,0.06 0.02,-0.02 0.02,-0.04 0.04,-0.06 m -0.06,0.11 c -0.01,0.02 -0.02,0.04 -0.03,0.07 0.01,-0.03 0.02,-0.05 0.03,-0.07 m -0.05,0.1 c -0.01,0.03 -0.02,0.05 -0.04,0.08 0.02,-0.03 0.03,-0.05 0.04,-0.08 m -0.05,0.1 c -0.01,0.03 -0.03,0.06 -0.04,0.1 0.02,-0.04 0.03,-0.07 0.04,-0.1 m -0.06,0.13 c -0.01,0.03 -0.02,0.05 -0.03,0.08 0.01,-0.02 0.02,-0.05 0.03,-0.08"
           style="fill:url(#radialGradient780);fill-opacity:1;fill-rule:nonzero;stroke:none"
           id="path782" />
      </g>
    </g>
    <path
       d="M 8.941091,38.76965 C 6.1126632,38.396129 4.0135791,37.774499 3.4310647,36.782566 v 0 c -0.00107,-0.0015 -0.00213,-0.0031 -0.00319,-0.0061 0,-5.17e-4 0,0 0,-5.17e-4 -0.00107,-0.0015 -0.00213,-0.0031 -0.00319,-0.0046 -5.347e-4,-5.32e-4 -5.347e-4,-5.32e-4 -5.347e-4,-5.32e-4 -0.00107,-0.0015 -0.00213,-0.0031 -0.00273,-0.0046 -5.332e-4,0 -5.332e-4,-5.16e-4 -5.332e-4,-0.0011 -0.00107,-0.0015 -0.00213,-0.0031 -0.00273,-0.0046 -5.347e-4,0 -0.00107,-0.0011 -0.00107,-0.0011 -5.347e-4,-0.0015 -0.00167,-0.0031 -0.00273,-0.0046 0,-0.0011 0,-0.0011 -5.347e-4,-0.0015 -0.00107,-0.0011 -0.00167,-0.0031 -0.00213,-0.0031 -5.347e-4,-0.0011 -0.00107,-0.0015 -0.00167,-0.0015 -5.347e-4,-0.0011 -0.00107,-0.0031 -0.00167,-0.0031 -5.347e-4,-0.0011 -0.00107,-0.0015 -0.00167,-0.0015 -5.347e-4,-0.0015 -0.00107,-0.0031 -0.00167,-0.0031 -5.347e-4,-0.0011 -0.00107,-0.0015 -0.00167,-0.0031 -5.347e-4,-0.0011 -0.00107,-0.0015 -0.00167,-0.0031 -5.347e-4,-0.0011 -0.00107,-0.0015 -0.00167,-0.0031 -5.347e-4,-0.0011 -0.00107,-0.0015 -0.00167,-0.0031 -5.347e-4,-5.15e-4 -0.00107,-0.0015 -0.00167,-0.0031 -5.347e-4,-0.0011 -0.00107,-0.0015 -0.00167,-0.0031 0,-5.17e-4 -0.00107,-0.0015 -0.00167,-0.0031 0,-0.0011 -5.347e-4,-0.0015 -0.00107,-0.0031 -5.347e-4,-0.0015 -0.00107,-0.0015 -0.00167,-0.0031 -5.347e-4,-0.0011 -0.00107,-0.0015 -0.00167,-0.0031 -5.347e-4,-0.0015 -0.00107,-0.0031 -0.00167,-0.0031 -5.347e-4,-5.17e-4 -0.00107,-0.0015 -0.00107,-0.0031 -0.00107,-0.0011 -0.00107,-0.0015 -0.00213,-0.0031 0,-0.0011 -5.347e-4,-0.0015 -0.00107,-0.0031 -5.347e-4,-0.0011 -0.00107,-0.0015 -0.00167,-0.0031 -5.347e-4,-5.16e-4 -5.347e-4,-0.0011 -0.00107,-0.0015 -5.332e-4,-0.0015 -0.00107,-0.0031 -0.00213,-0.0046 0,-5.17e-4 0,-5.17e-4 -5.332e-4,-0.0011 -5.347e-4,-0.0015 -0.00107,-0.0031 -0.00213,-0.0061 -5.347e-4,-5.32e-4 -5.347e-4,-0.0011 -0.00107,-0.0015 -5.347e-4,-0.0015 -0.00107,-0.0031 -0.00167,-0.0046 -0.00107,-0.0015 -0.00213,-0.0046 -0.00319,-0.0061 v 0 c -0.091133,-0.201488 -0.1356112,-0.399772 -0.1356112,-0.594302 0,-0.02568 0.00107,-0.05149 0.00273,-0.07717 1.3199,-2.64783 8.9536713,-4.547567 17.0858123,-5.660614 -0.742745,1.118941 -1.669844,2.577102 -2.626942,4.232469 -4.131178,1.412605 -7.053396,3.07654 -8.7553823,4.202984"
       style="fill:#643f1f;fill-opacity:1;fill-rule:nonzero;stroke:none;stroke-width:0.053589"
       id="path784" />
    <path
       d="m 60.871606,36.83508 c -0.90779,-0.725594 -1.94581,-1.380447 -3.110839,-1.874536 -2.027809,-0.860107 -3.948982,-1.693966 -6.846545,-2.297914 -1.108763,-1.388483 -2.162322,-2.611388 -3.032076,-3.584027 3.852521,0.162904 7.493907,0.538037 10.590818,1.250764 2.776448,0.639312 6.734013,2.56852 6.553944,4.520772 -0.06532,0.0916 -0.142033,0.181664 -0.230427,0.269557 l 0.02461,-0.03159 -0.05575,0.05833 0.0031,0.0011 c -0.70685,0.682726 -2.088906,1.23685 -3.896467,1.687524"
       style="fill:#643f1f;fill-opacity:1;fill-rule:nonzero;stroke:none;stroke-width:0.053589"
       id="path786" />
    <path
       d="m 17.696488,34.566652 c 0.9571,-1.655367 1.884182,-3.113529 2.626927,-4.232469 3.909334,-0.535348 7.933327,-0.889031 11.426271,-1.056766 0.0015,0 0.0031,0 0.0046,-5.31e-4 0.0031,0 0.0076,0 0.01064,0 0.0031,-5.17e-4 0.0091,-5.17e-4 0.01215,-0.0011 0.0015,0 0.0031,0 0.0046,0 0.0061,0 0.01064,-5.32e-4 0.01656,-5.32e-4 v 0 c 0.03159,-0.0015 0.06274,-0.0031 0.09433,-0.0046 3.438821,-0.162903 7.327769,-0.293665 11.208165,-0.293665 0.03372,0 0.06745,0 0.101318,0 1.507455,0.0061 3.004733,0.03372 4.471462,0.09328 0.734709,1.016586 1.526231,2.169826 2.309171,3.412555 -2.580323,-0.45979 -5.907674,-0.747561 -10.602074,-0.747561 -2.155882,0 -4.600629,0.06061 -7.392618,0.193453 -5.760826,0.273309 -10.527579,1.351508 -14.290597,2.638184"
       style="fill:#cfbd9a;fill-opacity:1;fill-rule:nonzero;stroke:none;stroke-width:0.053589"
       id="path788" />
    <path
       d="m 64.768075,35.147555 -0.0031,-0.0011 0.05575,-0.05833 -0.02461,0.03159 c -0.0091,0.0091 -0.01884,0.01884 -0.0284,0.02779"
       style="fill:#947b66;fill-opacity:1;fill-rule:nonzero;stroke:none;stroke-width:0.053589"
       id="path790" />
    <g
       transform="matrix(0.0535891,0,0,-0.0535891,-99.308346,95.538194)"
       id="g792">
      <g
         id="g794"
         clip-path="url(#clipPath798)">
        <path
           d="m 2085.75,832.719 c 0,0.043 -0.01,0.07 -0.02,0.113 0.01,-0.043 0.01,-0.07 0.02,-0.113 m -0.04,0.25 c -0.01,0.051 -0.01,0.09 -0.02,0.133 0.01,-0.032 0.02,-0.09 0.02,-0.133 m -0.04,0.242 c 0,0.051 -0.01,0.109 -0.02,0.16 0.01,-0.051 0.02,-0.109 0.02,-0.16 m -0.03,0.23 c -0.03,0.2 -0.06,0.399 -0.09,0.598 0.03,-0.199 0.06,-0.398 0.09,-0.598 m -0.1,0.641 c -0.01,0.059 -0.02,0.129 -0.03,0.188 0.01,-0.059 0.02,-0.122 0.03,-0.188 m -0.03,0.238 c -0.01,0.071 -0.02,0.129 -0.03,0.192 0.01,-0.063 0.02,-0.133 0.03,-0.192 m -0.04,0.25 c -0.04,0.289 -0.08,0.571 -0.12,0.86 0.04,-0.289 0.08,-0.571 0.12,-0.86 m -0.12,0.891 c -0.01,0.059 -0.02,0.129 -0.03,0.199 0.01,-0.07 0.02,-0.14 0.03,-0.199 m -0.04,0.25 c -0.01,0.059 -0.02,0.129 -0.03,0.187 0.01,-0.066 0.02,-0.128 0.03,-0.187 m -0.03,0.238 c -0.03,0.192 -0.05,0.383 -0.08,0.571 0.03,-0.188 0.05,-0.379 0.08,-0.571 m -0.09,0.68 c -0.01,0.043 -0.01,0.082 -0.02,0.133 0,-0.043 0.01,-0.09 0.02,-0.133 m -0.04,0.269 c 0,0.043 -0.01,0.071 -0.01,0.114 0,-0.032 0.01,-0.082 0.01,-0.114 m -0.04,0.293 c 0,0.02 0,0.051 -0.01,0.071 0.01,-0.032 0.01,-0.043 0.01,-0.071 m -0.07,0.618 c -0.01,0 -0.01,0 -0.01,0.011 l 0.01,-0.011 m 870.7,44.171 c -0.01,0.161 -0.03,0.309 -0.05,0.469 0.02,-0.16 0.04,-0.308 0.05,-0.469 m -0.06,0.571 c -0.01,0.129 -0.02,0.25 -0.04,0.379 0.01,-0.121 0.03,-0.258 0.04,-0.379 m -0.05,0.48 c -0.01,0.141 -0.03,0.278 -0.04,0.41 0.01,-0.132 0.03,-0.269 0.04,-0.41 m -0.05,0.461 c -6.77,60.727 -40.86,129.458 -81.83,192.668 h 0.01 c 40.97,-63.21 75.05,-131.941 81.82,-192.668"
           style="fill:url(#radialGradient806);fill-opacity:1;fill-rule:nonzero;stroke:none"
           id="path808" />
      </g>
    </g>
    <path
       d="M 54.693327,37.867738 C 53.484352,36.002847 52.163924,34.227445 50.91369,32.66263 h 3.96e-4 c 1.2497,1.564815 2.570676,3.340217 3.779636,5.205108 h -3.95e-4"
       style="fill:#6d441e;fill-opacity:1;fill-rule:nonzero;stroke:none;stroke-width:0.053589"
       id="path810" />
    <path
       d="m 32.730362,62.848835 c -14.056419,0 -19.07128,-4.432408 -20.263104,-11.921911 v 0 c -5.17e-4,-0.0046 -0.0015,-0.0091 -0.0015,-0.01367 -5.17e-4,-0.0031 -5.17e-4,-0.0031 -0.0011,-0.0061 0,-0.0031 -5.32e-4,-0.0046 -0.0011,-0.0076 0,-0.0031 -5.17e-4,-0.0061 -0.0011,-0.0076 0,-0.0015 -5.32e-4,-0.0046 -0.0011,-0.0061 0,-0.0031 -5.17e-4,-0.0061 -0.0011,-0.0091 0,-0.0012 -5.17e-4,-0.0015 -5.17e-4,-0.0031 -0.0015,-0.01064 -0.003,-0.02142 -0.0045,-0.03205 0,-8.05e-4 0,-0.0015 -5.32e-4,-0.0031 -5.16e-4,-0.0031 -0.0011,-0.0076 -0.0015,-0.01064 0,-0.0012 0,-0.0015 0,-0.0031 -5.16e-4,-0.0031 -0.0011,-0.0076 -0.0015,-0.01064 0,-0.0012 -5.16e-4,-0.0015 -5.16e-4,-0.0031 -0.0015,-0.0155 -0.0046,-0.03053 -0.0061,-0.04603 0,-3.94e-4 0,-0.0012 0,-0.0015 -5.32e-4,-0.0031 -0.0011,-0.0076 -0.0015,-0.01064 -5.32e-4,-0.0012 -5.32e-4,-0.0015 -5.32e-4,-0.0031 -5.16e-4,-0.0031 -0.0011,-0.0061 -0.0015,-0.01064 0,-0.0012 0,-0.0015 0,-0.0031 -0.0015,-0.01064 -0.003,-0.02051 -0.0046,-0.03053 0,-0.0015 -5.16e-4,-0.0031 -5.16e-4,-0.0061 -5.17e-4,-0.0031 -0.0011,-0.0046 -0.0011,-0.0076 -5.17e-4,-0.0031 -5.17e-4,-0.0046 -0.0011,-0.0076 0,-0.0015 -5.17e-4,-0.0046 -5.17e-4,-0.0061 -5.31e-4,-0.0031 -0.0011,-0.0061 -0.0015,-0.0091 0,-0.0015 0,-0.0015 -5.31e-4,-0.0031 -0.0011,-0.01064 -0.0015,-0.01959 -0.003,-0.02932 l -5.17e-4,-3.95e-4 c -0.309752,-2.495058 0.411027,-5.512171 1.572304,-8.519016 -0.609842,3.137697 -0.923878,8.273034 2.258783,12.027379 3.507405,4.136662 10.544182,5.831189 17.507558,5.831189 4.041143,-8.05e-4 8.059257,-0.571258 11.345336,-1.567048 9.380779,-2.842953 9.949896,-7.10474 9.949896,-12.365689 0,-4.367984 -2.489756,-9.454666 -5.078647,-13.56441 0.322071,0.05727 0.631823,0.117423 0.931914,0.180053 1.250232,1.564801 2.570677,3.340204 3.779651,5.205109 2.195545,3.38737 4.022399,7.070606 4.385196,10.324907 0,8.05e-4 0,0.0015 3.95e-4,0.0031 4.1e-4,0.0076 0.0015,0.01519 0.0015,0.02203 4.1e-4,0.0015 4.1e-4,0.0031 4.1e-4,0.0061 0.0012,0.0076 0.0015,0.01367 0.0015,0.02036 3.94e-4,0.0015 3.94e-4,0.0031 3.94e-4,0.0061 0.0012,0.0091 0.0015,0.01656 0.0031,0.02506 v 0 c 0.08203,0.786205 0.12593,1.535224 0.125323,2.249031 -0.0015,7.545389 -4.902861,11.114909 -21.350434,12.153628 -1.831669,0.115752 -3.53955,0.172504 -5.131692,0.172504"
       style="fill:#e3ce96;fill-opacity:1;fill-rule:nonzero;stroke:none;stroke-width:0.053589"
       id="path812" />
    <path
       d="m 50.914222,32.66263 h -3.95e-4 c -1.108762,-1.388483 -2.161791,-2.611388 -3.031544,-3.584027 v 0 c 0.869753,0.972639 1.923314,2.195544 3.032076,3.584027"
       style="fill:#5f3919;fill-opacity:1;fill-rule:nonzero;stroke:none;stroke-width:0.053589"
       id="path814" />
    <path
       d="m 50.91369,32.66263 c -0.300105,-0.06274 -0.609842,-0.12274 -0.931913,-0.180054 -0.78294,-1.242729 -1.574462,-2.39597 -2.309155,-3.412556 0.07018,0.0031 0.139298,0.0061 0.209524,0.0091 0.869754,0.972639 1.922781,2.195544 3.031544,3.584042"
       style="fill:#c4ac7a;fill-opacity:1;fill-rule:nonzero;stroke:none;stroke-width:0.053589"
       id="path816" />
    <path
       d="m 31.797385,29.275276 c 8.990639,-0.428178 19.355846,-0.630745 26.675579,1.054091 2.778591,0.639859 6.741502,2.572272 6.553412,4.526134 C 66.716574,32.594576 68.114718,27.752265 64.58319,19.609946 59.465974,7.8128425 44.305076,-1.9945042 23.458924,4.6382175 5.3136509,10.41191 1.8298224,32.222664 3.2354643,35.999096 5.1828931,32.069938 21.03347,29.787579 31.797385,29.275276"
       style="fill:#ab937d;fill-opacity:1;fill-rule:nonzero;stroke:none;stroke-width:0.053589"
       id="path818" />
    <path
       d="m 19.149288,18.015129 c -0.788834,0 -1.562126,-0.197751 -2.261472,-0.673081 -2.459193,-1.706817 -1.719668,-4.429673 0.14583,-6.283322 1.668232,-1.6580394 4.144575,-2.6301473 6.50626,-2.6301473 0.0755,0 0.151602,0.00107 0.227206,0.00304 1.0257,0.027343 1.829541,0.3504626 2.360605,0.8799309 0.793649,0.7893644 0.978534,2.0379874 0.385841,3.4420254 -0.537504,1.272745 -1.483879,2.379898 -2.54066,3.252857 -1.272744,1.051417 -3.086199,2.008518 -4.82355,2.008518"
       style="fill:#c9b595;fill-opacity:1;fill-rule:nonzero;stroke:none;stroke-width:0.053589"
       id="path820" />
    <path
       d="m 16.38408,24.158045 c -0.381011,0 -0.751312,-0.101775 -1.068552,-0.35423 -0.964073,-0.782392 -0.573415,-1.886324 0.256143,-2.594784 0.67255,-0.57501 1.602853,-0.896003 2.498324,-0.896003 0.123803,0 0.247045,0.0061 0.369238,0.01868 0.423346,0.04344 0.745419,0.202035 0.949063,0.437823 0.303843,0.351542 0.341364,0.873506 0.05195,1.435651 -0.261521,0.509629 -0.687557,0.938353 -1.152177,1.26685 -0.519807,0.367082 -1.229862,0.685932 -1.904021,0.685932"
       style="fill:#c9b595;fill-opacity:1;fill-rule:nonzero;stroke:none;stroke-width:0.053589"
       id="path822" />
  </g>
</svg>
