<?xml version="1.0" encoding="UTF-8" standalone="no"?>
<svg
   xmlns:dc="http://purl.org/dc/elements/1.1/"
   xmlns:cc="http://creativecommons.org/ns#"
   xmlns:rdf="http://www.w3.org/1999/02/22-rdf-syntax-ns#"
   xmlns:svg="http://www.w3.org/2000/svg"
   xmlns="http://www.w3.org/2000/svg"
   xmlns:sodipodi="http://sodipodi.sourceforge.net/DTD/sodipodi-0.dtd"
   xmlns:inkscape="http://www.inkscape.org/namespaces/inkscape"
   sodipodi:docname="ajo.svg"
   inkscape:version="1.0 (4035a4fb49, 2020-05-01)"
   id="svg1410"
   version="1.1"
   viewBox="0 0 400 400"
   height="400mm"
   width="400mm">
  <defs
     id="defs1404" />
  <sodipodi:namedview
     inkscape:window-maximized="0"
     inkscape:window-y="0"
     inkscape:window-x="90"
     inkscape:window-height="729"
     inkscape:window-width="1260"
     showgrid="false"
     inkscape:document-rotation="0"
     inkscape:current-layer="layer1"
     inkscape:document-units="mm"
     inkscape:cy="674.28571"
     inkscape:cx="400"
     inkscape:zoom="0.35"
     inkscape:pageshadow="2"
     inkscape:pageopacity="0.0"
     borderopacity="1.0"
     bordercolor="#666666"
     pagecolor="#ffffff"
     id="base" />
  <metadata
     id="metadata1407">
    <rdf:RDF>
      <cc:Work
         rdf:about="">
        <dc:format>image/svg+xml</dc:format>
        <dc:type
           rdf:resource="http://purl.org/dc/dcmitype/StillImage" />
        <dc:title></dc:title>
      </cc:Work>
    </rdf:RDF>
  </metadata>
  <g
     id="layer1"
     inkscape:groupmode="layer"
     inkscape:label="Capa 1">
    <path
       d="m 94.177726,375 c -13.990837,0 -28.246677,-1.83523 -43.025133,-6.39671 -58.4031148,-18.02762 52.312567,-83.63854 127.165667,-102.20916 14.93988,-3.70493 29.61083,-5.18847 43.51704,-5.18847 55.76325,0 99.28801,23.8394 99.28801,23.8394 20.84199,0.79877 74.80311,30.7637 43.0674,45.32343 -31.73962,14.55603 -92.99771,8.72519 -146.52837,19.75209 C 174.41805,359.02937 135.45836,375 94.177726,375"
       style="fill:#525e20;fill-opacity:1;fill-rule:nonzero;stroke:none;stroke-width:0.3833"
       id="path1318" />
    <path
       d="m 79.987127,207.15314 c 0,0 0.864846,42.75033 72.036563,29.21135 71.15648,-13.53128 79.10296,-40.63969 75.81752,-54.6031 -3.28916,-13.9518 22.85944,14.54076 15.97737,34.65224 -6.88971,20.12297 -81.47377,52.27072 -135.33882,35.40539 C 54.622335,234.95368 79.987127,207.15314 79.987127,207.15314"
       style="fill:#7c341e;fill-opacity:1;fill-rule:nonzero;stroke:none;stroke-width:0.3833"
       id="path1320" />
    <path
       d="m 106.66216,38.836005 c -2.4438,-7.27233 15.73535,-7.65459 19.84687,-12.60982 4.12305,-4.95143 10.97824,5.89956 22.34065,18.09645 11.36242,12.20078 17.38379,18.23799 19.03604,44.13447 1.64463,25.900165 15.45869,44.038785 38.65231,50.672525 23.19375,6.62995 41.7917,35.98274 44.89655,53.84605 3.09712,17.85942 1.31035,28.08342 -12.83037,32.62962 -14.1406,4.54988 -20.28865,-2.17566 -20.28865,-2.17566 0,0 2.08653,28.41615 -26.38301,32.35811 -28.46964,3.95345 -39.70528,-3.42585 -39.70528,-3.42585 0,0 -10.69384,20.34093 -36.07399,13.38226 -25.383974,-6.97027 -25.579927,-20.37539 -25.579927,-20.37539 0,0 -26.736465,-2.48141 -27.247523,-29.99138 -0.503229,-27.50227 47.25963,-55.52066 53.66136,-84.2159 6.394,-28.69134 -0.0109,-61.554185 -10.32503,-92.325485"
       style="fill:#e6de9a;fill-opacity:1;fill-rule:nonzero;stroke:none;stroke-width:0.3833"
       id="path1322" />
    <path
       d="m 144.84578,168.83423 c 0.4956,-1.93462 1.74833,3.68965 2.60522,12.47217 -2.01355,-6.17485 -2.99723,-10.91981 -2.60522,-12.47217"
       style="fill:#e6de9a;fill-opacity:1;fill-rule:nonzero;stroke:none;stroke-width:0.3833"
       id="path1324" />
    <path
       d="m 105.49789,196.10706 c 0,0 -4.40354,36.13957 23.74706,42.63566 19.9852,4.6264 20.30794,-35.9254 18.20605,-57.43632 6.58614,20.21857 24.32338,55.91843 41.74562,46.42091 22.73638,-12.39577 -0.84197,-45.84735 -11.5392,-62.40683 -10.69776,-16.55568 2.2863,-3.22317 18.5057,-8.13635 8.08481,-2.44325 3.94639,-13.17579 -2.2363,-23.32328 3.82712,2.18325 8.02709,3.95346 12.61121,5.26878 23.19375,6.62995 41.7917,35.98274 44.89655,53.84605 3.09712,17.85942 1.31035,28.08342 -12.83037,32.62962 -14.1406,4.54988 -20.28865,-2.17566 -20.28865,-2.17566 0,0 2.08653,28.41615 -26.38301,32.35811 -28.46964,3.95345 -39.70528,-3.42585 -39.70528,-3.42585 0,0 -10.69384,20.34093 -36.07399,13.38226 -25.383974,-6.97027 -25.579927,-20.37539 -25.579927,-20.37539 0,0 -2.839623,-0.28722 -6.662931,-1.58292 3.243077,-22.37114 21.587468,-47.67879 21.587468,-47.67879"
       style="fill:#d1ba9e;fill-opacity:1;fill-rule:nonzero;stroke:none;stroke-width:0.3833"
       id="path1326" />
    <path
       d="m 117.5904,46.509675 c 0,0 19.27045,76.263145 1.56392,101.253345 -17.71034,24.98651 -45.434408,31.16136 -45.015598,54.08699 0.415001,22.92172 12.914901,12.99598 22.786374,-3.9114 9.863964,-16.91508 22.121724,-28.20969 25.979674,-38.78539 3.85402,-10.56433 0.5762,19.71762 -0.6688,33.02336 -1.25654,13.29805 17.73344,28.40467 20.17734,3.60934 2.43998,-24.8067 -0.59145,-39.68387 9.48338,-21.8741 10.07527,17.80598 39.22493,38.26537 32.77331,17.44269 C 178.20672,170.53182 149.44898,148.2295 143.92342,118.39873 138.39394,88.575575 115.09651,13.685085 117.5903,46.509675"
       style="fill:#fcf9e2;fill-opacity:1;fill-rule:nonzero;stroke:none;stroke-width:0.3833"
       id="path1328" />
    <path
       d="m 69.458518,233.97868 c 22.874818,18.5859 46.579512,24.64998 65.800072,20.97171 22.07936,-4.22484 19.94283,-28.41983 18.39046,-37.24062 1.18736,5.23052 4.01937,15.84828 8.91469,24.05345 6.76293,11.30609 41.15777,5.13113 46.91391,-15.49267 4.63795,-16.62072 -16.49617,-48.03819 -24.8729,-59.60808 7.54293,9.99456 26.09861,33.83395 35.12103,38.74334 11.48158,6.25906 29.03442,1.38414 18.84391,-20.47468 -10.19051,-21.86651 -34.33331,-42.66243 -34.33331,-42.66243 -2.10189,-2.20612 -3.6658,-4.0873 -4.79936,-5.69699 2.25939,0.97869 4.61496,1.85062 7.10101,2.55792 23.19375,6.62995 41.7917,35.98274 44.89655,53.84605 3.09712,17.85942 -5.85994,59.21422 -20.00818,63.768 -14.14071,4.54988 -20.78828,5.154 -20.78828,5.154 0,0 0.59907,14.44896 -27.87787,18.39482 -28.46562,3.94955 -35.27853,-9.34459 -35.27853,-9.34459 0,0 -13.06859,14.59039 -37.0884,3.86935 -21.737339,-9.6925 -38.683039,-36.29629 -40.934802,-40.83858"
       style="fill:#c8a27f;fill-opacity:1;fill-rule:nonzero;stroke:none;stroke-width:0.3833"
       id="path1330" />
    <path
       d="m 153.64905,217.70977 c -0.45748,-1.98436 -0.67641,-3.21558 -0.67641,-3.21558 0,0 0.31914,1.21593 0.67641,3.21558"
       style="fill:#fcf9e2;fill-opacity:1;fill-rule:nonzero;stroke:none;stroke-width:0.3833"
       id="path1332" />
    <path
       d="m 358.33469,259.55771 c 0,0 -0.86485,42.75033 -72.03657,29.21136 -71.15658,-13.53129 -79.10295,-40.6397 -75.81762,-54.60311 3.28926,-13.9518 -22.85934,14.54455 -15.97737,34.65224 6.88971,20.12298 81.4777,52.27072 135.33892,35.40539 53.85732,-16.86913 28.49264,-44.66588 28.49264,-44.66588"
       style="fill:#7c341e;fill-opacity:1;fill-rule:nonzero;stroke:none;stroke-width:0.3833"
       id="path1346" />
    <path
       d="m 331.65955,91.244375 c 2.44391,-7.27992 -15.73143,-7.66229 -19.84676,-12.61362 -4.11924,-4.95143 -10.97824,5.89956 -22.34065,18.09645 -11.36253,12.200775 -17.37998,18.237985 -19.03615,44.134485 -1.64452,25.89637 -15.45857,44.04267 -38.65231,50.67251 -23.19364,6.62995 -41.7917,35.98274 -44.89263,53.84606 -3.09712,17.85952 -1.31416,28.08341 12.82644,32.62571 14.14453,4.55378 20.28877,-2.17165 20.28877,-2.17165 0,0 -2.08653,28.41983 26.38682,32.358 28.46954,3.95356 39.70527,-3.42574 39.70527,-3.42574 0,0 10.68993,20.34082 36.074,13.38215 25.38005,-6.97026 25.576,-20.37528 25.576,-20.37528 0,0 26.73657,-2.48152 27.24764,-29.99138 0.50758,-27.50227 -47.25963,-55.52077 -53.66137,-84.21601 -6.39399,-28.69513 0.0109,-61.55419 10.32493,-92.321685"
       style="fill:#e6de9a;fill-opacity:1;fill-rule:nonzero;stroke:none;stroke-width:0.3833"
       id="path1348" />
    <path
       d="m 293.47604,221.23501 c -0.49233,-1.92704 -1.74833,3.69344 -2.60522,12.47597 2.01736,-6.17486 2.99712,-10.91982 2.60522,-12.47597"
       style="fill:#e6de9a;fill-opacity:1;fill-rule:nonzero;stroke:none;stroke-width:0.3833"
       id="path1350" />
    <path
       d="m 332.82775,248.51174 c 0,0 4.39972,36.13946 -23.75088,42.63555 -19.9852,4.6264 -20.30794,-35.9254 -18.20605,-57.43631 -6.58614,20.21856 -24.32349,55.91842 -41.74562,46.4209 -22.73649,-12.39576 0.84197,-45.84735 11.53919,-62.40683 10.69766,-16.55568 -2.2863,-3.22317 -18.5058,-8.13255 -8.0847,-2.44705 -3.94247,-13.17948 2.24022,-23.32707 -3.83104,2.18324 -8.0309,3.95735 -12.61513,5.26877 -23.19364,6.62995 -41.7917,35.98274 -44.89263,53.84606 -3.09712,17.85952 -1.31416,28.08341 12.82644,32.62571 14.14453,4.55378 20.28877,-2.17165 20.28877,-2.17165 0,0 -2.08653,28.41983 26.38682,32.358 28.46954,3.95356 39.70527,-3.42574 39.70527,-3.42574 0,0 10.68993,20.34082 36.074,13.38215 25.38005,-6.97026 25.576,-20.37528 25.576,-20.37528 0,0 2.83974,-0.28722 6.66304,-1.58292 -3.23926,-22.37125 -21.58364,-47.67879 -21.58364,-47.67879"
       style="fill:#d1ba9e;fill-opacity:1;fill-rule:nonzero;stroke:none;stroke-width:0.3833"
       id="path1352" />
    <path
       d="m 320.73523,98.914245 c 0,0 -19.27045,76.263155 -1.56784,101.253345 17.71034,24.98651 45.43833,31.16136 45.0156,54.08699 -0.415,22.92172 -12.91479,12.99598 -22.78256,-3.9114 -9.86767,-16.91508 -22.12543,-28.20969 -25.98338,-38.78539 -3.85402,-10.56433 -0.5762,19.71383 0.67206,33.02336 1.25272,13.29805 -17.73343,28.40467 -20.18115,3.60934 -2.43998,-24.80291 0.59581,-39.67997 -9.48338,-21.8741 -10.07527,17.80598 -39.22492,38.26917 -32.77319,17.44269 6.46316,-20.82258 35.22472,-43.12501 40.75027,-72.95197 5.52568,-29.82696 28.82692,-104.717345 26.33312,-71.892865"
       style="fill:#fcf9e2;fill-opacity:1;fill-rule:nonzero;stroke:none;stroke-width:0.3833"
       id="path1354" />
    <path
       d="m 368.86711,286.38325 c -22.87863,18.5859 -46.57951,24.64998 -65.80388,20.97182 -22.07936,-4.22115 -19.93902,-28.41994 -18.39046,-37.24073 -1.18737,5.23052 -4.01937,15.84828 -8.9148,24.05356 -6.76293,11.30598 -41.15766,5.13493 -46.90999,-15.49278 -4.63795,-16.62061 16.49225,-48.03818 24.86909,-59.60418 -7.54293,9.99077 -26.09872,33.83016 -35.11722,38.73944 -11.48539,6.25906 -29.03823,1.38415 -18.84772,-20.47467 10.19432,-21.86652 34.33331,-42.66244 34.33331,-42.66244 2.10188,-2.20232 3.66961,-4.0873 4.79936,-5.69699 -2.2595,0.97869 -4.61115,1.85062 -7.10112,2.55792 -23.19364,6.62995 -41.7917,35.98274 -44.89263,53.84606 -3.09712,17.85952 5.85994,59.21421 20.00436,63.76799 14.14061,4.55378 20.78829,5.154 20.78829,5.154 0,0 -0.59581,14.45275 27.87776,18.39483 28.46573,3.94575 35.27853,-9.3485 35.27853,-9.3485 0,0 13.06859,14.5943 37.08851,3.87704 21.73733,-9.6925 38.68303,-36.30008 40.93861,-40.84237"
       style="fill:#c8a27f;fill-opacity:1;fill-rule:nonzero;stroke:none;stroke-width:0.3833"
       id="path1356" />
    <path
       d="m 284.67277,270.11434 c 0.45748,-1.98816 0.67641,-3.21558 0.67641,-3.21558 0,0 -0.31914,1.21973 -0.67641,3.21558"
       style="fill:#fcf9e2;fill-opacity:1;fill-rule:nonzero;stroke:none;stroke-width:0.3833"
       id="path1358" />
    <path
       d="m 168.9962,265.47646 c 0,0 15.14357,34.53746 -46.83691,49.80459 -61.965223,15.27104 -78.369132,-3.51374 -80.916735,-15.89412 -2.536055,-12.37279 -12.907162,20.02348 0.05447,33.59682 12.972517,13.57723 84.582545,11.94847 121.448085,-21.30434 36.85781,-33.25661 6.25567,-46.20295 6.25567,-46.20295"
       style="fill:#7c341e;fill-opacity:1;fill-rule:nonzero;stroke:none;stroke-width:0.3833"
       id="path1360" />
    <path
       d="m 85.289823,140.54055 c -0.741764,-6.72175 -15.43166,-0.35983 -20.561507,-2.81414 -5.133646,-2.45464 -6.601496,8.74817 -11.178005,22.6771 -4.5727,13.93274 -7.154824,20.97172 1.118203,42.30673 8.276847,21.33121 3.94247,40.92268 -12.165609,54.74074 -16.107979,13.81037 -20.123422,44.13058 -15.988817,59.56592 4.138423,15.43166 9.35279,22.95619 22.356019,21.41153 13.007039,-1.54466 15.435479,-9.18397 15.435479,-9.18397 0,0 8.860998,23.51056 33.10759,16.21916 24.254214,-7.27602 30.509884,-17.30504 30.509884,-17.30504 0,0 16.09272,12.3613 33.83378,-2.51967 17.73343,-14.88866 12.92252,-25.69381 12.92252,-25.69381 0,0 20.48472,-11.79154 10.70158,-33.99837 -9.78706,-22.19524 -58.3993,-27.10462 -74.15382,-47.72464 C 95.480346,197.60208 88.433124,168.9489 85.289823,140.54055"
       style="fill:#e6de9a;fill-opacity:1;fill-rule:nonzero;stroke:none;stroke-width:0.3833"
       id="path1362" />
    <path
       d="m 102.88493,258.5942 c -1.11048,-1.36497 -0.0327,3.59796 2.53997,10.939 -0.67641,-5.67792 -1.65236,-9.83784 -2.53997,-10.939"
       style="fill:#e6de9a;fill-opacity:1;fill-rule:nonzero;stroke:none;stroke-width:0.3833"
       id="path1364" />
    <path
       d="m 144.48459,265.98878 c 0,0 16.91106,27.3112 -3.21246,42.84213 -14.28276,11.03069 -29.56465,-21.30824 -35.84723,-39.29771 2.21332,18.60118 1.245,53.68164 -16.219511,52.4696 -22.790176,-1.58292 -16.31165,-37.00749 -13.883109,-54.18258 2.42844,-17.17888 -3.024139,-1.74343 -17.82569,0.27529 -7.38149,1.00904 -8.038623,-9.09987 -6.851256,-19.48818 -2.255573,3.15056 -4.960788,6.10993 -8.142429,8.84365 -16.107979,13.81037 -20.123422,44.13058 -15.988817,59.56592 4.138423,15.43166 9.35279,22.95619 22.356019,21.41153 13.007039,-1.54466 15.435479,-9.18397 15.435479,-9.18397 0,0 8.860998,23.51056 33.10759,16.21916 24.254214,-7.27602 30.509884,-17.30504 30.509884,-17.30504 0,0 16.09272,12.3613 33.83378,-2.51967 17.73343,-14.88866 12.92252,-25.69381 12.92252,-25.69381 0,0 2.16724,-1.26937 4.74948,-3.70873 -10.88218,-16.71631 -34.94425,-30.24759 -34.94425,-30.24759"
       style="fill:#d1ba9e;fill-opacity:1;fill-rule:nonzero;stroke:none;stroke-width:0.3833"
       id="path1366" />
    <path
       d="m 79.38772,150.68804 c 0,0 12.826446,68.11141 36.25841,81.61592 23.42804,13.50451 47.90903,8.2779 56.06682,26.77969 8.15779,18.50179 -5.52174,15.14098 -19.68926,5.22662 -14.15988,-9.91805 -28.15452,-14.46413 -35.16328,-21.51471 -6.99732,-7.03898 6.84352,15.99362 12.77263,26.18706 5.92912,10.18574 -3.67353,29.24191 -14.81691,10.29283 C 103.67658,260.31856 100.5909,247.2958 99.119236,265.24322 97.655206,283.19443 81.900691,310.2647 79.353088,291.2314 76.809295,272.19051 91.568586,243.78975 84.940186,217.88947 78.315596,191.9854 69.220305,123.49919 79.38772,150.68804"
       style="fill:#fcf9e2;fill-opacity:1;fill-rule:nonzero;stroke:none;stroke-width:0.3833"
       id="path1368" />
    <path
       d="m 187.36367,283.08356 c -11.42396,23.26974 -28.15062,36.8163 -44.90037,40.92658 -19.2358,4.7143 -26.49062,-15.43544 -28.51561,-23.06706 0.98794,4.6264 2.65522,14.16218 1.77523,22.52407 -1.22571,11.53164 -31.040233,19.2053 -43.286442,4.81 -9.871476,-11.60436 -4.595684,-44.50146 -2.178681,-56.8361 -2.332474,10.767 -8.357557,36.65579 -13.75643,43.89354 -6.870431,9.21844 -22.72875,11.75729 -22.671134,-9.47833 0.05447,-21.23942 11.677636,-46.74205 11.677636,-46.74205 0.864855,-2.53115 1.42167,-4.6149 1.732966,-6.31639 -1.448674,1.61348 -3.008782,3.16963 -4.73793,4.65316 -16.107979,13.81037 -20.123422,44.13058 -15.988817,59.56592 4.138423,15.43166 26.62885,45.24713 39.639818,43.69856 13.007038,-1.54086 18.551876,-3.49846 18.551876,-3.49846 0,0 4.872348,11.78395 29.126668,4.50024 24.24649,-7.27991 24.77683,-20.42503 24.77683,-20.42503 0,0 15.86595,6.88995 31.11702,-10.50309 13.81025,-15.72982 17.51439,-43.24358 17.63737,-47.70556"
       style="fill:#c8a27f;fill-opacity:1;fill-rule:nonzero;stroke:none;stroke-width:0.3833"
       id="path1370" />
    <path
       d="m 113.94769,300.94308 c -0.36924,-1.75503 -0.64917,-2.81793 -0.64917,-2.81793 0,0 0.19605,1.08967 0.64917,2.81793"
       style="fill:#fcf9e2;fill-opacity:1;fill-rule:nonzero;stroke:none;stroke-width:0.3833"
       id="path1372" />
  </g>
</svg>
