<?xml version="1.0" encoding="UTF-8" standalone="no"?>
<svg
   xmlns:dc="http://purl.org/dc/elements/1.1/"
   xmlns:cc="http://creativecommons.org/ns#"
   xmlns:rdf="http://www.w3.org/1999/02/22-rdf-syntax-ns#"
   xmlns:svg="http://www.w3.org/2000/svg"
   xmlns="http://www.w3.org/2000/svg"
   xmlns:sodipodi="http://sodipodi.sourceforge.net/DTD/sodipodi-0.dtd"
   xmlns:inkscape="http://www.inkscape.org/namespaces/inkscape"
   sodipodi:docname="berenjena.svg"
   inkscape:version="1.0 (4035a4fb49, 2020-05-01)"
   id="svg2584"
   version="1.1"
   viewBox="0 0 400 400"
   height="400mm"
   width="400mm">
  <defs
     id="defs2578" />
  <sodipodi:namedview
     inkscape:window-maximized="0"
     inkscape:window-y="0"
     inkscape:window-x="90"
     inkscape:window-height="729"
     inkscape:window-width="1260"
     showgrid="false"
     inkscape:document-rotation="0"
     inkscape:current-layer="layer1"
     inkscape:document-units="mm"
     inkscape:cy="674.28571"
     inkscape:cx="400"
     inkscape:zoom="0.35"
     inkscape:pageshadow="2"
     inkscape:pageopacity="0.0"
     borderopacity="1.0"
     bordercolor="#666666"
     pagecolor="#ffffff"
     id="base" />
  <metadata
     id="metadata2581">
    <rdf:RDF>
      <cc:Work
         rdf:about="">
        <dc:format>image/svg+xml</dc:format>
        <dc:type
           rdf:resource="http://purl.org/dc/dcmitype/StillImage" />
        <dc:title></dc:title>
      </cc:Work>
    </rdf:RDF>
  </metadata>
  <g
     id="layer1"
     inkscape:groupmode="layer"
     inkscape:label="Capa 1">
    <path
       d="m 155.2001,293.53949 c -36.01036,0 -72.755453,-4.28168 -103.400791,-13.78783 -22.656243,-7.0286 -23.616756,-18.77855 -11.985633,-31.41375 8.438663,8.53176 20.238129,15.27315 34.744856,19.86578 0.02358,0.006 0.05165,0.0168 0.07528,0.0225 0.01179,0.004 0.03144,0.0112 0.04547,0.0112 14.312645,4.51937 31.259278,6.94741 50.223978,6.94938 11.05878,0 22.79289,-0.82586 35.10133,-2.54487 47.25927,-6.60671 93.10052,-28.8471 124.68459,-54.38685 27.99749,4.39654 93.38173,23.74349 66.40418,36.17867 -30.07101,13.86508 -63.16022,20.75305 -113.87535,31.25532 -24.47428,5.06796 -53.00649,7.84653 -82.01797,7.84653"
       style="fill:#525e20;fill-opacity:1;fill-rule:nonzero;stroke:none;stroke-width:0.198044"
       id="path2534" />
    <path
       d="m 321.48383,140.13453 c -19.76281,-27.1558 -51.30529,-3.86777 -96.92474,-0.11059 -12.02326,0.98821 -28.48864,-0.39634 -46.85723,-1.78239 -51.3251,-3.87176 -117.495584,-7.74156 -143.019504,40.21086 -34.65771197,65.11289 27.579615,107.84887 125.308424,94.18779 97.73078,-13.66309 189.3935,-94.166 161.49305,-132.50538"
       style="fill:#512573;fill-opacity:1;fill-rule:nonzero;stroke:none;stroke-width:0.198044"
       id="path2550" />
    <path
       d="m 322.2562,141.27729 c -10.20322,40.91389 -85.78476,96.39993 -165.3965,107.53 -67.663733,9.45854 -118.303598,-8.1238 -131.55869,-41.44075 -4.820392,48.24355 52.333147,76.7916 134.70363,65.27933 96.77622,-13.53038 187.58933,-92.60148 162.25156,-131.36858"
       style="fill:#3e2153;fill-opacity:1;fill-rule:nonzero;stroke:none;stroke-width:0.198044"
       id="path2552" />
    <path
       d="m 271.72328,135.72609 c -18.35472,8.92187 -87.30575,19.41033 -119.96123,13.05905 -32.65549,-6.35129 -112.401894,3.23206 -112.560328,43.71823 -0.162408,40.48415 76.987648,61.56987 106.113998,33.5625 29.12633,-28.00939 47.82961,-42.07843 85.50353,-43.65884 37.67195,-1.58035 82.81412,-14.19775 80.78218,-35.01615 -1.55662,-15.91284 -21.5254,-20.58867 -39.87815,-11.66479"
       style="fill:#6e2285;fill-opacity:1;fill-rule:nonzero;stroke:none;stroke-width:0.198044"
       id="path2554" />
    <path
       d="m 263.24898,146.35114 c -15.07907,3.80249 -35.10926,19.67373 -88.37519,14.85727 -53.26593,-4.82038 -107.995411,-16.54855 -120.670227,13.35608 -12.674822,29.90272 27.670717,44.26681 53.648157,29.65711 25.97744,-14.60571 45.46893,-37.75312 86.04421,-36.38071 40.57329,1.37444 111.88104,9.48634 106.79327,-19.63999 -2.68942,-15.38009 -22.36314,-5.65219 -37.44022,-1.84976"
       style="fill:#901c91;fill-opacity:1;fill-rule:nonzero;stroke:none;stroke-width:0.198044"
       id="path2556" />
    <path
       d="m 359.01319,109.11292 c -6.46416,2.98847 -15.31673,5.40265 -24.14751,17.09714 0,0 -7.72966,8.51593 -23.26425,-0.27901 -15.54052,-8.7951 -21.71156,-4.07178 -36.30147,-2.40228 -14.59387,1.66951 -13.81952,-3.65787 -13.81952,-3.65787 0,0 -8.92981,3.59056 10.98551,10.55774 19.91531,6.96521 28.78967,5.971 33.95862,9.09814 5.16499,3.1291 -6.94146,0.78032 -7.72966,11.74602 -0.78625,10.96368 -1.13876,23.11367 -12.93228,25.32783 -11.79155,2.21416 -21.70365,3.38655 -12.37181,5.40069 9.32985,2.01807 33.08722,5.51746 40.09204,-3.6975 7.01076,-9.21895 10.47058,-5.37891 6.14728,-1.71111 -4.32924,3.66579 -7.6742,13.78189 -7.62073,15.61576 0.0516,1.8359 6.04233,-9.81502 11.90245,-10.835 5.86012,-1.01993 15.67123,-9.69422 13.69277,-20.58267 -1.98243,-10.89047 -6.64042,-12.80159 -3.54896,-17.3784 3.08554,-4.58073 3.06177,-17.28526 11.7559,-21.77892 8.6981,-4.4936 19.34891,-10.80329 25.26844,-6.55922 5.91756,4.24211 3.78066,-0.86739 2.26364,-5.52144 -1.51306,-4.65208 -7.86234,-3.42619 -14.33046,-0.43957"
       style="fill:#4d812f;fill-opacity:1;fill-rule:nonzero;stroke:none;stroke-width:0.198044"
       id="path2558" />
    <path
       d="m 319.61034,137.41541 c -2.07946,0 -5.71358,-1.13675 -11.80937,-4.24014 -5.90568,-3.00627 -10.0745,-3.77666 -13.41551,-3.77666 -1.75863,0 -3.28753,0.21164 -4.71938,0.42553 -1.43187,0.21389 -2.76866,0.42609 -4.14111,0.42609 -0.65949,0 -1.32888,-0.0505 -2.02005,-0.1701 -5.45611,-0.96844 -17.62196,-5.46008 -16.49508,-5.46008 0.17229,0 0.66542,0.10666 1.54869,0.35255 0.80208,0.22175 1.68933,0.31662 2.64786,0.31662 3.01422,0 6.73548,-0.94464 10.76765,-1.89131 4.03218,-0.94666 8.37726,-1.8913 12.63521,-1.8913 1.26551,0 2.52309,0.0831 3.76284,0.27508 10.9142,1.68735 23.56724,12.02525 23.56724,12.02525 0.44165,1.88536 0.23567,3.60836 -2.32899,3.60836"
       style="fill:#5c9a33;fill-opacity:1;fill-rule:nonzero;stroke:none;stroke-width:0.198044"
       id="path2560" />
    <path
       d="m 296.30451,167.36361 c 0.58225,-2.49733 1.03578,-5.19074 1.40215,-7.8663 0.11885,-0.1308 0.23371,-0.26329 0.3466,-0.39577 -0.3347,2.93104 -0.83972,5.75711 -1.74874,8.26235 m 3.91532,-21.10352 c -0.007,-0.0281 -0.018,-0.0561 -0.0258,-0.0831 0.18419,-0.2515 0.38224,-0.49121 0.59216,-0.71296 -0.19806,0.24757 -0.38618,0.51311 -0.56642,0.7961"
       style="fill:#788078;fill-opacity:1;fill-rule:nonzero;stroke:none;stroke-width:0.198044"
       id="path2562" />
    <path
       d="m 297.70666,159.49731 c 0.44361,-3.22611 0.76049,-6.42847 1.02191,-9.23085 0.15449,-1.67545 0.68325,-3.0162 1.46553,-4.08957 0.007,0.0281 0.018,0.0561 0.0258,0.0831 -0.79415,1.26155 -1.37245,2.88749 -1.52493,5.01249 -0.18615,2.59237 -0.3466,5.25013 -0.64166,7.82868 -0.1129,0.13249 -0.22776,0.26554 -0.3466,0.39578"
       style="fill:#8b8480;fill-opacity:1;fill-rule:nonzero;stroke:none;stroke-width:0.198044"
       id="path2564" />
    <path
       d="m 288.78873,179.70773 c -1.18826,0 -1.26153,-0.30484 0.57434,-0.7229 3.41823,-0.7783 5.54722,-5.63434 6.94144,-11.62122 0.90902,-2.50524 1.41403,-5.33131 1.74874,-8.26235 0.29506,-2.57856 0.45551,-5.23632 0.64166,-7.82868 0.15247,-2.12501 0.73078,-3.75101 1.52493,-5.0125 0.1802,-0.28349 0.36838,-0.54847 0.56642,-0.79615 2.60625,-2.75876 7.13947,-3.36674 10.74388,-3.36674 2.78846,0 5.02239,0.36434 5.38087,0.37613 8.68621,0.31269 12.45498,8.85259 8.45053,16.46345 -4.00643,7.61277 -12.88673,1.3229 -18.80626,11.4568 -4.26587,7.29598 -14.70874,9.31404 -17.76655,9.31404"
       style="fill:#5c9a33;fill-opacity:1;fill-rule:nonzero;stroke:none;stroke-width:0.198044"
       id="path2566" />
    <path
       d="m 330.91667,155.27306 c 0,0 0.30501,12.68275 -6.34136,19.21025 -6.64637,6.52952 11.09442,4.11338 11.55587,-9.36154 0.4614,-13.47492 -6.33148,-16.25349 -5.21451,-9.84871"
       style="fill:#6fb738;fill-opacity:1;fill-rule:nonzero;stroke:none;stroke-width:0.198044"
       id="path2568" />
    <path
       d="m 277.02294,125.29113 c 0.98229,0.12856 2.57853,-0.3009 4.78673,-0.8674 -3.71135,0.21782 -5.91161,0.71891 -4.78673,0.8674"
       style="fill:#6fb738;fill-opacity:1;fill-rule:nonzero;stroke:none;stroke-width:0.198044"
       id="path2570" />
    <path
       d="m 313.88687,129.43623 c -0.40599,-0.3228 -9.08627,-7.3217 -18.81022,-7.0583 -5.71358,0.1527 -10.1161,1.23977 -13.26698,2.0458 4.14505,-0.24139 10.17946,-0.12855 15.66133,1.24965 10.3874,2.61021 21.58085,7.85444 16.41587,3.76285"
       style="fill:#6fb738;fill-opacity:1;fill-rule:nonzero;stroke:none;stroke-width:0.198044"
       id="path2572" />
    <path
       d="m 300.59019,147.33744 c -5.22242,6.84637 -0.37826,18.90727 -1.95272,21.40459 1.32294,-1.94284 8.75948,-12.42131 12.95011,-13.47492 4.99466,-1.25363 12.64313,-3.50141 10.28243,-7.96139 -2.09925,-3.9668 -16.03363,-6.85035 -21.27982,0.0337"
       style="fill:#6fb738;fill-opacity:1;fill-rule:nonzero;stroke:none;stroke-width:0.198044"
       id="path2574" />
    <path
       d="m 298.61767,168.78756 0.0196,-0.0449 c -0.25352,0.37444 -0.28518,0.43788 -0.0196,0.0449"
       style="fill:#6fb738;fill-opacity:1;fill-rule:nonzero;stroke:none;stroke-width:0.198044"
       id="path2576" />
  </g>
</svg>
