<?xml version="1.0" encoding="UTF-8" standalone="no"?>
<svg
   xmlns:dc="http://purl.org/dc/elements/1.1/"
   xmlns:cc="http://creativecommons.org/ns#"
   xmlns:rdf="http://www.w3.org/1999/02/22-rdf-syntax-ns#"
   xmlns:svg="http://www.w3.org/2000/svg"
   xmlns="http://www.w3.org/2000/svg"
   xmlns:sodipodi="http://sodipodi.sourceforge.net/DTD/sodipodi-0.dtd"
   xmlns:inkscape="http://www.inkscape.org/namespaces/inkscape"
   sodipodi:docname="calabaza.svg"
   inkscape:version="1.0 (4035a4fb49, 2020-05-01)"
   id="svg1670"
   version="1.1"
   viewBox="0 0 400 400"
   height="400mm"
   width="400mm">
  <defs
     id="defs1664" />
  <sodipodi:namedview
     inkscape:window-maximized="0"
     inkscape:window-y="0"
     inkscape:window-x="90"
     inkscape:window-height="729"
     inkscape:window-width="1260"
     showgrid="false"
     inkscape:document-rotation="0"
     inkscape:current-layer="layer1"
     inkscape:document-units="mm"
     inkscape:cy="788.57143"
     inkscape:cx="400"
     inkscape:zoom="0.35"
     inkscape:pageshadow="2"
     inkscape:pageopacity="0.0"
     borderopacity="1.0"
     bordercolor="#666666"
     pagecolor="#ffffff"
     id="base" />
  <metadata
     id="metadata1667">
    <rdf:RDF>
      <cc:Work
         rdf:about="">
        <dc:format>image/svg+xml</dc:format>
        <dc:type
           rdf:resource="http://purl.org/dc/dcmitype/StillImage" />
        <dc:title></dc:title>
      </cc:Work>
    </rdf:RDF>
  </metadata>
  <g
     id="layer1"
     inkscape:groupmode="layer"
     inkscape:label="Capa 1">
    <path
       d="m 352.63624,300.71086 c -25.10053,8.62498 -87.4507,27.99318 -168.13948,17.10692 -80.6888,-10.88622 -62.90691,-31.68202 38.6197,-48.49971 101.5266,-16.81769 196.39237,8.41193 129.51978,31.39279"
       style="fill:#687323;fill-opacity:1;fill-rule:nonzero;stroke:none;stroke-width:0.155517"
       id="path1564" />
    <path
       d="m 162.63875,127.65547 c 0,0 -17.03075,1.2581 -28.65569,14.04944 -11.62184,12.79134 -9.74163,16.47864 -9.74163,16.47864 0,0 -41.571433,14.85195 -22.59205,67.56778 18.98093,52.71116 64.89441,77.96256 74.55051,76.59869 4.41517,-0.62206 8.7821,2.09169 13.84106,4.80703 5.99368,3.21767 12.95931,6.43376 22.12083,4.09481 16.88611,-4.31408 18.44284,-9.42908 22.7056,-6.84123 4.25964,2.58781 34.07238,1.34209 52.82935,-10.88935 18.75698,-12.22834 18.47083,-14.4678 27.13161,-13.98107 8.6592,0.4899 29.89981,-16.35423 34.57467,-23.96216 4.67799,-7.60013 6.73084,-9.76649 6.73084,-9.76649 0,0 31.3819,-23.00264 -4.03728,-111.00386 -10.2377,-25.43491 -19.87203,-35.905906 -19.87203,-35.905906 0,0 -9.50058,-10.19732 -34.05681,-8.2191 -24.55624,1.98751 -33.84843,7.10872 -33.84843,7.10872 0,0 -9.10087,-7.09629 -21.58583,-2.28301 -12.48029,4.808616 -16.59066,9.139756 -16.59066,9.139756 0,0 -34.33983,-12.486506 -63.50406,23.00731"
       style="fill:#e5621b;fill-opacity:1;fill-rule:nonzero;stroke:none;stroke-width:0.155517"
       id="path1566" />
    <path
       d="m 270.27409,281.86986 c -20.10691,0 -45.30077,-15.6995 -54.99726,-34.20454 -18.21113,-34.76131 -14.12412,-79.33268 7.41661,-89.69324 8.5317,-4.10569 16.37292,-6.13364 23.52516,-6.13364 27.12852,0 44.30853,29.19689 51.30996,84.96866 4.13832,32.95419 -9.59545,45.06276 -27.25447,45.06276"
       style="fill:#eb7c16;fill-opacity:1;fill-rule:nonzero;stroke:none;stroke-width:0.155517"
       id="path1568" />
    <path
       d="m 186.14523,274.95867 c -9.47413,-10e-4 -26.05542,-14.57977 -38.42685,-46.02233 -23.14414,-58.81522 9.24864,-68.18985 23.83619,-69.87252 2.12748,-0.24555 4.12743,-0.36237 5.96567,-0.36237 10.76495,0 15.93588,4.00611 8.01536,9.51922 0,0 -19.71964,30.87802 1.73716,75.10879 9.98268,20.58434 7.12116,31.63076 -1.12753,31.62921"
       style="fill:#eb7c16;fill-opacity:1;fill-rule:nonzero;stroke:none;stroke-width:0.155517"
       id="path1570" />
    <path
       d="m 158.39778,283.48103 c -9.569,0 -30.61054,-8.39636 -45.49514,-50.63499 -15.932793,-45.23231 2.22546,-68.39043 20.97933,-68.39043 3.29542,0 6.60795,0.71535 9.75874,2.1508 0,0 -19.4506,4.78992 -12.38699,35.94633 7.06362,31.14866 35.0428,76.34984 31.96199,79.68262 -0.63295,0.68272 -2.34053,1.24567 -4.81793,1.24567"
       style="fill:#eb7c16;fill-opacity:1;fill-rule:nonzero;stroke:none;stroke-width:0.155517"
       id="path1572" />
    <path
       d="m 184.12972,150.80583 c -0.79933,-0.002 -1.70604,-0.045 -2.72155,-0.14019 -6.08074,-0.56608 -12.91262,-0.74651 -19.14578,-0.74651 -10.91889,0 -20.00268,0.55364 -20.00268,0.55364 1.95486,-9.76027 14.38694,-17.60303 24.5827,-17.60303 2.70908,0 5.25959,0.55364 7.41352,1.77132 9.64054,5.45713 22.22967,16.16455 9.87379,16.16455"
       style="fill:#eb7c16;fill-opacity:1;fill-rule:nonzero;stroke:none;stroke-width:0.155517"
       id="path1574" />
    <path
       d="m 209.07786,143.63177 c -9.2284,0 -30.38503,-14.58445 -31.52186,-15.00122 -13.86596,-5.11186 22.50806,-22.01974 39.39262,-22.01974 2.07771,0 3.86151,0.25524 5.21916,0.8211 12.39635,5.17253 -3.46802,34.71313 -11.9515,36.11434 -0.35443,0.0591 -0.73563,0.0873 -1.13842,0.0855"
       style="fill:#eb7c16;fill-opacity:1;fill-rule:nonzero;stroke:none;stroke-width:0.155517"
       id="path1576" />
    <path
       d="m 237.6667,131.69579 c -2.57383,0 -4.37628,-1.51164 -5.03723,-4.96569 -2.03728,-10.6125 8.70588,-21.19859 8.70588,-21.19859 8.39174,-4.69351 14.72133,-6.629716 18.97784,-6.629716 8.67788,0 8.73387,8.044936 0.056,17.155146 -8.72298,9.1569 -17.37133,15.63885 -22.70247,15.63885"
       style="fill:#eb7c16;fill-opacity:1;fill-rule:nonzero;stroke:none;stroke-width:0.155517"
       id="path1578" />
    <path
       d="m 330.03331,248.67775 c -8.58927,0 -10.98575,-12.80223 -20.589,-50.67388 -10.30925,-40.62586 -43.38163,-54.04861 -43.38163,-54.04861 0.16796,-9.44768 8.98114,-14.0759 21.18149,-14.0759 20.68542,0 51.10621,13.30452 65.65957,38.99137 4.1772,7.37155 6.49905,14.60936 7.43997,21.53765 -0.048,9.51459 -1.20683,19.01826 -3.14771,27.54061 -6.38866,17.47864 -19.46147,29.4535 -25.18919,30.53126 -0.69361,0.13049 -1.34989,0.1975 -1.9735,0.1975"
       style="fill:#eb7c16;fill-opacity:1;fill-rule:nonzero;stroke:none;stroke-width:0.155517"
       id="path1580" />
    <path
       d="m 243.99625,134.13899 c -0.82424,0 -0.77601,-0.27376 0.52257,-0.92844 7.80851,-3.94396 19.69785,-21.95287 25.55931,-27.88434 5.04654,-5.1243 20.30441,-10.998186 34.3632,-10.998186 2.23787,0 4.44779,0.14944 6.57994,0.47434 15.50977,2.37162 16.18006,17.105376 0.70137,18.190886 -15.47247,1.0902 -37.61194,14.29985 -37.61194,14.29985 0,0 -25.98702,6.84589 -30.11445,6.84589"
       style="fill:#eb7c16;fill-opacity:1;fill-rule:nonzero;stroke:none;stroke-width:0.155517"
       id="path1582" />
    <path
       d="m 239.05389,154.52733 c -18.98092,3.48205 -42.58539,37.98521 -22.99947,82.39328 19.59523,44.40653 67.98764,32.91685 63.9955,-11.1553 -3.99526,-44.07679 -14.76175,-76.04346 -40.99603,-71.23798"
       style="fill:#f3b22d;fill-opacity:1;fill-rule:nonzero;stroke:none;stroke-width:0.155517"
       id="path1584" />
    <path
       d="m 348.96292,165.50225 c -22.99483,-31.35858 -63.44811,-35.94016 -72.70451,-31.08332 -9.20975,4.8288 3.87862,6.96095 19.34792,25.5173 15.47714,18.55172 17.86124,57.30831 28.4442,60.30979 10.57675,3.00149 47.90414,-23.38519 24.91239,-54.74377"
       style="fill:#f3b22d;fill-opacity:1;fill-rule:nonzero;stroke:none;stroke-width:0.155517"
       id="path1586" />
    <path
       d="m 157.59531,240.60637 c 21.36035,31.09734 35.23562,29.58879 21.27482,-0.0309 -13.96392,-29.62455 1.20525,-71.77452 1.20525,-71.77452 -40.09556,-16.18469 -43.85131,40.70213 -22.48007,71.80569"
       style="fill:#f3b22d;fill-opacity:1;fill-rule:nonzero;stroke:none;stroke-width:0.155517"
       id="path1588" />
    <path
       d="m 137.78391,274.12201 c 16.21116,11.7991 11.57207,-8.20359 -4.9579,-46.36297 -16.52842,-38.15625 -1.45098,-57.45753 -1.45098,-57.45753 -44.501393,6.41198 -9.80695,92.02289 6.40888,103.8205"
       style="fill:#f3b22d;fill-opacity:1;fill-rule:nonzero;stroke:none;stroke-width:0.155517"
       id="path1590" />
    <path
       d="m 174.25593,134.64129 c -6.27673,-1.734 -24.55159,0.15252 -26.71174,10.97332 -0.47898,2.39498 19.86739,-2.57846 27.86876,1.29858 7.99516,3.87862 5.12121,-10.53941 -1.15702,-12.2719"
       style="fill:#f3b22d;fill-opacity:1;fill-rule:nonzero;stroke:none;stroke-width:0.155517"
       id="path1592" />
    <path
       d="m 209.02501,136.78587 c 6.98427,4.86151 19.19552,-16.23759 11.78512,-24.45669 -7.40884,-8.21444 -32.02265,0.36236 -42.80003,12.89709 0,0 24.0368,6.70281 31.01491,11.5596"
       style="fill:#f3b22d;fill-opacity:1;fill-rule:nonzero;stroke:none;stroke-width:0.155517"
       id="path1594" />
    <path
       d="m 265.06736,105.09296 c -1.21773,-5.587746 -13.12413,-6.772806 -18.25156,0.272 -0.4899,0.67029 -12.02931,15.36825 -9.91739,19.90161 2.11042,4.524 29.39443,-14.58758 28.16895,-20.17374"
       style="fill:#f3b22d;fill-opacity:1;fill-rule:nonzero;stroke:none;stroke-width:0.155517"
       id="path1596" />
    <path
       d="m 317.05378,104.23293 c 8.93295,-7.911176 -10.01067,-9.827146 -24.2763,-6.043396 -14.25942,3.788376 -39.87005,27.489306 -32.35545,21.335436 6.46021,-5.29226 47.69571,-7.37931 56.63175,-15.29204"
       style="fill:#f3b22d;fill-opacity:1;fill-rule:nonzero;stroke:none;stroke-width:0.155517"
       id="path1598" />
    <path
       d="m 205.53053,312.17872 c -6.22383,0 -11.34658,-2.44784 -15.90793,-4.89568 -4.5613,-2.44784 -8.56124,-4.89418 -12.54403,-4.89418 -0.43379,0 -0.86938,0.0264 -1.30325,0.0904 -0.18339,0.0221 -0.40733,0.0221 -0.61585,0.0265 0.009,-0.0353 0.022,-0.0714 0.0309,-0.10712 0.067,10e-4 0.13225,0.004 0.19573,0.004 0.29536,0 0.56454,-0.0176 0.8118,-0.0529 0.43379,-0.0608 0.86625,-0.0899 1.30012,-0.0899 3.97971,0 7.97806,2.44783 12.54095,4.89722 4.56134,2.44788 9.6841,4.89572 15.90947,4.89572 1.95639,0 4.02167,-0.24114 6.21136,-0.80092 1.21772,-0.31123 2.3561,-0.62519 3.42138,-0.94242 -1.18501,0.35928 -2.46181,0.71693 -3.84128,1.06837 -2.19123,0.55986 -4.25496,0.80091 -6.21136,0.80091 m 37.21846,-6.52549 c -4.14762,0 -7.15378,-0.41836 -8.30304,-1.11506 -0.79937,-0.48523 -1.50233,-0.69983 -2.22861,-0.69983 -0.38089,0 -0.76825,0.0591 -1.17726,0.16796 0.57075,-0.18956 1.09019,-0.29536 1.59874,-0.29536 0.72624,0 1.43074,0.21469 2.22857,0.69983 1.14926,0.69824 4.15542,1.1166 8.30308,1.1166 6.87389,0 16.88143,-1.15085 26.75214,-4.09322 -10.006,3.03569 -20.20173,4.21921 -27.17362,4.21921 m 65.82131,-25.57955 c 1.31568,-0.42453 2.64847,-0.59408 4.32497,-0.59408 0.59562,0 1.23479,0.022 1.93308,0.0608 0.12299,0.004 0.24863,0.009 0.37779,0.009 0.94556,0 2.0264,-0.18648 3.2052,-0.52879 -1.34208,0.42276 -2.56448,0.65628 -3.62042,0.65628 -0.12917,0 -0.25657,-0.004 -0.37956,-0.009 -0.69829,-0.0397 -1.33592,-0.0608 -1.93307,-0.0608 -1.49921,0 -2.72469,0.13534 -3.90821,0.46813"
       style="fill:#634a18;fill-opacity:1;fill-rule:nonzero;stroke:none;stroke-width:0.155517"
       id="path1600" />
    <path
       d="m 205.95043,312.05277 c -6.22538,0 -11.34813,-2.44788 -15.90948,-4.89572 -4.56288,-2.44938 -8.56124,-4.89722 -12.54094,-4.89722 -0.43378,0 -0.86625,0.0309 -1.30012,0.0904 -0.24731,0.0353 -0.51631,0.0529 -0.8118,0.0529 -0.0639,0 -0.12917,-10e-4 -0.19573,-0.004 2.12902,-7.10405 -8.64681,-29.25909 -13.3512,-37.53572 5.2736,7.84898 19.97315,27.95584 30.27464,30.35237 1.93775,0.45102 3.94391,0.67963 5.92675,0.67963 12.11483,-0.001 23.27168,-8.57217 11.53787,-27.6324 -13.64979,-22.18307 -33.09107,-79.01699 -11.35743,-96.78486 0,0 -6.92679,69.42151 26.99005,99.82991 18.67613,16.74459 34.49541,20.50652 44.94616,20.50652 8.53017,-10e-4 13.48342,-2.5085 13.48342,-2.5085 0,0 27.11137,-7.00605 19.01821,-52.16527 -7.98581,-44.54495 -20.11308,-68.25981 -18.87049,-68.25981 0.0176,0 0.0353,0.004 0.0608,0.0132 1.63603,0.67025 25.40846,62.76847 26.55777,83.32014 0.42629,7.64368 3.7495,10.69339 8.40725,10.69339 7.87076,-0.001 19.54546,-8.71055 27.4722,-18.69636 4.49134,-5.65303 8.36997,-15.12253 10.908,-26.26382 2.98284,-8.16312 4.5069,-17.52527 3.14771,-27.54061 0.0652,-13.02151 -1.94863,-26.07254 -6.87702,-36.68818 -9.34192,-20.13018 -14.20339,-34.28543 -16.25937,-40.88093 3.67491,2.48985 8.93763,8.3622 14.46939,22.09442 35.41759,88.00122 4.03565,111.00386 4.03565,111.00386 0,0 -2.05435,2.1679 -6.73388,9.76803 -4.05747,6.60639 -20.61233,20.18154 -30.56701,23.31524 -1.1788,0.34209 -2.25969,0.52874 -3.20524,0.52874 -0.12917,0 -0.25525,-0.003 -0.3778,-0.009 -0.69824,-0.0397 -1.33741,-0.0608 -1.93307,-0.0608 -1.67646,0 -3.00925,0.16973 -4.32493,0.59408 -4.18809,1.17417 -7.84744,4.80706 -21.29659,13.57515 -5.19585,3.38717 -11.2377,5.93142 -17.3511,7.78523 -9.87071,2.94237 -19.87829,4.09322 -26.75214,4.09322 -4.14766,0 -7.15382,-0.41835 -8.30313,-1.11664 -0.79778,-0.48519 -1.50229,-0.69983 -2.22857,-0.69983 -0.50855,0 -1.02794,0.1058 -1.59869,0.29536 -2.65001,0.70605 -6.27828,3.5256 -15.45691,6.30314 -1.06529,0.3174 -2.20371,0.63141 -3.42139,0.94242 -2.18968,0.55987 -4.25496,0.80092 -6.2114,0.80092"
       style="fill:#c72b25;fill-opacity:1;fill-rule:nonzero;stroke:none;stroke-width:0.155517"
       id="path1602" />
    <path
       d="m 357.196,217.94899 c 1.94088,-8.52235 3.09949,-18.02602 3.14771,-27.54061 1.35919,10.01534 -0.16487,19.37749 -3.14771,27.54061"
       style="fill:#cd3623;fill-opacity:1;fill-rule:nonzero;stroke:none;stroke-width:0.155517"
       id="path1604" />
    <path
       d="m 161.84094,264.86402 c -1.29701,-1.9362 -2.0264,-3.12589 -1.97663,-3.12589 0.0185,0 0.14464,0.16179 0.38723,0.51164 0.36546,0.5272 0.91911,1.43387 1.58939,2.61425"
       style="fill:#c72b25;fill-opacity:1;fill-rule:nonzero;stroke:none;stroke-width:0.155517"
       id="path1606" />
    <path
       d="m 99.826707,181.82849 c 7.455523,-17.59682 23.994833,-23.51895 23.994833,-23.51895 0,0 -1.88177,-3.68575 9.74162,-16.47864 0.95799,-1.05598 1.95952,-2.02485 2.97816,-2.92839 -0.0544,0.12916 -0.10884,0.25965 -0.16328,0.39014 -0.81647,0.75423 -1.61894,1.55673 -2.39497,2.41204 -11.62184,12.79134 -9.74163,16.47868 -9.74163,16.47868 0,0 -15.63886,5.58617 -23.35253,22.07106 -0.36078,0.51631 -0.71538,1.04042 -1.062193,1.57384"
       style="fill:#7b601c;fill-opacity:1;fill-rule:nonzero;stroke:none;stroke-width:0.155517"
       id="path1608" />
    <path
       d="m 100.8889,180.25465 c 7.71367,-16.48489 23.35253,-22.0711 23.35253,-22.0711 0,0 -1.88021,-3.6873 9.74163,-16.47864 0.77603,-0.85535 1.5785,-1.65781 2.39497,-2.41208 -2.19435,5.31561 -3.87239,12.13661 0.97354,13.83176 3.97815,1.38877 10.26883,1.74801 15.70573,1.74801 5.79925,0 10.62653,-0.4091 10.62653,-0.4091 0,0 -26.22184,2.5707 -37.74414,5.58307 -5.92678,1.54898 -17.08207,8.81477 -25.05079,20.208"
       style="fill:#c72b25;fill-opacity:1;fill-rule:nonzero;stroke:none;stroke-width:0.155517"
       id="path1610" />
    <path
       d="m 210.26138,131.29458 c 0.22394,1.84909 -0.43996,12.03239 -5.57532,13.28587 -5.13518,1.25969 -7.19738,-3.63757 -8.91739,1.23637 -1.72156,4.8739 -5.55508,3.70595 -4.94078,6.71524 0.61118,3.00303 0.40117,4.22543 5.356,6.22224 4.95638,1.98752 3.00308,-3.51466 12.24546,-3.69042 9.22999,-0.16796 15.94213,1.86778 18.31067,-0.87709 2.36231,-2.74025 9.11801,-5.35759 15.73997,-9.38239 6.62345,-4.03415 2.66865,-10.41505 8.42127,-11.5503 5.75412,-1.13683 24.08035,-2.9175 22.08817,-6.65616 -1.99995,-3.7402 -14.11478,-4.44003 -21.69318,-0.70917 -7.58302,3.73711 -16.32778,6.0854 -23.15344,1.4634 -6.81945,-4.61575 -5.37315,-18.00425 -21.66673,-13.94991 -42.68961,10.59853 2.57225,8.09938 3.7853,17.89232"
       style="fill:#3e5d27;fill-opacity:1;fill-rule:nonzero;stroke:none;stroke-width:0.155517"
       id="path1612" />
    <path
       d="m 104.31651,113.66976 c 0.71693,4.66552 1.01708,9.48343 0.2675,13.67932 -0.18819,1.02954 -0.45878,1.99995 -0.78692,2.79778 -0.0949,0.25348 -0.21306,0.47275 -0.32503,0.67338 -0.20684,-0.20675 -0.44167,-0.46191 -0.68117,-0.77605 -0.36545,-0.4914 -0.85223,-1.36387 -1.21148,-2.25035 -0.37013,-0.90354 -0.68272,-1.90662 -0.93777,-2.94082 -0.50077,-2.08239 -0.768263,-4.30782 -0.833583,-6.54106 -0.13375,-4.85838 0.618973,-9.81939 2.315663,-14.24077 0.92378,3.17257 1.70448,6.39179 2.1928,9.59857 z m -1.34057,17.80988 0.0653,-0.0511 z m -16.771023,-17.1536 c 0.51943,2.0357 0.0154,4.34361 -1.00153,6.46488 -0.47278,1.01084 -1.09796,1.97663 -1.832,2.66557 -0.74026,0.68272 -1.57073,1.06682 -2.42763,1.03883 -0.86001,-0.022 -1.79779,-0.40601 -2.60804,-1.07463 -0.82113,-0.65314 -1.52718,-1.52252 -2.11037,-2.47737 -1.17571,-1.9191 -1.84911,-4.18655 -2.00462,-6.44311 -0.13062,-2.08705 0.24418,-4.06677 0.97509,-6.04807 l 0.27059,-0.022 c 2.297,-0.0745 4.65309,0.27376 6.65771,1.26591 1.9984,0.9642 3.59401,2.58467 4.08079,4.62976 z m -21.7056,13.05258 z m 0.53498,1.26124 0.11664,0.46036 c 0.0466,0.21293 0.0902,0.39984 0.13375,0.65628 0.0917,0.47434 0.14932,0.95485 0.18507,1.43232 0.12286,1.89111 -0.20839,3.84128 -0.95799,5.37156 -0.36546,0.75115 -0.85691,1.38101 -1.21148,1.68427 l -0.2333,0.18515 c -0.16795,-0.17898 -0.42298,-0.49145 -0.62207,-0.93934 -0.39966,-0.81802 -0.73093,-1.81955 -0.98442,-2.87395 -0.43546,-1.91597 -0.6314,-3.95638 -0.6314,-6.03255 l 0.35456,-0.16796 c 1.00154,-0.43555 1.99529,-0.78844 2.70134,-0.90976 0.32816,-0.0639 0.56298,-0.067 0.66406,-0.056 0.0995,0.1415 0.27994,0.44943 0.41523,0.94242 z m -1.91287,9.83495 0.16329,0.0855 z m 141.525753,-24.38515 -1.77133,0.65006 c -1.18193,0.41968 -2.37166,0.8118 -3.56602,1.19436 -2.37788,0.76516 -4.78529,1.4012 -7.19892,1.9191 -4.79927,1.04042 -9.76654,1.5707 -14.2532,0.76979 -2.22544,-0.41351 -4.27988,-1.21614 -5.8817,-2.45718 -0.80559,-0.61585 -1.51626,-1.3219 -2.11034,-2.12749 -0.29712,-0.40116 -0.57079,-0.83045 -0.8196,-1.27521 -0.18956,-0.34826 -0.50388,-0.98756 -0.77292,-1.53808 -2.21768,-4.50069 -4.37627,-9.15531 -7.21291,-13.659126 -2.80087,-4.47891 -6.3218,-8.92669 -11.02932,-12.2641 -4.68419,-3.34521 -10.34658,-5.27361 -15.88146,-5.96876 -5.57997,-0.69983 -10.9671,-0.40116 -16.43821,0.51785 -5.63285,1.01397 -11.26726,3.5878 -15.69329,7.60639 -0.1804,0.16178 -0.3499,0.34076 -0.52565,0.51631 -0.56142,-0.50855 -1.16483,-0.99065 -1.832003,-1.42457 -1.38411,-0.92378 -3.05748,-1.60183 -4.79616,-1.82732 -1.73558,-0.24246 -3.46494,-0.022 -4.98902,0.43996 -1.52873,0.46967 -2.88329,1.16015 -4.10722,1.96106 -2.43696,1.60183 -4.39493,3.55827 -6.1305,5.61888 -3.15701,3.84595 -5.60797,8.068246 -7.35288,12.688666 -1.67181,0.23937 -3.33429,0.66094 -4.95323,1.34367 -1.27214,0.51944 -2.59871,1.33278 -3.68577,2.2581 -1.10107,0.93312 -2.06061,1.99686 -2.88641,3.13056 -1.65004,2.27993 -2.84753,4.77599 -3.73865,7.34511 -0.26904,0.78072 -0.496099,1.56607 -0.709156,2.35923 -1.897316,0.92531 -3.620453,1.90975 -5.335813,2.84128 -2.195909,1.20684 -4.338944,2.339 -6.47731,3.35143 -1.059076,0.49766 -2.158587,0.96887 -3.186558,1.35923 l -0.74804,0.27376 c -0.219272,0.0763 -0.42144,0.1274 -0.62829,0.18339 -0.415225,0.11197 -0.804031,0.16796 -1.180382,0.19573 -1.485195,0.0979 -2.668681,-0.33151 -3.866167,-1.54121 -1.16483,-1.20058 -2.088605,-3.06215 -2.617363,-5.08855 -1.026419,-4.07298 -0.844464,-8.81939 0.85068,-12.65137 0.412139,-0.93929 0.978205,-1.8382 1.643821,-2.81797 0.642292,-0.94396 1.351449,-1.82731 2.091712,-2.65 1.468091,-1.6345 3.20522,-2.98906 4.959462,-3.48826 1.740241,-0.51168 3.393395,-0.0855 4.895695,1.29857 0.737155,0.67493 1.399659,1.56141 1.953302,2.53649 0.556751,1.00154 1.026415,2.04192 1.261249,3.04967 0.227032,0.99846 0.222403,1.91756 -0.18352,2.59094 -0.382559,0.69053 -1.287687,1.21151 -2.357648,1.42765 -2.163251,0.41968 -4.699746,-0.003 -6.817896,-1.13529 l -0.488324,0.74184 c 1.020195,0.83667 2.23479,1.45565 3.503812,1.88176 1.269025,0.42629 2.632915,0.68273 4.073008,0.58786 1.401215,-0.0886 3.046592,-0.56921 4.188093,-1.94088 1.138388,-1.37788 1.331232,-3.19276 1.152384,-4.64373 -0.169502,-1.4914 -0.611186,-2.83045 -1.136832,-4.10103 -0.548979,-1.2861 -1.253473,-2.55981 -2.242566,-3.72463 -0.973542,-1.160156 -2.281445,-2.206786 -3.867724,-2.788426 -1.57695,-0.60183 -3.348297,-0.69516 -4.934576,-0.40117 -3.212996,0.60655 -5.715273,2.37634 -7.796101,4.264306 -1.048188,0.96112 -1.971963,2.00617 -2.836644,3.08238 -0.827355,1.05127 -1.704472,2.23633 -2.405858,3.56911 -1.391882,2.61117 -2.195908,5.42446 -2.567596,8.26421 -0.370127,2.84909 -0.248809,5.74481 0.359239,8.62503 0.62829,2.8646 1.746461,5.79146 3.95481,8.36683 1.105731,1.26436 2.534939,2.4261 4.22075,3.18968 1.67804,0.77446 3.578464,1.11818 5.342034,1.04972 0.884893,-0.0309 1.746462,-0.14768 2.562932,-0.33283 0.407467,-0.0935 0.813354,-0.18648 1.197487,-0.30815 l 0.590965,-0.18956 0.447891,-0.15253 c 1.342116,-0.46812 2.572264,-0.9642 3.808629,-1.50228 2.464956,-1.07 4.783721,-2.28614 7.030952,-3.47116 l 0.262828,-0.13666 c -0.0015,1.38097 0.08244,2.78684 0.276801,4.20982 0.200626,1.42457 0.514766,2.87554 1.113507,4.37474 0.298581,0.75269 0.704491,1.58005 1.290801,2.38718 0.59874,0.80559 1.41521,1.65627 2.59403,2.25348 1.16016,0.60963 2.64691,0.83979 3.91905,0.63917 1.28146,-0.19265 2.34209,-0.6874 3.20366,-1.2597 1.71225,-1.15085 2.80243,-2.57691 3.63756,-4.03256 1.65626,-2.91909 2.28455,-6.10718 2.20057,-9.23934 -0.0185,-0.78843 -0.0871,-1.56916 -0.19595,-2.33432 -0.0498,-0.36854 -0.12599,-0.79778 -0.20684,-1.19744 l -0.10108,-0.46346 -0.17731,-0.66875 c -0.23016,-0.81956 -0.53652,-1.69202 -1.05906,-2.61738 -0.50854,-0.90976 -1.27524,-1.90817 -2.36542,-2.69665 -1.08863,-0.79002 -2.42297,-1.24259 -3.58313,-1.37634 -1.16638,-0.14151 -2.18502,-0.0397 -3.07148,0.123 -0.14931,0.022 -0.27993,0.0622 -0.41989,0.0917 1.17571,-4.05588 3.31408,-7.8645 6.85833,-9.66073 0.71382,-0.37031 1.4883,-0.65628 2.28144,-0.902 -0.0949,0.48364 -0.20684,0.95644 -0.26128,1.45719 -0.17109,1.39498 -0.16488,2.80244 -0.003,4.1772 0.30484,2.76511 1.2146,5.44002 2.762,7.77434 0.77914,1.16483 1.71536,2.25035 2.90662,3.13365 1.16794,0.86779 2.64536,1.58631 4.32806,1.59561 1.68581,0.0309 3.2892,-0.79469 4.35761,-1.84442 1.08551,-1.07308 1.81178,-2.27988 2.39963,-3.552 1.0793,-2.41367 1.85844,-5.3094 1.1555,-8.22691 -0.339,-1.437 -1.05906,-2.79932 -2.01705,-3.90348 -0.95487,-1.11352 -2.13681,-1.98598 -3.38095,-2.63449 -2.15548,-1.11352 -4.48202,-1.68114 -6.83189,-1.85686 1.73868,-3.39339 4.06523,-6.578386 6.66393,-9.285966 1.63916,-1.67646 3.44472,-3.17258 5.32648,-4.19276 1.8771,-1.02795 3.80241,-1.46341 5.30004,-1.0902 1.21459,0.23938 2.33432,1.06688 3.33897,2.25035 -1.95952,2.84133 -3.47738,5.93768 -4.53957,9.113336 -1.80244,5.42133 -2.48516,11.05577 -2.16947,16.65286 0.16488,2.79619 0.56142,5.59396 1.32035,8.40258 0.38415,1.40279 0.85379,2.81021 1.47742,4.21922 0.64384,1.42919 1.36545,2.7931 2.55671,4.28763 1.0513,1.2317 2.28611,2.60336 4.519343,3.63598 1.09951,0.49299 2.60803,0.84292 4.16788,0.6423 1.57695,-0.19265 2.96572,-0.93934 3.92371,-1.75268 1.90353,-1.6687 2.65935,-3.39494 3.26587,-4.94236 0.58163,-1.55982 0.90511,-3.0528 1.1275,-4.50691 0.42144,-2.9175 0.43546,-5.69659 0.27217,-8.4244 -0.18043,-2.72777 -0.54743,-5.39956 -1.08086,-8.00914 -1.06996,-5.24248 -2.60025,-10.24704 -4.62976,-15.136546 -0.1602,-0.38265 -0.34526,-0.75736 -0.51165,-1.13837 0.46966,-0.53809 0.96731,-1.0544 1.49452,-1.53496 3.01704,-2.8382 6.85988,-4.69042 11.11174,-5.63751 4.43847,-0.88181 9.22219,-1.28148 13.68244,-0.93313 4.48202,0.36854 8.71521,1.61894 12.38077,3.97971 3.70131,2.311 6.87077,5.68729 9.64053,9.572116 2.76822,3.89882 5.26584,8.21757 7.85832,12.5767 0.33437,0.56141 0.59874,1.03421 1.07618,1.7589 0.41835,0.63141 0.87869,1.2317 1.38411,1.80091 1.00308,1.14459 2.18034,2.15234 3.46335,2.9455 2.58317,1.60337 5.47582,2.35456 8.2378,2.59248 5.57064,0.45723 10.75872,-0.81956 15.64197,-2.4463 2.4463,-0.83358 4.81791,-1.83044 7.13513,-2.89886 1.15552,-0.54117 2.2939,-1.12435 3.42297,-1.71688 l 1.67646,-0.9098 1.59874,-0.902 -0.25656,-0.85223 -1.82891,0.6874"
       style="fill:#3e5d27;fill-opacity:1;fill-rule:nonzero;stroke:none;stroke-width:0.155517"
       id="path1614" />
  </g>
</svg>
