<?xml version="1.0" encoding="UTF-8" standalone="no"?>
<svg
   xmlns:dc="http://purl.org/dc/elements/1.1/"
   xmlns:cc="http://creativecommons.org/ns#"
   xmlns:rdf="http://www.w3.org/1999/02/22-rdf-syntax-ns#"
   xmlns:svg="http://www.w3.org/2000/svg"
   xmlns="http://www.w3.org/2000/svg"
   xmlns:sodipodi="http://sodipodi.sourceforge.net/DTD/sodipodi-0.dtd"
   xmlns:inkscape="http://www.inkscape.org/namespaces/inkscape"
   sodipodi:docname="cebolla.svg"
   inkscape:version="1.0 (4035a4fb49, 2020-05-01)"
   id="svg1803"
   version="1.1"
   viewBox="0 0 400 400"
   height="400mm"
   width="400mm">
  <defs
     id="defs1797" />
  <sodipodi:namedview
     inkscape:window-maximized="0"
     inkscape:window-y="0"
     inkscape:window-x="90"
     inkscape:window-height="729"
     inkscape:window-width="1260"
     showgrid="false"
     inkscape:document-rotation="0"
     inkscape:current-layer="layer1"
     inkscape:document-units="mm"
     inkscape:cy="674.28571"
     inkscape:cx="400"
     inkscape:zoom="0.35"
     inkscape:pageshadow="2"
     inkscape:pageopacity="0.0"
     borderopacity="1.0"
     bordercolor="#666666"
     pagecolor="#ffffff"
     id="base" />
  <metadata
     id="metadata1800">
    <rdf:RDF>
      <cc:Work
         rdf:about="">
        <dc:format>image/svg+xml</dc:format>
        <dc:type
           rdf:resource="http://purl.org/dc/dcmitype/StillImage" />
        <dc:title></dc:title>
      </cc:Work>
    </rdf:RDF>
  </metadata>
  <g
     id="layer1"
     inkscape:groupmode="layer"
     inkscape:label="Capa 1">
    <path
       d="m 253.95787,332.82312 c -41.33135,0 -73.54416,-21.60245 -73.54416,-21.60245 -13.43451,-1.70397 -46.62784,-24.23949 -25.26986,-31.90349 1.33722,-0.48159 2.74431,-0.90067 4.21371,-1.2699 0.56645,1.13016 1.18008,2.20042 1.82369,3.21085 9.08106,14.55717 25.37459,20.90389 46.77005,24.3667 3.89689,0.62869 7.48685,0.9081 10.79995,0.9081 6.52642,0 11.96759,-1.08023 16.50314,-2.67444 8.36504,7.10271 14.62697,8.3451 13.67644,12.32182 -1.15258,4.81001 -1.57173,6.91311 -0.007,6.91311 0.60606,0 1.50687,-0.31682 2.77677,-0.91064 2.14546,-1.00039 4.29602,-1.6341 6.2794,-1.6341 2.22538,0 4.23867,0.79587 5.79787,2.7593 1.0279,1.29225 1.49189,1.83367 1.71147,1.83367 0.41441,0 -0.0283,-1.90601 0.75839,-4.35592 0.1973,-0.61879 0.9605,-0.81086 2.20295,-0.81086 1.00039,0 2.31512,0.12446 3.89937,0.24963 1.58417,0.12235 3.44032,0.24681 5.52596,0.24681 8.94634,0 22.12138,-2.27771 36.25191,-16.61034 12.3069,-12.48151 20.80418,-24.51395 22.93225,-37.70893 7.49682,1.01792 15.04859,2.92889 22.73006,6.07233 36.74595,15.0312 -38.60451,51.39789 -88.0739,59.22157 -6.05239,0.95555 -11.9975,1.37718 -17.75549,1.37718"
       style="fill:#525e20;fill-opacity:1;fill-rule:nonzero;stroke:none;stroke-width:0.249479"
       id="path1692" />
    <path
       d="m 176.73138,236.0598 c -3.13602,-0.61879 -24.2445,-20.95629 -76.99453,-30.78585 -52.75505,-9.827 -75.02112,-30.63861 -39.59995,-23.20911 35.42613,7.42455 67.32467,16.78255 65.67558,15.32808 -1.64655,-1.45447 -89.37371,-39.08604 -99.38783,-47.68565 -10.01661,-8.59954 34.90224,-13.61661 68.4947,7.53685 33.59501,21.15339 18.24451,7.18 -3.096,-20.55468 -21.33556,-27.73221 -20.01828,-28.80247 6.91806,-1.3921 26.93387,27.4079 52.47812,42.31427 39.69974,22.75757 -12.77831,-19.55677 -36.81575,-77.777875 -16.59288,-47.22654 20.2228,30.55382 38.22029,64.15123 60.36417,80.61696 22.14133,16.46318 44.13549,54.38914 -5.48106,44.61447"
       style="fill:#398036;fill-opacity:1;fill-rule:nonzero;stroke:none;stroke-width:0.249479"
       id="path1694" />
    <path
       d="m 244.55497,192.26609 3.10603,-7.94093 c 0,0 16.99209,9.01119 23.81539,43.53176 6.82577,34.52051 -8.87655,44.74919 -3.64739,49.18998 5.22908,4.44071 6.24694,5.50354 1.31473,6.47896 -4.92973,0.9755 -8.89394,3.30314 -9.08106,8.04327 -0.18458,4.73759 -0.28712,1.74138 -3.48029,-0.57636 -1.49937,-1.08525 -4.61284,3.30059 -11.08933,7.68642 -7.34223,4.97217 -19.00792,9.94433 -37.54175,6.94557 -21.60995,-3.49775 -38.01578,-9.93676 -47.04196,-24.8058 -9.02371,-14.86401 83.64563,-88.55294 83.64563,-88.55294"
       style="fill:#e59d13;fill-opacity:1;fill-rule:nonzero;stroke:none;stroke-width:0.249479"
       id="path1696" />
    <path
       d="m 186.35132,189.37709 c -3.91937,2.29772 -7.82368,-2.73674 -10.74514,-7.77128 -3.06113,-5.27901 -5.04197,-10.55301 -4.82988,-7.39457 0.40946,6.1746 12.39664,29.63823 17.09929,33.33052 4.70025,3.69477 -9.03863,-5.93266 -15.06111,-8.90893 -6.01993,-2.97627 1.59924,5.93761 8.62458,12.63114 7.02781,6.68858 -5.70814,4.28358 -9.8944,2.16803 -4.18627,-2.12057 -3.6923,4.70018 1.44697,9.32554 5.1368,4.62536 -4.76255,0.35642 -15.31308,-3.84201 -10.54798,-4.19624 -18.09226,-4.27608 -10.49812,1.69152 7.5942,5.97503 12.78835,8.29771 11.11189,13.4145 -1.6865,5.11685 -4.96969,15.99169 -2.15805,33.99414 2.81913,18.01249 18.91556,26.56712 18.91556,26.56712 0,0 37.04036,13.90352 63.3555,-34.45565 26.30511,-48.36172 9.25567,-75.802 9.25567,-75.802 0,0 -4.46815,-3.28814 -12.67859,-5.12683 -10.55046,-2.36505 -27.28308,-2.33011 -48.63109,10.17876"
       style="fill:#e59d13;fill-opacity:1;fill-rule:nonzero;stroke:none;stroke-width:0.249479"
       id="path1698" />
    <path
       d="m 199.09477,269.308 c -9.13849,0 -16.92971,-5.12428 -21.76214,-12.41913 -9.7048,-14.65193 -7.91102,-23.18916 -17.83038,-31.86105 -3.49768,-3.05866 -3.99413,-4.26858 -2.84403,-4.26858 2.11308,0 9.77955,4.07396 14.62945,8.26277 1.57674,1.36212 2.77175,1.92348 3.65488,1.92348 3.30815,0 2.19044,-7.86859 0.0354,-10.72018 -1.34719,-1.77879 -1.2723,-2.37254 0.0919,-2.37254 1.39959,0 4.15635,0.62374 8.1231,1.22994 0.55656,0.082 1.06276,0.12234 1.5218,0.12234 6.03492,0 4.02665,-6.88567 -1.18249,-10.97463 -1.10774,-0.87069 -1.42208,-1.19748 -1.20752,-1.19748 0.31682,0 1.81372,0.73095 3.58502,1.4619 1.5568,0.64142 3.32809,1.28489 4.6977,1.43205 0.50422,0.95803 1.12018,2.44737 1.02288,4.36837 -0.22489,4.36342 -2.94883,9.42539 -7.62907,9.42539 -0.45402,0 -0.92557,-0.0495 -1.41706,-0.14709 -0.95548,-0.19731 -1.68396,-0.28217 -2.22538,-0.28217 -2.60705,0 -0.95548,1.9983 0.24964,3.54011 1.14267,1.46197 -3.14091,4.34348 -7.0827,4.34348 -1.08525,0 -2.14306,-0.21923 -3.05618,-0.74602 -0.96298,-0.55655 -1.58169,-0.87316 -1.84364,-0.87316 -0.88561,0 2.34765,3.64244 10.28859,13.94842 4.4632,5.79547 9.62489,9.43784 15.51018,9.43784 4.20373,-0.002 8.77916,-1.8611 13.72884,-6.12721 0.29206,5.26154 1.33227,11.68061 3.76216,19.20247 -4.44573,2.27778 -8.76672,3.29061 -12.82329,3.29061 M 193.564,209.95172 c -0.40946,0 -0.83328,-0.0799 -1.26983,-0.24469 0.3642,-0.21216 0.58909,-0.57353 0.61596,-1.13016 0.23196,-4.48816 -12.40668,-14.9638 -9.56761,-14.9638 0.18175,0 0.42644,0.0424 0.74099,0.13225 0,0 13.12759,-2.55472 18.65858,-6.98546 1.88112,-1.50687 5.84533,-2.25777 10.52061,-2.25777 9.06855,0 20.82158,2.82409 25.27728,8.44983 1.04282,1.31728 2.03331,2.96637 2.88151,4.90732 -3.21579,-1.62915 -6.58377,-2.9489 -10.07155,-3.7971 -2.72175,-0.68103 -5.501,-1.13766 -8.28767,-1.35469 -2.90145,-2.29518 -6.3992,-3.63742 -9.77715,-4.09893 -1.33722,-0.17963 -2.59955,-0.26166 -3.79958,-0.26166 -9.64985,0 -15.06111,5.30143 -20.46487,6.2794 -0.0495,0.007 -0.075,0.0141 -0.075,0.0141 0.0283,-0.002 0.0495,-0.007 0.075,-0.0141 0.0424,-0.005 0.0948,-0.007 0.1669,-0.007 0.6987,0 2.89402,0.43633 6.26943,5.13679 3.56762,4.97712 1.43955,10.19871 -1.8935,10.19871 m 36.25191,-2.31017 c 0.0495,-4.58045 -1.2025,-8.29269 -3.21827,-11.18919 1.24989,0.3345 2.48732,0.70577 3.70977,1.12018 3.58501,1.27485 7.05525,2.82911 10.27105,4.81496 -4.09391,1.55928 -7.66153,3.35051 -10.76255,5.25405"
       style="fill:#eab50e;fill-opacity:1;fill-rule:nonzero;stroke:none;stroke-width:0.249479"
       id="path1700" />
    <path
       d="m 191.15376,209.95674 c -0.17184,0 -0.3543,-0.0142 -0.54383,-0.0283 -0.41653,-0.79834 -0.75336,-1.22747 -0.53109,-1.22747 0.1775,0 0.6987,0.26449 1.7988,0.82077 0.14002,0.0721 0.27934,0.13436 0.41936,0.1874 -0.29702,0.17468 -0.6888,0.24964 -1.1426,0.24964"
       style="fill:#eab50e;fill-opacity:1;fill-rule:nonzero;stroke:none;stroke-width:0.249479"
       id="path1702" />
    <path
       d="m 194.42698,252.94213 c -5.88521,0 -11.04698,-3.64244 -15.51018,-9.43784 -7.94093,-10.30598 -11.17419,-13.94842 -10.28858,-13.94842 0.26166,0 0.88066,0.31682 1.84371,0.87316 0.91304,0.52615 1.97086,0.74595 3.05611,0.74595 3.94179,0 8.22536,-2.88151 7.08276,-4.34341 -1.20505,-1.54181 -2.85661,-3.54011 -0.24964,-3.54011 0.541,0 1.26983,0.0849 2.22531,0.28217 0.49149,0.0997 0.96305,0.1471 1.41706,0.1471 4.68024,0 7.40461,-5.06198 7.62914,-9.4254 0.0976,-1.921 -0.51908,-3.41041 -1.02288,-4.36837 0.18953,0.0142 0.37198,0.0283 0.54383,0.0283 0.45401,0 0.84573,-0.075 1.1426,-0.24963 0.43634,0.16477 0.86072,0.24468 1.26983,0.24468 3.33304,0 5.46111,-5.22166 1.89356,-10.19877 -3.37547,-4.70018 -5.57087,-5.1368 -6.26942,-5.1368 -0.0721,0 -0.1273,0.005 -0.1669,0.007 5.40376,-0.97797 10.81494,-6.2794 20.46487,-6.2794 1.19996,0 2.46236,0.082 3.79958,0.26166 3.37795,0.4618 6.87563,1.80376 9.77707,4.099 -1.21494,-0.0919 -2.43244,-0.14002 -3.64739,-0.14002 -4.59042,0 -9.14096,0.68102 -13.42948,2.128 1.79378,-0.1669 3.58749,-0.24964 5.36882,-0.24964 5.20412,0 10.33342,0.69587 15.24321,2.00587 2.01577,2.89642 3.2682,6.60873 3.21827,11.18919 -5.33884,3.27314 -9.2981,6.87315 -12.19707,10.18873 -0.39673,0.45401 -0.77338,0.90315 -1.13263,1.34471 -2.90393,-1.54428 -5.89271,-2.92641 -8.97131,-4.05904 1.00293,-3.1235 1.65156,-5.76549 1.83367,-7.36712 0.80336,-6.97549 -3.12344,-13.21748 -7.87355,-13.79376 -0.36137,-0.0424 -0.69092,-0.0636 -0.99543,-0.0636 -5.98253,0 -1.17004,8.26773 -1.36714,13.12264 -0.2072,5.10681 -1.34719,10.64777 -6.57635,16.7725 -0.49432,0.57636 -0.98044,1.07776 -1.45694,1.5119 -0.80577,-0.4915 -1.61409,-0.9755 -2.42742,-1.45447 0.62869,0.64354 1.25985,1.28227 1.89851,1.91598 -4.29602,3.56507 -7.45694,1.89109 -5.96505,4.19878 1.72143,2.65443 3.71973,3.0885 -0.14993,4.13387 -3.87941,1.04529 -4.31851,7.14011 5.07697,7.29725 0.0283,0 0.0566,0.002 0.087,0.002 3.23573,0 6.49891,-3.18836 9.41535,-7.64406 1.9135,1.72391 3.84943,3.42031 5.79787,5.09931 1.0878,0.94806 2.18549,1.88862 3.28567,2.82168 -0.0566,1.56918 -0.0495,3.28559 0.0566,5.14677 -4.94967,4.26611 -9.52511,6.12474 -13.72884,6.12721 m 14.07565,-15.9767 c -0.47382,-0.33663 -0.94806,-0.67325 -1.42456,-1.00789 -2.18295,-1.55178 -4.38089,-3.08857 -6.5987,-4.59297 2.69686,-4.67776 5.01453,-10.24361 6.60867,-14.95383 2.55471,1.71394 5.06198,3.45779 7.52935,5.2416 -3.16091,4.50309 -4.19631,7.80375 -4.19631,7.80375 v 0 c 0,0 -1.23991,2.55464 -1.91845,7.50934 m -19.55423,-42.32665 c 0,0 0.0283,-0.005 0.075,-0.0141 -0.0212,0.005 -0.0495,0.007 -0.075,0.0141"
       style="fill:#edc41c;fill-opacity:1;fill-rule:nonzero;stroke:none;stroke-width:0.249479"
       id="path1704" />
    <path
       d="m 189.60205,241.39122 c -0.0283,0 -0.0566,-0.002 -0.087,-0.002 -9.39541,-0.15699 -8.95639,-6.25196 -5.07697,-7.29725 3.86944,-1.04537 1.87115,-1.47944 0.14992,-4.13387 -1.49188,-2.30769 1.66903,-0.63364 5.96513,-4.19878 2.75668,2.74679 5.58833,5.39626 8.46482,7.98839 -2.91644,4.4557 -6.17962,7.64406 -9.41535,7.64406 m 10.87732,-10.02665 c -3.08108,-2.09065 -6.20458,-4.12141 -9.39796,-6.06731 0.47665,-0.43421 0.96305,-0.93554 1.45702,-1.5119 5.22909,-6.12473 6.36921,-11.66569 6.57628,-16.7725 0.1973,-4.85491 -4.61539,-13.12264 1.36713,-13.12264 0.30409,0 0.63364,0.0212 0.99544,0.0636 4.75011,0.57635 8.6769,6.81827 7.87361,13.79376 -0.18175,1.60163 -0.8308,4.24362 -1.83374,7.36712 -1.52929,-0.56151 -3.07852,-1.06276 -4.65279,-1.48941 1.42208,0.92062 2.8291,1.84866 4.22374,2.7842 -1.59421,4.71022 -3.91187,10.27607 -6.60873,14.95383"
       style="fill:#eece27;fill-opacity:1;fill-rule:nonzero;stroke:none;stroke-width:0.249479"
       id="path1706" />
    <path
       d="m 240.28638,236.95545 c -5.19917,-5.33389 -11.06691,-10.00168 -17.30395,-14.02324 -6.2944,-3.91435 -12.95051,-7.3597 -20.11807,-9.30567 6.19213,4.00919 12.12473,8.14808 17.82784,12.57634 5.73557,4.37084 11.16925,9.07109 16.38086,14.00578 5.20915,4.93475 10.05409,10.29106 14.42748,16.01411 4.37338,5.72561 8.39997,11.78797 11.3413,18.51141 -1.46939,-7.24485 -4.85732,-14.00825 -8.71927,-20.32258 -3.97177,-6.2869 -8.64699,-12.11476 -13.83619,-17.45615"
       style="fill:#9d5f1d;fill-opacity:1;fill-rule:nonzero;stroke:none;stroke-width:0.249479"
       id="path1708" />
    <path
       d="m 230.30967,197.57254 c 3.80205,1.35215 7.47695,3.02118 10.85737,5.18171 3.19585,1.95594 5.80792,4.89974 7.97587,8.21539 2.24037,3.27562 4.04406,6.92301 5.64576,10.67273 1.66154,3.72971 2.98377,7.63162 4.30847,11.54844 2.53972,7.87609 4.64785,15.94177 6.62126,24.12719 -0.0283,-8.44241 -1.15512,-16.8549 -3.0861,-25.11767 -1.96343,-8.24531 -4.76255,-16.44572 -9.58005,-23.85025 -2.47481,-3.60751 -5.55093,-7.11516 -9.60997,-9.41535 -3.81203,-2.1256 -7.86605,-3.84449 -12.0898,-4.87238 -8.40244,-2.10311 -17.34384,-2.07065 -25.36461,0.63364 8.37005,-0.7784 16.67024,0.29207 24.3218,2.87648"
       style="fill:#9d5f1d;fill-opacity:1;fill-rule:nonzero;stroke:none;stroke-width:0.249479"
       id="path1710" />
    <path
       d="m 242.99576,283.12673 -12.37925,-1.1426 -6.18711,-0.59899 c -2.07566,-0.20438 -4.14885,-0.3543 -6.04489,-0.67395 -3.8819,-0.59404 -7.66153,-1.77879 -11.23657,-3.45779 -7.20745,-3.2757 -13.57171,-8.39503 -19.27235,-14.17296 -5.66817,-5.84533 -10.75504,-12.36425 -15.32552,-19.35473 2.84155,7.89356 7.21493,15.23579 12.60625,21.80209 5.39619,6.55386 12.09474,12.28194 20.02571,16.00167 3.98174,1.78127 8.23038,3.07358 12.59125,3.59747 2.22786,0.24963 4.31102,0.27721 6.38421,0.3741 2.08316,0.0948 4.17629,0.13436 6.25946,0.14992 4.17629,0.0636 8.36256,-0.007 12.54635,-0.21215 2.09313,-0.14215 4.18627,-0.27934 6.2719,-0.5311 2.07567,-0.27722 4.19879,-0.5113 6.17467,-1.26488 -2.06322,0.25954 -4.14886,0.0495 -6.21208,-0.0424 -2.06817,-0.13719 -4.13634,-0.27722 -6.20203,-0.47664"
       style="fill:#9d5f1d;fill-opacity:1;fill-rule:nonzero;stroke:none;stroke-width:0.249479"
       id="path1712" />
    <path
       d="m 192.60576,290.40156 c -4.10395,-1.41204 -7.82369,-3.39796 -11.31641,-5.98506 -3.51515,-2.50727 -6.61871,-5.5534 -9.37547,-8.91141 -5.42865,-6.79084 -9.28311,-15.00871 -11.10433,-23.87769 -0.12234,9.1085 2.87896,18.32676 8.16795,26.06063 5.28898,7.71895 13.05531,13.9584 22.03412,17.1418 8.93382,3.11601 18.29437,3.97171 27.44778,3.66238 9.15093,-0.36915 18.27938,-1.64159 26.90643,-4.58045 -8.99875,1.01283 -17.9975,1.22492 -26.88896,0.9081 -8.86658,-0.43421 -17.73803,-1.48693 -25.87111,-4.4183"
       style="fill:#9d5f1d;fill-opacity:1;fill-rule:nonzero;stroke:none;stroke-width:0.249479"
       id="path1714" />
    <path
       d="m 224.68887,249.1101 c -5.79038,-4.4881 -11.61576,-8.92888 -17.6108,-13.15256 -5.97751,-4.25118 -12.05486,-8.36758 -18.42407,-12.11475 5.16176,5.29145 10.6054,10.21369 16.16135,15.00368 5.53091,4.81503 11.23402,9.41295 16.9696,13.96589 5.79292,4.48067 11.61831,8.92145 17.61328,13.14513 5.97757,4.24864 12.05485,8.36758 18.42159,12.12225 -5.16424,-5.2865 -10.61283,-10.20627 -16.16128,-14.99873 -5.53346,-4.81496 -11.23657,-9.41543 -16.96967,-13.97091"
       style="fill:#9d5f1d;fill-opacity:1;fill-rule:nonzero;stroke:none;stroke-width:0.249479"
       id="path1716" />
    <path
       d="m 160.80955,206.08729 c -2.02326,0 -6.57627,-1.52434 -14.40003,-5.49357 -19.22241,-9.75219 -95.33126,-45.1484 -95.33126,-45.1484 -4.30599,-5.36875 -3.9792,-7.59166 -0.49362,-7.59166 15.91681,0 97.73881,46.39079 105.30048,51.38537 5.46614,3.61253 7.87609,6.84826 4.92479,6.84826"
       style="fill:#5a9d34;fill-opacity:1;fill-rule:nonzero;stroke:none;stroke-width:0.249479"
       id="path1718" />
    <path
       d="m 120.26657,115.76553 c 0,0 28.31847,61.02532 39.79952,70.20122 11.48606,9.17837 -4.33096,-20.71182 -8.00331,-25.96587 -3.67483,-5.25405 -35.91763,-52.91975 -31.79621,-44.23535"
       style="fill:#96c222;fill-opacity:1;fill-rule:nonzero;stroke:none;stroke-width:0.249479"
       id="path1720" />
    <path
       d="m 298.21316,229.28891 c 2.16548,-2.3526 7.18,-31.22989 43.93338,-70.32837 36.75592,-39.09353 42.42658,-69.041075 18.23702,-42.11973 -24.19458,26.91888 -44.40246,53.31634 -43.93345,51.16833 0.46886,-2.14801 49.01537,-84.336685 52.0166,-97.192365 2.99876,-12.84577 -36.20453,9.63486 -50.81162,46.550465 -14.60455,36.91553 -10.47812,16.56792 -9.64491,-18.411615 0.83081,-34.97212 -0.86319,-35.0719 -6.40415,2.958795 -5.5384,38.02822 -17.34129,65.14674 -18.58622,41.8203 -1.24239,-23.33131 -16.24615,-84.516315 -14.51474,-47.907625 1.7389,36.598715 7.0653,74.337555 -1.07026,100.705105 -8.14057,26.36508 -3.47773,69.95667 30.77835,32.75671"
       style="fill:#398036;fill-opacity:1;fill-rule:nonzero;stroke:none;stroke-width:0.249479"
       id="path1722" />
    <path
       d="m 217.61862,234.02409 -7.19747,-4.568 c 0,0 -8.38752,17.3089 6.50393,49.19244 14.88899,31.88107 33.59996,30.86067 32.00575,37.53178 -1.59662,6.67359 -1.78876,8.13308 2.7668,6.00247 4.55294,-2.12552 9.12597,-2.58711 12.07727,1.1252 2.95138,3.71472 1.25993,1.23489 2.46986,-2.52225 0.35925,-1.11771 2.54721,-0.84078 6.10232,-0.56151 8.3825,0.65344 24.35171,1.30978 41.77787,-16.36339 15.3705,-15.59002 24.80085,-30.47646 23.29892,-47.8029 -1.50185,-17.3263 -119.80525,-22.03398 -119.80525,-22.03398"
       style="fill:#e59d13;fill-opacity:1;fill-rule:nonzero;stroke:none;stroke-width:0.249479"
       id="path1724" />
    <path
       d="m 262.8743,197.3106 c 9.25574,-0.94558 0.28712,-26.66443 3.60248,-21.44029 3.31813,5.22406 7.50934,31.23738 5.89773,36.99537 -1.60913,5.75799 3.78706,-10.1289 6.88815,-16.08901 3.09854,-5.95508 2.21788,5.74053 0.5014,15.28819 -1.71649,9.55007 7.13757,0.0849 9.26316,-4.09652 2.12559,-4.18372 5.75799,1.6092 4.34595,8.38003 -1.41204,6.76842 4.05155,-2.52721 10.084,-12.14715 6.03238,-9.61746 12.06985,-14.14049 9.47023,-4.83744 -2.59955,9.30814 -5.41373,14.25032 -1.04035,17.38627 4.38089,3.13348 13.45693,9.96675 21.82451,26.15547 8.36759,16.19628 0.43634,32.60706 0.43634,32.60706 0,0 -21.67233,33.10351 -71.476,9.63239 -49.7937,-23.47855 -52.2511,-55.68888 -52.2511,-55.68888 0,0 1.66154,-5.29401 7.20001,-11.62581 7.11763,-8.14298 20.63693,-17.99997 45.25314,-20.51968"
       style="fill:#e59d13;fill-opacity:1;fill-rule:nonzero;stroke:none;stroke-width:0.249479"
       id="path1726" />
    <path
       d="m 281.3483,274.71926 c -4.9472,0 -10.568,-0.82833 -16.88728,-2.68943 -32.41747,-9.5401 -41.99251,-30.12972 -41.58587,-41.00202 0.40946,-10.76007 17.80542,-26.15052 25.01541,-26.15052 0.0707,0 0.14002,0.002 0.20932,0.005 0.18741,0.007 0.37693,0.0141 0.56858,0.0141 7.14259,-0.002 18.61119,-5.39874 18.61119,-5.39874 0.35643,-0.46179 0.62374,-0.66829 0.81582,-0.66829 1.6116,0 -1.87363,14.53715 0.82578,17.85026 0.3147,0.38683 0.66122,0.55372 1.03285,0.55372 0.0424,0 0.0877,-0.002 0.13224,-0.007 -0.68385,1.05527 -1.68905,1.55178 -2.76928,1.55178 -2.59212,0 -5.61577,-2.86156 -5.66315,-7.71393 -0.0566,-6.37918 1.78628,-7.73139 2.16548,-7.94093 0.0212,-0.007 0.0424,-0.0212 0.0636,-0.0354 0,0 -0.0212,0.007 -0.0636,0.0354 -5.55348,2.70435 -14.33766,1.00286 -23.1343,9.48267 -8.83163,8.51977 -12.13222,27.17587 18.73594,38.91143 9.36048,3.55758 16.81749,5.13432 22.67271,5.13432 13.45948,0 18.46905,-8.32267 18.75341,-20.06318 0.30409,-12.37925 0.7335,-17.36881 0.157,-17.36881 -0.20933,0 -0.54666,0.64849 -1.06771,1.83119 -1.2774,2.90145 -5.27407,4.33343 -7.89858,4.33343 -1.41706,0 -2.43244,-0.41653 -2.405,-1.24486 0.0495,-1.54181 0.14992,-3.47526 -0.83321,-3.47526 -0.52615,0 -1.36466,0.55373 -2.68943,2.01329 -1.37966,1.5218 -3.04367,2.14801 -4.74764,2.14801 -2.98871,0 -6.10225,-1.92347 -8.03075,-4.28852 -1.21247,-1.49195 -1.59661,-3.06113 -1.7563,-4.13139 0.85068,-0.77345 1.72392,-1.99087 2.4973,-3.20837 1.28481,-2.02079 2.30267,-4.03903 2.52225,-4.03903 0.10961,0 0.0283,0.48655 -0.31187,1.70142 -1.4445,5.15179 -0.12517,10.54056 3.00371,10.54056 1.03787,0 2.27523,-0.59404 3.6773,-1.98585 3.68982,-3.6749 5.71563,-6.16717 6.64869,-6.16717 0.4915,0 0.68103,0.68385 0.65627,2.23782 -0.0424,3.14345 2.85902,8.96134 5.37625,8.96134 1.10025,0 2.12807,-1.11269 2.80167,-4.04907 1.56925,-6.80831 5.9152,-15.48026 7.32724,-15.48026 0.59121,0 0.66829,1.50935 -0.17963,5.294 -2.87896,12.8607 3.61246,18.68601 4.43824,36.24194 0.66334,14.13307 -8.2702,28.26861 -28.68522,28.26861"
       style="fill:#eab50e;fill-opacity:1;fill-rule:nonzero;stroke:none;stroke-width:0.249479"
       id="path1728" />
    <path
       d="m 270.08676,217.22408 c 0.0799,-0.12447 0.157,-0.25671 0.22984,-0.39886 0.62869,-1.23991 0.88314,-1.74385 1.0129,-1.74385 0.12942,0 0.12518,0.5212 0.24681,1.32223 -0.51412,0.46674 -1.01785,0.77338 -1.48941,0.82076"
       style="fill:#eab50e;fill-opacity:1;fill-rule:nonzero;stroke:none;stroke-width:0.249479"
       id="path1730" />
    <path
       d="m 282.09424,256.64942 c -5.8553,0 -13.31224,-1.57674 -22.67271,-5.13432 -30.86816,-11.73556 -27.56758,-30.39166 -18.73601,-38.91136 8.7967,-8.47988 17.58089,-6.77839 23.13429,-9.48275 -0.37905,0.20933 -2.22538,1.56176 -2.16548,7.94094 0.0495,4.85237 3.0711,7.71393 5.66323,7.71393 1.08023,0 2.08564,-0.49645 2.7692,-1.55178 0.4717,-0.0495 0.9755,-0.3543 1.48941,-0.82076 0.15983,1.07025 0.54383,2.63943 1.7563,4.13138 1.9285,2.36505 5.04203,4.28853 8.03082,4.28853 1.7039,0 3.36798,-0.62586 4.74756,-2.14801 1.32478,-1.45949 2.163,-2.01329 2.68944,-2.01329 0.98291,0 0.88066,1.93345 0.8332,3.47526 -0.0283,0.82826 0.98794,1.24486 2.40501,1.24486 2.62451,0 6.62118,-1.43198 7.89857,-4.33343 0.5212,-1.18256 0.85817,-1.83119 1.06771,-1.83119 0.57636,0 0.1471,4.98956 -0.15699,17.3688 -0.28429,11.74051 -5.29394,20.06319 -18.75341,20.06319 m -25.99826,-48.12219 c -0.7709,0 -1.66153,0.41936 -2.72182,1.41204 -3.4952,3.27315 -2.97379,10.62535 1.79626,15.77961 4.06151,4.39836 21.82698,16.63029 31.61657,16.63029 1.69895,0 3.1559,-0.36703 4.26109,-1.20745 6.55139,-4.96714 4.34348,-9.15341 1.17761,-9.15341 -0.45189,0 -0.92309,0.0849 -1.3921,0.26732 -0.96305,0.37198 -1.58919,0.54665 -1.9884,0.54665 -1.15505,0 -0.44128,-1.44697 -0.57635,-3.79208 -0.0495,-0.83327 -0.22489,-1.11771 -0.60606,-1.11771 -0.40452,0 -1.03533,0.31965 -1.98338,0.63859 -0.94799,0.32177 -2.21286,0.64142 -3.87942,0.64142 -1.03532,0 -2.22531,-0.12446 -3.58997,-0.44623 -7.83867,-1.85114 -12.03244,-5.64824 -15.21577,-9.64738 -2.56971,-3.22082 -3.67737,-10.55053 -6.89819,-10.55053 m 7.7239,-5.40623 c 0.0424,-0.0212 0.0636,-0.0354 0.0636,-0.0354 -0.0212,0.0141 -0.0424,0.0212 -0.0636,0.0354"
       style="fill:#edc41c;fill-opacity:1;fill-rule:nonzero;stroke:none;stroke-width:0.249479"
       id="path1732" />
    <path
       d="m 286.78692,242.34917 c -9.78959,0 -27.55506,-12.23193 -31.61658,-16.63029 -4.77005,-5.15426 -5.29146,-12.50646 -1.79625,-15.77961 1.06028,-0.99296 1.95091,-1.41204 2.72182,-1.41204 3.22081,0 4.32848,7.32971 6.89812,10.55046 3.1834,3.99921 7.37716,7.79624 15.21577,9.64745 1.36466,0.32177 2.55472,0.44694 3.59004,0.44694 1.66656,0 2.93143,-0.31965 3.87942,-0.64142 0.94805,-0.31965 1.57922,-0.63859 1.98337,-0.63859 0.38188,0 0.55868,0.28429 0.60606,1.11764 0.13437,2.3451 -0.57848,3.79208 0.57636,3.79208 0.39885,0 1.02535,-0.17468 1.98833,-0.54666 0.46886,-0.18245 0.94056,-0.26731 1.3921,-0.26731 3.16593,0 5.37377,4.18626 -1.17754,9.15341 -1.10519,0.84077 -2.56214,1.20752 -4.26109,1.20752"
       style="fill:#eece27;fill-opacity:1;fill-rule:nonzero;stroke:none;stroke-width:0.249479"
       id="path1734" />
    <path
       d="m 247.46639,267.56168 c 1.04288,-7.37717 3.02124,-14.6071 5.67567,-21.53513 2.76673,-6.87818 6.10232,-13.59165 10.73263,-19.39709 -2.62699,6.89317 -4.96714,13.73888 -6.953,20.6819 -2.0432,6.91057 -3.65234,13.91597 -4.94218,20.97631 -1.28481,7.05773 -2.03076,14.2453 -2.17799,21.44525 -0.1471,7.20249 0.1874,14.47238 1.78628,21.63491 -3.09599,-6.71347 -4.35592,-14.17295 -4.97209,-21.55005 -0.50918,-7.41458 -0.18175,-14.87901 0.85068,-22.2561"
       style="fill:#9d5f1d;fill-opacity:1;fill-rule:nonzero;stroke:none;stroke-width:0.249479"
       id="path1736" />
    <path
       d="m 232.24814,229.89016 c -2.27029,3.34054 -4.24864,6.85575 -5.69809,10.59791 -1.42209,3.46776 -1.79379,7.38459 -1.58425,11.3389 0.12942,3.96923 0.82826,7.97834 1.75135,11.94758 0.8632,3.99164 2.10311,7.92099 3.34557,11.86278 2.60704,7.8536 5.67065,15.60996 8.91388,23.37877 -4.95965,-6.82825 -9.02619,-14.28024 -12.34926,-22.089 -3.28814,-7.81117 -5.87524,-16.08144 -6.36172,-24.90056 -0.13436,-4.37587 0.27439,-9.02117 2.19045,-13.2773 1.82115,-3.96676 4.07396,-7.74887 6.87817,-11.07442 5.53346,-6.65866 12.76834,-11.91766 20.83657,-14.47238 -7.20999,4.31604 -13.27737,10.08648 -17.92267,16.68772"
       style="fill:#9d5f1d;fill-opacity:1;fill-rule:nonzero;stroke:none;stroke-width:0.249479"
       id="path1738" />
    <path
       d="m 272.55662,306.41314 9.31061,-8.23527 4.64028,-4.13889 c 1.55426,-1.3921 3.14098,-2.73681 4.48067,-4.11392 2.78172,-2.77422 5.1293,-5.9601 7.02287,-9.42787 3.87941,-6.90059 5.99002,-14.79167 7.17752,-22.82242 1.11771,-8.06321 1.37216,-16.32846 0.92812,-24.67108 2.37007,8.04822 3.18086,16.55547 2.7093,25.03783 -0.47876,8.47734 -2.49976,17.05693 -6.7035,24.74088 -2.15798,3.79215 -4.82245,7.34471 -8.03329,10.34594 -1.6515,1.51437 -3.31558,2.76927 -4.92966,4.07156 -1.62413,1.30723 -3.28814,2.57713 -4.9622,3.81704 -3.33304,2.52219 -6.75095,4.93716 -10.24615,7.24238 -1.77377,1.12513 -3.54259,2.24779 -5.37625,3.27817 -1.83869,1.00038 -3.68982,2.06569 -5.72808,2.62706 1.81868,-1.00796 3.37548,-2.4125 4.98956,-3.6998 1.58919,-1.33474 3.17344,-2.66949 4.7202,-4.05161"
       style="fill:#9d5f1d;fill-opacity:1;fill-rule:nonzero;stroke:none;stroke-width:0.249479"
       id="path1740" />
    <path
       d="m 317.5104,282.51049 c 2.47982,-3.56508 4.30351,-7.36218 5.59583,-11.51351 1.35469,-4.09893 2.0582,-8.39 2.29772,-12.72845 0.36703,-8.68441 -1.37711,-17.59334 -5.14677,-25.8262 5.48106,7.27985 8.50478,16.49069 8.80668,25.85363 0.29207,9.35298 -2.28528,18.97299 -7.65156,26.84653 -5.36387,7.7913 -12.41418,14.01328 -19.98087,19.17256 -7.59915,5.10936 -15.71724,9.47525 -24.41409,12.19955 7.85862,-4.49814 15.24321,-9.6449 22.23114,-15.1534 6.89812,-5.58586 13.43197,-11.67814 18.26192,-18.85071"
       style="fill:#9d5f1d;fill-opacity:1;fill-rule:nonzero;stroke:none;stroke-width:0.249479"
       id="path1742" />
    <path
       d="m 267.23022,268.15295 c 2.02079,-7.04287 4.09646,-14.06822 6.43908,-21.01619 2.31017,-6.96049 4.7825,-13.8736 7.70891,-20.65949 -1.04034,7.31727 -2.52473,14.50731 -4.17375,21.65238 -1.61917,7.15257 -3.50524,14.23285 -5.44371,21.29313 -2.02327,7.04033 -4.10141,14.0632 -6.44404,21.01372 -2.31271,6.96049 -4.78002,13.87353 -7.70148,20.66189 1.04537,-7.31472 2.53223,-14.50476 4.17884,-21.64736 1.61911,-7.15511 3.5027,-14.23532 5.43615,-21.29808"
       style="fill:#9d5f1d;fill-opacity:1;fill-rule:nonzero;stroke:none;stroke-width:0.249479"
       id="path1744" />
    <path
       d="m 292.39527,196.1081 c -1.35964,0 -1.03037,-3.67483 0.88561,-8.84161 3.33312,-8.99125 46.36342,-104.507155 56.56467,-104.507155 1.55171,0 2.34008,2.20296 2.11802,7.25242 0,0 -40.49305,73.524215 -50.24276,92.749175 -4.88483,9.63493 -7.9584,13.34717 -9.32554,13.34717"
       style="fill:#5a9d34;fill-opacity:1;fill-rule:nonzero;stroke:none;stroke-width:0.249479"
       id="path1746" />
    <path
       d="m 272.69883,98.875785 c 0,0 13.20743,65.964945 9.36295,80.152895 -3.84448,14.19042 -8.73928,-19.2698 -8.8815,-25.67897 -0.14002,-6.40917 -2.2852,-63.916795 -0.48159,-54.473925"
       style="fill:#96c222;fill-opacity:1;fill-rule:nonzero;stroke:none;stroke-width:0.249479"
       id="path1748" />
  </g>
</svg>
