<?xml version="1.0" encoding="UTF-8" standalone="no"?>
<svg
   xmlns:dc="http://purl.org/dc/elements/1.1/"
   xmlns:cc="http://creativecommons.org/ns#"
   xmlns:rdf="http://www.w3.org/1999/02/22-rdf-syntax-ns#"
   xmlns:svg="http://www.w3.org/2000/svg"
   xmlns="http://www.w3.org/2000/svg"
   xmlns:sodipodi="http://sodipodi.sourceforge.net/DTD/sodipodi-0.dtd"
   xmlns:inkscape="http://www.inkscape.org/namespaces/inkscape"
   sodipodi:docname="fresa.svg"
   inkscape:version="1.0 (4035a4fb49, 2020-05-01)"
   id="svg4114"
   version="1.1"
   viewBox="0 0 400 400"
   height="400mm"
   width="400mm">
  <defs
     id="defs4108">
    <clipPath
       clipPathUnits="userSpaceOnUse"
       id="clipPath436">
      <path
         d="m 2976.04,9670.86 c -1.98,0 -3.72,0.48 -5.17,1.49 -2.41,1.68 -3.75,4.64 -4.09,8.53 5.25,1.67 10.6,3.68 16.02,6.03 8.29,3.58 17.15,5.86 26.42,7.07 -11.84,-14.2 -24.67,-23.12 -33.18,-23.12"
         id="path434" />
    </clipPath>
  </defs>
  <sodipodi:namedview
     inkscape:window-maximized="0"
     inkscape:window-y="0"
     inkscape:window-x="90"
     inkscape:window-height="729"
     inkscape:window-width="1260"
     showgrid="false"
     inkscape:document-rotation="0"
     inkscape:current-layer="layer1"
     inkscape:document-units="mm"
     inkscape:cy="755.90551"
     inkscape:cx="755.90551"
     inkscape:zoom="0.35652604"
     inkscape:pageshadow="2"
     inkscape:pageopacity="0.0"
     borderopacity="1.0"
     bordercolor="#666666"
     pagecolor="#ffffff"
     id="base" />
  <metadata
     id="metadata4111">
    <rdf:RDF>
      <cc:Work
         rdf:about="">
        <dc:format>image/svg+xml</dc:format>
        <dc:type
           rdf:resource="http://purl.org/dc/dcmitype/StillImage" />
        <dc:title></dc:title>
      </cc:Work>
    </rdf:RDF>
  </metadata>
  <g
     id="layer1"
     inkscape:groupmode="layer"
     inkscape:label="Capa 1">
    <path
       d="m 290.85093,312.31839 c -38.70655,0 -88.49913,-5.7384 -125.9839,-12.65587 -1.48905,-0.27375 -2.96689,-0.39535 -4.45594,-0.39535 -5.87764,0 -11.8833,1.90229 -18.98043,3.80459 -7.09719,1.90236 -15.29037,3.80465 -25.54761,3.80465 -9.86195,0 -21.63294,-1.75854 -36.17315,-6.96693 -19.77324,-7.08593 -25.2107,-18.25503 -20.50767,-30.21912 7.82933,6.68165 17.93384,11.37118 30.18544,13.70919 24.01361,4.57729 42.94018,6.49531 57.49834,6.49531 10.54698,0 18.80306,-1.00622 25.04001,-2.73783 4.96354,-1.37903 9.47564,-3.85851 13.28704,-7.12864 4.04715,3.01407 8.64908,5.32293 13.63057,6.70642 7.47899,2.0775 17.37691,3.28356 30.02157,3.28356 17.45541,0 40.14397,-2.29988 68.93694,-7.78668 8.77934,-1.67546 16.63566,-4.35713 23.54415,-7.9529 20.73006,10.47287 36.6381,23.15344 22.74695,30.55157 -10.03041,5.34088 -29.56108,7.48797 -53.24231,7.48797"
       style="fill:#525e20;fill-opacity:1;fill-rule:nonzero;stroke:none;stroke-width:0.224594"
       id="path390" />
    <path
       d="m 334.65128,171.92231 c -3.44081,-3.60698 -6.74455,-6.54471 -9.37453,-8.73445 -3.7867,-3.16006 -6.88608,-7.02984 -9.13879,-11.40493 -0.41763,-0.79956 -0.84667,-1.65298 -1.35879,-2.54238 -1.88657,-3.47671 -4.37731,-7.61376 -7.48796,-11.90577 -10.07529,-13.9832 -26.693,-29.65989 -50.22601,-29.28261 -28.02709,0.42209 -50.4955,15.46786 -63.10426,44.57298 -19.16231,44.32145 -26.273,74.38115 -26.03267,93.06286 0.005,0.87596 0.0318,1.72264 0.0694,2.54913 0.18654,3.92816 0.99043,7.76427 2.25716,11.41167 4.47167,12.88945 15.15336,23.35558 28.58861,27.08606 17.80359,4.9433 49.31191,4.95902 98.95845,-4.50312 30.92662,-5.90233 50.44387,-24.28985 57.10979,-51.2142 l 0.0191,-0.0382 0.14834,-0.59527 c 4.6761,-19.56894 -3.14432,-36.7369 -12.68731,-49.36806 -2.5222,-3.36219 -5.17466,-6.42114 -7.73951,-9.09384"
       style="fill:#b81f2b;fill-opacity:1;fill-rule:nonzero;stroke:none;stroke-width:0.224594"
       id="path412" />
    <path
       d="m 304.6455,174.84425 c 12.13255,-20.12135 -18.71991,-44.98393 -28.18879,-54.26418 -16.21573,-15.89002 -57.10311,-7.23866 -74.25987,22.49534 -17.15446,29.73406 -17.4195,41.43763 -18.71316,84.39131 -1.29144,42.95361 13.85072,48.93458 70.04642,47.37811 56.198,-1.55418 99.36724,-49.08056 90.27563,-63.01214 -9.09377,-13.93157 -51.29283,-16.86479 -39.16023,-36.98844"
       style="fill:#ee2822;fill-opacity:1;fill-rule:nonzero;stroke:none;stroke-width:0.224594"
       id="path414" />
    <path
       d="m 325.88761,165.91664 c -3.77766,-3.15776 -6.88379,-7.03429 -9.13649,-11.40715 -0.41318,-0.79281 -0.84668,-1.64853 -1.36102,-2.54015 -1.88212,-3.47449 -4.37286,-7.61376 -7.48351,-11.90348 -10.07752,-13.98327 -26.693,-29.65989 -50.22601,-29.28261 -28.02486,0.42209 -48.09458,13.60593 -60.70557,42.71111 -15.52395,35.90812 -14.67944,38.7762 -1.07803,7.31053 12.61544,-29.10295 32.63354,-43.91488 60.66069,-44.34162 23.53072,-0.37753 40.20006,16.93214 50.27535,30.9109 3.11287,4.28971 5.60139,8.43128 7.48573,11.9057 0.51441,0.89392 0.94555,1.74734 1.35656,2.54015 2.25717,4.37738 5.35884,8.2494 9.14102,11.40715 2.63444,2.19204 13.01519,4.09662 10.44811,1.42393 -3.44081,-3.60698 -6.7401,-6.54013 -9.37683,-8.73446"
       style="fill:#ee2822;fill-opacity:1;fill-rule:nonzero;stroke:none;stroke-width:0.224594"
       id="path416" />
    <path
       d="m 350.23362,184.21433 c 0,0 4.52782,-14.27072 -4.53451,-18.03042 -9.04443,-3.77314 -24.78624,-7.54635 -23.73514,-10.74683 1.06459,-3.21391 21.94057,-3.47449 21.94057,-3.47449 0,0 -13.20612,-19.36451 -27.94401,-13.74287 0,0 7.89898,-25.61726 -5.26219,-42.91102 0,0 -4.54806,14.949 -7.69239,17.53409 0,0 -4.77038,-5.91806 -10.68621,-6.3066 0,0 -2.05051,-12.51441 2.77825,-18.85469 l -0.0719,0.0675 c -1.32059,0.98827 -21.00629,16.34822 -14.81868,25.99683 3.87424,6.04832 1.28017,11.50596 2.4458,16.90968 8.82435,5.2555 20.29434,19.1781 21.50944,26.03719 l 0.0573,0.23555 0.0127,0.0446 c 0.51186,2.70186 1.72486,5.2061 3.4475,7.25438 1.78999,2.14715 4.71645,2.8097 6.86583,4.73224 7.71709,6.88156 20.33476,19.05008 22.82099,28.93673 11.70815,6.68617 25.30282,16.58174 37.63304,15.39815 0,0 -3.8361,-11.10169 -24.76823,-29.07819"
       style="fill:#54bf36;fill-opacity:1;fill-rule:nonzero;stroke:none;stroke-width:0.224594"
       id="path418" />
    <path
       d="m 306.65787,126.61266 c -6.31558,7.55762 3.58228,14.0731 7.5284,6.49302 3.94611,-7.56882 -2.95569,-31.91706 -2.95569,-31.91706 0,0 1.74963,17.86872 -4.57271,25.42404"
       style="fill:#a5d82b;fill-opacity:1;fill-rule:nonzero;stroke:none;stroke-width:0.224594"
       id="path420" />
    <path
       d="m 344.14041,181.16888 c -15.73735,-10.32912 -17.24887,-8.33025 -17.24887,-8.33025 0,0 5.80352,9.18144 13.27131,16.56385 7.47446,7.38686 32.00242,21.31398 32.00242,21.31398 0,0 -12.28756,-19.21853 -28.02486,-29.54758"
       style="fill:#a5d82b;fill-opacity:1;fill-rule:nonzero;stroke:none;stroke-width:0.224594"
       id="path422" />
    <path
       d="m 293.34843,89.69164 c -3.47672,1.83717 -9.3252,14.02141 -5.84848,22.23706 3.47226,8.21788 8.20897,9.46888 4.50541,-2.13365 -3.70133,-11.60929 1.34307,-20.10341 1.34307,-20.10341"
       style="fill:#a5d82b;fill-opacity:1;fill-rule:nonzero;stroke:none;stroke-width:0.224594"
       id="path424" />
    <path
       d="m 318.5187,148.99347 c -6.082,5.2196 -1.95622,11.82715 1.97863,6.57839 3.93045,-5.25327 22.21242,-4.26953 22.21242,-4.26953 -3.64295,-3.61373 -18.11351,-7.53068 -24.19105,-2.30886"
       style="fill:#338c3c;fill-opacity:1;fill-rule:nonzero;stroke:none;stroke-width:0.224594"
       id="path426" />
    <path
       d="m 342.6513,196.35814 c -10.28188,-8.31668 -23.92824,-27.24102 -16.53462,-25.00181 6.22575,1.88886 18.87493,10.03709 24.09224,12.85125 0.0446,-0.13242 0.21136,-0.69623 0.40681,-1.55195 -4.54577,-4.74338 -16.31002,-14.52448 -22.76261,-14.07526 -7.42054,0.5074 -11.16904,-10.37178 -5.46884,-13.70703 3.25663,-2.65469 21.48467,-2.88152 21.48467,-2.88152 0,0 -0.42464,-0.62201 -1.19486,-1.59913 -6.05054,-2.49972 -13.93603,-4.87816 -19.78673,-3.45424 -10.94444,2.65468 -17.79461,-0.94778 -20.44478,-9.78556 -2.64799,-8.83778 4.70519,-14.50207 6.80517,-28.76827 0.79058,-5.4195 1.0623,-9.2982 1.09604,-12.0338 -1.06905,3.37117 -4.71422,14.34037 -7.37343,16.5212 l -0.0127,-0.0191 c -2.06642,5.55638 -4.35497,10.55812 -6.50664,12.77485 -6.1202,6.30215 -15.59354,-9.88888 -12.42005,-21.0669 1.03537,-3.63168 1.82373,-6.60309 2.42784,-8.96358 -3.11733,3.38912 -6.1179,7.46326 -7.12635,11.36895 0.0675,2.02358 0.23365,4.07638 0.47367,6.14044 0.1165,0.22474 0.22664,0.44502 0.36607,0.66479 2.75807,4.30544 2.2415,8.31 2.13142,12.21117 0.49658,1.85741 1.04658,3.7103 1.65299,5.56542 8.60425,5.77208 19.02091,18.65256 20.16859,25.17256 l 0.0637,0.23365 0.0127,0.0446 c 0.51441,2.69963 1.72486,5.2061 3.44973,7.25215 1.79005,2.14938 4.71652,2.80964 6.86812,4.73218 7.71257,6.88156 20.33024,19.05008 22.81653,28.93896 11.7081,6.68394 25.30276,16.57957 37.63521,15.39592 0,0 -0.0509,-0.15725 -0.18208,-0.45393 -5.0556,-1.9764 -23.32858,-9.38128 -32.13491,-16.50763"
       style="fill:#338c3c;fill-opacity:1;fill-rule:nonzero;stroke:none;stroke-width:0.224594"
       id="path428" />
    <g
       transform="matrix(0.22459423,0,0,-0.22459423,-443.73611,2330.2502)"
       id="g430">
      <g
         id="g432"
         clip-path="url(#clipPath436)">
        <path
           d="m 2966.78,9670.86 h 42.4375 v 23.1211 H 2966.78 Z"
           style="fill:#8e2228;fill-opacity:1;fill-rule:nonzero;stroke:none"
           id="path438" />
      </g>
    </g>
    <path
       d="m 194.24623,227.32297 c -0.59972,-2.50647 -1.28469,-5.12525 -2.05955,-7.85856 0.51886,-0.19545 1.0017,-0.29858 1.43742,-0.29858 0.44692,0 0.84221,0.10759 1.16786,0.33678 1.46212,1.0129 1.15443,4.15946 -0.54561,7.82036"
       style="fill:#8e2228;fill-opacity:1;fill-rule:nonzero;stroke:none;stroke-width:0.224594"
       id="path440" />
    <path
       d="m 231.27503,193.04313 c -0.44502,0 -0.8377,-0.10759 -1.16112,-0.33487 -2.01237,-1.39247 -0.69623,-6.74678 2.9287,-11.96638 3.03425,-4.36834 6.73335,-7.24992 9.02871,-7.24992 0.44247,0 0.83547,0.10759 1.15888,0.33232 2.00563,1.39699 0.69847,6.74462 -2.92869,11.96193 -3.03654,4.37057 -6.72883,7.25661 -9.02648,7.25661"
       style="fill:#8e2228;fill-opacity:1;fill-rule:nonzero;stroke:none;stroke-width:0.224594"
       id="path442" />
    <path
       d="m 212.66067,226.65366 c -0.44501,0 -0.83769,-0.10759 -1.16111,-0.33678 -2.01466,-1.3947 -0.7075,-6.74233 2.92195,-11.96861 3.04099,-4.36834 6.74009,-7.25215 9.03768,-7.25215 0.44247,0 0.83324,0.10759 1.15666,0.33233 1.99887,1.39247 0.69623,6.75576 -2.93099,11.97083 -3.0387,4.36611 -6.73328,7.25445 -9.02419,7.25445"
       style="fill:#8e2228;fill-opacity:1;fill-rule:nonzero;stroke:none;stroke-width:0.224594"
       id="path444" />
    <path
       d="m 197.76337,197.30592 c -0.29859,0 -0.57744,-0.0637 -0.83101,-0.18654 -2.20101,-1.0758 -1.71589,-6.55814 1.08478,-12.27178 2.47731,-5.04216 5.93156,-8.56154 8.21119,-8.56154 0.29668,0 0.57043,0.0573 0.82197,0.18208 2.18535,1.07803 1.7092,6.57387 -1.09375,12.2763 -2.4728,5.03988 -5.92029,8.56154 -8.19318,8.56154"
       style="fill:#8e2228;fill-opacity:1;fill-rule:nonzero;stroke:none;stroke-width:0.224594"
       id="path446" />
    <path
       d="m 268.40945,187.7854 c -1.64853,0 -2.84784,-0.43546 -3.29928,-1.34084 -1.09599,-2.17853 2.59407,-6.2707 8.26734,-9.12751 3.33519,-1.68444 6.60755,-2.56486 8.96129,-2.56486 1.6463,0 2.84338,0.43101 3.29928,1.32289 1.09605,2.18974 -2.6075,6.27515 -8.28077,9.13872 -3.32622,1.68444 -6.59412,2.5716 -8.94786,2.5716"
       style="fill:#8e2228;fill-opacity:1;fill-rule:nonzero;stroke:none;stroke-width:0.224594"
       id="path448" />
    <path
       d="m 252.9978,218.54357 c -1.64401,0 -2.84109,-0.43356 -3.29476,-1.32734 -1.10051,-2.18981 2.61202,-6.27968 8.2718,-9.13427 3.33519,-1.68443 6.60977,-2.56708 8.96581,-2.56708 1.64846,0 2.84784,0.43101 3.30374,1.32957 1.08255,2.18306 -2.60528,6.26841 -8.28976,9.12752 -3.33073,1.68443 -6.60309,2.5716 -8.95683,2.5716"
       style="fill:#8e2228;fill-opacity:1;fill-rule:nonzero;stroke:none;stroke-width:0.224594"
       id="path450" />
    <path
       d="m 303.34064,216.50427 c -1.6463,0 -2.84116,-0.43356 -3.29706,-1.32964 -1.09828,-2.18751 2.61203,-6.27515 8.27403,-9.13197 3.33525,-1.68443 6.60984,-2.56714 8.96581,-2.56714 1.64853,0 2.84784,0.43355 3.3038,1.32963 1.08249,2.18306 -2.60534,6.26618 -8.28752,9.12974 -3.33303,1.68221 -6.60532,2.56938 -8.95906,2.56938"
       style="fill:#8e2228;fill-opacity:1;fill-rule:nonzero;stroke:none;stroke-width:0.224594"
       id="path452" />
    <path
       d="m 322.95892,248.14062 c 3.79561,-3.13089 7.17804,-6.3448 10.07751,-9.52281 0.53224,2.25264 -3.05895,6.04609 -8.42453,8.75018 -0.55261,0.27821 -1.10496,0.53669 -1.65298,0.77263"
       style="fill:#6d1e2d;fill-opacity:1;fill-rule:nonzero;stroke:none;stroke-width:0.224594"
       id="path454" />
    <path
       d="m 315.65061,249.93507 c -1.64401,0 -2.83886,-0.43101 -3.29253,-1.32505 -1.10051,-2.1898 2.61202,-6.27967 8.2718,-9.13649 3.33748,-1.68221 6.60977,-2.56492 8.96581,-2.56492 1.64852,0 2.85006,0.43101 3.30603,1.32964 0.0573,0.12096 0.10568,0.24701 0.13497,0.37944 -2.89954,3.178 -6.28191,6.39191 -10.07758,9.52281 -2.74229,1.17906 -5.34534,1.79451 -7.30831,1.79451"
       style="fill:#8e2228;fill-opacity:1;fill-rule:nonzero;stroke:none;stroke-width:0.224594"
       id="path456" />
    <path
       d="m 272.30616,242.96145 c -1.64852,0 -2.84561,-0.43546 -3.29928,-1.33409 -1.10051,-2.19203 2.60528,-6.27292 8.27403,-9.12751 3.33303,-1.68673 6.60309,-2.5716 8.95912,-2.5716 1.65076,0 2.8523,0.43546 3.30604,1.33186 1.09152,2.18076 -2.6121,6.27063 -8.27187,9.13197 -3.33742,1.6845 -6.612,2.56937 -8.96804,2.56937"
       style="fill:#8e2228;fill-opacity:1;fill-rule:nonzero;stroke:none;stroke-width:0.224594"
       id="path458" />
    <path
       d="m 216.8696,276.52933 c -1.65305,0 -2.85236,-0.43802 -3.30158,-1.34084 -0.25147,-0.49659 -0.25402,-1.0893 -0.0382,-1.74734 3.29935,0.54115 6.91753,0.92982 10.87715,1.18811 -2.82544,1.24871 -5.51832,1.90007 -7.53514,1.90007"
       style="fill:#6d1e2d;fill-opacity:1;fill-rule:nonzero;stroke:none;stroke-width:0.224594"
       id="path460" />
    <path
       d="m 224.40474,274.62926 c -3.95962,-0.25848 -7.5778,-0.64683 -10.87715,-1.18811 0.72323,-2.228 3.92817,-5.16796 8.31452,-7.38018 3.31947,-1.67775 6.58285,-2.55817 8.93436,-2.55817 1.65528,0 2.85911,0.43547 3.31501,1.33639 1.09153,2.16955 -2.6098,6.25943 -8.2718,9.12076 -0.47366,0.24066 -0.94554,0.46284 -1.41494,0.66931"
       style="fill:#8e2228;fill-opacity:1;fill-rule:nonzero;stroke:none;stroke-width:0.224594"
       id="path462" />
    <path
       d="m 196.4832,262.26981 c 0.64684,-2.34024 1.05333,-4.75917 1.17009,-7.22293 0.0318,-0.68955 0.0573,-1.39699 0.0573,-2.1269 0.006,-0.80854 0.005,-1.64178 -0.0191,-2.50424 1.32512,-0.62646 2.52672,-0.96579 3.49245,-0.96579 0.74118,0 1.34306,0.1999 1.74733,0.62455 1.67323,1.76083 -0.68051,6.74907 -5.26894,11.12868 -0.3909,0.37498 -0.78383,0.72991 -1.17913,1.06682"
       style="fill:#8e2228;fill-opacity:1;fill-rule:nonzero;stroke:none;stroke-width:0.224594"
       id="path464" />
    <path
       d="m 234.85737,249.45447 c -1.64408,0 -2.83887,-0.43356 -3.28808,-1.33186 -1.10051,-2.17854 2.5963,-6.27064 8.27855,-9.13198 3.3285,-1.6822 6.59405,-2.56485 8.94785,-2.56485 1.64624,0 2.84332,0.43356 3.29922,1.32734 1.09382,2.18751 -2.60298,6.27293 -8.27626,9.13198 -3.33296,1.6822 -6.60754,2.56937 -8.96128,2.56937"
       style="fill:#8e2228;fill-opacity:1;fill-rule:nonzero;stroke:none;stroke-width:0.224594"
       id="path466" />
    <path
       d="m 263.99623,275.79489 c -2.32458,0 -4.18422,-0.42655 -5.16568,-1.23305 6.84782,-0.5437 13.48459,-1.75409 19.82042,-3.47672 -1.78776,1.50929 -4.77261,2.94448 -8.30771,3.84731 -2.2797,0.58189 -4.46721,0.86246 -6.34703,0.86246"
       style="fill:#6d1e2d;fill-opacity:1;fill-rule:nonzero;stroke:none;stroke-width:0.224594"
       id="path468" />
    <path
       d="m 258.83055,274.56184 c -0.36861,-0.30114 -0.61563,-0.65581 -0.71648,-1.06231 -0.60608,-2.36501 3.88545,-5.56097 10.05059,-7.1331 2.27289,-0.58189 4.45371,-0.85794 6.33131,-0.85794 3.19596,0 5.50933,0.80402 5.89559,2.29084 0.25402,1.00845 -0.41573,2.16733 -1.74059,3.28579 -6.33583,1.72263 -12.9726,2.93321 -19.82042,3.47672"
       style="fill:#8e2228;fill-opacity:1;fill-rule:nonzero;stroke:none;stroke-width:0.224594"
       id="path470" />
    <path
       d="m 202.2889,142.9137 c 0.61118,-1.27793 1.43296,-2.61648 2.48629,-4.00901 -0.8512,1.29143 -1.67998,2.62552 -2.48629,4.00901"
       style="fill:#d31c33;fill-opacity:1;fill-rule:nonzero;stroke:none;stroke-width:0.224594"
       id="path472" />
    <path
       d="m 280.64087,167.1856 c -2.11118,0 -8.78838,-3.59577 -17.18369,-7.19377 -8.39531,-3.5957 -18.51109,-7.19147 -27.49931,-7.19147 -1.30716,0 -2.58962,0.0738 -3.84056,0.2381 0.53478,-0.64231 1.06008,-1.32957 1.56767,-2.06177 3.63391,-5.2196 4.9545,-10.57614 2.93768,-11.96638 -0.32342,-0.22665 -0.71648,-0.33679 -1.16118,-0.33679 -2.29536,0 -5.99662,2.89502 -9.02419,7.26113 -2.65023,3.80465 -4.06517,7.68564 -3.85177,10.04613 -3.2544,1.04212 -6.33353,1.52496 -9.09606,1.52496 -6.54471,0 -11.30605,-2.72204 -12.35715,-7.22071 7.55309,-13.21732 17.12753,-22.56944 28.80863,-28.04281 6.15839,-1.97417 12.6402,-3.00955 18.93783,-3.00955 7.08593,0 13.93381,1.31162 19.80024,4.0674 18.61435,8.7412 35.50162,34.026 12.37287,43.8183 -0.10759,0.0446 -0.2451,0.0675 -0.41127,0.0675 m -8.43351,-36.48753 c -2.29759,0 -5.99668,2.89502 -9.02419,7.26342 -3.63167,5.21056 -4.94106,10.56041 -2.93321,11.95963 0.32341,0.22665 0.71648,0.33488 1.16118,0.33488 2.29536,0 5.99216,-2.88827 9.01966,-7.25215 3.63397,-5.22183 4.95457,-10.57614 2.93997,-11.96861 -0.32597,-0.22665 -0.71871,-0.33679 -1.16341,-0.33679"
       style="fill:#f25a39;fill-opacity:1;fill-rule:nonzero;stroke:none;stroke-width:0.224594"
       id="path474" />
    <path
       d="m 201.13231,150.28491 c -0.48959,-2.09998 -0.17063,-4.59072 1.15659,-7.37121 0.80631,-1.38349 1.63509,-2.71758 2.48629,-4.00901 0.61563,-0.81077 1.30716,-1.63949 2.08195,-2.48177 5.97199,-6.50645 14.18541,-11.32624 23.0838,-14.18089 -11.6811,5.47336 -21.25554,14.82549 -28.80863,28.04288"
       style="fill:#f25a39;fill-opacity:1;fill-rule:nonzero;stroke:none;stroke-width:0.224594"
       id="path476" />
    <path
       d="m 222.58552,155.98059 c -0.21327,-2.36049 1.20154,-6.24148 3.85177,-10.04607 3.02757,-4.36611 6.72883,-7.26113 9.02419,-7.26113 0.44501,0 0.83776,0.11014 1.16118,0.33679 2.01682,1.39024 0.69623,6.74684 -2.93768,11.96638 -0.5074,0.7322 -1.03314,1.41946 -1.56767,2.06177 -2.08202,0.27185 -4.07192,0.78384 -5.93379,1.58792 -1.21733,0.52778 -2.41887,0.97923 -3.598,1.35427"
       style="fill:#b34634;fill-opacity:1;fill-rule:nonzero;stroke:none;stroke-width:0.224594"
       id="path478" />
    <path
       d="m 261.41113,150.25569 c -0.44501,0 -0.83776,-0.1076 -1.16118,-0.33488 -2.00785,-1.39922 -0.69846,-6.74907 2.93322,-11.95963 3.0275,-4.36841 6.7266,-7.26342 9.02419,-7.26342 0.44501,0 0.83776,0.11014 1.1634,0.33678 2.0146,1.39247 0.69401,6.74679 -2.93996,11.96861 -3.0275,4.36389 -6.72431,7.25215 -9.01967,7.25215"
       style="fill:#b34634;fill-opacity:1;fill-rule:nonzero;stroke:none;stroke-width:0.224594"
       id="path480" />
    <path
       d="m 255.82769,123.01466 c -4.90516,1.00616 -1.61033,5.1073 3.46997,6.5896 5.08705,1.48459 10.55144,4.49637 12.44475,0.44947 1.67998,-3.598 -11.00511,-8.04051 -15.91472,-7.03881"
       style="fill:#ffffff;fill-opacity:1;fill-rule:nonzero;stroke:none;stroke-width:0.224594"
       id="path482" />
    <path
       d="m 123.36427,138.12314 c -19.62726,-0.3145 -33.48696,12.76142 -41.88908,24.42457 -2.5963,3.57782 -4.6738,7.02983 -6.24593,9.92937 -0.4291,0.74112 -0.78607,1.45308 -1.13419,2.12015 -1.87988,3.64964 -4.46498,6.87482 -7.62274,9.51377 -2.19203,1.82597 -4.95004,4.27628 -7.82036,7.2836 -2.13817,2.22801 -4.35038,4.77936 -6.45258,7.58455 -7.95966,10.53571 -14.48412,24.85583 -10.58289,41.17712 l 0.12351,0.49658 0.0127,0.0318 c 5.56097,22.45715 21.83954,37.79469 47.63194,42.71557 41.40847,7.89224 67.69045,7.87874 82.53841,3.75748 11.20496,-3.11287 20.11461,-11.84287 23.84287,-22.59421 1.06014,-3.03877 1.72938,-6.23919 1.88434,-9.51606 0.0318,-0.68949 0.0573,-1.39693 0.0573,-2.12691 0.19991,-15.58233 -5.73165,-40.65379 -21.71157,-77.61976 -10.51999,-24.27636 -29.25785,-36.82444 -52.6359,-37.17708"
       style="fill:#b81f2b;fill-opacity:1;fill-rule:nonzero;stroke:none;stroke-width:0.224594"
       id="path484" />
    <path
       d="m 169.12759,167.33611 c -14.30892,-24.80197 -48.41126,-32.01815 -61.93633,-18.76263 -7.89899,7.73727 -33.62849,28.4763 -23.51054,45.26024 10.11801,16.78164 -25.07815,19.22974 -32.66276,30.85023 -7.58225,11.62055 28.42245,51.25915 75.29525,52.55504 46.8728,1.29819 59.50173,-3.69005 58.4237,-39.51732 -1.07809,-35.82726 -1.30041,-45.58365 -15.60932,-70.38556"
       style="fill:#ee2822;fill-opacity:1;fill-rule:nonzero;stroke:none;stroke-width:0.224594"
       id="path486" />
    <path
       d="m 122.84999,140.40048 c -19.62732,-0.3145 -33.4825,12.76149 -41.88908,24.42464 -2.5963,3.57781 -4.67158,7.02983 -6.24371,9.9293 -0.4291,0.74341 -0.78836,1.45537 -1.13195,2.11793 -1.87989,3.6474 -4.46944,6.87933 -7.62274,9.51383 -2.19879,1.83042 -4.95005,4.27628 -7.82036,7.2836 -2.1404,2.23017 6.51772,0.64231 8.71421,-1.1881 3.15559,-2.63228 5.74292,-5.85968 7.62274,-9.51161 0.3457,-0.66255 0.70298,-1.37222 1.13195,-2.12015 1.5722,-2.89725 3.6497,-6.35149 6.246,-9.92931 8.40206,-11.66092 22.3067,-26.09557 41.93173,-25.7812 23.37576,0.35462 40.0721,12.70757 50.59431,36.98399 11.34425,26.24378 12.04946,23.84961 -0.89837,-6.10002 -10.51776,-24.27413 -27.25675,-35.27026 -50.63473,-35.6229"
       style="fill:#ee2822;fill-opacity:1;fill-rule:nonzero;stroke:none;stroke-width:0.224594"
       id="path488" />
    <path
       d="m 91.70321,121.1887 -0.0573,-0.0509 c 4.02697,5.28473 2.31561,15.72386 2.31561,15.72386 -4.93419,0.32341 -8.91176,5.26002 -8.91176,5.26002 -2.62323,-2.15612 -6.41662,-14.62335 -6.41662,-14.62335 -10.97818,14.42568 -4.38858,35.78913 -4.38858,35.78913 -12.29203,-4.68953 -23.30841,11.46324 -23.30841,11.46324 0,0 17.41282,0.21773 18.30221,2.89501 0.87813,2.67047 -12.25389,5.81926 -19.798,8.96581 -7.55984,3.13758 -3.78218,15.03883 -3.78218,15.03883 C 28.20048,216.6443 25,225.9043 25,225.9043 c 10.28417,0.98597 21.62397,-7.26788 31.38934,-12.84457 2.07298,-8.24481 12.59748,-18.3965 19.03212,-24.1326 1.79222,-1.60588 4.23356,-2.15836 5.72713,-3.94841 1.43742,-1.70914 2.44809,-3.80014 2.87477,-6.05278 l 0.0127,-0.0318 0.0509,-0.19545 c 1.00844,-5.72261 10.57836,-17.33413 17.94059,-21.71596 0.97025,-4.50764 -1.19486,-9.06239 2.03707,-14.10678 5.16116,-8.0472 -11.25665,-20.85809 -12.35944,-21.68235"
       style="fill:#54bf36;fill-opacity:1;fill-rule:nonzero;stroke:none;stroke-width:0.224594"
       id="path490" />
    <path
       d="m 78.18717,132.39824 c 0,0 -5.75412,20.31006 -2.46381,26.62335 3.29253,6.3201 11.54638,0.88716 6.27738,-5.41722 -5.27123,-6.30208 -3.81357,-21.20613 -3.81357,-21.20613"
       style="fill:#a5d82b;fill-opacity:1;fill-rule:nonzero;stroke:none;stroke-width:0.224594"
       id="path492" />
    <path
       d="m 50.7395,199.10718 c -13.12756,8.61546 -23.37576,24.64472 -23.37576,24.64472 0,0 20.45827,-11.61604 26.69299,-17.7766 6.23028,-6.15839 11.06801,-13.81704 11.06801,-13.81704 0,0 -1.25998,-1.66425 -14.38524,6.94892"
       style="fill:#a5d82b;fill-opacity:1;fill-rule:nonzero;stroke:none;stroke-width:0.224594"
       id="path494" />
    <path
       d="m 93.10243,122.8103 c 0,0 4.20669,7.08369 1.12075,16.76592 -3.0904,9.68006 0.86017,8.63564 3.75971,1.77879 2.89724,-6.85011 -1.98093,-17.01301 -4.88046,-18.54471"
       style="fill:#a5d82b;fill-opacity:1;fill-rule:nonzero;stroke:none;stroke-width:0.224594"
       id="path496" />
    <path
       d="m 72.11186,172.27042 c -5.07132,-4.35261 -17.14103,-1.087 -20.17974,1.92477 0,0 15.24765,-0.81751 18.52675,3.5621 3.28134,4.37731 6.72438,-1.13196 1.65299,-5.48687"
       style="fill:#338c3c;fill-opacity:1;fill-rule:nonzero;stroke:none;stroke-width:0.224594"
       id="path498" />
    <path
       d="m 100.87567,135.2124 c 2.64794,9.3229 -5.2555,22.82773 -10.35827,17.57223 -1.79674,-1.84844 -3.70585,-6.02362 -5.42849,-10.65699 l -0.0127,0.0127 c -2.21673,-1.81921 -5.25773,-10.9692 -6.15165,-13.77884 0.0318,2.28186 0.25594,5.51824 0.91639,10.03709 1.74957,11.89902 7.88326,16.62223 5.6755,23.99343 -2.21005,7.37114 -7.92368,10.374 -17.05349,8.16173 -4.87817,-1.18811 -11.45426,0.79733 -16.50318,2.87929 -0.64231,0.81528 -0.99495,1.33409 -0.99495,1.33409 0,0 15.20277,0.19099 17.91812,2.40543 4.75695,2.78271 1.62835,11.85631 -4.56149,11.43185 -5.38125,-0.37307 -15.19156,7.78216 -18.98272,11.73955 0.16171,0.71419 0.30304,1.18358 0.33678,1.29366 4.35262,-2.34706 14.90183,-9.14324 20.09672,-10.71766 6.16508,-1.86862 -5.21737,13.91585 -13.79234,20.85356 -7.34427,5.94499 -22.58524,12.11911 -26.80307,13.76764 -0.11014,0.24956 -0.1528,0.37944 -0.1528,0.37944 10.28863,0.9882 21.6262,-7.26565 31.3915,-12.84228 2.07305,-8.2471 12.59749,-18.39656 19.0299,-24.13489 1.79451,-1.60588 4.23585,-2.15613 5.72942,-3.94841 1.43735,-1.70914 2.44803,-3.79784 2.877,-6.04832 l 0.006,-0.0382 0.0509,-0.19736 c 0.95904,-5.43739 9.64632,-16.18199 16.82213,-20.99502 0.5055,-1.5475 0.96573,-3.0927 1.37898,-4.64013 -0.0923,-3.2544 -0.52142,-6.59634 1.77655,-10.18759 l 0.30559,-0.55261 c 0.20182,-1.72486 0.33934,-3.434 0.39536,-5.12073 -0.83999,-3.25885 -3.34194,-6.65695 -5.94276,-9.48461 0.50549,1.96743 1.1634,4.44697 2.02586,7.47676"
       style="fill:#338c3c;fill-opacity:1;fill-rule:nonzero;stroke:none;stroke-width:0.224594"
       id="path500" />
    <path
       d="m 150.38972,179.97625 c -1.59467,0 -4.00004,-1.671 -6.21677,-4.33021 1.73613,0.22474 3.39809,0.65358 4.95004,1.32512 1.01519,0.43801 2.01683,0.81306 3.00057,1.1275 -0.0649,0.72768 -0.3145,1.28468 -0.76811,1.59683 -0.2693,0.19099 -0.59526,0.28076 -0.96573,0.28076"
       style="fill:#8e2228;fill-opacity:1;fill-rule:nonzero;stroke:none;stroke-width:0.224594"
       id="path502" />
    <path
       d="m 185.28042,247.10296 c -0.19545,0 -0.40236,-0.0255 -0.6201,-0.0739 0.14834,-2.67715 0.17508,-5.57892 0.0923,-8.72095 2.28409,3.84502 2.98484,7.48344 1.49802,8.51436 -0.27184,0.18845 -0.59972,0.28076 -0.97024,0.28076"
       style="fill:#6d1e2d;fill-opacity:1;fill-rule:nonzero;stroke:none;stroke-width:0.224594"
       id="path504" />
    <path
       d="m 184.66052,247.02885 c -1.91803,-0.4291 -4.63338,-2.6974 -6.89952,-5.97421 -3.03202,-4.35039 -4.12132,-8.81983 -2.45707,-9.97419 0.27376,-0.191 0.60163,-0.28076 0.97477,-0.28076 1.91802,0 4.99493,2.40085 7.52839,6.04157 0.34124,0.48958 0.65581,0.98145 0.94555,1.46657 0.0834,3.1421 0.0573,6.04386 -0.0923,8.72102"
       style="fill:#8e2228;fill-opacity:1;fill-rule:nonzero;stroke:none;stroke-width:0.224594"
       id="path506" />
    <path
       d="m 144.87593,209.01178 c -1.91579,0 -4.99722,-2.40989 -7.52839,-6.05284 -3.02527,-4.35261 -4.11457,-8.81078 -2.44364,-9.97642 0.27185,-0.18844 0.59718,-0.27821 0.96802,-0.27821 1.91357,0 4.99951,2.40537 7.52839,6.04603 3.02528,4.35713 4.12133,8.81982 2.44587,9.981 -0.27185,0.19099 -0.59972,0.28076 -0.97025,0.28076"
       style="fill:#8e2228;fill-opacity:1;fill-rule:nonzero;stroke:none;stroke-width:0.224594"
       id="path508" />
    <path
       d="m 160.40211,237.04339 c -1.91127,0 -4.9927,-2.40766 -7.52616,-6.04832 -3.0275,-4.35038 -4.11228,-8.82205 -2.4458,-9.98546 0.27185,-0.18844 0.59717,-0.2763 0.96573,-0.2763 1.91579,0 5.00173,2.40537 7.53736,6.04832 3.02757,4.35936 4.11687,8.8176 2.43689,9.98323 -0.2693,0.18845 -0.59717,0.27821 -0.96802,0.27821"
       style="fill:#8e2228;fill-opacity:1;fill-rule:nonzero;stroke:none;stroke-width:0.224594"
       id="path510" />
    <path
       d="m 172.82668,212.56713 c -1.89561,0 -4.77038,-2.93774 -6.83444,-7.14214 -2.33573,-4.75466 -2.73331,-9.33863 -0.91181,-10.23923 0.21137,-0.10122 0.44056,-0.15025 0.68726,-0.15025 1.90007,0 4.78159,2.93322 6.84788,7.13985 2.33573,4.76815 2.74,9.33863 0.90512,10.23477 -0.21327,0.10568 -0.44438,0.15725 -0.69401,0.15725"
       style="fill:#8e2228;fill-opacity:1;fill-rule:nonzero;stroke:none;stroke-width:0.224594"
       id="path512" />
    <path
       d="m 113.90213,204.62549 c -1.96074,0 -4.6873,-0.73895 -7.46326,-2.14492 -4.72996,-2.38742 -7.81813,-5.79678 -6.90403,-7.62045 0.37944,-0.74564 1.37903,-1.10503 2.75126,-1.10503 1.96296,0 4.69182,0.73667 7.47224,2.1404 4.73447,2.38297 7.80915,5.79456 6.89505,7.61148 -0.37498,0.75468 -1.37451,1.11852 -2.75126,1.11852"
       style="fill:#8e2228;fill-opacity:1;fill-rule:nonzero;stroke:none;stroke-width:0.224594"
       id="path514" />
    <path
       d="m 126.7579,230.27859 c -1.96296,0 -4.69404,-0.73889 -7.47223,-2.14263 -4.73894,-2.38519 -7.8159,-5.79226 -6.91301,-7.6137 0.37944,-0.74793 1.37897,-1.10954 2.75578,-1.10954 1.96519,0 4.69621,0.73895 7.47898,2.1404 4.72098,2.38296 7.81584,5.79232 6.89729,7.61822 -0.37753,0.7457 -1.37452,1.10725 -2.74681,1.10725"
       style="fill:#8e2228;fill-opacity:1;fill-rule:nonzero;stroke:none;stroke-width:0.224594"
       id="path516" />
    <path
       d="m 84.76779,228.57843 c -1.96297,0 -4.69182,-0.73889 -7.47001,-2.14263 -4.74122,-2.38742 -7.81813,-5.79226 -6.91301,-7.61599 0.37944,-0.74564 1.38126,-1.10725 2.75578,-1.10725 1.9652,0 4.69621,0.73666 7.4767,2.1404 4.7232,2.38296 7.81812,5.79226 6.9018,7.61822 -0.37944,0.74793 -1.37674,1.10725 -2.75126,1.10725"
       style="fill:#8e2228;fill-opacity:1;fill-rule:nonzero;stroke:none;stroke-width:0.224594"
       id="path518" />
    <path
       d="m 68.40608,254.96603 c -0.45584,-0.19736 -0.91633,-0.41127 -1.38127,-0.6446 -4.47167,-2.25494 -7.46549,-5.41722 -7.02531,-7.2971 2.42116,2.65023 5.23978,5.32967 8.40658,7.9417"
       style="fill:#6d1e2d;fill-opacity:1;fill-rule:nonzero;stroke:none;stroke-width:0.224594"
       id="path520" />
    <path
       d="m 74.50157,256.46406 c -1.63732,0 -3.80911,-0.51441 -6.09549,-1.49803 -3.1668,-2.61203 -5.98542,-5.29147 -8.40658,-7.9417 0.0255,-0.11014 0.0649,-0.21773 0.11459,-0.31896 0.37944,-0.74787 1.3812,-1.10948 2.75572,-1.10948 1.9652,0 4.69628,0.73895 7.47676,2.14263 4.72321,2.38296 7.81813,5.79232 6.90181,7.61822 -0.37944,0.7457 -1.37681,1.10725 -2.74681,1.10725"
       style="fill:#8e2228;fill-opacity:1;fill-rule:nonzero;stroke:none;stroke-width:0.224594"
       id="path522" />
    <path
       d="m 110.65225,250.6448 c -1.96297,0 -4.69405,-0.73889 -7.47899,-2.14033 -4.72098,-2.38749 -7.81138,-5.79908 -6.89951,-7.61829 0.37944,-0.74564 1.38126,-1.10948 2.75801,-1.10948 1.96519,0 4.69398,0.73666 7.47447,2.14486 4.72772,2.3785 7.81812,5.78334 6.89728,7.61153 -0.37753,0.75016 -1.37452,1.11171 -2.75126,1.11171"
       style="fill:#8e2228;fill-opacity:1;fill-rule:nonzero;stroke:none;stroke-width:0.224594"
       id="path524" />
    <path
       d="m 156.89171,278.64273 c -1.6822,0 -3.92816,-0.54115 -6.28413,-1.5834 3.30152,-0.21582 6.32004,-0.53924 9.07137,-0.99043 0.17762,0.54815 0.17507,1.04436 -0.0318,1.4576 -0.37498,0.75239 -1.3768,1.11623 -2.75355,1.11623"
       style="fill:#6d1e2d;fill-opacity:1;fill-rule:nonzero;stroke:none;stroke-width:0.224594"
       id="path526" />
    <path
       d="m 150.60758,277.05933 c -0.3909,-0.17317 -0.78613,-0.35907 -1.18136,-0.55897 -4.72327,-2.38519 -7.80915,-5.79678 -6.89957,-7.60702 0.38198,-0.75239 1.38578,-1.11623 2.76476,-1.11623 1.96296,0 4.68277,0.73666 7.45205,2.13365 3.65861,1.84844 6.33131,4.30099 6.93549,6.1584 -2.75133,0.45138 -5.76985,0.77486 -9.07137,0.99043"
       style="fill:#8e2228;fill-opacity:1;fill-rule:nonzero;stroke:none;stroke-width:0.224594"
       id="path528" />
    <path
       d="m 180.93449,270.33273 c -1.08924,0 -2.54913,-0.52332 -4.13024,-1.46435 1.57665,-1.48904 2.8905,-3.20945 3.9663,-5.19935 1.90682,2.64571 2.63227,5.08259 1.6216,6.13815 -0.33679,0.35716 -0.83776,0.52523 -1.45766,0.52523"
       style="fill:#6d1e2d;fill-opacity:1;fill-rule:nonzero;stroke:none;stroke-width:0.224594"
       id="path530" />
    <path
       d="m 176.80425,268.86838 c -1.26221,-0.75238 -2.60082,-1.77203 -3.89225,-3.00732 -3.82707,-3.65192 -5.79226,-7.8136 -4.39527,-9.28024 0.33678,-0.35461 0.83998,-0.52333 1.45759,-0.52333 1.9652,0 5.1185,1.68673 8.02472,4.46047 1.08485,1.03537 2.01912,2.10895 2.77151,3.15107 -1.0758,1.9899 -2.38965,3.71031 -3.9663,5.19935"
       style="fill:#8e2228;fill-opacity:1;fill-rule:nonzero;stroke:none;stroke-width:0.224594"
       id="path532" />
    <path
       d="m 141.88879,256.06202 c -1.9629,0 -4.69398,-0.74112 -7.47447,-2.14263 -4.73218,-2.38742 -7.8159,-5.79226 -6.90403,-7.616 0.38199,-0.74786 1.38127,-1.10948 2.75355,-1.10948 1.96291,0 4.68724,0.73666 7.46327,2.1404 4.73893,2.38742 7.82258,5.80124 6.90403,7.616 -0.37498,0.75015 -1.37229,1.11171 -2.74235,1.11171"
       style="fill:#8e2228;fill-opacity:1;fill-rule:nonzero;stroke:none;stroke-width:0.224594"
       id="path534" />
    <path
       d="m 117.5855,278.02958 c -1.56767,0 -3.39363,-0.2311 -5.2937,-0.71871 -2.94894,-0.75016 -5.43746,-1.94947 -6.92873,-3.20716 5.28466,1.43735 10.8187,2.4458 16.5301,2.89947 -0.81974,0.67153 -2.36717,1.0264 -4.30767,1.0264"
       style="fill:#6d1e2d;fill-opacity:1;fill-rule:nonzero;stroke:none;stroke-width:0.224594"
       id="path536" />
    <path
       d="m 121.89317,277.00318 c -5.7114,-0.45393 -11.24544,-1.46212 -16.5301,-2.89947 -1.10726,-0.93211 -1.66426,-1.89784 -1.45315,-2.74006 0.32342,-1.2398 2.25271,-1.91356 4.91637,-1.91356 1.56544,0 3.38466,0.23365 5.2825,0.71871 5.1409,1.30938 8.88718,3.97756 8.38181,5.94722 -0.0853,0.33933 -0.28967,0.63537 -0.59717,0.88716"
       style="fill:#8e2228;fill-opacity:1;fill-rule:nonzero;stroke:none;stroke-width:0.224594"
       id="path538" />
    <path
       d="m 169.05348,167.1991 c -0.67153,-1.1522 -1.36331,-2.2662 -2.07298,-3.33971 0.87813,1.15888 1.56316,2.27511 2.07298,3.33971"
       style="fill:#d31c33;fill-opacity:1;fill-rule:nonzero;stroke:none;stroke-width:0.224594"
       id="path540" />
    <path
       d="m 103.70333,187.44403 c -0.13942,0 -0.25402,-0.0191 -0.34379,-0.0573 -19.2927,-8.16624 -5.2061,-29.25568 10.31786,-36.54826 4.89611,-2.29759 10.60529,-3.39134 16.5166,-3.39134 5.25105,0 10.66152,0.86469 15.80026,2.51322 9.74061,4.56601 17.72273,12.3639 24.02259,23.38925 -0.87596,3.75067 -4.84678,6.02133 -10.30887,6.02133 -2.30211,0 -4.87148,-0.40682 -7.58455,-1.27342 0.17763,-1.96972 -1.00169,-5.2061 -3.21397,-8.37965 -2.52443,-3.64065 -5.61037,-6.055 -7.52616,-6.055 -0.37053,0 -0.69847,0.0898 -0.96796,0.28076 -1.68221,1.16111 -0.58189,5.62603 2.45032,9.98094 0.4221,0.60863 0.86017,1.18358 1.3071,1.7204 -1.04436,-0.13688 -2.11341,-0.1999 -3.20271,-0.1999 -7.49917,0 -15.93497,2.99834 -22.93552,5.99891 -7.0029,3.00057 -12.57278,5.99892 -14.33139,5.99892 m 7.03206,-30.43253 c -0.37052,0 -0.69852,0.0923 -0.96801,0.28076 -1.68221,1.16112 -0.5819,5.62833 2.45031,9.98094 2.52672,3.64066 5.61038,6.05061 7.52394,6.05061 0.37053,0 0.69846,-0.0898 0.96795,-0.27821 1.67323,-1.16793 0.5819,-5.63285 -2.44802,-9.97648 -2.5222,-3.64295 -5.60815,-6.0573 -7.52617,-6.0573"
       style="fill:#f25a39;fill-opacity:1;fill-rule:nonzero;stroke:none;stroke-width:0.224594"
       id="path542" />
    <path
       d="m 170.01698,173.35075 c -6.29986,-11.02536 -14.28192,-18.82324 -24.02259,-23.38926 7.41838,2.38067 14.26849,6.40089 19.24775,11.82263 0.64683,0.7075 1.22624,1.39699 1.73836,2.07527 0.70967,1.07351 1.40145,2.18751 2.07298,3.33971 1.10503,2.32006 1.37229,4.39756 0.9635,6.15165"
       style="fill:#f25a39;fill-opacity:1;fill-rule:nonzero;stroke:none;stroke-width:0.224594"
       id="path544" />
    <path
       d="m 152.12356,178.09866 c -0.98374,-0.31451 -1.98538,-0.68949 -3.00057,-1.1275 -1.55195,-0.67154 -3.21391,-1.10051 -4.95004,-1.32512 -0.44693,-0.53669 -0.88494,-1.11171 -1.30716,-1.72034 -3.03202,-4.3549 -4.13253,-8.81982 -2.45032,-9.981 0.2693,-0.19099 0.59717,-0.28076 0.96802,-0.28076 1.91579,0 5.00167,2.41441 7.52616,6.05507 2.21221,3.17354 3.39134,6.40993 3.21391,8.37958"
       style="fill:#b34634;fill-opacity:1;fill-rule:nonzero;stroke:none;stroke-width:0.224594"
       id="path546" />
    <path
       d="m 119.74157,173.32375 c -1.9135,0 -4.99722,-2.40989 -7.52387,-6.05054 -3.03203,-4.35262 -4.13253,-8.81983 -2.45032,-9.98101 0.2693,-0.18844 0.59717,-0.28076 0.96795,-0.28076 1.91809,0 5.00397,2.41442 7.52616,6.05736 3.0298,4.34364 4.12133,8.80856 2.4481,9.97642 -0.26931,0.18845 -0.59718,0.27822 -0.96802,0.27822"
       style="fill:#b34634;fill-opacity:1;fill-rule:nonzero;stroke:none;stroke-width:0.224594"
       id="path548" />
    <path
       d="m 124.39742,150.6038 c -4.09433,-0.83769 -14.67499,2.87032 -13.27354,5.87089 1.57894,3.37345 6.13592,0.86246 10.37852,-0.37499 4.23808,-1.23751 6.98712,-4.65807 2.89502,-5.49577"
       style="fill:#ffffff;fill-opacity:1;fill-rule:nonzero;stroke:none;stroke-width:0.224594"
       id="path550" />
  </g>
</svg>
