<?xml version="1.0" encoding="UTF-8" standalone="no"?>
<svg
   xmlns:dc="http://purl.org/dc/elements/1.1/"
   xmlns:cc="http://creativecommons.org/ns#"
   xmlns:rdf="http://www.w3.org/1999/02/22-rdf-syntax-ns#"
   xmlns:svg="http://www.w3.org/2000/svg"
   xmlns="http://www.w3.org/2000/svg"
   xmlns:sodipodi="http://sodipodi.sourceforge.net/DTD/sodipodi-0.dtd"
   xmlns:inkscape="http://www.inkscape.org/namespaces/inkscape"
   sodipodi:docname="medula-vegetal.svg"
   inkscape:version="1.0 (4035a4fb49, 2020-05-01)"
   id="svg1771"
   version="1.1"
   viewBox="0 0 400 400"
   height="400mm"
   width="400mm">
  <defs
     id="defs1765">
    <clipPath
       clipPathUnits="userSpaceOnUse"
       id="clipPath1720">
      <path
         d="m 3556.85,9229.94 c 0,0.01 0,0.02 0,0.03 0,-0.01 0,-0.02 0,-0.03 m 0.02,0.36 c 0.01,0.12 0.01,0.22 0.02,0.34 -0.01,-0.12 -0.01,-0.22 -0.02,-0.34 m 0.02,0.43 c 1.83,36.47 -5.52,74.06 -20.7,112.49 -20.21,51.12 -56.64,84.09 -104.28,103.14 47.64,-19.05 84.09,-52.02 104.3,-103.14 15.18,-38.43 22.52,-76.03 20.68,-112.49 m -125.46,215.82 -0.01,0.01 0.01,-0.01 m -58,15.68 c -0.05,0.01 -0.1,0.02 -0.16,0.02 0.04,0 0.12,-0.02 0.16,-0.02 m -0.44,0.07 c -0.09,0.02 -0.2,0.03 -0.29,0.05 0.1,-0.02 0.18,-0.03 0.29,-0.05 m -0.45,0.08 c -21.91,3.56 -45.26,5.21 -69.76,5.21 v 0 c 24.49,0 47.86,-1.65 69.76,-5.21"
         id="path1718" />
    </clipPath>
  </defs>
  <sodipodi:namedview
     inkscape:window-maximized="0"
     inkscape:window-y="0"
     inkscape:window-x="90"
     inkscape:window-height="729"
     inkscape:window-width="1260"
     showgrid="false"
     inkscape:document-rotation="0"
     inkscape:current-layer="layer1"
     inkscape:document-units="mm"
     inkscape:cy="674.28571"
     inkscape:cx="400"
     inkscape:zoom="0.35"
     inkscape:pageshadow="2"
     inkscape:pageopacity="0.0"
     borderopacity="1.0"
     bordercolor="#666666"
     pagecolor="#ffffff"
     id="base" />
  <metadata
     id="metadata1768">
    <rdf:RDF>
      <cc:Work
         rdf:about="">
        <dc:format>image/svg+xml</dc:format>
        <dc:type
           rdf:resource="http://purl.org/dc/dcmitype/StillImage" />
        <dc:title></dc:title>
      </cc:Work>
    </rdf:RDF>
  </metadata>
  <g
     id="layer1"
     inkscape:groupmode="layer"
     inkscape:label="Capa 1">
    <path
       d="m 331.95084,249.51328 c -32.17264,11.05514 -112.08798,35.88028 -215.51293,21.92686 -103.422913,-13.95347 -80.630973,-40.60851 49.50084,-62.1646 130.1318,-21.55608 251.72613,10.78206 166.01209,40.23774"
       style="fill:#687323;fill-opacity:1;fill-rule:nonzero;stroke:none;stroke-width:0.199334"
       id="path1676" />
    <path
       d="m 33.564447,209.27752 c -4.55877,0.57612 -7.26375,2.56942 -4.55481,6.84319 2.71096,4.26975 -4.55482,3.56413 -3.97673,13.10625 0.57607,9.54416 3.74749,13.54286 6.07971,13.18004 2.33419,-0.36671 20.1368,-3.37077 13.71824,-15.90095 -6.42059,-12.53019 -11.26641,-17.22853 -11.26641,-17.22853"
       style="fill:#335d2f;fill-opacity:1;fill-rule:nonzero;stroke:none;stroke-width:0.199334"
       id="path1708" />
    <path
       d="m 70.485267,249.13453 c -0.66382,0.34694 -5.03522,-1.17009 -10.63057,-2.68899 -5.50957,-1.49505 -12.20726,-2.99004 -17.71887,-2.703 -11.10893,0.58007 -14.38799,-2.1249 -9.97472,-4.97741 4.41328,-2.85246 13.24186,-6.84715 7.68042,-15.24709 -5.55947,-8.39802 -12.97075,-13.38137 -6.27905,-15.80529 6.69362,-2.42591 32.04307,-6.14746 39.16528,-9.71356 7.11825,-3.56611 10.00263,44.71678 -2.24249,51.13534"
       style="fill:#42793f;fill-opacity:1;fill-rule:nonzero;stroke:none;stroke-width:0.199334"
       id="path1710" />
    <path
       d="m 80.035407,257.67404 c -12.09165,-2.90828 -17.386,-9.95873 -16.82192,-18.78929 0.56392,-8.83051 -4.06639,-8.82853 -2.89432,-15.66573 1.16811,-6.8372 5.72491,-9.12156 5.72491,-9.12156 0,0 -3.99469,-7.40332 1.69632,-17.37804 5.69101,-9.97472 109.656143,-30.27895 164.905793,-50.83038 55.25168,-20.55144 122.18435,-37.12412 138.16899,3.31494 15.98271,40.44104 -11.62522,76.3572 -121.57038,98.08873 -109.94713,21.73345 -160.946983,12.37073 -169.209393,10.38133"
       style="fill:#9cc558;fill-opacity:1;fill-rule:nonzero;stroke:none;stroke-width:0.199334"
       id="path1712" />
    <g
       transform="matrix(0.19933493,0,0,-0.19933493,-334.07093,2011.6339)"
       id="g1714">
      <g
         id="g1716"
         clip-path="url(#clipPath1720)">
        <path
           d="m 3302.78,9229.94 h 255.949 v 237.656 H 3302.78 Z"
           style="fill:#6e8327;fill-opacity:1;fill-rule:nonzero;stroke:none"
           id="path1722" />
      </g>
    </g>
    <path
       d="m 315.31035,206.22171 c 0,0 34.17403,-12.84514 43.56268,-31.08425 8.71094,-16.92951 8.84249,-25.5049 -1.65846,-25.5049 -0.81327,0 -1.69236,0.0509 -2.63322,0.15539 -13.10427,1.43324 -51.26298,21.40262 -51.26298,21.40262 0,0 17.08105,-17.12687 32.45974,-21.54213 15.38066,-4.41728 21.36272,-5.27638 21.36272,-5.27638 0,0 1.70632,-12.46842 -32.4677,-12.46842 -2.71492,0 -5.66112,0.0797 -8.84847,0.24918 -43.29954,2.31227 -85.24557,31.25173 -160.06795,44.48556 -51.10149,9.03782 -77.009033,16.69428 -88.303353,20.63914 0.1017,-0.1876 0.18137,-0.36898 0.29099,-0.55827 5.69101,-9.97472 109.654113,-30.27895 164.907773,-50.83038 30.49824,-11.34416 64.55265,-21.47636 91.63627,-21.47636 4.88368,0 9.53817,0.32886 13.90556,1.03855 0.0113,0.004 0.0226,0.004 0.0339,0.006 0.017,0.004 0.0396,0.006 0.0576,0.0113 0.0226,0.002 0.0396,0.006 0.0565,0.0113 0.0113,0 0.0226,0.002 0.0339,0.004 4.13222,0.6837 7.99932,1.7083 11.55944,3.12356 l 0.002,0.002 c 0.0339,0.0113 0.0639,0.0226 0.0955,0.0396 9.4963,3.79732 16.75808,10.3694 20.78661,20.5594 3.02593,7.66041 4.49103,15.1534 4.12624,22.4232 0,0.006 0,0.0113 0,0.017 -0.001,0.0226 -0.001,0.0452 -0.004,0.0678 0,0.0226 -0.002,0.0452 -0.004,0.0655 0,0.002 0,0.004 0,0.006 -0.56222,10.43518 -4.89769,20.39797 -13.78204,29.6969 2.21062,-5.67903 3.99068,-6.66175 4.27969,-12.53216 0.23337,-4.71027 -0.22545,-6.53219 -1.51889,-6.53219 -3.3967,0 -12.55612,12.58601 -30.0896,18.37867 -14.54152,4.80395 -18.51225,5.42589 -18.51225,5.42589"
       style="fill:#7fa133;fill-opacity:1;fill-rule:nonzero;stroke:none;stroke-width:0.199334"
       id="path1724" />
    <path
       d="m 63.249367,238.14324 c 0.0113,-0.45034 0.006,-0.87113 -0.004,-1.27774 0.002,0 0.004,0 0.006,0.002 0.0113,0.40287 0.0113,0.82524 -0.004,1.27575"
       style="fill:#496f29;fill-opacity:1;fill-rule:nonzero;stroke:none;stroke-width:0.199334"
       id="path1726" />
    <path
       d="m 65.370317,248.3711 c -1.66846,-2.78872 -2.37606,-5.99399 -2.15282,-9.48833 0.017,-0.2554 0.0283,-0.50233 0.0339,-0.73953 0.017,-0.45034 0.017,-0.87311 0.004,-1.27576 11.2485,2.96213 26.58531,5.50963 46.138093,5.50963 0.65183,0 1.3096,-0.004 1.97144,-0.0113 17.44578,-0.15143 30.8849,-0.19946 40.93539,-0.19946 17.687,0 24.87301,0.14974 24.87301,0.14974 0,0 -30.73545,4.70828 -66.00978,4.70828 -6.10559,0 -12.352773,-0.14126 -18.595943,-0.47237 -2.73487,-0.14353 -5.28434,-0.21133 -7.6664,-0.21133 -8.30032,0 -14.56937,0.81728 -19.52887,2.02924"
       style="fill:#7fa133;fill-opacity:1;fill-rule:nonzero;stroke:none;stroke-width:0.199334"
       id="path1728" />
    <path
       d="m 189.6038,184.80519 c 10.5548,-2.40997 17.88833,-3.89897 19.21392,-3.89897 0.12375,0 0.19551,0.0113 0.21359,0.0395 0.14522,0.21754 -7.58667,1.68038 -19.42717,3.85908"
       style="fill:#7fa133;fill-opacity:1;fill-rule:nonzero;stroke:none;stroke-width:0.199334"
       id="path1730" />
    <path
       d="m 60.604227,228.1466 c -0.44073,-1.28972 -0.65381,-2.7668 -0.28308,-4.92758 0.0565,-0.31869 0.12148,-0.61392 0.19155,-0.91492 6.24915,0.47238 14.80861,0.93684 24.28699,0.93684 9.71757,0 20.399893,-0.4882 30.538083,-1.96341 30.19329,-4.39135 83.1705,-16.31163 83.1705,-16.31163 0,0 -65.21838,21.90296 -109.660093,22.78997 -12.16941,0.24127 -21.33086,0.35485 -28.24378,0.39044"
       style="fill:#7fa133;fill-opacity:1;fill-rule:nonzero;stroke:none;stroke-width:0.199334"
       id="path1732" />
    <path
       d="m 61.800197,218.74195 c 1.77012,-3.39467 4.24783,-4.64251 4.24783,-4.64251 0,0 -0.21132,-0.40288 -0.46446,-1.12026 2.63717,-1.1063 5.38402,-2.37008 8.15081,-3.72957 11.25246,-5.52952 81.207033,-18.0657 115.869373,-24.44442 -20.45374,4.66845 -53.00914,12.79333 -77.41373,20.22653 -22.311543,6.79731 -39.745353,11.21059 -50.389823,13.71023"
       style="fill:#7fa133;fill-opacity:1;fill-rule:nonzero;stroke:none;stroke-width:0.199334"
       id="path1734" />
    <path
       d="m 63.161677,218.91937 c 0,0 76.381163,-9.00793 135.340433,-23.72088 58.9573,-14.71487 87.15519,-18.0358 95.13062,-19.46904 7.97537,-1.42922 70.76784,-30.91281 67.21971,-15.14747 -3.54814,15.76744 -25.04444,33.63379 -58.65229,44.20056 -33.60791,10.56474 20.51753,7.89965 37.88755,-4.61658 17.36605,-12.51628 37.17796,-4.19206 -2.8385,14.78664 -40.0185,18.98067 -94.88341,35.51549 -161.78223,40.06234 -66.89876,4.54685 -107.684703,-1.91363 -99.426253,-4.48504 8.26044,-2.56942 90.304693,-1.00662 111.380373,-9.66773 21.07569,-8.66314 -58.39914,-0.0576 -80.62102,-2.31826 -22.223853,-2.26447 -37.606493,-3.96079 -32.764693,-4.81994 4.84186,-0.85711 88.024343,-13.6744 103.110003,-23.68895 15.08763,-10.01461 -1.81396,-1.20999 -34.18397,4.57674 -33.6118,6.00597 -50.202453,9.31288 -79.799733,4.30761"
       style="fill:#b7e168;fill-opacity:1;fill-rule:nonzero;stroke:none;stroke-width:0.199334"
       id="path1736" />
    <path
       d="m 196.8297,251.03421 c 39.70156,-6.299 121.05409,-24.41854 133.29723,-34.62646 12.24315,-10.20593 -25.9215,2.52157 -41.30419,2.1648 -15.38462,-0.35485 3.6877,-19.45712 7.38738,-23.73083 3.70166,-4.27772 -74.16856,10.59266 -106.58439,18.59396 -32.41584,8.00328 -49.78591,16.56076 -30.41648,15.97865 19.37134,-0.58601 63.24496,3.36879 45.87291,9.07974 -17.37205,5.71096 -46.12408,18.55011 -8.25246,12.54014"
       style="fill:#dff0a9;fill-opacity:1;fill-rule:nonzero;stroke:none;stroke-width:0.199334"
       id="path1738" />
  </g>
</svg>
