<?xml version="1.0" encoding="UTF-8" standalone="no"?>
<svg
   xmlns:dc="http://purl.org/dc/elements/1.1/"
   xmlns:cc="http://creativecommons.org/ns#"
   xmlns:rdf="http://www.w3.org/1999/02/22-rdf-syntax-ns#"
   xmlns:svg="http://www.w3.org/2000/svg"
   xmlns="http://www.w3.org/2000/svg"
   xmlns:sodipodi="http://sodipodi.sourceforge.net/DTD/sodipodi-0.dtd"
   xmlns:inkscape="http://www.inkscape.org/namespaces/inkscape"
   sodipodi:docname="melon.svg"
   inkscape:version="1.0 (4035a4fb49, 2020-05-01)"
   id="svg1378"
   version="1.1"
   viewBox="0 0 400 400"
   height="400mm"
   width="400mm">
  <defs
     id="defs1372" />
  <sodipodi:namedview
     inkscape:window-maximized="0"
     inkscape:window-y="0"
     inkscape:window-x="90"
     inkscape:window-height="729"
     inkscape:window-width="1260"
     showgrid="false"
     inkscape:document-rotation="0"
     inkscape:current-layer="layer1"
     inkscape:document-units="mm"
     inkscape:cy="674.28571"
     inkscape:cx="400"
     inkscape:zoom="0.35"
     inkscape:pageshadow="2"
     inkscape:pageopacity="0.0"
     borderopacity="1.0"
     bordercolor="#666666"
     pagecolor="#ffffff"
     id="base" />
  <metadata
     id="metadata1375">
    <rdf:RDF>
      <cc:Work
         rdf:about="">
        <dc:format>image/svg+xml</dc:format>
        <dc:type
           rdf:resource="http://purl.org/dc/dcmitype/StillImage" />
        <dc:title></dc:title>
      </cc:Work>
    </rdf:RDF>
  </metadata>
  <g
     id="layer1"
     inkscape:groupmode="layer"
     inkscape:label="Capa 1">
    <path
       d="M 343.38419,314.68898 C 308.58625,324.58944 222.29304,346.38319 113.25634,325.64736 4.215351,304.91357 29.946001,277.9088 169.37953,262.46019 308.81521,247.01163 436.09891,288.30956 343.38419,314.68898"
       style="fill:#687323;fill-opacity:1;fill-rule:nonzero;stroke:none;stroke-width:0.212001"
       id="path1288" />
    <path
       d="M 191.8878,313.75829 C 99.715801,313.75829 25,258.23076 25,189.73089 25,121.23102 99.715801,65.7035 191.8878,65.7035 c 92.16774,0 166.88353,55.52752 166.88353,124.02739 0,68.49987 -74.71579,124.0274 -166.88353,124.0274"
       style="fill:#e2af11;fill-opacity:1;fill-rule:nonzero;stroke:none;stroke-width:0.212001"
       id="path1290" />
    <path
       d="m 179.08072,267.13696 c -73.25296,0 -132.638879,-44.13238 -132.638879,-98.5723 0,-54.43993 59.385919,-98.57236 132.638879,-98.57236 73.25086,0 132.63468,44.13243 132.63468,98.57236 0,54.43992 -59.38382,98.5723 -132.63468,98.5723"
       style="fill:#e7cb0c;fill-opacity:1;fill-rule:nonzero;stroke:none;stroke-width:0.212001"
       id="path1292" />
    <path
       d="m 158.03534,199.74374 c -58.686299,0 -106.261639,-23.30958 -106.261639,-52.06551 0,-28.75383 47.57534,-52.06341 106.261639,-52.06341 58.68846,0 106.26163,23.30958 106.26163,52.06341 0,28.75593 -47.57317,52.06551 -106.26163,52.06551"
       style="fill:#f0e61b;fill-opacity:1;fill-rule:nonzero;stroke:none;stroke-width:0.212001"
       id="path1294" />
    <path
       d="m 300.36694,215.6608 c -1.58152,0 -3.08035,-0.13762 -4.51987,-0.27344 h -0.024 c 1.39709,-1.92069 2.71148,-3.87961 3.93898,-5.87452 0.57451,0.0829 1.13424,0.15024 1.68116,0.19531 0.42607,0.036 0.8459,0.0481 1.26566,0.0481 1.01338,0 2.01402,-0.10156 3.05072,-0.3179 1.46067,-0.29867 2.96587,-0.81411 4.48808,-1.39709 1.52004,-0.59133 3.05282,-1.27203 4.57286,-1.98223 1.53489,-0.73142 3.11431,-1.45857 4.69799,-2.15609 1.5942,-0.69109 3.2012,-1.37798 4.8972,-1.93554 1.59636,-0.51922 3.3009,-0.98159 5.09227,-0.98159 0.10156,0 0.20132,0.002 0.30348,0.004 1.91865,0.0481 3.66555,0.76957 5.17712,1.60694 1.52852,0.83532 2.94682,1.78716 4.38633,2.72633 -1.59215,-0.63388 -3.17794,-1.3123 -4.76583,-1.86559 -1.23808,-0.43028 -2.48463,-0.72078 -3.69097,-0.72078 -0.34795,0 -0.6911,0.024 -1.02817,0.0739 -1.52431,0.20552 -3.01046,0.83315 -4.46902,1.57935 -1.45857,0.75474 -2.90439,1.60274 -4.33754,2.49316 -1.43735,0.89043 -2.84928,1.81475 -4.29937,2.73697 -1.46921,0.93279 -2.96172,1.84654 -4.53477,2.70301 -1.57305,0.85858 -3.23515,1.64937 -5.06469,2.26204 -1.82322,0.61904 -3.85635,0.98579 -5.80673,1.05364 -0.34134,0.012 -0.67842,0.018 -1.01339,0.018 M 53.672731,208.66677 c -0.45612,0 -0.91374,-0.004 -1.37377,-0.012 -1.77875,-0.036 -3.60407,-0.16766 -5.44851,-0.56789 -1.8338,-0.39423 -3.7206,-1.13844 -5.24491,-2.34473 -0.3795,-0.29687 -0.73988,-0.61267 -1.07272,-0.94553 l -0.90525,-0.92222 -1.7999,-1.82953 -7.19534,-7.33952 c 2.84719,1.91859 5.60745,3.94535 8.39527,5.94874 l 2.07126,1.52857 1.02397,0.76321 c 0.30949,0.22476 0.62962,0.42848 0.96039,0.6063 1.30802,0.72504 2.74117,1.08543 4.28026,1.19144 0.42608,0.024 0.85654,0.0361 1.29114,0.0361 2.15603,0 4.41176,-0.29026 6.68653,-0.64446 0.78226,1.50093 1.60694,2.9765 2.48252,4.44144 -0.0871,0.002 -0.17607,0.006 -0.26501,0.006 -1.28471,0.0481 -2.5779,0.0829 -3.88599,0.0829"
       style="fill:#ece21d;fill-opacity:1;fill-rule:nonzero;stroke:none;stroke-width:0.212001"
       id="path1296" />
    <path
       d="m 204.57608,228.51025 c -1.47768,0 -2.96167,-0.0301 -4.45629,-0.0998 -3.68881,-0.19711 -7.43279,-0.65293 -11.26366,-1.61758 -1.91439,-0.48737 -3.84782,-1.11302 -5.78126,-1.95254 -0.96675,-0.42367 -1.93349,-0.90732 -2.8875,-1.45857 -0.47896,-0.27163 -0.95401,-0.5721 -1.42251,-0.87979 l -0.70383,-0.48977 -0.51502,-0.36899 c -2.62669,-1.89317 -5.26612,-3.67396 -7.86529,-5.02869 -2.60548,-1.3674 -5.14527,-2.27898 -7.73591,-2.66274 -1.04306,-0.16527 -2.11366,-0.24579 -3.20546,-0.24579 -1.61337,0 -3.27758,0.17187 -4.999,0.49157 -2.88534,0.52583 -5.8449,1.46494 -8.86594,2.55254 -3.01676,1.08754 -5.97206,2.37862 -9.13936,3.7736 -1.59426,0.68899 -3.23732,1.42041 -5.06048,2.06913 -1.81054,0.653 -3.81393,1.25929 -6.02723,1.57942 -0.97095,0.14182 -1.98013,0.21634 -2.99561,0.21634 -1.29108,0 -2.59274,-0.11899 -3.84356,-0.36237 -2.24088,-0.43449 -4.29516,-1.19992 -6.12265,-2.11577 -0.91585,-0.45792 -1.785,-0.9519 -2.62032,-1.46283 -0.8289,-0.51321 -1.62816,-1.0388 -2.43379,-1.61968 -1.58999,-1.1427 -3.15036,-2.4592 -4.55376,-3.93261 -1.39925,-1.4501 -2.624589,-3.10794 -3.493799,-4.24644 -0.92012,-1.15538 -1.28261,-1.51787 -2.16667,-1.96095 -0.87768,-0.42608 -2.24725,-0.73569 -3.71849,-0.91585 -1.47978,-0.18209 -3.07615,-0.28185 -4.69799,-0.32632 -0.80984,-0.024 -1.62395,-0.036 -2.44436,-0.036 -2.48042,0 -5.01174,0.0913 -7.55574,0.17367 -3.3857,0.10817 -6.77133,0.28185 -10.16976,0.47054 -3.31147,0.16346 -6.62926,0.38822 -10.00431,0.52343 -0.87558,-1.46493 -1.70027,-2.94045 -2.48258,-4.44144 0.58111,-0.0889 1.16175,-0.18449 1.74269,-0.27764 l 10.09127,-1.73416 c 3.38779,-0.56369 6.80311,-1.07696 10.2227,-1.54973 3.41538,-0.46213 6.86465,-0.87979 10.44535,-1.10875 1.21049,-0.0721 2.43589,-0.12921 3.69518,-0.12921 0.60419,0 1.21902,0.012 1.84227,0.0421 1.92286,0.10577 3.97504,0.29447 6.28161,1.11723 1.142699,0.41105 2.340519,1.0367 3.368739,1.81048 1.0388,0.77168 1.86775,1.62184 2.53553,2.35109 1.32714,1.47341 2.19635,2.52075 3.23942,3.46622 1.01759,0.93706 2.13061,1.77022 3.36442,2.53769 0.60846,0.38401 1.26145,0.75684 1.90801,1.10239 0.64452,0.34134 1.28477,0.64662 1.91439,0.91164 1.26139,0.53184 2.46347,0.89674 3.58917,1.04938 0.44531,0.0601 0.88196,0.0871 1.31446,0.0871 0.66777,0 1.33345,-0.0679 2.03944,-0.20973 2.31294,-0.4453 5.11559,-1.77442 8.15357,-3.22031 3.02951,-1.46493 6.28377,-3.03161 9.64819,-4.38206 3.34753,-1.36103 6.90281,-2.55464 10.72305,-3.35384 2.50374,-0.52343 5.16865,-0.85017 7.89071,-0.85017 1.4162,0 2.84508,0.0871 4.27822,0.28185 4.187,0.56189 8.15147,2.03313 11.59437,3.81182 3.46622,1.78927 6.51267,3.82871 9.42986,5.91906 l 0.87342,0.62541 c 0.23978,0.15925 0.48737,0.3203 0.74837,0.47054 0.52162,0.30528 1.08333,0.59554 1.67905,0.86074 1.19355,0.53004 2.51221,0.97943 3.90509,1.34408 2.78991,0.73563 5.85337,1.1236 8.97188,1.35046 1.83807,0.13161 3.69735,0.1887 5.57357,0.1887 4.53471,0 9.16058,-0.34134 13.77798,-0.84163 6.54026,-0.71658 13.08472,-1.87833 19.55923,-3.29453 3.20337,-0.71231 6.53816,-1.56247 9.81784,-2.36804 3.3051,-0.80774 6.62505,-1.65364 10.06369,-2.42742 3.43232,-0.78015 7.04487,-1.4204 10.74853,-1.70027 1.38434,-0.10576 2.76875,-0.15444 4.14673,-0.15444 2.30657,0 4.59408,0.14002 6.82649,0.39422 3.5828,0.40504 7.0215,0.99854 10.42834,1.68332 2.75812,0.54086 5.49509,1.20839 7.98825,1.56878 -1.2275,1.99498 -2.5419,3.95383 -3.93899,5.87459 l -5.08806,-0.52163 c -3.34963,-0.3161 -6.68869,-0.6212 -9.91958,-0.68051 -0.45612,-0.006 -0.90948,-0.012 -1.36103,-0.012 -2.76876,0 -5.4675,0.16105 -8.12394,0.5703 -3.08882,0.46453 -6.16713,1.28044 -9.34928,2.19208 -3.17578,0.92643 -6.41724,1.9695 -9.69272,2.99135 -1.63662,0.51922 -3.29026,1.00491 -4.94383,1.49883 -1.66001,0.49158 -3.29243,0.97312 -5.02448,1.44589 -6.7798,1.87406 -13.66771,3.3072 -20.67863,4.33116 -5.59051,0.80353 -11.26366,1.30809 -17.06823,1.30809"
       style="fill:#edeb31;fill-opacity:1;fill-rule:nonzero;stroke:none;stroke-width:0.212001"
       id="path1298" />
    <path
       d="m 344.68801,182.94683 c -5.95932,-3.77787 -11.94418,-7.48369 -17.94592,-11.1216 -5.03927,-3.02314 -10.10191,-6.00601 -15.22807,-8.74081 -0.18029,-2.44653 -0.48136,-4.87395 -0.8989,-7.27168 0.30348,0.19531 0.6063,0.39002 0.90527,0.58953 5.99748,3.94746 11.6452,8.22569 17.15303,12.66713 5.50782,4.43927 10.85237,9.06094 16.01459,13.87761"
       style="fill:#cf701c;fill-opacity:1;fill-rule:nonzero;stroke:none;stroke-width:0.212001"
       id="path1300" />
    <path
       d="m 311.51402,163.08442 c -0.99007,-0.52583 -1.98013,-1.04518 -2.9744,-1.5519 -1.53916,-0.77378 -3.06978,-1.54125 -4.6153,-2.24082 -0.77168,-0.35215 -1.54546,-0.69115 -2.31293,-1.00917 -0.77589,-0.32452 -1.52005,-0.60209 -2.36594,-0.92643 -3.33263,-1.27203 -6.60594,-2.69033 -9.75847,-3.86693 -1.56878,-0.58953 -3.09519,-1.08754 -4.55802,-1.45009 -1.47131,-0.36057 -2.89382,-0.56189 -4.36933,-0.61904 -0.3161,-0.012 -0.63598,-0.018 -0.95617,-0.018 -2.67332,0 -5.53955,0.42367 -8.4758,0.94764 -1.63879,0.29687 -3.32421,0.64872 -4.96084,1.01975 -0.88616,0.20372 -1.77442,0.43028 -2.65637,0.67841 0.51922,-2.08607 0.78652,-4.21247 0.78652,-6.36856 0,-1.3144 -0.0998,-2.62032 -0.29447,-3.9114 0.0955,-0.018 0.19291,-0.03 0.28846,-0.0481 1.81475,-0.29687 3.58917,-0.55348 5.42724,-0.77805 2.34262,-0.27764 4.75946,-0.49398 7.26746,-0.49398 1.40556,0 2.83865,0.0679 4.30359,0.23136 2.03103,0.22897 4.07678,0.68689 5.97848,1.3123 1.91223,0.62114 3.6676,1.40556 5.32761,2.18998 3.30931,1.59216 6.37487,3.21184 9.47643,4.77004 0.76111,0.38401 1.63032,0.81194 2.43806,1.25082 0.81404,0.43869 1.61331,0.88616 2.40199,1.34408 1.25929,0.73779 2.4931,1.49036 3.70366,2.26841 0.41766,2.39773 0.71867,4.82514 0.8989,7.27167"
       style="fill:#d58919;fill-opacity:1;fill-rule:nonzero;stroke:none;stroke-width:0.212001"
       id="path1302" />
    <path
       d="m 30.635001,167.39653 c 5.35093,-4.17648 10.99017,-8.00098 16.88596,-11.46083 -0.21634,1.25292 -0.39843,2.50584 -0.54927,3.7715 -2.29599,0.97943 -4.58134,1.99707 -6.85191,3.05493 -3.19486,1.45646 -6.34309,3.0253 -9.48496,4.6344"
       style="fill:#cf701c;fill-opacity:1;fill-rule:nonzero;stroke:none;stroke-width:0.212001"
       id="path1304" />
    <path
       d="m 46.971871,159.7072 c 0.15084,-1.26566 0.33293,-2.51858 0.54927,-3.7715 0.23978,-0.14002 0.47896,-0.28005 0.72078,-0.42007 1.36109,-0.78442 2.73486,-1.55399 4.12558,-2.29809 0.28004,1.29745 0.6593,2.58216 1.12997,3.84993 -1.25719,0.48136 -2.51221,0.97732 -3.76519,1.48404 -0.92216,0.3798 -1.84228,0.76321 -2.76023,1.15539"
       style="fill:#d58919;fill-opacity:1;fill-rule:nonzero;stroke:none;stroke-width:0.212001"
       id="path1306" />
    <path
       d="m 244.45781,160.08453 c -1.0748,0 -2.15813,-0.11418 -3.16304,-0.33052 -1.29108,-0.26922 -2.4571,-0.67204 -3.52769,-1.11512 -2.13061,-0.90948 -3.89873,-1.97797 -5.54383,-3.06551 l -1.20845,-0.82684 -1.12996,-0.80558 -1.01969,-0.72504 -1.01976,-0.70173 c -5.45482,-3.70582 -11.04954,-6.66111 -16.74817,-7.5918 -1.57304,-0.28425 -3.16941,-0.42006 -4.78482,-0.42006 -4.204,0 -8.53523,0.91164 -12.91519,2.44226 -3.02735,1.01975 -5.97417,2.3193 -9.23053,3.78213 -3.23305,1.44162 -6.94097,3.04219 -11.0326,3.94109 -2.8196,0.62541 -5.70283,0.89253 -8.51185,0.89253 -1.25292,0 -2.491,-0.0541 -3.70366,-0.15083 -1.96949,-0.15926 -3.89662,-0.41766 -5.78132,-0.75047 -0.94553,-0.16526 -1.85501,-0.34374 -2.80902,-0.55107 l -1.35892,-0.31189 -1.37588,-0.33894 c -3.65491,-0.92222 -7.43279,-2.20482 -10.93079,-3.86267 l -4.63014,-2.25993 c -1.30593,-0.59975 -2.36805,-0.9498 -3.65913,-1.17449 -1.11091,-0.19291 -2.35326,-0.27163 -3.67402,-0.27163 -1.72569,0 -3.5807,0.13341 -5.44419,0.3161 -1.65153,0.16105 -3.32842,0.37078 -5.02021,0.60846 l -5.1707,0.76104 c -3.44296,0.53425 -6.87522,1.05791 -10.31181,1.64089 -3.425899,0.5637 -6.968499,1.24872 -10.680629,1.61121 -3.6846,0.36478 -7.2674,0.50059 -10.82058,0.57451 l -2.63306,0.0421 c -0.80347,0.006 -1.58152,0.0481 -2.39136,0.12319 -1.6091,0.14002 -3.24363,0.40083 -4.88452,0.71874 -3.28816,0.63598 -6.58268,1.58152 -9.85594,2.65217 -2.00771,0.65293 -4.00262,1.37161 -5.98906,2.13271 -0.47055,-1.26776 -0.85017,-2.55247 -1.12997,-3.84993 4.90573,-2.62885 10.01285,-4.96721 15.49093,-6.71411 1.76174,-0.55528 3.57228,-1.01975 5.44214,-1.38014 0.93063,-0.17788 1.89948,-0.33052 2.84928,-0.43869 l 2.62459,-0.30348 c 3.45985,-0.41346 6.88791,-0.82258 10.16122,-1.4522 3.2521,-0.62541 6.57205,-1.49672 10.03195,-2.34262 3.440739,-0.84379 6.909129,-1.66421 10.377449,-2.39773 l 5.20891,-1.09397 c 1.77232,-0.36237 3.56586,-0.69956 5.39755,-0.99217 1.83596,-0.28845 3.71003,-0.51501 5.67104,-0.64872 0.8798,-0.0601 1.78296,-0.0932 2.71149,-0.0932 1.13423,0 2.30446,0.0541 3.51922,0.19952 2.19215,0.24398 4.53261,0.901 6.45336,1.69179 1.93771,0.78015 3.45564,1.5561 4.93326,2.17087 2.90018,1.25508 5.8449,2.14335 9.02705,2.8366 l 1.1936,0.2524 1.21897,0.23558 c 0.76958,0.13761 1.58789,0.29025 2.37021,0.40924 1.58362,0.24399 3.15036,0.42007 4.68308,0.51081 0.71657,0.0421 1.42467,0.0613 2.12003,0.0613 2.29599,0 4.49234,-0.23317 6.62084,-0.74837 2.78354,-0.64662 5.58836,-1.81685 8.74719,-3.26267 3.1482,-1.43531 6.61658,-3.02104 10.25449,-4.25491 3.61675,-1.22113 7.454,-2.2133 11.47357,-2.68396 1.65784,-0.19952 3.35174,-0.30348 5.05621,-0.30348 2.41684,0 4.85484,0.21214 7.23989,0.67204 4.07251,0.77385 7.93734,2.20062 11.45446,3.95599 3.5319,1.75748 6.75648,3.82024 9.76478,6.02507 l 1.12149,0.83105 1.10244,0.83953 0.99001,0.75894 0.94553,0.69325 c 1.24871,0.90101 2.49106,1.67269 3.5828,2.18361 0.54266,0.25 1.03886,0.43449 1.4671,0.54266 0.43449,0.10998 0.79926,0.16767 1.20629,0.16947 0.0361,0.002 0.0721,0.002 0.10817,0.002 0.77805,0 1.91438,-0.26922 3.34116,-0.76957 l 4.93746,-1.80411 c 1.75965,-0.61904 3.58497,-1.20629 5.43578,-1.67485 1.75747,-0.45612 3.51285,-0.82889 5.30001,-1.13417 0.19531,1.29108 0.29447,2.597 0.29447,3.9114 0,2.15609 -0.26742,4.28243 -0.78653,6.36856 -0.67204,0.1887 -1.33987,0.39242 -1.99918,0.6063 -1.53067,0.50059 -3.03371,1.04517 -4.56229,1.66848 l -4.87388,2.04792 c -0.90527,0.36057 -1.88897,0.73141 -3.01256,1.04727 -1.11939,0.31189 -2.38505,0.5703 -3.74398,0.64236 -0.28425,0.018 -0.5721,0.024 -0.86074,0.024"
       style="fill:#e09e14;fill-opacity:1;fill-rule:nonzero;stroke:none;stroke-width:0.212001"
       id="path1308" />
    <path
       d="m 333.30776,158.29316 c -1.14691,-3.39626 -2.54189,-6.68021 -4.19973,-9.80083 -1.62816,-3.12494 -3.50228,-6.10354 -5.7071,-8.7345 -2.20693,-2.61395 -4.7064,-4.92058 -7.51332,-6.49363 -2.77723,-1.5603 -5.72831,-2.38288 -8.83625,-2.38288 -0.0421,0 -0.0847,0 -0.1274,0 -0.65936,-0.012 -1.31866,-0.018 -1.97586,-0.018 -1.08544,0 -2.16877,0.018 -3.2521,0.0481 -1.26566,-2.27477 -2.64154,-4.50291 -4.12558,-6.68863 3.25637,0.10577 6.54026,0.32872 9.78178,0.73989 1.94828,0.21394 4.0132,0.69957 5.88306,1.44372 1.8868,0.742 3.65702,1.7278 5.24064,2.9044 3.18005,2.35325 5.67958,5.31912 7.63843,8.4928 3.90299,6.3664 6.15018,13.39006 7.19325,20.48788 M 39.740301,148.04955 c 1.78293,-3.11646 3.81601,-6.0887 6.01447,-8.97404 1.11939,-1.42678 2.30662,-2.81112 3.58923,-4.14463 0.64236,-0.66357 1.31013,-1.3123 2.0225,-1.93344 0.70593,-0.62757 1.51157,-1.23176 2.26414,-1.74906 1.39498,-0.96248 2.80271,-1.85922 4.21248,-2.72843 -1.18508,1.97796 -2.28325,3.98988 -3.29447,6.03569 -2.65638,1.4543 -5.09864,3.57223 -7.43279,5.75584 -2.59917,2.40831 -5.02234,5.03506 -7.37556,7.73807"
       style="fill:#ece21d;fill-opacity:1;fill-rule:nonzero;stroke:none;stroke-width:0.212001"
       id="path1310" />
    <path
       d="m 54.548831,134.55745 c 1.01122,-2.04582 2.10939,-4.05774 3.29447,-6.0357 0.93069,-0.57451 1.86348,-1.13634 2.79634,-1.696 -2.09035,2.34262 -3.84152,4.77424 -5.21949,7.28225 -0.024,0.012 -0.0421,0.018 -0.0613,0.03 -0.27163,0.13161 -0.54266,0.27163 -0.80984,0.42007 m 231.480469,-2.69454 c -0.17368,0 -0.34795,-0.002 -0.52343,-0.004 -2.01402,-0.0361 -4.32059,-0.23737 -6.68232,-1.19354 -1.16813,-0.47295 -2.30657,-1.12576 -3.303,-1.89528 -1.00064,-0.76537 -1.86132,-1.62821 -2.60548,-2.51011 -0.74626,-0.88195 -1.37377,-1.78295 -1.94197,-2.68186 l -0.41526,-0.68027 -0.36477,-0.62114 -0.71027,-1.26356 c -0.93279,-1.68542 -1.75747,-3.45564 -2.4931,-5.00537 -0.36657,-0.76952 -0.72083,-1.46914 -1.03032,-1.96102 -0.3119,-0.50239 -0.53846,-0.71868 -0.65083,-0.77589 -0.11238,-0.0601 -0.23077,-0.11418 -0.62757,-0.22054 -0.38341,-0.0932 -0.97306,-0.18209 -1.643,-0.22236 -0.55348,-0.036 -1.15118,-0.0541 -1.77869,-0.0541 -0.91375,0 -1.88897,0.0361 -2.87266,0.0913 -1.67479,0.0956 -3.38137,0.23978 -5.10285,0.41346 -3.41538,0.33713 -6.83069,0.85647 -10.42624,1.32497 -0.74836,0.0932 -1.50736,0.19291 -2.27688,0.28425 -9.98532,-6.02512 -22.66091,-10.93506 -37.13635,-14.29317 -0.49579,-0.20973 -0.99854,-0.39663 -1.51157,-0.56369 -2.2663,-0.75684 -4.79125,-1.13844 -7.49643,-1.28051 -11.35477,-2.0288 -23.6127,-3.13545 -36.40067,-3.13545 -23.37533,0 -44.98675,3.69734 -62.532019,9.96621 1.11302,-0.78442 2.19419,-1.57942 3.22241,-2.39563 1.276239,-1.01121 2.497369,-2.08607 3.269049,-3.0295 1.28261,-1.48399 2.65638,-2.98288 4.6153,-4.43297 0.98159,-0.71441 2.16456,-1.41614 3.55738,-1.90802 1.33351,-0.48136 2.81965,-0.70167 4.13826,-0.70167 0.0541,0 0.10997,0.002 0.16346,0.002 1.36956,0.012 2.54826,0.19711 3.59554,0.39662 1.05154,0.20553 1.99287,0.43689 2.88961,0.6572 1.78506,0.44711 3.41958,0.8819 5.06474,1.24655 0.82042,0.18209 1.63873,0.35216 2.45494,0.5048 l 1.23598,0.22235 c 0.39422,0.0679 0.77384,0.125 1.15328,0.18029 1.26776,0.17788 2.48042,0.26502 3.67613,0.26502 1.70664,0 3.38353,-0.17789 5.14738,-0.52343 3.00408,-0.59374 6.34945,-1.66421 9.82841,-2.67543 6.98334,-2.0755 14.31438,-3.71856 21.56484,-4.87815 3.63371,-0.56369 7.24409,-1.04517 10.95622,-1.4183 3.17157,-0.30769 6.39399,-0.54086 9.73088,-0.54086 0.5679,0 1.13634,0.006 1.71091,0.024 3.93471,0.1232 8.13662,0.61267 12.3003,2.0246 2.06702,0.70173 4.08525,1.62605 5.93606,2.6967 1.85922,1.0706 3.55949,2.26414 5.11558,3.50012 1.56037,1.23807 2.98925,2.49316 4.3757,3.75034 l 0.90317,0.81405 c 0.27764,0.24399 0.55768,0.47896 0.83952,0.706 0.5637,0.45371 1.12787,0.87131 1.69811,1.24865 2.29815,1.50947 4.5326,2.28751 7.32894,2.57375 0.80347,0.0805 1.65147,0.11418 2.53553,0.11418 2.18361,0 4.58561,-0.20793 7.07234,-0.44951 3.50017,-0.36057 7.1784,-0.71021 10.88422,-0.91164 1.84017,-0.0998 3.69939,-0.17188 5.59683,-0.19111 0.24579,0 0.49157,0 0.73778,0 1.67689,0 3.39838,0.0361 5.31697,0.28185 1.10034,0.15024 2.28541,0.35817 3.60401,0.80347 1.30382,0.43449 2.81539,1.20208 4.045,2.32568 1.2445,1.11722 2.05434,2.38715 2.61828,3.43869 0.56369,1.06633 0.94553,1.99491 1.30165,2.85776 0.69536,1.71932 1.29535,3.23088 1.97587,4.73188 l 0.52342,1.11302 0.52163,1.0409 c 0.34314,0.64025 0.69746,1.23597 1.06632,1.7469 0.75263,1.04307 1.47768,1.71085 2.3999,2.18998 0.92432,0.47475 2.21329,0.79927 3.75455,0.94764 3.09946,0.30288 6.78617,0.14844 10.41777,0.26081 0.40684,0.012 0.81621,0.024 1.22323,0.0361 1.48405,2.18572 2.85992,4.41386 4.12558,6.68863 -1.72569,0.0481 -3.45143,0.14423 -5.1856,0.27584 l -5.30428,0.42006 c -1.65357,0.125 -3.34747,0.2542 -5.17706,0.2542"
       style="fill:#edeb31;fill-opacity:1;fill-rule:nonzero;stroke:none;stroke-width:0.212001"
       id="path1312" />
    <path
       d="m 55.420151,134.108 c 1.37797,-2.50801 3.12914,-4.93963 5.21949,-7.28225 0.73351,-0.4387 1.46703,-0.87769 2.20055,-1.32077 l 9.24964,-5.43998 c 6.15866,-3.59981 12.2961,-7.20809 18.20458,-10.99017 1.76384,-1.15118 3.52349,-2.30873 5.20891,-3.4938 17.545269,-6.26887 39.156689,-9.96621 62.532019,-9.96621 12.78797,0 25.0459,1.10665 36.40067,3.13551 -0.42607,-0.024 -0.85858,-0.036 -1.29319,-0.0481 -0.53664,-0.012 -1.07912,-0.024 -1.62394,-0.024 -5.95301,0 -12.34063,0.78652 -18.63918,1.68332 -3.43016,0.48136 -6.8286,1.05785 -10.19938,1.7469 -3.37932,0.68262 -6.70354,1.51157 -10.11465,2.37862 -3.40895,0.85864 -6.91339,1.8868 -10.94774,2.55674 -1.8296,0.29266 -3.7694,0.48977 -5.71131,0.48977 -0.18629,0 -0.37319,-0.002 -0.55948,-0.006 -2.13067,-0.0361 -4.23159,-0.27344 -6.22867,-0.64873 -0.50059,-0.0913 -0.99637,-0.19531 -1.47972,-0.30108 l -1.38651,-0.3179 c -0.93069,-0.22235 -1.85081,-0.45792 -2.76455,-0.70804 -1.82106,-0.49818 -3.61886,-1.05154 -5.27243,-1.57094 -1.63879,-0.51922 -3.16521,-0.94553 -4.00473,-1.00701 -0.14844,-0.012 -0.27584,-0.018 -0.39002,-0.018 -0.21394,0 -0.38821,0.024 -0.58713,0.0679 -0.30288,0.0697 -0.70383,0.23737 -1.18297,0.54265 -0.97522,0.6042 -2.13277,1.65784 -3.26694,2.79845 -1.65153,1.68536 -3.25847,2.82807 -4.85483,3.93051 -3.19279,2.15392 -6.377039,3.95593 -9.607929,5.66467 -6.43852,3.41322 -12.95966,6.44062 -19.49145,9.40439 l -9.8093,4.36301 c -3.23732,1.43105 -6.49579,2.8684 -9.59945,4.37997 M 233.35989,115.4004 c -0.73989,0 -1.49462,-0.018 -2.26841,-0.0637 -2.16029,-0.14002 -4.44144,-0.5024 -6.63779,-1.22744 -2.19845,-0.706 -4.28243,-1.72359 -6.14591,-2.90235 -0.9349,-0.58713 -1.81896,-1.21476 -2.66065,-1.86559 -0.42006,-0.32451 -0.82889,-0.65509 -1.2296,-0.99217 l -1.10875,-0.95614 c -1.27834,-1.11728 -2.56095,-2.19214 -3.8224,-3.14825 -2.03945,-1.55394 -3.98989,-2.7836 -6.04201,-3.65065 14.47544,3.3581 27.15103,8.26804 37.13635,14.29317 -2.27483,0.27583 -4.65772,0.51321 -7.22083,0.51321"
       style="fill:#f1f252;fill-opacity:1;fill-rule:nonzero;stroke:none;stroke-width:0.212001"
       id="path1314" />
    <path
       d="m 124.1914,259.19961 c -2.55674,0 -5.1008,-0.28004 -7.52185,-0.79926 -4.00046,-0.83526 -7.69143,-2.25993 -11.15765,-3.87535 -1.73627,-0.80773 -3.41532,-1.67695 -5.07106,-2.58642 l -4.721299,-2.66702 c -6.27103,-3.54044 -12.53569,-7.11897 -18.78972,-10.71457 -6.23918,-3.61886 -12.48263,-7.23346 -18.67734,-10.95202 l -9.2899,-5.5735 c -2.78787,-1.72569 -5.59262,-3.41749 -8.36773,-5.16439 -0.0553,-0.0913 -0.11449,-0.18208 -0.16959,-0.27343 3.13551,1.23814 6.23924,2.54617 9.36412,3.81183 l 9.98105,4.21668 c 6.23282,2.63523 12.41905,5.35939 18.60313,8.09425 13.06777,11.31877 29.527609,20.4094 48.215579,26.40057 -0.79926,0.0541 -1.59852,0.0829 -2.39773,0.0829 m 118.96896,-4.31001 c 14.87832,-6.11412 28.00757,-14.2868 38.69035,-24.00704 3.81604,-0.61057 7.5409,-0.80984 11.19792,-0.92012 1.84017,-0.0541 3.72487,-0.0613 5.45693,-0.0829 1.7469,-0.03 3.4938,-0.0679 5.22796,-0.16105 3.46622,-0.17608 6.89428,-0.53425 10.21212,-1.15755 3.32205,-0.62115 6.50426,-1.57089 9.50619,-2.98282 0.75257,-0.34975 1.49672,-0.73141 2.23451,-1.1385 0.72505,-0.40083 1.50941,-0.85857 2.13908,-1.26776 0.64662,-0.42187 1.22323,-0.86285 1.70447,-1.33772 0.48557,-0.47715 0.88617,-0.98159 1.29535,-1.65784 0.40685,-0.66567 0.83316,-1.50099 1.33561,-2.34689 0.49819,-0.848 1.06639,-1.68963 1.67695,-2.46557 1.22113,-1.57095 2.61822,-2.89592 4.0492,-4.11068 2.73697,-2.21119 5.11775,-4.76794 7.31194,-7.58333 2.2133,-2.7878 4.18916,-5.80036 5.93606,-8.9634 -2.30236,6.84127 -5.82158,13.46205 -10.90537,18.96141 -1.15329,1.29318 -2.19419,2.64364 -3.03799,4.03225 -0.41766,0.69752 -0.78015,1.40562 -1.10664,2.16029 -0.32872,0.75263 -0.62115,1.56884 -1.04091,2.50374 -0.41105,0.92859 -0.99433,1.95044 -1.70453,2.81966 -0.012,0.012 -0.024,0.03 -0.0361,0.0421 -0.15264,0.10997 -0.30348,0.21814 -0.45372,0.32631 -2.95529,2.10939 -5.85121,4.2909 -8.74508,6.49783 -2.72633,1.41404 -5.61167,2.50584 -8.50128,3.34753 -3.6867,1.0727 -7.4073,1.7469 -11.11096,2.26204 -1.85291,0.2566 -3.70155,0.46874 -5.55235,0.62541 -1.86349,0.15925 -3.58497,0.29025 -5.33608,0.47054 -3.48316,0.35216 -6.90275,0.82258 -10.12306,1.52852 -3.23305,0.71236 -6.21382,1.73205 -9.13305,3.14825 -2.92987,1.39709 -5.86612,3.14399 -8.84046,5.02022 -0.759,0.47054 -1.41619,0.91584 -2.42531,1.51157 -0.93706,0.54686 -1.90165,1.04517 -2.88113,1.49456 -1.96102,0.90527 -4.00257,1.57521 -6.03781,2.08613 -3.71423,0.92433 -7.41794,1.27835 -11.00501,1.34619"
       style="fill:#cf701c;fill-opacity:1;fill-rule:nonzero;stroke:none;stroke-width:0.212001"
       id="path1316" />
    <path
       d="m 184.53981,263.50325 c -1.13634,0 -2.24725,-0.0421 -3.34327,-0.11237 -3.94752,-0.25841 -7.69991,-0.82895 -11.37393,-1.48399 -3.67187,-0.65936 -7.25894,-1.4183 -10.78453,-2.20909 -3.52343,-0.78226 -6.97697,-1.56457 -10.33297,-2.15819 -1.67269,-0.29447 -3.32626,-0.54086 -4.87599,-0.69746 -0.901,-0.0871 -1.7469,-0.13582 -2.56101,-0.13582 -0.60209,0 -1.18717,0.024 -1.76595,0.0829 -1.35682,0.12921 -2.89171,0.47295 -4.6704,0.88833 -1.79143,0.40504 -3.56375,0.8501 -5.7092,1.16386 -0.83953,0.12499 -1.68543,0.21634 -2.53343,0.27583 -18.68797,-5.99117 -35.147809,-15.0818 -48.215579,-26.40057 0.41585,0.18209 0.83315,0.36658 1.24871,0.55108 6.5911,2.94261 13.16531,5.90421 19.72041,8.93378 l 4.897199,2.26413 c 1.55826,0.71658 3.13551,1.38862 4.71283,1.98861 3.15673,1.21686 6.33461,2.12003 9.42349,2.59063 1.35677,0.20132 2.69238,0.30528 4.01531,0.30528 1.70027,0 3.37505,-0.16946 5.03289,-0.51501 1.40773,-0.29867 3.12068,-0.77168 4.82305,-1.25082 1.70874,-0.47715 3.66976,-1.04727 5.89153,-1.37587 1.49252,-0.22476 2.99135,-0.31189 4.43086,-0.31189 0.69109,0 1.37161,0.024 2.02881,0.0541 2.0416,0.0974 3.96446,0.33293 5.84706,0.59975 3.76086,0.53605 7.36278,1.23597 10.89474,1.89528 3.53833,0.65088 7.01092,1.32713 10.44319,1.87201 3.43022,0.54507 6.82648,0.97517 10.07432,1.12144 0.80563,0.036 1.60063,0.0541 2.37657,0.0541 0.78863,0 1.5561,-0.024 2.2981,-0.0745 1.46704,-0.10156 2.8387,-0.32451 3.89872,-0.66777 0.53424,-0.16767 0.97516,-0.36658 1.3144,-0.55949 l 0.42607,-0.28605 0.15925,-0.13161 0.42187,-0.39001 c 0.51321,-0.48136 1.05154,-1.03243 1.5582,-1.58369 0.51081,-0.56369 1.01128,-1.15538 1.59426,-1.84864 0.58953,-0.69536 1.25719,-1.51794 2.31083,-2.51431 1.02817,-0.99007 2.60338,-2.0713 4.17853,-2.66275 1.57941,-0.61483 3.00619,-0.84163 4.25274,-0.96885 0.89253,-0.0829 1.71301,-0.10998 2.49743,-0.10998 0.3161,0 0.62535,0.005 0.93063,0.012 2.11582,0.0601 4.03231,0.25 5.92338,0.46634 1.89738,0.22235 3.69302,0.46454 5.51414,0.73142 7.21656,1.08964 14.14263,2.28325 20.72105,2.48462 0.56369,0.018 1.12359,0.0301 1.68115,0.0301 2.6797,0 5.2746,-0.21213 7.70839,-0.73135 1.4692,-0.30949 2.87266,-0.74626 4.21674,-1.2763 1.39709,-0.54927 2.42532,-1.13844 4.1849,-2.14966 3.20973,-1.80838 6.54873,-3.63587 10.21428,-5.15164 3.65912,-1.51584 7.61932,-2.60127 11.47141,-3.20547 0.0481,-0.006 0.0931,-0.012 0.14002,-0.024 -10.68278,9.72025 -23.81203,17.89292 -38.69035,24.00705 -0.35817,0.006 -0.71447,0.012 -1.06849,0.012 -7.85045,-0.012 -15.1857,-1.23808 -22.23262,-2.12424 -3.49801,-0.45792 -7.03634,-0.93496 -10.05521,-1.00281 -0.16767,-0.006 -0.33293,-0.006 -0.49578,-0.006 -1.25929,0 -2.3151,0.16105 -2.47832,0.27162 -0.10817,0.0613 -0.0541,0.002 -0.33052,0.25421 -0.26262,0.23737 -0.74416,0.80136 -1.31867,1.48194 -0.57871,0.68262 -1.24655,1.46493 -1.95254,2.22814 -0.71441,0.77378 -1.43946,1.5052 -2.2472,2.25146 l -0.5745,0.52343 c -0.29026,0.24999 -0.58293,0.50479 -0.88196,0.72504 -0.59794,0.46213 -1.21049,0.85221 -1.82532,1.20202 -1.23171,0.68899 -2.46348,1.18934 -3.65065,1.554 -2.38079,0.73562 -4.60256,1.02185 -6.72469,1.15965 -0.94554,0.0601 -1.87202,0.0847 -2.7836,0.0847"
       style="fill:#d58919;fill-opacity:1;fill-rule:nonzero;stroke:none;stroke-width:0.212001"
       id="path1318" />
    <path
       d="m 191.8878,288.47284 c -19.095,0 -37.43953,-2.38295 -54.52688,-6.77138 -0.23557,-0.36658 -0.46454,-0.73136 -0.68899,-1.09391 l -1.43315,-2.33415 c -0.32631,-0.53605 -0.66567,-0.9879 -1.0049,-1.36103 -0.69536,-0.73562 -1.29529,-1.12786 -2.20267,-1.40346 -0.60209,-0.18028 -1.37587,-0.26502 -2.27267,-0.26502 -0.4411,0 -0.91374,0.024 -1.40766,0.0613 -2.28962,0.1887 -4.92058,0.77378 -7.76986,1.30803 -21.988879,-7.73381 -41.340359,-18.93599 -56.776239,-32.65249 2.0734,1.04096 4.13195,2.1264 6.18197,3.25636 3.28816,1.84017 6.5191,3.75456 9.67788,6.23281 0.39422,0.31791 0.79079,0.64452 1.18086,0.99434 l 0.58292,0.54686 0.54266,0.53845 c 0.34975,0.35817 0.57691,0.55949 0.90521,0.86285 0.30769,0.28004 0.6212,0.55527 0.94554,0.82468 1.29108,1.08123 2.68186,2.08614 4.12768,3.01677 2.89808,1.85928 5.99544,3.48106 9.18816,4.78704 3.194829,1.29529 6.480889,2.34683 9.709669,2.91924 1.50736,0.26261 2.99982,0.42186 4.39481,0.42186 0.0956,0 0.1911,-0.002 0.28605,-0.002 0.73562,-0.006 1.45219,-0.0763 2.08608,-0.17367 0.49999,-0.0697 0.78441,-0.1226 1.21902,-0.20132 l 1.2275,-0.24399 c 1.64937,-0.34975 3.36232,-0.80136 5.18343,-1.26355 1.82323,-0.45793 3.75029,-0.93917 5.91485,-1.25292 1.06212,-0.15084 2.20056,-0.26082 3.40474,-0.26082 1.24235,0 2.55254,0.11659 3.92204,0.42007 1.33772,0.30107 2.70091,0.80347 3.95383,1.49883 1.25292,0.68905 2.38505,1.56036 3.34753,2.49526 0.96249,0.93916 1.77233,1.93987 2.45711,2.94898 l 1.56878,2.31294 c 1.00274,1.45009 1.96739,2.80475 2.95745,3.96657 1.98644,2.34683 4.02168,3.86897 6.56778,4.83999 2.53769,0.96458 5.58836,1.40556 8.82988,1.46277 0.25841,0.005 0.51922,0.006 0.78232,0.006 1.3695,0 2.77085,-0.0613 4.18699,-0.16767 0.8459,-0.0697 1.6939,-0.14603 2.54827,-0.24398 l 1.26356,-0.15084 1.35466,-0.17608 c 3.4938,-0.47295 7.00028,-1.03453 10.43898,-1.76168 3.45348,-0.71874 6.83917,-1.59216 10.30118,-2.5928 1.73837,-0.49398 3.50228,-1.00918 5.39755,-1.52221 1.90165,-0.49819 3.94956,-1.02396 6.37698,-1.27834 0.73142,-0.0745 1.49462,-0.11899 2.27904,-0.11899 0.51321,0 1.0367,0.018 1.56458,0.0613 0.64662,0.0421 1.41613,0.15925 1.76174,0.21214 0.30288,0.0421 0.74626,0.0956 1.13207,0.13341 1.61547,0.17187 3.34116,0.2584 5.06264,0.31369 1.03454,0.0361 2.07544,0.0541 3.11424,0.0541 2.42958,0 4.8591,-0.0956 7.24626,-0.29687 3.38779,-0.28605 6.75437,-0.81621 9.60582,-1.67695 1.40129,-0.42367 2.67543,-0.99001 3.392,-1.49462 l 0.41345,-0.32211 c 0.0601,-0.0361 0.20974,-0.22897 0.795,-0.86285 0.90311,-0.94974 1.84654,-1.77232 2.85565,-2.50373 2.00982,-1.46494 4.14463,-2.50801 6.23498,-3.26058 2.09034,-0.759 4.14253,-1.26566 6.1375,-1.66 3.99409,-0.76952 7.78681,-1.1236 11.43319,-1.49673 3.6825,-0.37078 7.17204,-0.65509 9.40018,-1.6112 0.57451,-0.23978 1.12359,-0.53184 1.75964,-0.9328 0.62541,-0.40263 1.33771,-0.901 2.09245,-1.43525 1.51367,-1.07912 3.17157,-2.22177 4.83999,-3.24579 1.67478,-1.03243 3.37721,-1.98854 5.08379,-2.87897 1.66631,-0.87342 3.32211,-1.69389 4.97569,-2.52705 1.64516,-0.82679 3.29026,-1.6451 4.83999,-2.47195 1.56247,-0.82889 2.96803,-1.65784 4.29727,-2.60758 1.33561,-0.9519 2.6479,-2.07977 3.9772,-3.28605 l 4.06825,-3.78635 c 2.87693,-2.5419 5.78132,-4.84636 8.73451,-7.1254 0.0637,-0.0481 0.1274,-0.0974 0.1905,-0.14603 0.73989,-0.3816 1.46704,-0.79073 2.18151,-1.22323 0.83105,-0.5048 1.63873,-1.03881 2.42531,-1.59426 0.79289,-0.5661 1.51367,-1.09602 2.33409,-1.76385 0.78021,-0.64662 1.5561,-1.38014 2.25783,-2.24299 2.73907,-1.96739 5.48661,-3.92414 8.2511,-5.85337 -1.89317,2.84297 -3.92624,5.6202 -6.09501,8.3359 l -0.46213,0.43448 c -2.66275,2.55464 -5.34882,5.07749 -7.97341,7.64907 -2.62032,2.56311 -5.25975,5.13464 -7.64474,7.7677 l -1.78296,2.03097 -1.51373,1.70027 c -13.39,11.07923 -29.43218,20.36066 -47.376,27.28889 -2.80481,0.43028 -5.50993,0.86711 -8.01787,1.47978 -3.22037,0.77588 -6.07813,1.89101 -7.96703,3.3899 -0.3161,0.24578 -0.61273,0.5108 -0.87986,0.78015 -18.60739,5.32339 -38.82598,8.24473 -59.95616,8.24473"
       style="fill:#ece21d;fill-opacity:1;fill-rule:nonzero;stroke:none;stroke-width:0.212001"
       id="path1320" />
    <path
       d="m 324.10692,232.04858 c 2.89382,-2.20699 5.78973,-4.38844 8.74508,-6.49789 0.15084,-0.10817 0.30108,-0.21634 0.45372,-0.32632 -0.70173,0.86291 -1.47767,1.59643 -2.25783,2.24299 -0.82047,0.66783 -1.54125,1.19781 -2.33415,1.76385 -0.78652,0.55527 -1.59426,1.0897 -2.42531,1.59426 -0.71441,0.43268 -1.44162,0.84169 -2.18151,1.22329"
       style="fill:#e9c50c;fill-opacity:1;fill-rule:nonzero;stroke:none;stroke-width:0.212001"
       id="path1322" />
    <path
       d="m 358.77133,189.44256 c 0,-0.0361 0,-0.0739 0,-0.11238 0,0.0361 0,0.0739 0,0.11238 M 25,189.36206 c 0,-0.012 0,-0.024 0,-0.0301 0,0.012 0,0.018 0,0.0301 m 333.77133,-0.0421 c 0,-0.0613 0,-0.1292 -0.002,-0.1929 0.002,0.0655 0.002,0.1292 0.002,0.1929 M 25,189.26586 c 0.01082,-1.91859 0.07842,-3.82661 0.203542,-5.72189 -0.125058,1.89528 -0.192905,3.8054 -0.203542,5.72189 m 333.76917,-0.16106 c -0.012,-1.92706 -0.0847,-3.85203 -0.21394,-5.76004 0.1292,1.91012 0.20132,3.83087 0.21394,5.76004 M 25.203524,183.54189 c 0.0042,-0.0637 0.0084,-0.1292 0.01262,-0.1929 -0.0042,0.0655 -0.0084,0.1274 -0.01262,0.1929 m 333.351526,-0.20372 c -0.005,-0.0613 -0.006,-0.125 -0.012,-0.1863 0.005,0.0613 0.006,0.125 0.012,0.1863 m -333.336689,-0.024 c 0.0042,-0.0541 0.0084,-0.10817 0.01082,-0.16346 -0.0021,0.0541 -0.0066,0.10817 -0.01082,0.16346 M 358.5381,183.10384 c -0.005,-0.0481 -0.006,-0.0998 -0.012,-0.15084 0.005,0.0481 0.006,0.0998 0.012,0.15084 m -333.30278,-0.0361 c 0.0021,-0.0361 0.0066,-0.0739 0.0084,-0.10997 -0.0021,0.0361 -0.0066,0.0745 -0.0084,0.10997 m 333.28584,-0.20372 c -0.002,-0.03 -0.006,-0.0721 -0.006,-0.10577 0.002,0.0361 0.006,0.0721 0.006,0.10577 m -333.268875,-0.0361 c 0.0021,-0.024 0.0042,-0.0421 0.0066,-0.0655 -0.0021,0.024 -0.0042,0.0421 -0.0066,0.0655 m 333.251925,-0.19951 c -0.002,-0.024 -0.005,-0.0421 -0.006,-0.0637 0.002,0.024 0.005,0.0421 0.006,0.0637 m -333.232845,-0.0361 c 0,-0.006 0,-0.012 0.0021,-0.024 -0.0021,0.004 -0.0021,0.018 -0.0021,0.024"
       style="fill:#939022;fill-opacity:1;fill-rule:nonzero;stroke:none;stroke-width:0.212001"
       id="path1324" />
    <path
       d="M 191.8878,313.75829 C 99.715801,313.75829 25,258.23076 25,189.73089 c 0,-0.12319 0,-0.24579 0,-0.36898 0,-0.012 0,-0.018 0,-0.03 0,-0.018 0,-0.0421 0,-0.0613 0.01082,-1.91649 0.07842,-3.82661 0.203542,-5.72195 0,0 0,0 0,-0.002 0.0042,-0.0655 0.0084,-0.1274 0.01262,-0.19291 0,-0.012 0.0021,-0.024 0.0021,-0.03 0.0042,-0.0541 0.0084,-0.10998 0.01082,-0.16346 0.0021,-0.0301 0.0042,-0.0541 0.0066,-0.0829 0.0021,-0.0361 0.0066,-0.0745 0.0084,-0.10998 0.0021,-0.0421 0.0066,-0.0871 0.0084,-0.1292 0.0021,-0.024 0.0042,-0.0421 0.0066,-0.0655 0.0042,-0.0601 0.0084,-0.11237 0.01262,-0.16946 0,-0.004 0,-0.018 0.0021,-0.024 0.139901,-1.84017 0.334969,-3.66976 0.582981,-5.48872 1.905895,13.98783 6.936698,27.28673 14.568768,39.50651 -0.22896,-0.0889 -0.45583,-0.18029 -0.68477,-0.26683 0.28407,0.18029 0.57031,0.36057 0.85437,0.54086 6.15654,9.79668 13.9815,18.89368 23.20993,27.09388 -1.25502,-0.63172 -2.51643,-1.24655 -3.78634,-1.84648 -3.35812,-1.59642 -6.7289,-3.13978 -10.11669,-4.64077 l -5.10081,-2.19629 -2.54612,-1.10028 c -0.84588,-0.37319 -1.71085,-0.7081 -2.51434,-1.16182 6.09506,4.24217 12.50599,7.94372 18.63705,12.01629 3.06977,2.03097 6.13535,4.05137 9.08432,6.18198 2.93198,2.12213 5.86395,4.31211 8.27442,6.68442 0.29867,0.29447 0.58292,0.59374 0.85221,0.88826 l 0.38821,0.4411 0.39422,0.47896 c 0.26502,0.33052 0.67625,0.795 0.99638,1.14902 0.34314,0.37499 0.68688,0.74199 1.04307,1.10033 1.41193,1.43519 2.90655,2.74328 4.45418,3.96441 3.10156,2.44226 6.43845,4.50929 9.93863,6.30703 3.50437,1.79353 7.195349,3.27968 11.183069,4.28669 1.99708,0.49579 4.07258,0.87342 6.28377,1.00275 0.48136,0.03 0.96879,0.0421 1.46704,0.0421 0.64236,0 1.29745,-0.03 1.9737,-0.0889 0.41766,-0.0301 1.04734,-0.10157 1.52431,-0.16106 l 1.5052,-0.20793 c 0.96675,-0.14843 1.91438,-0.3161 2.84087,-0.48977 5.43571,1.91228 11.03891,3.61255 16.7799,5.08806 0.83105,1.29535 1.74264,2.62032 2.79207,3.94115 1.33988,1.69173 2.9235,3.37289 4.77004,4.84209 1.84444,1.46494 3.93052,2.69454 6.07597,3.59555 4.32059,1.82532 8.70902,2.40836 12.82397,2.57585 0.73778,0.03 1.46709,0.0421 2.19214,0.0421 1.3165,0 2.61395,-0.0421 3.90083,-0.11418 0.99637,-0.0601 1.98854,-0.1292 2.97013,-0.22475 l 1.48825,-0.14603 1.39282,-0.15685 c 3.83304,-0.44531 7.61722,-1.06002 11.40573,-1.82322 3.77999,-0.76111 7.55358,-1.70874 11.18728,-2.73487 l 5.24918,-1.51144 c 1.66211,-0.45793 3.20973,-0.82679 4.45628,-0.95828 0.40925,-0.0421 0.78654,-0.0655 1.14272,-0.0655 0.18628,0 0.36658,0.006 0.54266,0.018 0.27163,0.018 0.41525,0.0421 0.98369,0.11898 0.61057,0.0829 1.08544,0.13341 1.61548,0.1845 2.05639,0.19711 4.02161,0.29266 5.9869,0.32631 0.47895,0.006 0.95401,0.012 1.43098,0.012 3.44296,0 6.86675,-0.16346 10.33296,-0.52162 3.94325,-0.4411 7.9204,-1.03881 12.099,-2.46342 2.09034,-0.74205 4.26121,-1.63879 6.52751,-3.32211 0.56189,-0.42427 1.12786,-0.91368 1.67906,-1.48188 0.59974,-0.61267 1.00911,-1.15965 1.05574,-1.19565 0.11899,-0.13582 0.24579,-0.27163 0.38161,-0.40684 5.78769,-1.6579 11.40993,-3.5426 16.86475,-5.64989 0.80347,-0.1232 1.61548,-0.24579 2.43169,-0.37079 l 2.77717,-0.44771 1.41409,-0.24158 c 0.52163,-0.0913 1.01549,-0.18629 1.52215,-0.29266 2.00981,-0.42427 4.20827,-0.99427 6.43425,-2.08824 1.10034,-0.54086 2.13914,-1.19776 3.0274,-1.84227 0.89464,-0.64446 1.6451,-1.26987 2.35957,-1.85291 1.41404,-1.16597 2.72849,-2.2133 4.14043,-3.22662 1.39919,-1.00701 2.85775,-1.96956 4.35875,-2.89388 l 4.69582,-2.8747 c 1.57731,-0.96465 3.1673,-1.92923 4.79125,-2.9744 1.61968,-1.04307 3.32415,-2.22177 4.86968,-3.58707 1.55183,-1.35256 2.90655,-2.78144 4.18705,-4.18279 l 0.36658,-0.41346 c 7.28015,-6.02512 13.77798,-12.58232 19.37697,-19.58261 l 15.67325,-14.79616 c -3.1143,2.01402 -6.15438,4.12341 -9.21785,6.20739 -0.12079,0.0847 -0.24158,0.16766 -0.36057,0.2524 8.63487,-12.97451 14.30802,-27.23162 16.3581,-42.28374 0.24819,1.81686 0.4429,3.64645 0.58292,5.48451 0.002,0.024 0.005,0.0421 0.006,0.0637 0.002,0.0421 0.006,0.0871 0.006,0.12921 0.002,0.0361 0.006,0.0739 0.006,0.10577 0.002,0.03 0.005,0.0601 0.006,0.0889 0.005,0.0481 0.006,0.0997 0.012,0.15083 0.002,0.012 0.002,0.0301 0.005,0.0421 0.005,0.0613 0.006,0.125 0.012,0.1863 0,0.002 0,0.004 0,0.006 0.12921,1.90802 0.20132,3.83298 0.21393,5.76005 0,0.006 0,0.012 0,0.018 0.002,0.0637 0.002,0.13161 0.002,0.1929 0,0.002 0,0.004 0,0.006 0,0.0361 0,0.0739 0,0.11238 0,0.0956 0,0.1929 0,0.28846 0,68.49992 -74.71579,124.02739 -166.88352,124.02739"
       style="fill:#cf9e18;fill-opacity:1;fill-rule:nonzero;stroke:none;stroke-width:0.212001"
       id="path1326" />
    <path
       d="m 40.594851,216.86708 c -0.28407,-0.18028 -0.57031,-0.36057 -0.85437,-0.54085 0.22896,0.0871 0.45582,0.17788 0.68477,0.26682 0.0553,0.0913 0.11448,0.18209 0.16958,0.27343"
       style="fill:#c5761d;fill-opacity:1;fill-rule:nonzero;stroke:none;stroke-width:0.212001"
       id="path1328" />
    <path
       d="m 166.01511,296.69636 c -0.72505,0 -1.45436,-0.012 -2.19215,-0.0421 -4.11494,-0.16766 -8.50338,-0.75046 -12.82397,-2.57579 -2.14545,-0.901 -4.23152,-2.13061 -6.07596,-3.59554 -1.84654,-1.4692 -3.43016,-3.15036 -4.77004,-4.8421 -1.04944,-1.32082 -1.96102,-2.6458 -2.79207,-3.94115 17.08735,4.38844 35.43188,6.77133 54.52688,6.77133 21.13018,0 41.34878,-2.92134 59.95617,-8.24473 -0.13582,0.13581 -0.26262,0.27163 -0.38161,0.40684 -0.0481,0.0361 -0.45612,0.58292 -1.05575,1.19571 -0.55107,0.5679 -1.11722,1.05785 -1.67905,1.48188 -2.2663,1.68326 -4.43717,2.58006 -6.52752,3.32205 -4.17858,1.42467 -8.15573,2.0225 -12.09898,2.46348 -3.46622,0.35816 -6.89001,0.52162 -10.33297,0.52162 -0.47716,0 -0.95185,-0.005 -1.43098,-0.012 -1.96529,-0.0361 -3.93052,-0.1292 -5.98691,-0.32631 -0.53003,-0.0481 -1.00491,-0.10157 -1.61547,-0.1845 -0.5679,-0.0781 -0.71231,-0.0997 -0.98369,-0.11898 -0.17608,-0.012 -0.35637,-0.018 -0.54266,-0.018 -0.35637,0 -0.73352,0.024 -1.14271,0.0655 -1.24655,0.13161 -2.79418,0.50059 -4.45628,0.95828 l -5.24918,1.5115 c -3.6337,1.02613 -7.40731,1.97376 -11.18728,2.73487 -3.78851,0.7632 -7.57269,1.37797 -11.40573,1.82322 l -1.39282,0.15685 -1.48825,0.14603 c -0.98159,0.0956 -1.97376,0.16526 -2.97014,0.22475 -1.28687,0.0721 -2.58432,0.11478 -3.90082,0.11478 M 112.737,277.55911 c -0.49819,0 -0.9858,-0.012 -1.46704,-0.0421 -2.2112,-0.1292 -4.2867,-0.5066 -6.28377,-1.0028 -3.98772,-1.00653 -7.678699,-2.49268 -11.183079,-4.28622 -3.50017,-1.79774 -6.83706,-3.86476 -9.93863,-6.30702 -1.54762,-1.22113 -3.04224,-2.52922 -4.45418,-3.96447 -0.35636,-0.35817 -0.69962,-0.72505 -1.04306,-1.10028 -0.32031,-0.35396 -0.73136,-0.81831 -0.99638,-1.14902 l -0.39422,-0.47895 -0.38822,-0.4411 c -0.26922,-0.29447 -0.55347,-0.59374 -0.8522,-0.88826 -2.41047,-2.37231 -5.34245,-4.56229 -8.27442,-6.68443 -2.94898,-2.13061 -6.01455,-4.151 -9.08432,-6.18197 -6.13107,-4.07258 -12.542,-7.77413 -18.63706,-12.01629 0.80349,0.45371 1.66845,0.78868 2.51434,1.16181 l 2.54612,1.10028 5.1008,2.19629 c 3.3878,1.501 6.75859,3.04436 10.11669,4.64078 1.26993,0.59975 2.53132,1.21476 3.78635,1.84648 15.43588,13.71656 34.78736,24.91868 56.776239,32.65255 -0.92649,0.17367 -1.87413,0.34134 -2.84087,0.48977 l -1.5052,0.20793 c -0.47716,0.0601 -1.10665,0.1292 -1.52431,0.16105 -0.67625,0.0613 -1.33135,0.089 -1.9737,0.089 m 155.97178,-2.98288 c 17.94382,-6.92823 33.986,-16.20966 47.376,-27.28883 l -0.36658,0.41345 c -1.2805,1.4013 -2.63516,2.83018 -4.187,4.18273 -1.54552,1.3653 -3.24999,2.54406 -4.86967,3.58707 -1.62395,1.04524 -3.214,2.00982 -4.79126,2.9744 l -4.69582,2.87477 c -1.50099,0.92432 -2.95955,1.8868 -4.35875,2.89381 -1.41193,1.01338 -2.72639,2.06066 -4.14042,3.22668 -0.71447,0.58292 -1.46494,1.20839 -2.35957,1.85291 -0.88832,0.64446 -1.92713,1.30166 -3.02741,1.84227 -2.22597,1.09391 -4.42449,1.66421 -6.43424,2.08824 -0.50661,0.10577 -1.00065,0.20132 -1.52215,0.29267 l -1.4141,0.24158 -2.77717,0.4471 c -0.81627,0.125 -1.62821,0.2482 -2.43168,0.37079 m 66.75297,-46.87144 c 2.16877,-2.71576 4.2019,-5.49299 6.09507,-8.33596 0.11899,-0.0847 0.23978,-0.16766 0.36057,-0.2524 3.0634,-2.08397 6.10349,-4.19337 9.21779,-6.20739 l -15.67325,14.79563"
       style="fill:#d6be12;fill-opacity:1;fill-rule:nonzero;stroke:none;stroke-width:0.212001"
       id="path1330" />
  </g>
</svg>
