<?xml version="1.0" encoding="UTF-8" standalone="no"?>
<svg
   xmlns:dc="http://purl.org/dc/elements/1.1/"
   xmlns:cc="http://creativecommons.org/ns#"
   xmlns:rdf="http://www.w3.org/1999/02/22-rdf-syntax-ns#"
   xmlns:svg="http://www.w3.org/2000/svg"
   xmlns="http://www.w3.org/2000/svg"
   xmlns:sodipodi="http://sodipodi.sourceforge.net/DTD/sodipodi-0.dtd"
   xmlns:inkscape="http://www.inkscape.org/namespaces/inkscape"
   sodipodi:docname="papa.svg"
   inkscape:version="1.0 (4035a4fb49, 2020-05-01)"
   id="svg2114"
   version="1.1"
   viewBox="0 0 400 400"
   height="400mm"
   width="400mm">
  <defs
     id="defs2108" />
  <sodipodi:namedview
     inkscape:window-maximized="0"
     inkscape:window-y="0"
     inkscape:window-x="90"
     inkscape:window-height="729"
     inkscape:window-width="1260"
     showgrid="false"
     inkscape:document-rotation="0"
     inkscape:current-layer="layer1"
     inkscape:document-units="mm"
     inkscape:cy="560"
     inkscape:cx="400"
     inkscape:zoom="0.35"
     inkscape:pageshadow="2"
     inkscape:pageopacity="0.0"
     borderopacity="1.0"
     bordercolor="#666666"
     pagecolor="#ffffff"
     id="base" />
  <metadata
     id="metadata2111">
    <rdf:RDF>
      <cc:Work
         rdf:about="">
        <dc:format>image/svg+xml</dc:format>
        <dc:type
           rdf:resource="http://purl.org/dc/dcmitype/StillImage" />
        <dc:title></dc:title>
      </cc:Work>
    </rdf:RDF>
  </metadata>
  <g
     id="layer1"
     inkscape:groupmode="layer"
     inkscape:label="Capa 1">
    <path
       d="m 304.84597,286.89447 c -46.44575,0.002 -106.18462,-5.96073 -151.1626,-13.14494 -1.78509,-0.28585 -3.56183,-0.41309 -5.34483,-0.41309 -7.05475,0 -14.25774,1.97716 -22.77188,3.95433 -8.51624,1.97509 -18.34779,3.95226 -30.65133,3.95226 -11.83379,0 -25.95583,-1.82684 -43.405858,-7.24055 -58.3296058,-18.09307 -12.67726,-61.833 62.083518,-80.46888 10.94228,-2.72879 22.29586,-3.89379 33.69329,-3.89379 66.47421,0 134.68966,39.59349 134.68966,39.59349 20.81557,0.80169 118.44847,35.26957 86.74695,49.88437 -12.03001,5.54728 -35.47002,7.7771 -63.87692,7.7771"
       style="fill:#525e20;fill-opacity:1;fill-rule:nonzero;stroke:none;stroke-width:0.208782"
       id="path502" />
    <path
       d="m 209.35309,115.04573 c -17.31431,3.26331 -70.34085,17.23083 -73.16776,41.2429 -2.82483,24.00788 6.22171,56.49439 54.52141,59.60319 48.30806,3.10666 50.84685,13.27437 78.25161,6.21332 27.40062,-7.06099 60.16483,-20.3375 43.77959,-55.64885 -16.37897,-35.31135 -53.95144,-60.73268 -103.38485,-51.41056"
       style="fill:#de9b29;fill-opacity:1;fill-rule:nonzero;stroke:none;stroke-width:0.208782"
       id="path504" />
    <path
       d="m 275.17174,207.13335 c -27.40478,7.06313 -29.94567,-3.10666 -78.24955,-6.21332 -46.35176,-2.98143 -56.54243,-33.01271 -54.79701,-56.65104 -3.2737,3.67877 -5.42625,7.68323 -5.93985,12.01964 -2.82483,24.00788 6.22171,56.49439 54.52141,59.60319 48.30806,3.10666 50.84685,13.27437 78.25161,6.21332 21.54843,-5.55569 46.41439,-14.95504 48.07842,-35.89383 -9.04236,10.90258 -26.31285,16.91551 -41.86503,20.92204"
       style="fill:#c47d1c;fill-opacity:1;fill-rule:nonzero;stroke:none;stroke-width:0.208782"
       id="path506" />
    <path
       d="m 161.89687,134.53348 c -8.80435,4.45963 -8.19471,35.0316 9.0361,45.76303 17.23289,10.73349 60.45083,-2.25698 91.80993,2.8269 31.35495,5.08383 48.30183,-5.49934 39.8294,-23.51304 -8.47445,-18.01584 -47.45831,-72.251229 -140.67543,-25.07689"
       style="fill:#e7a63c;fill-opacity:1;fill-rule:nonzero;stroke:none;stroke-width:0.208782"
       id="path508" />
    <path
       d="m 172.06665,134.53348 c -4.1652,3.13176 -4.52013,25.70528 22.59652,27.68458 27.11873,1.97924 50.28104,-6.49734 71.75431,0 21.46699,6.49728 35.53891,-3.0399 20.87824,-23.69267 -14.66486,-20.6569 -74.27015,-34.78102 -115.22907,-3.99191"
       style="fill:#f0b350;fill-opacity:1;fill-rule:nonzero;stroke:none;stroke-width:0.208782"
       id="path510" />
    <path
       d="m 256.06399,186.58499 c -0.8498,0.28171 -3.53472,1.83525 -3.0399,3.74139 0.49689,1.90828 0.77667,3.60362 0.49689,4.94191 -0.28395,1.34243 -0.9103,2.89787 0.99172,3.95433 1.89993,1.06061 0.20672,-1.97509 0.34657,-3.17561 0.14405,-1.20045 1.69949,-2.11701 1.83726,-5.0859 0.14204,-2.96474 -0.6326,-4.37612 -0.6326,-4.37612"
       style="fill:#cc831b;fill-opacity:1;fill-rule:nonzero;stroke:none;stroke-width:0.208782"
       id="path512" />
    <path
       d="m 254.8405,188.42024 c -0.75579,1.05847 -0.97084,2.11701 -0.54496,2.68285 0.42387,0.56342 0.18584,2.04813 0.16287,2.6828 -0.0249,0.6368 1.39258,-0.63467 1.39258,-2.6828 0,-2.04818 -1.01051,-2.68285 -1.01051,-2.68285"
       style="fill:#a3641d;fill-opacity:1;fill-rule:nonzero;stroke:none;stroke-width:0.208782"
       id="path514" />
    <path
       d="m 207.80393,193.01344 c -0.84766,0.28408 -3.53469,1.83726 -3.03778,3.74554 0.4969,1.9062 0.78084,3.59941 0.4969,4.9419 -0.28603,1.34244 -0.91029,2.89373 0.99171,3.95433 1.90201,1.05848 0.20459,-1.97929 0.34864,-3.17768 0.13985,-1.20051 1.6974,-2.11914 1.83728,-5.08388 0.13778,-2.96676 -0.63678,-4.38021 -0.63678,-4.38021"
       style="fill:#cc831b;fill-opacity:1;fill-rule:nonzero;stroke:none;stroke-width:0.208782"
       id="path516" />
    <path
       d="m 206.58046,194.8507 c -0.7537,1.05854 -0.96874,2.11914 -0.54282,2.68286 0.42173,0.56578 0.1879,2.04818 0.16287,2.68285 -0.0207,0.63888 1.39257,-0.63467 1.39257,-2.68285 0,-2.04813 -1.0126,-2.68286 -1.0126,-2.68286"
       style="fill:#a3641d;fill-opacity:1;fill-rule:nonzero;stroke:none;stroke-width:0.208782"
       id="path518" />
    <path
       d="m 240.95022,147.63877 c -0.84767,0.28171 -3.5347,1.83519 -3.03778,3.7414 0.49482,1.91034 0.77875,3.60355 0.49482,4.94392 -0.28396,1.34042 -0.9103,2.89585 0.99171,3.95433 1.89991,1.05853 0.20672,-1.97504 0.35284,-3.17555 0.13778,-1.20259 1.69114,-2.11915 1.83312,-5.08803 0.13778,-2.96469 -0.63471,-4.37607 -0.63471,-4.37607"
       style="fill:#cc831b;fill-opacity:1;fill-rule:nonzero;stroke:none;stroke-width:0.208782"
       id="path520" />
    <path
       d="m 239.72674,149.47396 c -0.7537,1.05854 -0.96874,2.11914 -0.54702,2.68493 0.42594,0.56341 0.18998,2.04818 0.16701,2.68492 -0.0207,0.63266 1.38839,-0.63674 1.38839,-2.68492 0,-2.04813 -1.00841,-2.68493 -1.00841,-2.68493"
       style="fill:#a3641d;fill-opacity:1;fill-rule:nonzero;stroke:none;stroke-width:0.208782"
       id="path522" />
    <path
       d="m 191.82164,160.49976 c -0.84975,0.28407 -3.53052,1.83518 -3.0336,3.74553 0.49062,1.90621 0.77457,3.59942 0.49062,4.94398 -0.27976,1.33829 -0.90612,2.89165 0.99589,3.95019 1.89992,1.06061 0.20672,-1.97509 0.34657,-3.17561 0.13985,-1.19838 1.69532,-2.11914 1.83938,-5.08383 0.13985,-2.96681 -0.63887,-4.38026 -0.63887,-4.38026"
       style="fill:#cc831b;fill-opacity:1;fill-rule:nonzero;stroke:none;stroke-width:0.208782"
       id="path524" />
    <path
       d="m 190.60234,162.33494 c -0.75787,1.06061 -0.96873,2.12122 -0.54495,2.68493 0.42387,0.56579 0.18163,2.04819 0.1608,2.68286 -0.0207,0.63887 1.38841,-0.63467 1.38841,-2.68286 0,-2.04812 -1.00426,-2.68493 -1.00426,-2.68493"
       style="fill:#a3641d;fill-opacity:1;fill-rule:nonzero;stroke:none;stroke-width:0.208782"
       id="path526" />
    <path
       d="m 218.94038,121.21111 c -0.84556,0.28408 -3.53051,1.83726 -3.0357,3.74347 0.49275,1.90827 0.77249,3.60148 0.49275,4.94397 -0.27975,1.34244 -0.9082,2.89373 0.9938,3.9522 1.902,1.06061 0.20879,-1.97503 0.34657,-3.17762 0.13985,-1.19637 1.6974,-2.11707 1.83936,-5.08181 0.13777,-2.96676 -0.63678,-4.38021 -0.63678,-4.38021"
       style="fill:#cc831b;fill-opacity:1;fill-rule:nonzero;stroke:none;stroke-width:0.208782"
       id="path528" />
    <path
       d="m 217.71901,123.04837 c -0.7558,1.05854 -0.96876,2.11914 -0.54282,2.68286 0.42386,0.56578 0.18583,2.04818 0.16494,2.68285 -0.0272,0.6368 1.3884,-0.63467 1.3884,-2.68285 0,-2.04813 -1.01049,-2.68286 -1.01049,-2.68286"
       style="fill:#a3641d;fill-opacity:1;fill-rule:nonzero;stroke:none;stroke-width:0.208782"
       id="path530" />
    <path
       d="m 177.50961,131.40593 c -0.84766,0.28408 -3.53259,1.83939 -3.03778,3.74554 0.49689,1.9062 0.77667,3.60154 0.49689,4.9419 -0.28395,1.3425 -0.91237,2.8958 0.98754,3.95433 1.9041,1.06061 0.2088,-1.97509 0.34865,-3.17555 0.14612,-1.20258 1.70157,-2.11914 1.83937,-5.08388 0.13783,-2.96682 -0.63467,-4.38234 -0.63467,-4.38234"
       style="fill:#cc831b;fill-opacity:1;fill-rule:nonzero;stroke:none;stroke-width:0.208782"
       id="path532" />
    <path
       d="m 176.28615,133.24532 c -0.75371,1.05853 -0.96667,2.11701 -0.54496,2.68072 0.42381,0.56816 0.18791,2.05026 0.16495,2.68499 -0.0249,0.63674 1.39257,-0.63473 1.39257,-2.68499 0,-2.04605 -1.01259,-2.68072 -1.01259,-2.68072"
       style="fill:#a3641d;fill-opacity:1;fill-rule:nonzero;stroke:none;stroke-width:0.208782"
       id="path534" />
    <path
       d="m 155.66263,173.36074 c -0.84974,0.28585 -3.52842,1.83939 -3.03361,3.74767 0.49062,1.90407 0.77667,3.59728 0.49062,4.94185 -0.27768,1.34036 -0.90403,2.89579 0.99589,3.95433 1.90201,1.05853 0.2088,-1.97717 0.34865,-3.18182 0.13777,-1.19632 1.69322,-2.11708 1.83102,-5.08176 0.14612,-2.96474 -0.63261,-4.38027 -0.63261,-4.38027"
       style="fill:#cc831b;fill-opacity:1;fill-rule:nonzero;stroke:none;stroke-width:0.208782"
       id="path536" />
    <path
       d="m 154.44125,175.20013 c -0.75579,1.05854 -0.96666,2.11702 -0.54075,2.68073 0.42381,0.56578 0.18163,2.05025 0.16287,2.68706 -0.0249,0.63467 1.38422,-0.63681 1.38422,-2.68706 0,-2.04398 -1.00633,-2.68073 -1.00633,-2.68073"
       style="fill:#a3641d;fill-opacity:1;fill-rule:nonzero;stroke:none;stroke-width:0.208782"
       id="path538" />
    <path
       d="m 283.72555,140.45036 c -0.84975,0.28408 -3.5326,1.83732 -3.03778,3.74139 0.49299,1.90621 0.77458,3.60149 0.49299,4.94398 -0.28171,1.34457 -0.90614,2.89793 0.99379,3.95854 1.89994,1.0564 0.20655,-1.98137 0.34681,-3.17976 0.14381,-1.20258 1.69321,-2.12127 1.83726,-5.08595 0.14204,-2.96475 -0.6326,-4.3782 -0.6326,-4.3782"
       style="fill:#cc831b;fill-opacity:1;fill-rule:nonzero;stroke:none;stroke-width:0.208782"
       id="path540" />
    <path
       d="m 282.50207,142.28768 c -0.75582,1.05853 -0.97083,2.11707 -0.54507,2.68285 0.42374,0.56342 0.18583,2.04813 0.16512,2.68286 -0.0296,0.63467 1.39049,-0.63473 1.39049,-2.68286 0,-2.04818 -1.01048,-2.68285 -1.01048,-2.68285"
       style="fill:#a3641d;fill-opacity:1;fill-rule:nonzero;stroke:none;stroke-width:0.208782"
       id="path542" />
    <path
       d="m 299.54287,178.25667 c -0.84767,0.27993 -3.5284,1.83311 -3.03985,3.73932 0.49714,1.90827 0.77873,3.60355 0.49714,4.94398 -0.28408,1.34243 -0.91029,2.89786 0.99172,3.9564 1.90614,1.05853 0.20654,-1.97924 0.35095,-3.17768 0.13789,-1.20259 1.69321,-2.11915 1.83311,-5.08803 0.14382,-2.96468 -0.63266,-4.37399 -0.63266,-4.37399"
       style="fill:#cc831b;fill-opacity:1;fill-rule:nonzero;stroke:none;stroke-width:0.208782"
       id="path544" />
    <path
       d="m 298.31939,180.08978 c -0.75576,1.05854 -0.96876,2.11915 -0.5427,2.68493 0.42197,0.56401 0.18346,2.04611 0.16275,2.68286 -0.0237,0.63473 1.38842,-0.63675 1.38842,-2.68286 0,-2.04813 -1.00841,-2.68493 -1.00841,-2.68493"
       style="fill:#a3641d;fill-opacity:1;fill-rule:nonzero;stroke:none;stroke-width:0.208782"
       id="path546" />
    <path
       d="m 92.48718,160.80875 c -15.3622,8.6227 -61.152342,38.79175 -56.162443,62.44891 4.989898,23.65082 23.932715,51.55041 70.697873,39.06943 46.77142,-12.48103 52.42733,-3.65788 76.13873,-19.09946 23.70934,-15.43944 50.51699,-38.48483 23.7156,-66.71637 -26.79722,-28.22947 -70.52042,-40.32629 -114.38976,-15.70251"
       style="fill:#de9b29;fill-opacity:1;fill-rule:nonzero;stroke:none;stroke-width:0.208782"
       id="path548" />
    <path
       d="m 184.26789,227.05746 c -23.7114,15.44365 -29.36731,6.6163 -76.13664,19.09733 -44.877772,11.97994 -64.125414,-13.22637 -70.015163,-36.18198 -1.929144,4.53059 -2.691201,9.01105 -1.79135,13.28485 4.989898,23.65082 23.932715,51.55041 70.697873,39.06943 46.77142,-12.48103 52.42733,-3.65788 76.13873,-19.09946 18.64636,-12.14275 39.20516,-28.9915 34.10044,-49.36658 -5.09013,13.22011 -19.53787,24.43381 -32.99389,33.19641"
       style="fill:#c47d1c;fill-opacity:1;fill-rule:nonzero;stroke:none;stroke-width:0.208782"
       id="path550" />
    <path
       d="m 53.739269,194.43317 c -6.921133,7.03383 3.421944,35.81032 23.181101,40.47868 19.75499,4.66837 56.56122,-21.44196 87.90154,-26.6406 31.33823,-5.19449 44.01549,-20.634 30.23376,-34.99821 -13.7838,-14.36629 -68.04424,-53.31257 -141.316401,21.16013"
       style="fill:#e7a63c;fill-opacity:1;fill-rule:nonzero;stroke:none;stroke-width:0.208782"
       id="path552" />
    <path
       d="m 63.37666,191.1866 c -2.945916,4.29463 3.92093,25.8034 30.25465,19.01589 26.33163,-6.78336 45.57301,-22.21446 67.99414,-22.91388 22.42114,-0.69942 32.71203,-14.22851 12.22003,-29.12093 C 153.3535,143.2752 92.35565,148.92694 63.37666,191.1866"
       style="fill:#f0b350;fill-opacity:1;fill-rule:nonzero;stroke:none;stroke-width:0.208782"
       id="path554" />
    <path
       d="m 159.59818,213.68496 c -0.71195,0.53856 -2.76428,2.86869 -1.68279,4.51385 1.07523,1.65355 1.88531,3.16726 2.04189,4.53058 0.16701,1.36126 0.0689,3.03364 2.20475,3.42613 2.14419,0.39652 -0.43215,-1.93751 -0.68481,-3.11921 -0.24638,-1.18169 0.93325,-2.55129 0.11902,-5.40536 -0.81217,-2.85194 -1.99805,-3.94599 -1.99805,-3.94599"
       style="fill:#cc831b;fill-opacity:1;fill-rule:nonzero;stroke:none;stroke-width:0.208782"
       id="path556" />
    <path
       d="m 159.02403,215.81452 c -0.38001,1.24437 -0.23803,2.31753 0.34237,2.71837 0.5804,0.39889 0.83095,1.88111 1.01051,2.49075 0.18163,0.60757 1.11907,-1.04806 0.46558,-2.98557 -0.65766,-1.94379 -1.81849,-2.22355 -1.81849,-2.22355"
       style="fill:#a3641d;fill-opacity:1;fill-rule:nonzero;stroke:none;stroke-width:0.208782"
       id="path558" />
    <path
       d="m 115.92091,235.19161 c -0.71612,0.53856 -2.76427,2.86662 -1.68278,4.51597 1.07731,1.64728 1.88948,3.16306 2.04606,4.52639 0.1566,1.36125 0.0606,3.03363 2.20474,3.4282 2.13794,0.39889 -0.43428,-1.93959 -0.6848,-3.12128 -0.24845,-1.1817 0.92908,-2.54922 0.11481,-5.40329 -0.81634,-2.85615 -1.99804,-3.94599 -1.99804,-3.94599"
       style="fill:#cc831b;fill-opacity:1;fill-rule:nonzero;stroke:none;stroke-width:0.208782"
       id="path560" />
    <path
       d="m 115.34885,237.3191 c -0.38001,1.24644 -0.24217,2.31959 0.33616,2.71836 0.5846,0.39889 0.83513,1.87904 1.01468,2.48868 0.18583,0.61177 1.11281,-1.04599 0.46139,-2.98764 -0.65141,-1.94172 -1.81223,-2.2194 -1.81223,-2.2194"
       style="fill:#a3641d;fill-opacity:1;fill-rule:nonzero;stroke:none;stroke-width:0.208782"
       id="path562" />
    <path
       d="m 132.83855,181.60349 c -0.71613,0.53856 -2.76428,2.87076 -1.68488,4.51804 1.08149,1.65143 1.88948,3.16514 2.04815,4.52639 0.15867,1.36333 0.0648,3.0315 2.20683,3.4324 2.13376,0.39475 -0.43635,-1.93958 -0.68689,-3.12341 -0.24845,-1.18589 0.93117,-2.54922 0.11694,-5.40536 -0.81633,-2.85615 -2.00013,-3.94806 -2.00013,-3.94806"
       style="fill:#cc831b;fill-opacity:1;fill-rule:nonzero;stroke:none;stroke-width:0.208782"
       id="path564" />
    <path
       d="m 132.26439,183.73512 c -0.3758,1.24437 -0.2401,2.31539 0.34243,2.7163 0.5804,0.40066 0.83095,1.88111 1.01051,2.49282 0.1837,0.60549 1.11489,-1.04599 0.46351,-2.98972 -0.65349,-1.93964 -1.81641,-2.2194 -1.81641,-2.2194"
       style="fill:#a3641d;fill-opacity:1;fill-rule:nonzero;stroke:none;stroke-width:0.208782"
       id="path566" />
    <path
       d="m 90.38892,209.48219 c -0.71404,0.53856 -2.7601,2.86655 -1.6807,4.51804 1.07523,1.64728 1.88531,3.16513 2.04607,4.52639 0.16074,1.36332 0.0605,3.0315 2.20265,3.42612 2.1442,0.40067 -0.43215,-1.93544 -0.68271,-3.12128 -0.25052,-1.17962 0.92908,-2.54715 0.11694,-5.40329 -0.81425,-2.85821 -2.00222,-3.94598 -2.00222,-3.94598"
       style="fill:#cc831b;fill-opacity:1;fill-rule:nonzero;stroke:none;stroke-width:0.208782"
       id="path568" />
    <path
       d="m 89.81895,211.61175 c -0.37788,1.24644 -0.24011,2.31959 0.34243,2.71836 0.5804,0.39889 0.82886,1.88111 1.01259,2.48868 0.18163,0.61171 1.11072,-1.04392 0.45724,-2.98557 -0.65557,-1.94172 -1.81223,-2.22147 -1.81223,-2.22147"
       style="fill:#a3641d;fill-opacity:1;fill-rule:nonzero;stroke:none;stroke-width:0.208782"
       id="path570" />
    <path
       d="m 103.54221,163.58973 c -0.71195,0.53856 -2.75802,2.86656 -1.68279,4.51597 1.07732,1.64936 1.88531,3.16721 2.04607,4.52846 0.16074,1.35918 0.0647,3.0357 2.20683,3.43033 2.14002,0.39652 -0.43221,-1.93958 -0.68689,-3.12341 -0.24845,-1.17962 0.92908,-2.54715 0.11694,-5.40329 -0.81427,-2.85822 -2.00016,-3.94806 -2.00016,-3.94806"
       style="fill:#cc831b;fill-opacity:1;fill-rule:nonzero;stroke:none;stroke-width:0.208782"
       id="path572" />
    <path
       d="m 102.97014,165.71929 c -0.37788,1.24851 -0.2401,2.31752 0.34658,2.71629 0.57833,0.40067 0.82677,1.88112 1.01051,2.49283 0.17956,0.61176 1.1128,-1.04599 0.45724,-2.98558 -0.65349,-1.94373 -1.81433,-2.22354 -1.81433,-2.22354"
       style="fill:#a3641d;fill-opacity:1;fill-rule:nonzero;stroke:none;stroke-width:0.208782"
       id="path574" />
    <path
       d="m 67.53769,186.48272 c -0.71403,0.53856 -2.7601,2.86863 -1.68278,4.51597 1.07314,1.65143 1.88321,3.16721 2.04607,4.52846 0.16074,1.36126 0.0647,3.03363 2.20474,3.4282 2.13793,0.39889 -0.43636,-1.93751 -0.6869,-3.1192 -0.24845,-1.18377 0.92908,-2.54923 0.11902,-5.40744 -0.81425,-2.85614 -2.00014,-3.94599 -2.00014,-3.94599"
       style="fill:#cc831b;fill-opacity:1;fill-rule:nonzero;stroke:none;stroke-width:0.208782"
       id="path576" />
    <path
       d="m 66.96355,188.61228 c -0.37581,1.24644 -0.23804,2.31747 0.34242,2.71837 0.58254,0.40066 0.83304,1.88111 1.0126,2.48868 0.17749,0.61171 1.11489,-1.04392 0.46138,-2.98558 -0.65349,-1.94378 -1.8164,-2.22147 -1.8164,-2.22147"
       style="fill:#a3641d;fill-opacity:1;fill-rule:nonzero;stroke:none;stroke-width:0.208782"
       id="path578" />
    <path
       d="m 60.2324,233.21865 c -0.714035,0.53856 -2.755929,2.86655 -1.680697,4.51597 1.073143,1.64728 1.887392,3.16513 2.043977,4.52846 0.16287,1.35918 0.06682,3.02943 2.208917,3.42612 2.140013,0.39889 -0.438423,-1.93544 -0.686894,-3.12127 -0.250519,-1.18176 0.926997,-2.54923 0.112742,-5.40537 -0.807987,-2.852 -1.998045,-3.94391 -1.998045,-3.94391"
       style="fill:#cc831b;fill-opacity:1;fill-rule:nonzero;stroke:none;stroke-width:0.208782"
       id="path580" />
    <path
       d="m 59.660337,235.34821 c -0.377879,1.24644 -0.238031,2.31746 0.34237,2.71629 0.582533,0.39889 0.833046,1.88111 1.012599,2.49282 0.183703,0.6055 1.112807,-1.04806 0.457244,-2.98977 -0.651403,-1.93959 -1.81223,-2.21934 -1.81223,-2.21934"
       style="fill:#a3641d;fill-opacity:1;fill-rule:nonzero;stroke:none;stroke-width:0.208782"
       id="path582" />
    <path
       d="m 171.07494,161.13236 c -0.70986,0.53856 -2.75802,2.87076 -1.68279,4.51804 1.07732,1.64942 1.88949,3.16514 2.04816,4.52639 0.16287,1.36338 0.0668,3.0357 2.20683,3.4324 2.13793,0.39475 -0.43635,-1.94379 -0.6869,-3.12335 -0.25052,-1.18383 0.93117,-2.55135 0.11482,-5.4075 -0.81216,-2.85407 -2.00014,-3.94598 -2.00014,-3.94598"
       style="fill:#cc831b;fill-opacity:1;fill-rule:nonzero;stroke:none;stroke-width:0.208782"
       id="path584" />
    <path
       d="m 170.50705,163.26405 c -0.38001,1.24431 -0.2401,2.31746 0.3403,2.71623 0.58247,0.39889 0.83096,1.88112 1.01051,2.49075 0.1837,0.60757 1.11489,-1.04806 0.46352,-2.98764 -0.65767,-1.93959 -1.81433,-2.21934 -1.81433,-2.21934"
       style="fill:#a3641d;fill-opacity:1;fill-rule:nonzero;stroke:none;stroke-width:0.208782"
       id="path586" />
    <path
       d="m 198.1394,191.90898 c -0.71404,0.53678 -2.76011,2.86449 -1.68279,4.51597 1.0794,1.64728 1.88738,3.16513 2.04815,4.52432 0.15867,1.36125 0.0626,3.03564 2.20474,3.43234 2.14211,0.39652 -0.43842,-1.94166 -0.6848,-3.12335 -0.24845,-1.18383 0.92908,-2.54928 0.11274,-5.4075 -0.81008,-2.85407 -1.99804,-3.94178 -1.99804,-3.94178"
       style="fill:#cc831b;fill-opacity:1;fill-rule:nonzero;stroke:none;stroke-width:0.208782"
       id="path588" />
    <path
       d="m 197.56524,194.03647 c -0.37374,1.24644 -0.23803,2.31539 0.34243,2.72044 0.58247,0.39888 0.83304,1.87691 1.01468,2.48867 0.17956,0.60964 1.1128,-1.04599 0.46139,-2.98557 -0.65767,-1.94379 -1.81849,-2.22354 -1.81849,-2.22354"
       style="fill:#a3641d;fill-opacity:1;fill-rule:nonzero;stroke:none;stroke-width:0.208782"
       id="path590" />
    <path
       d="m 246.80238,169.61308 c -17.31431,3.26331 -70.34085,17.23083 -73.16777,41.24078 -2.82482,24.01 6.21963,56.49444 54.51934,59.60318 48.30595,3.10879 50.84683,13.2765 78.25159,6.21545 27.40269,-7.06099 60.16482,-20.3375 43.78166,-55.64672 -16.37897,-35.31135 -53.95144,-60.73481 -103.38482,-51.41269"
       style="fill:#de9b29;fill-opacity:1;fill-rule:nonzero;stroke:none;stroke-width:0.208782"
       id="path592" />
    <path
       d="m 312.61892,261.70284 c -27.40269,7.06099 -29.94357,-3.11087 -78.25161,-6.21546 -46.34968,-2.9835 -56.54035,-33.01271 -54.79284,-56.65311 -3.27371,3.67877 -5.42834,7.68317 -5.93986,12.01959 -2.82482,24.01 6.21963,56.49444 54.51934,59.60318 48.30595,3.10879 50.84683,13.2765 78.25159,6.21545 21.54843,-5.55569 46.41439,-14.95717 48.07842,-35.89383 -9.04029,10.90258 -26.31285,16.91344 -41.86504,20.92418"
       style="fill:#c47d1c;fill-opacity:1;fill-rule:nonzero;stroke:none;stroke-width:0.208782"
       id="path594" />
    <path
       d="m 199.34407,189.10291 c -8.80436,4.45542 -8.19262,35.02745 9.03819,45.76095 17.2308,10.73349 60.45081,-2.25698 91.80996,2.82483 31.35282,5.08797 48.30177,-5.49727 39.82939,-23.5131 -8.47657,-18.01163 -47.46043,-72.2491 -140.67754,-25.07268"
       style="fill:#e7a63c;fill-opacity:1;fill-rule:nonzero;stroke:none;stroke-width:0.208782"
       id="path596" />
    <path
       d="m 209.51386,189.10291 c -4.16313,3.12968 -4.52015,25.70321 22.5965,27.68244 27.11876,1.97717 50.27897,-6.49935 71.7543,0 21.467,6.49734 35.54104,-3.03777 20.87825,-23.69468 -14.66486,-20.6569 -74.26805,-34.77687 -115.22905,-3.98776"
       style="fill:#f0b350;fill-opacity:1;fill-rule:nonzero;stroke:none;stroke-width:0.208782"
       id="path598" />
    <path
       d="m 293.50905,241.1482 c -0.84761,0.28407 -3.53047,1.83939 -3.03571,3.74553 0.49477,1.90621 0.77464,3.60149 0.49477,4.94605 -0.28408,1.34043 -0.90815,2.88958 0.98965,3.94806 1.90407,1.06067 0.21069,-1.97296 0.34858,-3.17555 0.14382,-1.19838 1.69948,-2.11707 1.83939,-5.08382 0.13967,-2.96268 -0.6368,-4.38027 -0.6368,-4.38027"
       style="fill:#cc831b;fill-opacity:1;fill-rule:nonzero;stroke:none;stroke-width:0.208782"
       id="path600" />
    <path
       d="m 292.28563,242.98759 c -0.75375,1.05847 -0.96669,2.11908 -0.5427,2.68072 0.42611,0.56342 0.1876,2.05026 0.16511,2.68706 -0.0296,0.63467 1.39049,-0.6368 1.39049,-2.68706 0,-2.04605 -1.01261,-2.68072 -1.01261,-2.68072"
       style="fill:#a3641d;fill-opacity:1;fill-rule:nonzero;stroke:none;stroke-width:0.208782"
       id="path602" />
    <path
       d="m 245.25112,247.58079 c -0.84556,0.28171 -3.53259,1.83933 -3.03778,3.74347 0.49903,1.90827 0.78085,3.60148 0.49903,4.94392 -0.28603,1.34456 -0.91239,2.89165 0.98754,3.95018 1.9041,1.06481 0.2088,-1.97089 0.35285,-3.17555 0.13985,-1.19844 1.6974,-2.11707 1.83311,-5.08181 0.13985,-2.96468 -0.6347,-4.38021 -0.6347,-4.38021"
       style="fill:#cc831b;fill-opacity:1;fill-rule:nonzero;stroke:none;stroke-width:0.208782"
       id="path604" />
    <path
       d="m 244.02766,249.42012 c -0.7537,1.05647 -0.96665,2.11707 -0.54282,2.67872 0.42381,0.56815 0.18791,2.05232 0.16494,2.68699 -0.0207,0.63681 1.3905,-0.63467 1.3905,-2.68699 0,-2.04606 -1.0126,-2.67872 -1.0126,-2.67872"
       style="fill:#a3641d;fill-opacity:1;fill-rule:nonzero;stroke:none;stroke-width:0.208782"
       id="path606" />
    <path
       d="m 278.39534,202.20399 c -0.84767,0.28408 -3.53259,1.83525 -3.0357,3.7456 0.49477,1.90614 0.77872,3.60148 0.49477,4.94398 -0.28408,1.33616 -0.91029,2.89159 0.99171,3.95013 1.89988,1.0606 0.20655,-1.97297 0.35273,-3.17555 0.1379,-1.19845 1.69321,-2.11708 1.83099,-5.08389 0.14203,-2.96888 -0.63468,-4.38027 -0.63468,-4.38027"
       style="fill:#cc831b;fill-opacity:1;fill-rule:nonzero;stroke:none;stroke-width:0.208782"
       id="path608" />
    <path
       d="m 277.17394,204.03924 c -0.75582,1.06475 -0.96876,2.12329 -0.54507,2.68493 0.42374,0.56341 0.1876,2.05232 0.16512,2.68492 -0.0178,0.63681 1.39049,-0.6326 1.39049,-2.68492 0,-2.04606 -1.01048,-2.68493 -1.01048,-2.68493"
       style="fill:#a3641d;fill-opacity:1;fill-rule:nonzero;stroke:none;stroke-width:0.208782"
       id="path610" />
    <path
       d="m 229.26675,215.06711 c -0.84765,0.28171 -3.5305,1.83726 -3.0336,3.74346 0.49275,1.90615 0.77666,3.59942 0.49275,4.94398 -0.27976,1.34244 -0.90404,2.89373 0.99589,3.9522 1.89991,1.06274 0.20667,-1.97503 0.34657,-3.17762 0.13985,-1.19844 1.69322,-2.11914 1.83728,-5.08388 0.14204,-2.96469 -0.63887,-4.37814 -0.63887,-4.37814"
       style="fill:#cc831b;fill-opacity:1;fill-rule:nonzero;stroke:none;stroke-width:0.208782"
       id="path612" />
    <path
       d="m 228.04955,216.90437 c -0.7558,1.05853 -0.96875,2.11707 -0.54495,2.68078 0.4238,0.56993 0.18163,2.05233 0.16287,2.687 -0.0231,0.63473 1.3884,-0.63467 1.3884,-2.687 0,-2.04398 -1.00633,-2.68078 -1.00633,-2.68078"
       style="fill:#a3641d;fill-opacity:1;fill-rule:nonzero;stroke:none;stroke-width:0.208782"
       id="path614" />
    <path
       d="m 256.38967,175.77846 c -0.84767,0.28171 -3.5326,1.83519 -3.03778,3.74554 0.49062,1.9062 0.77249,3.59941 0.49062,4.94185 -0.27561,1.34042 -0.90612,2.89372 0.99797,3.95439 1.89991,1.05847 0.20454,-1.9793 0.34652,-3.17768 0.13789,-1.20052 1.69326,-2.11915 1.83731,-5.08389 0.13967,-2.96888 -0.63473,-4.38021 -0.63473,-4.38021"
       style="fill:#cc831b;fill-opacity:1;fill-rule:nonzero;stroke:none;stroke-width:0.208782"
       id="path616" />
    <path
       d="m 255.16619,177.61365 c -0.7537,1.06061 -0.96665,2.12121 -0.54282,2.68493 0.42174,0.56341 0.18791,2.04605 0.16287,2.68285 -0.0231,0.63681 1.39256,-0.6368 1.39256,-2.68285 0,-2.05026 -1.01261,-2.68493 -1.01261,-2.68493"
       style="fill:#a3641d;fill-opacity:1;fill-rule:nonzero;stroke:none;stroke-width:0.208782"
       id="path618" />
    <path
       d="m 214.95682,185.97328 c -0.84767,0.28585 -3.5326,1.83939 -3.03779,3.74767 0.49483,1.90407 0.77457,3.59728 0.49483,4.94185 -0.28396,1.34036 -0.90821,2.89165 0.9917,3.95018 1.9041,1.06061 0.20673,-1.97509 0.3445,-3.17561 0.14613,-1.19838 1.70159,-2.11914 1.84146,-5.08175 0.13985,-2.96889 -0.63469,-4.38234 -0.63469,-4.38234"
       style="fill:#cc831b;fill-opacity:1;fill-rule:nonzero;stroke:none;stroke-width:0.208782"
       id="path620" />
    <path
       d="m 213.73334,187.81267 c -0.75578,1.06061 -0.96666,2.11701 -0.54282,2.68286 0.42173,0.56341 0.1879,2.04812 0.16287,2.68492 -0.0231,0.63468 1.39257,-0.6368 1.39257,-2.68492 0,-2.05026 -1.0126,-2.68286 -1.0126,-2.68286"
       style="fill:#a3641d;fill-opacity:1;fill-rule:nonzero;stroke:none;stroke-width:0.208782"
       id="path622" />
    <path
       d="m 193.10983,227.92809 c -0.84766,0.28408 -3.53051,1.83726 -3.03152,3.74347 0.48855,1.90828 0.77249,3.60148 0.48855,4.94398 -0.27975,1.34243 -0.90404,2.89786 0.9959,3.9564 1.90409,1.05854 0.21086,-1.97924 0.34864,-3.18182 0.13778,-1.19845 1.69324,-2.11708 1.83103,-5.08389 0.14612,-2.96468 -0.63261,-4.37814 -0.63261,-4.37814"
       style="fill:#cc831b;fill-opacity:1;fill-rule:nonzero;stroke:none;stroke-width:0.208782"
       id="path624" />
    <path
       d="m 191.89054,229.76535 c -0.7558,1.05854 -0.96666,2.11915 -0.54495,2.68079 0.428,0.56815 0.18583,2.05233 0.16494,2.68706 -0.0231,0.63467 1.38632,-0.63473 1.38632,-2.68706 0,-2.04398 -1.00634,-2.68079 -1.00634,-2.68079"
       style="fill:#a3641d;fill-opacity:1;fill-rule:nonzero;stroke:none;stroke-width:0.208782"
       id="path626" />
    <path
       d="m 321.17066,195.01984 c -0.8456,0.27994 -3.53052,1.83312 -3.03363,3.73926 0.48826,1.90621 0.77251,3.59942 0.48826,4.94191 -0.27757,1.34457 -0.90402,2.89787 0.99799,3.9564 1.89993,1.05854 0.20477,-1.97716 0.34444,-3.17555 0.14618,-1.20258 1.69321,-2.12334 1.83939,-5.08802 0.13967,-2.96475 -0.6368,-4.374 -0.6368,-4.374"
       style="fill:#cc831b;fill-opacity:1;fill-rule:nonzero;stroke:none;stroke-width:0.208782"
       id="path628" />
    <path
       d="m 319.94718,196.85296 c -0.75368,1.05848 -0.96668,2.11701 -0.5427,2.68493 0.42375,0.564 0.18583,2.04605 0.16512,2.68072 -0.0237,0.6368 1.39049,-0.63467 1.39049,-2.68072 0,-2.04819 -1.01261,-2.68493 -1.01261,-2.68493"
       style="fill:#a3641d;fill-opacity:1;fill-rule:nonzero;stroke:none;stroke-width:0.208782"
       id="path630" />
    <path
       d="m 336.98798,232.82402 c -0.84766,0.28407 -3.52839,1.83104 -3.0357,3.73932 0.49477,1.90828 0.77878,3.60569 0.49477,4.94185 -0.28408,1.34249 -0.91236,2.89792 0.99172,3.95646 1.90407,1.05853 0.20654,-1.9793 0.35272,-3.17561 0.1379,-1.20466 1.69321,-2.11701 1.83105,-5.08803 0.14381,-2.96675 -0.63473,-4.37399 -0.63473,-4.37399"
       style="fill:#cc831b;fill-opacity:1;fill-rule:nonzero;stroke:none;stroke-width:0.208782"
       id="path632" />
    <path
       d="m 335.76664,234.65506 c -0.75582,1.06061 -0.97083,2.11915 -0.54507,2.687 0.42374,0.56342 0.18583,2.04611 0.16512,2.68079 -0.0178,0.63473 1.38842,-0.63468 1.38842,-2.68079 0,-2.0502 -1.00847,-2.687 -1.00847,-2.687"
       style="fill:#a3641d;fill-opacity:1;fill-rule:nonzero;stroke:none;stroke-width:0.208782"
       id="path634" />
  </g>
</svg>
