<?xml version="1.0" encoding="UTF-8" standalone="no"?>
<svg
   xmlns:dc="http://purl.org/dc/elements/1.1/"
   xmlns:cc="http://creativecommons.org/ns#"
   xmlns:rdf="http://www.w3.org/1999/02/22-rdf-syntax-ns#"
   xmlns:svg="http://www.w3.org/2000/svg"
   xmlns="http://www.w3.org/2000/svg"
   xmlns:sodipodi="http://sodipodi.sourceforge.net/DTD/sodipodi-0.dtd"
   xmlns:inkscape="http://www.inkscape.org/namespaces/inkscape"
   sodipodi:docname="pepino.svg"
   inkscape:version="1.0 (4035a4fb49, 2020-05-01)"
   id="svg2418"
   version="1.1"
   viewBox="0 0 400 400"
   height="400mm"
   width="400mm">
  <defs
     id="defs2412" />
  <sodipodi:namedview
     inkscape:window-maximized="0"
     inkscape:window-y="0"
     inkscape:window-x="90"
     inkscape:window-height="729"
     inkscape:window-width="1260"
     showgrid="false"
     inkscape:document-rotation="0"
     inkscape:current-layer="layer1"
     inkscape:document-units="mm"
     inkscape:cy="674.28571"
     inkscape:cx="400"
     inkscape:zoom="0.35"
     inkscape:pageshadow="2"
     inkscape:pageopacity="0.0"
     borderopacity="1.0"
     bordercolor="#666666"
     pagecolor="#ffffff"
     id="base" />
  <metadata
     id="metadata2415">
    <rdf:RDF>
      <cc:Work
         rdf:about="">
        <dc:format>image/svg+xml</dc:format>
        <dc:type
           rdf:resource="http://purl.org/dc/dcmitype/StillImage" />
        <dc:title></dc:title>
      </cc:Work>
    </rdf:RDF>
  </metadata>
  <g
     id="layer1"
     inkscape:groupmode="layer"
     inkscape:label="Capa 1">
    <path
       d="m 216.47967,281.83091 c -48.99129,0 -106.28203,-9.47531 -148.797487,-28.7147 -21.55123,-9.75266 -20.179705,-21.57592 -6.12629,-32.58423 19.1311,21.79818 58.977597,48.92479 131.106287,48.9267 2.38213,0 4.79465,-0.0302 7.24707,-0.0912 v 0 c 0.0666,-10e-4 0.12724,-10e-4 0.19374,-0.004 31.73509,-0.78455 53.70426,-2.66707 68.87274,-5.30754 0.0108,-0.001 0.0269,-0.006 0.0431,-0.007 0.0215,-0.004 0.0431,-0.007 0.0668,-0.0113 0.0269,-0.006 0.0538,-0.0102 0.0797,-0.0129 0.0108,-0.004 0.0215,-0.004 0.0323,-0.007 36.29042,-6.36375 33.39724,-17.10422 32.48926,-27.56544 -0.29616,-3.41173 -1.53492,-6.77596 -3.68527,-10.05091 1.55576,-0.76175 3.06409,-1.5349 4.54387,-2.32324 28.13913,9.24167 78.28158,32.46836 53.01279,40.50187 -30.26859,9.62349 -62.58118,12.24877 -112.10055,16.21895 -8.58062,0.68958 -17.63229,1.03345 -26.97845,1.03345"
       style="fill:#525e20;fill-opacity:1;fill-rule:nonzero;stroke:none;stroke-width:0.189962"
       id="path2274" />
    <path
       d="m 338.16191,124.88786 c 9.67857,3.31294 19.5813,32.28789 14.34597,48.88109 -5.23156,16.59131 -44.06558,73.94093 -152.41626,71.27767 C 91.740903,242.38334 97.023753,226.9736 98.313603,212.12995 c 1.28794,-14.84366 20.379147,-28.7679 55.011187,-38.3382 34.63202,-9.5703 67.81275,-16.99973 97.19614,-33.31558 29.38333,-16.31777 66.61027,-22.78599 87.64098,-15.58831"
       style="fill:#579533;fill-opacity:1;fill-rule:nonzero;stroke:none;stroke-width:0.189962"
       id="path2292" />
    <path
       d="m 342.12074,132.64022 c 0,0 0.69334,12.27726 8.48562,10.5847 7.79412,-1.69257 18.30856,-15.47623 22.7043,-19.73709 4.3938,-4.26275 -0.56039,-6.96972 -5.98382,-4.18867 -5.4253,2.78105 -13.97361,12.1253 -25.2061,13.34106"
       style="fill:#3e5d27;fill-opacity:1;fill-rule:nonzero;stroke:none;stroke-width:0.189962"
       id="path2294" />
    <path
       d="m 338.16191,124.88786 c -0.40439,-0.13866 -0.81681,-0.27167 -1.23284,-0.40085 0.41786,0.12918 0.82823,0.26213 1.23284,0.40085"
       style="fill:#5b7b29;fill-opacity:1;fill-rule:nonzero;stroke:none;stroke-width:0.189962"
       id="path2296" />
    <path
       d="m 298.00201,226.39991 c -2.09338,-3.18566 -5.05112,-6.28395 -8.84845,-9.26066 42.63323,-22.63021 59.64245,-31.79399 58.21015,-47.40509 -0.46901,-5.10049 -2.00033,-7.00392 -4.19629,-7.00392 -4.78322,0 -12.71605,9.02132 -19.6877,13.71528 -4.88015,3.28635 -35.48114,13.57471 -69.87381,23.7054 -2.23586,-0.69906 -4.5477,-1.37913 -6.93175,-2.0383 -1.84261,-0.50719 -3.67956,-1.01059 -5.51458,-1.5102 13.65068,-4.30644 26.61562,-8.84844 37.05403,-13.40753 45.31172,-19.79218 51.03529,-31.86428 45.56438,-31.86428 -0.54139,0 -1.18917,0.11776 -1.91865,0.35711 -5.39682,1.76475 -56.44347,22.6948 -104.90668,35.52106 8.26717,-3.46871 16.07464,-6.92413 23.36916,-10.30166 8.02404,-2.517 16.20381,-5.32084 24.35887,-8.43812 48.60757,-18.58212 59.31764,-33.11043 46.15702,-33.11043 -2.31943,0 -5.3797,0.4521 -9.10487,1.41142 -5.1138,1.31834 -12.02654,3.42122 -20.02581,5.98191 -10.46313,1.85024 -21.80768,4.40713 -33.45239,7.36863 12.2982,-4.24375 22.74797,-8.15887 27.7649,-10.85444 11.1185,-5.97431 12.74647,-8.17787 9.17326,-8.17787 -2.69556,0 -8.35074,1.25375 -15.12477,3.09068 -3.85435,1.04289 -6.66579,1.5406 -8.33744,1.5406 -0.62307,0 -1.08852,-0.0703 -1.39056,-0.20516 19.02473,-8.72877 40.04597,-13.54432 57.39906,-13.54432 7.15203,0 13.67917,0.81874 19.18998,2.517 0.41625,0.12918 0.82823,0.26213 1.23284,0.40085 v 0 c 2.52083,0.86242 5.05678,3.46681 7.33448,7.13688 -1.09612,0.28114 -2.22256,0.49201 -3.37565,0.61548 0,0 0.606,10.74427 7.06469,10.74427 0.43509,0 0.89473,-0.0474 1.3848,-0.15196 2.07819,6.29345 3.38895,13.37904 3.38895,19.91374 -10e-4,3.81635 -0.44855,7.44653 -1.4513,10.62269 -3.17049,10.05281 -18.6752,35.06705 -54.50587,52.63096"
       style="fill:#487a2e;fill-opacity:1;fill-rule:nonzero;stroke:none;stroke-width:0.189962"
       id="path2298" />
    <path
       d="m 349.18543,143.38449 c -6.45869,0 -7.06469,-10.74427 -7.06469,-10.74427 1.15309,-0.12348 2.27953,-0.33434 3.37565,-0.61548 1.93,3.10779 3.67574,6.97732 5.07384,11.20778 -0.49001,0.10446 -0.94976,0.15195 -1.3848,0.15195"
       style="fill:#3c5b29;fill-opacity:1;fill-rule:nonzero;stroke:none;stroke-width:0.189962"
       id="path2300" />
    <path
       d="m 135.03332,195.50444 c 26.24899,-6.69997 78.34995,-8.43623 130.43193,-31.44826 52.08004,-23.01393 48.47839,-23.14311 11.73586,-12.65719 -36.7387,10.48592 -108.72493,31.49575 -119.22225,29.14022 -10.49732,-2.35743 10.21618,-8.73446 15.6871,-10.33965 5.47091,-1.60518 -41.21044,7.57 -56.95641,20.58052 -15.74598,13.00862 9.81535,6.89563 18.32377,4.72436"
       style="fill:#93d222;fill-opacity:1;fill-rule:nonzero;stroke:none;stroke-width:0.189962"
       id="path2302" />
    <path
       d="m 135.27647,206.45197 c 1.19106,-0.0608 97.01183,-13.64119 138.32483,-32.89957 41.31682,-19.25648 34.13247,-8.23487 1.68688,5.74635 -32.44743,13.98123 -108.2975,43.07966 -141.71567,41.59605 -33.42008,-1.4836 -42.219127,-12.22407 1.70396,-14.44283"
       style="fill:#74b02d;fill-opacity:1;fill-rule:nonzero;stroke:none;stroke-width:0.189962"
       id="path2304" />
    <path
       d="m 130.67368,226.20235 c 1.27085,-0.0893 73.40523,-4.0139 140.48283,-27.56543 67.0795,-23.54963 67.38153,-13.46453 45.98799,0.76555 -21.39359,14.23008 -56.23648,28.09543 -125.34665,30.55164 -69.11019,2.45431 -75.29726,-2.74686 -61.12417,-3.75176"
       style="fill:#74b02d;fill-opacity:1;fill-rule:nonzero;stroke:none;stroke-width:0.189962"
       id="path2306" />
    <path
       d="m 212.8533,188.91465 c -0.40062,-0.11206 -0.79597,-0.22229 -1.19488,-0.33434 1.75716,-0.44452 3.5295,-0.90423 5.29424,-1.37153 -1.35442,0.56799 -2.72215,1.13787 -4.09936,1.70586 m -8.01074,-2.29094 c -2.34413,-0.68577 -4.68256,-1.38673 -7.00391,-2.10099 20.99846,-4.12978 44.3163,-10.16678 67.6266,-20.46654 2.11615,-0.93651 4.13926,-1.83313 6.07498,-2.69367 -8.84463,4.76426 -19.34384,10.04521 -31.21841,15.54462 -12.4235,3.89612 -24.46905,7.10079 -35.47926,9.71658"
       style="fill:#79b32c;fill-opacity:1;fill-rule:nonzero;stroke:none;stroke-width:0.189962"
       id="path2308" />
    <path
       d="m 211.65842,188.58032 c -2.28147,-0.64398 -4.55529,-1.29365 -6.81586,-1.95661 11.01021,-2.61579 23.05576,-5.82045 35.47926,-9.71658 -7.29452,3.37753 -15.10199,6.83295 -23.36916,10.30166 -1.76474,0.46729 -3.53708,0.92702 -5.29424,1.37153"
       style="fill:#549935;fill-opacity:1;fill-rule:nonzero;stroke:none;stroke-width:0.189962"
       id="path2310" />
    <path
       d="m 175.52188,176.85584 c -2.38402,-0.92322 -4.74716,-1.87683 -7.09318,-2.87033 23.31027,-7.65358 52.41058,-16.88955 79.82594,-23.86497 -31.61919,10.90954 -75.43972,23.98084 -70.42091,23.97895 0.62117,0 1.9908,-0.19945 4.22096,-0.62878 21.6747,-4.16587 68.74738,-20.82937 99.65234,-30.7188 7.14826,-1.26515 13.88621,-2.20166 20.0334,-2.71456 0.12331,-0.0113 0.23747,-0.0151 0.34193,-0.0151 2.1713,0 0.34947,2.19406 -4.86114,5.92683 -4.67688,1.13407 -11.44714,3.0033 -20.02011,5.45001 -18.28389,5.21827 -45.30219,13.04472 -69.12161,19.29827 0.0108,-0.17479 -0.13301,-0.26595 -0.44425,-0.26595 -0.0538,0 -0.10984,0.002 -0.17123,0.008 -8.8997,0.74465 -20.29365,3.26735 -31.94214,6.41693"
       style="fill:#79b32c;fill-opacity:1;fill-rule:nonzero;stroke:none;stroke-width:0.189962"
       id="path2312" />
    <path
       d="m 177.83373,174.09949 c -5.01881,0.002 38.80172,-13.06941 70.42091,-23.97895 11.64471,-2.9615 22.98926,-5.51839 33.45239,-7.36863 -30.90496,9.88943 -77.97764,26.55293 -99.65234,30.7188 -2.23016,0.42933 -3.59979,0.62878 -4.22096,0.62878"
       style="fill:#549935;fill-opacity:1;fill-rule:nonzero;stroke:none;stroke-width:0.189962"
       id="path2314" />
    <path
       d="m 197.83865,184.52272 c -2.5037,-0.77124 -4.99221,-1.56149 -7.46361,-2.37643 11.0919,-5.83564 17.619,-10.33394 17.70446,-11.44903 23.81942,-6.25355 50.83772,-14.08 69.12161,-19.29827 8.57297,-2.44671 15.34323,-4.31593 20.02011,-5.45001 -5.28283,3.78405 -14.05719,9.15238 -25.68099,15.41354 -1.93572,0.86053 -3.95883,1.75715 -6.07498,2.69366 -23.3103,10.29976 -46.62814,16.33676 -67.6266,20.46654"
       style="fill:#addb34;fill-opacity:1;fill-rule:nonzero;stroke:none;stroke-width:0.189962"
       id="path2316" />
    <path
       d="m 178.35422,177.93483 c -0.94791,-0.35524 -1.89203,-0.71426 -2.83234,-1.07899 11.64849,-3.14957 23.04244,-5.67227 31.94214,-6.41693 0.0608,-0.006 0.11793,-0.008 0.17123,-0.008 0.31178,0 0.45771,0.0912 0.44425,0.26595 -10.976,2.88362 -21.27386,5.43102 -29.72528,7.23756"
       style="fill:#c8e32f;fill-opacity:1;fill-rule:nonzero;stroke:none;stroke-width:0.189962"
       id="path2318" />
    <path
       d="m 190.37504,182.14629 c -4.0519,-1.33354 -8.06011,-2.72976 -12.02082,-4.21146 8.45142,-1.80655 18.74928,-4.35394 29.72528,-7.23757 -0.0856,1.11509 -6.61256,5.61339 -17.70446,11.44903"
       style="fill:#dded7b;fill-opacity:1;fill-rule:nonzero;stroke:none;stroke-width:0.189962"
       id="path2320" />
    <path
       d="m 79.324973,211.87539 c 0,0 10.36244,2.49041 17.51642,5.0492 7.153977,2.55879 8.818047,3.17997 4.716767,13.17769 -4.101287,9.99771 -11.192587,14.06481 -8.595797,10.03381 2.59868,-4.0329 8.886437,-13.79507 4.11838,-9.70138 -4.76805,4.09179 -16.30446,7.26606 -11.83465,4.0633 4.46981,-3.20277 14.978527,-8.94533 9.48862,-9.0688 -1.79895,-0.042 -4.68447,0.20704 -7.51681,0.45592 -5.81665,0.51102 -11.41484,1.022 -6.93742,-0.9707 6.65627,-2.96721 16.25507,-2.70886 11.19068,-4.99031 -5.0644,-2.28145 -16.31967,-2.10478 -12.14619,-8.04871"
       style="fill:#f1e019;fill-opacity:1;fill-rule:nonzero;stroke:none;stroke-width:0.189962"
       id="path2322" />
    <path
       d="m 61.838933,149.20873 c -9.678575,3.31294 -19.581313,32.28979 -14.34785,48.8811 5.233464,16.59321 44.06556,73.94283 152.418167,71.27767 108.34878,-2.66328 103.06784,-18.07302 101.77803,-32.91668 -1.28798,-14.84366 -20.38109,-28.76599 -55.01312,-38.3382 -34.63202,-9.5684 -67.81083,-16.99972 -97.19611,-33.31559 -29.38147,-16.31586 -66.608387,-22.78597 -87.639117,-15.5883"
       style="fill:#579533;fill-opacity:1;fill-rule:nonzero;stroke:none;stroke-width:0.189962"
       id="path2324" />
    <path
       d="m 57.880119,156.96299 c 0,0 -0.693357,12.27537 -8.487516,10.5828 -7.794153,-1.69256 -18.306666,-15.47623 -22.702396,-19.73708 -4.395729,-4.26276 0.560392,-6.96782 5.981913,-4.18677 5.427228,2.78105 13.973632,12.12339 25.207999,13.34105"
       style="fill:#3e5d27;fill-opacity:1;fill-rule:nonzero;stroke:none;stroke-width:0.189962"
       id="path2326" />
    <path
       d="m 200.10301,269.36369 c 31.73512,-0.78644 53.70424,-2.66707 68.87272,-5.30754 -15.16848,2.64047 -37.1376,4.52299 -68.87272,5.30754 m 68.91451,-5.31515 c 0.0215,-0.004 0.0431,-0.007 0.0668,-0.0113 -0.0215,0.004 -0.0431,0.007 -0.0668,0.0113 m 0.14647,-0.0248 c 0.0108,-10e-4 0.0269,-0.006 0.0323,-0.007 -0.0108,0.004 -0.0215,0.004 -0.0323,0.007"
       style="fill:#465c21;fill-opacity:1;fill-rule:nonzero;stroke:none;stroke-width:0.189962"
       id="path2328" />
    <path
       d="m 62.011803,149.14984 c 0.37801,-0.1273 0.76175,-0.25077 1.15117,-0.36853 -0.38943,0.11776 -0.77124,0.24123 -1.15117,0.36853 m 1.47411,-0.46729 c 0,0 0.002,0 0.004,0 -0.002,0 -0.004,0 -0.004,0"
       style="fill:#5b7b29;fill-opacity:1;fill-rule:nonzero;stroke:none;stroke-width:0.189962"
       id="path2330" />
    <path
       d="M 192.66218,269.45868 C 89.822283,269.45468 52.60487,214.30691 47.491083,198.08983 c -1.001102,-3.17427 -1.449415,-6.80445 -1.449415,-10.62079 0,-6.53661 1.308841,-13.6222 3.38893,-19.91565 0.490121,0.10446 0.949812,0.15196 1.382925,0.15196 6.458722,0 7.066596,-10.74237 7.066596,-10.74237 -1.154966,-0.12536 -2.279546,-0.33623 -3.377525,-0.61738 2.279546,-3.67007 4.815539,-6.27255 7.336339,-7.13688 0.057,-0.0189 0.114,-0.0382 0.17285,-0.0589 0.37995,-0.12724 0.76175,-0.25077 1.15118,-0.36853 0.1064,-0.0345 0.21463,-0.0646 0.32292,-0.0988 0,0 0.002,0 0.004,0 5.42152,-1.61277 11.80046,-2.38972 18.77397,-2.38972 17.35116,0 38.372387,4.81364 57.395217,13.54241 -0.30015,0.13677 -0.76555,0.20516 -1.39053,0.20516 -1.67166,0 -4.4831,-0.49583 -8.33554,-1.54059 -6.77406,-1.83504 -12.43113,-3.09069 -15.1248,-3.09069 -3.57509,0 -1.94522,2.20546 9.17328,8.17787 5.01691,2.69557 15.46863,6.61259 27.76869,10.85634 -11.65039,-2.9653 -22.98734,-5.5184 -33.45426,-7.36863 -7.99932,-2.56069 -14.91584,-4.66547 -20.027727,-5.98381 -3.72516,-0.95931 -6.78546,-1.41142 -9.10489,-1.41142 -13.1606,0 -2.45052,14.53021 46.157037,33.11043 8.15508,3.11918 16.33486,5.92302 24.35887,8.43812 7.29455,3.37753 15.1001,6.83295 23.36726,10.30166 -48.46323,-12.82627 -99.509907,-33.75631 -104.904837,-35.52107 -0.73135,-0.23935 -1.37913,-0.35711 -1.91861,-0.35711 -5.47092,0 0.25265,12.0721 45.562447,31.86427 46.73833,20.41336 144.13202,40.49997 126.79794,40.49997 -1.12838,0 -2.74494,-0.0855 -4.88963,-0.26024 -35.11073,-2.87794 -157.000037,-40.14095 -167.174427,-46.9891 -6.97162,-4.69396 -14.90444,-13.71528 -19.68579,-13.71528 -2.195964,0 -3.728962,1.90343 -4.196267,7.00392 -1.487405,16.20188 16.893347,25.46065 63.166264,50.03607 27.15701,14.42384 71.1257,17.92105 106.07306,17.92105 24.60393,0 44.73991,-1.73436 51.38288,-2.60819 1.47795,-0.19568 2.85704,-0.28684 4.12219,-0.28684 3.00141,0 5.36268,0.51289 6.90703,1.36772 -4.06517,1.28415 -9.03266,2.46951 -15.09057,3.53141 -0.0108,10e-4 -0.0269,0.006 -0.0323,0.007 -0.0269,0.004 -0.0549,0.0102 -0.0797,0.0129 -0.0215,0.004 -0.0431,0.007 -0.0668,0.0113 -0.0162,0.001 -0.0269,0.006 -0.0431,0.007 -15.16849,2.64047 -37.13766,4.5211 -68.87275,5.30754 -0.0666,10e-4 -0.12724,10e-4 -0.19375,0.004 v 0 c -2.45242,0.0608 -4.86494,0.0912 -7.24706,0.0912"
       style="fill:#487a2e;fill-opacity:1;fill-rule:nonzero;stroke:none;stroke-width:0.189962"
       id="path2332" />
    <path
       d="m 50.813523,167.70536 c -0.433097,0 -0.89282,-0.0474 -1.382925,-0.15196 1.39812,-4.23046 3.143875,-8.09999 5.071996,-11.20778 1.097979,0.28114 2.222559,0.49201 3.377525,0.61738 0,0 -0.607874,10.74237 -7.066596,10.74237"
       style="fill:#3c5b29;fill-opacity:1;fill-rule:nonzero;stroke:none;stroke-width:0.189962"
       id="path2334" />
    <path
       d="m 264.96565,219.82532 c -26.24709,-6.69997 -78.34807,-8.43623 -130.43004,-31.44827 -52.081957,-23.01393 -48.478377,-23.1431 -11.73777,-12.65718 36.74061,10.48781 108.72496,31.49575 119.22228,29.14022 10.49731,-2.35744 -10.2143,-8.73257 -15.68521,-10.33965 -5.47092,-1.60519 41.20853,7.56999 56.95448,20.58051 15.74789,13.01052 -9.81534,6.89563 -18.32374,4.72437"
       style="fill:#93d222;fill-opacity:1;fill-rule:nonzero;stroke:none;stroke-width:0.189962"
       id="path2336" />
    <path
       d="m 264.72441,230.77285 c -1.19299,-0.0608 -97.01188,-13.6393 -138.32678,-32.89958 -41.314907,-19.25648 -34.132427,-8.23486 -1.68497,5.74636 32.44556,13.98123 108.29752,43.07965 141.71571,41.59605 33.41813,-1.4836 42.21909,-12.22407 -1.70396,-14.44283"
       style="fill:#74b02d;fill-opacity:1;fill-rule:nonzero;stroke:none;stroke-width:0.189962"
       id="path2338" />
    <path
       d="m 269.32714,250.52323 c -1.27274,-0.0893 -73.4052,-4.0139 -140.4847,-27.56543 -67.077587,-23.54963 -67.379627,-13.46453 -45.986077,0.76744 21.393557,14.23008 56.236447,28.09353 125.344717,30.54974 69.11021,2.45622 75.29918,-2.74685 61.12606,-3.75175"
       style="fill:#74b02d;fill-opacity:1;fill-rule:nonzero;stroke:none;stroke-width:0.189962"
       id="path2340" />
    <path
       d="m 286.17492,245.13589 c -2.16365,0 -4.6066,-0.31915 -7.31735,-1.02769 15.23499,-2.17127 20.70402,-6.66958 10.76898,-9.92743 3.21228,-1.69447 3.3623,-5.82425 0.0269,-9.15238 -0.94034,-0.93652 -1.71731,-1.70966 -2.39353,-2.35554 1.15116,-0.5186 1.4513,-1.4836 0.43294,-3.08309 1.55765,1.45891 3.38889,3.27496 5.71403,5.5925 8.66042,8.62998 5.63429,19.95554 -7.22995,19.95363 M 270.6474,231.14517 c -1.85591,-0.14059 -3.82964,-0.26595 -5.92113,-0.3723 -0.63255,-0.0323 -27.81427,-3.85814 -59.38032,-10.30926 -7.74284,-2.95771 -15.18747,-5.94962 -22.29775,-8.93392 21.81906,5.77485 43.12142,9.90843 59.49238,9.90843 0.0269,0 0.0538,0 0.0781,0 8.62428,3.38513 18.04642,6.70947 28.02896,9.70707 m -33.03442,-11.71497 c -15.45345,-2.5303 -45.41432,-8.00502 -77.93206,-18.20219 -11.87454,-5.49751 -22.37756,-10.78227 -31.22221,-15.54652 1.93382,0.86053 3.96072,1.76095 6.0788,2.69556 30.66561,13.55002 61.33883,19.72379 86.73677,23.87827 4.95995,2.33274 10.43275,4.75476 16.3387,7.17488"
       style="fill:#79b32c;fill-opacity:1;fill-rule:nonzero;stroke:none;stroke-width:0.189962"
       id="path2342" />
    <path
       d="m 242.53867,221.4381 c -16.37096,0 -37.67331,-4.13358 -59.49237,-9.90844 -8.26717,-3.46871 -16.07272,-6.92412 -23.36728,-10.30165 32.51775,10.19717 62.47861,15.67189 77.93206,18.20219 1.63556,0.66866 3.30726,1.34113 5.00551,2.0079 -0.0269,0 -0.0485,0 -0.0781,0"
       style="fill:#549935;fill-opacity:1;fill-rule:nonzero;stroke:none;stroke-width:0.189962"
       id="path2344" />
    <path
       d="m 239.87731,205.04245 c -0.65915,0 -1.40763,-0.0339 -2.23775,-0.0988 -15.86754,-4.76045 -32.85018,-9.15808 -45.10275,-10.18198 -0.0627,-0.006 -0.11965,-0.01 -0.17097,-0.01 -0.31156,0 -0.45781,0.0912 -0.44451,0.26784 -23.82128,-6.25532 -50.83771,-14.08177 -69.12349,-19.30004 -8.573,-2.44671 -15.34135,-4.31594 -20.02013,-5.45001 -5.210657,-3.73276 -7.030507,-5.92683 -4.861127,-5.92683 0.10446,0 0.22034,0.004 0.34382,0.0151 6.145277,0.51478 12.887037,1.45131 20.035327,2.71646 30.90496,9.88753 77.97572,26.55293 99.64854,30.7188 2.23203,0.42933 3.60165,0.62878 4.22095,0.62878 5.02069,0 -38.7979,-13.06941 -70.41523,-23.97894 32.92426,8.37733 68.28954,20.01822 93.12523,28.25689 0.3247,0.86053 -0.4367,1.61658 -2.85516,2.15987 -0.55086,0.12348 -1.26892,0.18239 -2.14275,0.18239"
       style="fill:#79b32c;fill-opacity:1;fill-rule:nonzero;stroke:none;stroke-width:0.189962"
       id="path2346" />
    <path
       d="m 222.16522,198.42226 c -0.61925,0 -1.98892,-0.19945 -4.22095,-0.62877 -21.67281,-4.16588 -68.74357,-20.83127 -99.64853,-30.71881 10.46692,1.85024 21.80387,4.40333 33.45426,7.36864 31.61733,10.90953 75.43591,23.97894 70.41522,23.97894"
       style="fill:#549935;fill-opacity:1;fill-rule:nonzero;stroke:none;stroke-width:0.189962"
       id="path2348" />
    <path
       d="m 287.25774,222.67285 c -2.93496,-2.80954 -3.91897,-3.21796 -7.91005,-4.35583 -6.17755,-1.76095 -23.183,-7.81505 -41.70813,-13.37335 0.83012,0.0646 1.5786,0.0987 2.23775,0.0987 0.87383,0 1.59189,-0.0589 2.14281,-0.18238 2.41818,-0.54329 3.17997,-1.29934 2.8551,-2.15987 12.48241,4.13928 22.3054,7.41993 27.82569,8.99472 7.59089,2.16557 9.76978,3.0166 14.98993,7.89483 1.0182,1.59948 0.71806,2.56449 -0.43293,3.08309 m -65.98548,-10.4175 c -25.39798,-4.15447 -56.0712,-10.32824 -86.73682,-23.87826 -2.11807,-0.93461 -4.14497,-1.83504 -6.07879,-2.69556 -11.62569,-6.26116 -20.39626,-11.6276 -25.67911,-15.41165 4.67878,1.13408 11.44713,3.00331 20.02013,5.45002 18.28578,5.21827 45.30221,13.04471 69.12349,19.30018 0.11012,1.46081 11.30466,8.74396 29.3511,17.23527"
       style="fill:#addb34;fill-opacity:1;fill-rule:nonzero;stroke:none;stroke-width:0.189962"
       id="path2350" />
    <path
       d="m 278.85757,244.1082 c 0,0 -0.001,0 -0.001,0 -26.31359,-6.86524 -51.14928,-15.1058 -73.51165,-23.64461 31.56605,6.45112 58.74778,10.27696 59.38038,10.30926 2.09144,0.1064 4.06517,0.23176 5.92108,0.3723 3.84482,1.15497 7.76945,2.26055 11.7644,3.30345 1.35061,0.35141 2.56638,0.51101 3.64344,0.51101 1.44376,0 2.63858,-0.28496 3.57322,-0.77885 9.93504,3.25786 4.46601,7.75617 -10.76898,9.92744"
       style="fill:#9ac621;fill-opacity:1;fill-rule:nonzero;stroke:none;stroke-width:0.189962"
       id="path2352" />
    <path
       d="m 289.62655,234.18077 c -3.87525,-1.27085 -10.08888,-2.35173 -18.98106,-3.0356 -9.98248,-2.9976 -19.40462,-6.32194 -28.0289,-9.70707 2.04588,-0.002 4.00631,-0.0684 5.88882,-0.20328 0.65538,-0.0474 -3.42691,-0.58318 -10.89433,-1.80463 -5.90595,-2.42012 -11.37875,-4.84214 -16.33865,-7.17488 17.73674,2.90072 32.90146,4.81555 43.69322,7.56999 4.44323,1.13408 13.53481,3.34334 18.96771,3.34334 1.39815,0 2.55312,-0.14625 3.32438,-0.49583 0.67622,0.64588 1.45319,1.41902 2.39353,2.35554 3.33758,3.32814 3.18756,7.45792 -0.0269,9.15238"
       style="fill:#c8e32f;fill-opacity:1;fill-rule:nonzero;stroke:none;stroke-width:0.189962"
       id="path2354" />
    <path
       d="m 242.61659,221.4381 c -1.69825,-0.66677 -3.36995,-1.33924 -5.00551,-2.0079 7.46742,1.22146 11.54971,1.75715 10.89433,1.80464 -1.88251,0.13488 -3.84294,0.20139 -5.88882,0.20327"
       style="fill:#a3d71d;fill-opacity:1;fill-rule:nonzero;stroke:none;stroke-width:0.189962"
       id="path2356" />
    <path
       d="m 237.63956,204.94367 c -8.61287,-0.68007 -26.07995,-4.76806 -45.71823,-9.92363 -0.0129,-0.17668 0.13295,-0.26784 0.44451,-0.26784 0.0512,0 0.10829,0.004 0.17097,0.01 12.25257,1.0239 29.23521,5.42153 45.10275,10.18198"
       style="fill:#c8e32f;fill-opacity:1;fill-rule:nonzero;stroke:none;stroke-width:0.189962"
       id="path2358" />
    <path
       d="m 283.93336,223.16865 c -5.4329,0 -14.52448,-2.20926 -18.96771,-3.34333 -10.79176,-2.75445 -25.95648,-4.66927 -43.69322,-7.57 -18.04644,-8.49132 -29.24092,-15.77447 -29.3511,-17.23528 19.63828,5.15557 37.10536,9.24356 45.71823,9.92363 18.52513,5.5583 35.53058,11.6124 41.70813,13.37335 3.99108,1.13787 4.97509,1.54629 7.91005,4.35583 -0.77126,0.34953 -1.92623,0.49583 -3.32438,0.49583"
       style="fill:#dded7b;fill-opacity:1;fill-rule:nonzero;stroke:none;stroke-width:0.189962"
       id="path2360" />
    <path
       d="m 286.05333,234.95962 c -1.07705,0 -2.29283,-0.15955 -3.64343,-0.51102 -3.99495,-1.04289 -7.91958,-2.14847 -11.76441,-3.30344 8.89218,0.68386 15.10581,1.76475 18.98106,3.03559 -0.93463,0.49389 -2.12945,0.77885 -3.57322,0.77885"
       style="fill:#d5ea62;fill-opacity:1;fill-rule:nonzero;stroke:none;stroke-width:0.189962"
       id="path2362" />
    <path
       d="m 320.67399,236.19627 c 0,0 -10.36054,2.49041 -17.5164,5.0511 -7.15403,2.55879 -8.8162,3.17997 -4.71678,13.17578 4.10319,9.99773 11.19254,14.06481 8.5958,10.03381 -2.5968,-4.0329 -8.88458,-13.79316 -4.11837,-9.70137 4.76992,4.09179 16.30634,7.26606 11.83651,4.06519 -4.47172,-3.20276 -14.9804,-8.94532 -9.4886,-9.0707 5.48993,-0.12347 21.11052,2.45052 14.4542,-0.51478 -6.65626,-2.96721 -16.25502,-2.70886 -11.19254,-4.99031 5.06437,-2.28145 16.31964,-2.10478 12.14618,-8.0487"
       style="fill:#f1e019;fill-opacity:1;fill-rule:nonzero;stroke:none;stroke-width:0.189962"
       id="path2364" />
  </g>
</svg>
