<?xml version="1.0" encoding="UTF-8" standalone="no"?>
<svg
   xmlns:dc="http://purl.org/dc/elements/1.1/"
   xmlns:cc="http://creativecommons.org/ns#"
   xmlns:rdf="http://www.w3.org/1999/02/22-rdf-syntax-ns#"
   xmlns:svg="http://www.w3.org/2000/svg"
   xmlns="http://www.w3.org/2000/svg"
   xmlns:sodipodi="http://sodipodi.sourceforge.net/DTD/sodipodi-0.dtd"
   xmlns:inkscape="http://www.inkscape.org/namespaces/inkscape"
   sodipodi:docname="remolacha.svg"
   inkscape:version="1.0 (4035a4fb49, 2020-05-01)"
   id="svg1122"
   version="1.1"
   viewBox="0 0 400 400"
   height="400mm"
   width="400mm">
  <defs
     id="defs1116" />
  <sodipodi:namedview
     inkscape:window-maximized="0"
     inkscape:window-y="0"
     inkscape:window-x="90"
     inkscape:window-height="729"
     inkscape:window-width="1260"
     showgrid="false"
     inkscape:document-rotation="0"
     inkscape:current-layer="layer1"
     inkscape:document-units="mm"
     inkscape:cy="674.28571"
     inkscape:cx="400"
     inkscape:zoom="0.35"
     inkscape:pageshadow="2"
     inkscape:pageopacity="0.0"
     borderopacity="1.0"
     bordercolor="#666666"
     pagecolor="#ffffff"
     id="base" />
  <metadata
     id="metadata1119">
    <rdf:RDF>
      <cc:Work
         rdf:about="">
        <dc:format>image/svg+xml</dc:format>
        <dc:type
           rdf:resource="http://purl.org/dc/dcmitype/StillImage" />
        <dc:title></dc:title>
      </cc:Work>
    </rdf:RDF>
  </metadata>
  <g
     id="layer1"
     inkscape:groupmode="layer"
     inkscape:label="Capa 1">
    <path
       d="m 251.44969,294.66106 c -59.38403,0 -82.97016,-23.98138 -82.97016,-23.98138 -19.16004,-2.127 -108.436767,-12.84277 -103.026827,-38.51132 1.67866,-7.97043 8.87562,-13.02125 19.46601,-16.17672 1.03694,2.94725 2.38837,5.99003 4.10526,9.14123 v 0 c 9.69795,17.79378 32.104787,30.54729 53.425787,30.54729 9.63212,0 19.04108,-2.60302 26.96049,-8.51866 4.39639,-3.28293 8.22966,-6.20036 11.64432,-8.76297 0.42705,1.81036 0.80531,3.03646 1.04118,3.55488 1.66164,3.6527 -8.865,8.74387 -16.95649,11.69323 0,0 0,0 -0.002,0 -1.30254,0.47403 -2.54345,0.89458 -3.65902,1.24519 0,0 0,0 -0.002,0 0,0 0,0 -0.002,0.002 -1.04757,0.32706 -1.98461,0.59269 -2.76234,0.78411 -4.50902,1.10918 -8.92023,1.39391 -8.9245,1.9931 -0.004,0.29755 1.0837,0.67148 3.7887,1.26218 2.31396,0.50595 4.36446,0.75008 6.48086,0.75008 5.34403,0 11.10674,-1.56389 22.53856,-4.44524 2.93659,-0.74159 5.55443,-1.11557 8.03204,-1.11557 10.98989,0 19.19619,7.37333 39.96258,22.88285 7.91946,5.91564 17.32625,8.51649 26.96049,8.51649 21.32101,-0.002 43.72784,-12.7514 53.4258,-30.54512 v 0 c 2.44358,-4.4856 4.14564,-8.75237 5.25272,-12.83639 1.03901,0.30177 2.10146,0.60347 3.17668,0.90307 52.92008,14.69776 16.08955,46.94705 -53.76155,51.17985 -4.94035,0.29935 -9.67248,0.43789 -14.19421,0.43789"
       style="fill:#525e20;fill-opacity:1;fill-rule:nonzero;stroke:none;stroke-width:0.212487"
       id="path1016" />
    <path
       d="m 93.025123,162.35972 c -7.58794,18.3781 -18.07847,36.93467 -4.00115,62.77315 14.079447,25.83431 54.940817,41.03779 80.386277,22.02863 25.4475,-19.00706 32.03251,-25.7939 47.99461,-21.76722 15.96211,4.02662 20.86632,5.47793 29.01732,3.69727 8.14895,-1.78067 1.6149,-1.59581 -5.1337,-3.25745 -6.75071,-1.65954 -25.56652,-8.92873 -23.38429,-13.72458 2.18441,-4.78947 16.64846,-70.40572 -33.51146,-95.38793 -50.15985,-24.98431 -75.29716,6.71674 -91.367607,45.63813"
       style="fill:#b11d30;fill-opacity:1;fill-rule:nonzero;stroke:none;stroke-width:0.212487"
       id="path1018" />
    <path
       d="m 85.296943,178.63208 c -8.60151,26.58223 10.96437,48.22411 31.454567,42.0938 20.49445,-6.13025 52.3995,-45.45328 30.80858,-77.02471 -22.87641,-33.45406 -45.27688,-17.5982 -62.263147,34.93091"
       style="fill:#b11d30;fill-opacity:1;fill-rule:nonzero;stroke:none;stroke-width:0.212487"
       id="path1020" />
    <path
       d="m 110.21963,145.95569 c -11.365967,11.15776 -26.399477,32.51913 -16.370057,45.49152 10.035797,12.97661 45.631737,-11.33834 39.879717,-27.88476 -5.75205,-16.54221 -23.50966,-17.60676 -23.50966,-17.60676"
       style="fill:#601e2c;fill-opacity:1;fill-rule:nonzero;stroke:none;stroke-width:0.212487"
       id="path1022" />
    <path
       d="m 112.45501,155.57287 c 9.74469,-1.30681 -2.95996,26.18698 -2.95996,26.18698 0,0 -19.584997,-14.06453 -31.715927,-16.68875 -12.13093,-2.62212 -34.714134,-2.61362 -32.58076,-10.93466 3.28506,-12.81723 57.511957,2.74324 67.256647,1.43643"
       style="fill:#601e2c;fill-opacity:1;fill-rule:nonzero;stroke:none;stroke-width:0.212487"
       id="path1024" />
    <path
       d="m 41.983425,197.71346 c 0,0 22.638448,-7.81743 41.209888,-2.96423 18.571437,4.85115 38.196807,23.56703 51.708907,-2.44148 13.50787,-26.01272 6.54677,-49.36726 -6.40651,-50.29797 -12.95751,-0.93283 -22.10086,-4.92969 -34.057537,-16.85879 -11.95882,-11.93121 -18.76905,-19.432 -19.95474,-19.78472 -1.1878,-0.35056 -3.04707,2.6497 -7.29683,7.19908 -4.25188,4.54938 29.30207,35.84458 40.415177,43.00752 4.94885,3.18945 -5.15707,0.7352 -16.321187,-1.71687 -13.89245,-3.05344 -29.42743,-6.10694 -19.62962,1.71687 32.795367,26.18698 24.4616,30.4155 10.63714,26.96682 -13.82233,-3.44863 -32.6955,-2.90684 -44.737187,2.88984 -12.043808,5.79458 -22.663947,18.78395 4.432499,12.28393"
       style="fill:#7f162f;fill-opacity:1;fill-rule:nonzero;stroke:none;stroke-width:0.212487"
       id="path1026" />
    <path
       d="m 127.70526,135.66064 c 0,0 22.37497,5.10395 18.9879,30.271 -3.38279,25.17555 -17.63223,41.53929 -25.34979,43.57275 -7.71543,2.0378 7.29046,14.86569 22.6151,5.16984 15.31611,-9.69368 35.13058,-55.15973 17.75969,-76.31076 -17.36872,-21.15315 -48.66181,-7.29046 -34.0129,-2.70283"
       style="fill:#ea1257;fill-opacity:1;fill-rule:nonzero;stroke:none;stroke-width:0.212487"
       id="path1028" />
    <path
       d="m 142.72388,232.16836 c -14.86351,0 -25.72801,-5.43969 -28.90683,-10.75186 0.9732,-0.16804 1.95277,-0.39753 2.93446,-0.69062 2.59023,-0.77556 5.35894,-2.07809 8.1829,-3.83117 2.02077,0.82025 4.47288,1.3621 7.17997,1.3621 3.63566,0 7.7282,-0.97962 11.84409,-3.58258 4.65985,-2.9493 9.73831,-9.21561 14.05815,-17.09677 2.71138,-0.0422 5.74994,-0.29755 8.92661,-0.55053 3.50393,-0.27827 7.17788,-0.55655 10.77101,-0.55655 0.76712,0 1.52991,0.0121 2.28638,0.0422 -1.67014,9.50672 -1.74663,18.71167 -1.19629,26.33576 -3.26166,1.36632 -6.70397,2.75595 -10.3248,4.18599 -9.31331,3.68029 -18.06995,5.13587 -25.75565,5.13587"
       style="fill:#d01c33;fill-opacity:1;fill-rule:nonzero;stroke:none;stroke-width:0.212487"
       id="path1030" />
    <path
       d="m 113.81705,221.4165 c -1.6149,-2.69439 -1.24942,-5.35469 1.57666,-7.25859 1.13681,-0.76495 2.44362,-1.69139 3.86516,-2.76233 -0.15089,1.70838 2.07813,4.0415 5.67554,5.49913 -2.82396,1.75308 -5.59267,3.05561 -8.1829,3.83117 -0.98169,0.29333 -1.96126,0.52282 -2.93446,0.69062 m 8.09367,-12.08419 c 4.53661,-3.64204 9.80418,-8.45705 14.45129,-14.04761 -4.89572,7.77286 -10.4374,12.68767 -14.45129,14.04761"
       style="fill:#d01c33;fill-opacity:1;fill-rule:nonzero;stroke:none;stroke-width:0.212487"
       id="path1032" />
    <path
       d="m 206.00491,152.36644 c -4.05427,-7.44772 -10.05496,-14.04122 -18.57573,-18.25697 -7.64956,-3.78226 -15.48608,-5.04233 -22.54067,-5.04233 -4.76609,0 -9.17525,0.57342 -12.92137,1.33657 -4.82561,-2.49677 -9.86583,-3.45297 -14.31745,-3.45297 -2.51798,0 -4.84897,0.30358 -6.84848,0.80748 -2.43299,-1.07732 -4.84472,-1.60851 -7.22884,-1.60851 -1.28343,0 -2.55836,0.15299 -3.82478,0.45897 1.27705,-1.28133 3.54855,-2.65608 7.08434,-4.21575 0,0 14.91877,-3.51248 31.84556,-3.51248 17.03088,0 36.09527,3.55705 44.04871,17.82138 2.61573,4.69177 4.91909,9.08599 6.91647,13.20615 -1.26001,0.79043 -2.47334,1.61273 -3.63776,2.45846"
       style="fill:#d01c33;fill-opacity:1;fill-rule:nonzero;stroke:none;stroke-width:0.212487"
       id="path1034" />
    <path
       d="m 146.88867,157.75511 c -7.07584,-19.28539 -34.73752,-23.5309 -27.14108,-31.14643 1.26642,-0.30598 2.54135,-0.45897 3.82478,-0.45897 2.38412,0 4.79585,0.53125 7.22884,1.60851 -6.86124,1.72965 -9.82756,5.79458 -3.09595,7.90242 0,0 17.3539,3.95868 19.18341,22.09447"
       style="fill:#d01c33;fill-opacity:1;fill-rule:nonzero;stroke:none;stroke-width:0.212487"
       id="path1036" />
    <path
       d="m 132.11438,218.25681 c -2.70709,0 -5.1592,-0.54209 -7.17997,-1.3621 -3.59741,-1.45763 -5.82641,-3.79075 -5.67554,-5.49913 0.84782,-0.6375 1.73602,-1.32597 2.65185,-2.06327 4.01389,-1.35994 9.55557,-6.27475 14.45129,-14.04761 8.48248,-10.21217 14.89962,-23.01452 11.03027,-36.00601 -0.15299,-0.5186 -0.32285,-1.02636 -0.50355,-1.52358 -1.82951,-18.13579 -19.18341,-22.09447 -19.18341,-22.09447 -6.73161,-2.10784 -3.76529,-6.17277 3.09595,-7.90242 1.99951,-0.50354 4.3305,-0.80748 6.84848,-0.80748 4.45162,0 9.49184,0.9562 14.31745,3.45297 -7.34358,1.49377 -12.1522,3.70576 -12.1522,3.70576 24.42547,18.01261 3.5974,50.99282 7.40092,59.70483 1.2941,2.96845 5.02962,3.76954 9.97635,3.76954 0.27225,0 0.54631,-0.002 0.82441,-0.006 -4.31984,7.88116 -9.3983,14.14741 -14.05815,17.09677 -4.11589,2.60296 -8.20842,3.58253 -11.84409,3.58253"
       style="fill:#ea1257;fill-opacity:1;fill-rule:nonzero;stroke:none;stroke-width:0.212487"
       id="path1038" />
    <path
       d="m 142.44976,255.68016 c -21.321,0 -43.727837,-12.75351 -53.425787,-30.54729 v 0 c -5.35894,-9.84457 -7.15234,-18.62452 -6.90373,-26.7501 1.97402,8.85012 6.32577,18.46098 15.44787,25.53044 12.657897,9.8127 32.574377,16.82265 51.099057,16.82265 11.61884,0 22.69161,-2.75805 31.07848,-9.31758 0.41862,2.81757 0.88819,5.18682 1.30892,6.98025 -3.41466,2.56261 -7.24793,5.48004 -11.64432,8.76297 -7.91941,5.91564 -17.32837,8.51866 -26.96049,8.51866"
       style="fill:#9f1b31;fill-opacity:1;fill-rule:nonzero;stroke:none;stroke-width:0.212487"
       id="path1040" />
    <path
       d="m 158.01662,197.57746 c 9.87432,-18.01894 15.78574,-44.49919 3.70154,-59.21399 -2.94719,-3.58891 -6.29384,-6.17061 -9.75102,-7.95976 3.74612,-0.76285 8.15528,-1.33657 12.92137,-1.33657 7.05459,0 14.89111,1.26007 22.54067,5.04233 8.52077,4.21575 14.52146,10.80925 18.57573,18.25697 -16.03433,11.6592 -23.22491,28.32464 -26.00429,44.14436 -0.75647,-0.0301 -1.51926,-0.0422 -2.28638,-0.0422 -3.59313,0 -7.26708,0.27828 -10.77101,0.55655 -3.17667,0.25298 -6.21523,0.50596 -8.92661,0.55053"
       style="fill:#dc1743;fill-opacity:1;fill-rule:nonzero;stroke:none;stroke-width:0.212487"
       id="path1042" />
    <path
       d="m 157.19221,197.58384 c -4.94673,0 -8.68225,-0.80109 -9.97635,-3.76954 -3.80352,-8.71201 17.02455,-41.69222 -7.40092,-59.70483 0,0 4.80862,-2.21199 12.1522,-3.70576 3.45718,1.78915 6.80383,4.37085 9.75102,7.95976 12.0842,14.7148 6.17278,41.19505 -3.70154,59.21399 -0.27828,0.004 -0.55234,0.006 -0.82441,0.006"
       style="fill:#ea1257;fill-opacity:1;fill-rule:nonzero;stroke:none;stroke-width:0.212487"
       id="path1044" />
    <path
       d="m 306.97485,192.20367 c 7.58794,18.37594 18.07633,36.93462 4.00114,62.77315 -14.08158,25.83426 -54.94084,41.03562 -80.38623,22.02863 -25.44967,-19.00705 -32.03468,-25.7939 -47.99468,-21.76728 -15.96204,4.02451 -20.86626,5.47582 -29.01942,3.69516 -8.14679,-1.78066 -1.6149,-1.59581 5.1358,-3.25534 6.75077,-1.65947 25.56442,-8.93083 23.38429,-13.72458 -2.18434,-4.79158 -16.6484,-70.40572 33.50936,-95.39003 50.15986,-24.98215 75.29927,6.7189 91.36974,45.64029"
       style="fill:#b11d30;fill-opacity:1;fill-rule:nonzero;stroke:none;stroke-width:0.212487"
       id="path1046" />
    <path
       d="m 314.70301,208.47598 c 8.60154,26.58012 -10.96435,48.22199 -31.45457,42.09168 -20.49444,-6.12814 -52.3995,-45.45111 -30.80858,-77.0247 22.87429,-33.45407 45.27691,-17.5961 62.26315,34.93302"
       style="fill:#b11d30;fill-opacity:1;fill-rule:nonzero;stroke:none;stroke-width:0.212487"
       id="path1048" />
    <path
       d="m 289.77821,175.79958 c 11.36598,11.15776 26.40159,32.51702 16.37006,45.49152 -10.0358,12.97667 -45.62963,-11.33834 -39.87969,-27.88476 5.75205,-16.54432 23.50963,-17.60676 23.50963,-17.60676"
       style="fill:#601e2c;fill-opacity:1;fill-rule:nonzero;stroke:none;stroke-width:0.212487"
       id="path1050" />
    <path
       d="m 287.54496,185.41466 c -9.7447,-1.30681 2.95996,26.18704 2.95996,26.18704 0,0 19.58499,-14.0646 31.71382,-16.68882 12.13094,-2.62 34.71413,-2.61151 32.58285,-10.93249 -3.28503,-12.8194 -57.51193,2.74318 -67.25663,1.43427"
       style="fill:#601e2c;fill-opacity:1;fill-rule:nonzero;stroke:none;stroke-width:0.212487"
       id="path1052" />
    <path
       d="m 358.01658,227.55525 c 0,0 -22.6406,-7.81532 -41.20994,-2.96418 -18.57356,4.85109 -38.1989,23.56698 -51.70887,-2.43936 -13.50786,-26.0149 -6.54676,-49.36943 6.40648,-50.30015 12.95752,-0.93282 22.09874,-4.92969 34.05754,-16.85879 11.95885,-11.92904 18.76907,-19.43199 19.95475,-19.78261 1.18568,-0.35055 3.04495,2.64759 7.29473,7.19908 4.254,4.54938 -29.29999,35.84247 -40.41305,43.00542 -4.94885,3.19155 5.1549,0.73737 16.32115,-1.71688 13.89245,-3.05344 29.42744,-6.10694 19.62962,1.71688 -32.79536,26.18704 -24.46155,30.4155 -10.63928,26.96898 13.82451,-3.44869 32.69555,-2.909 44.73934,2.88985 12.04384,5.7924 22.66396,18.78178 -4.43247,12.28176"
       style="fill:#7f162f;fill-opacity:1;fill-rule:nonzero;stroke:none;stroke-width:0.212487"
       id="path1054" />
    <path
       d="m 272.29475,165.50453 c 0,0 -22.37497,5.10184 -18.99007,30.27107 3.38496,25.17338 17.63435,41.53712 25.3498,43.57057 7.71757,2.0378 -7.28834,14.86569 -22.61294,5.16984 -15.31828,-9.69368 -35.13065,-55.15972 -17.76187,-76.31076 17.37089,-21.15315 48.66399,-7.29045 34.01508,-2.70072"
       style="fill:#ea1257;fill-opacity:1;fill-rule:nonzero;stroke:none;stroke-width:0.212487"
       id="path1056" />
    <path
       d="m 257.27607,262.01014 c -7.68571,0 -16.44445,-1.45553 -25.75776,-5.13581 -50.87597,-20.10347 -66.81043,-31.91144 -34.24456,-90.32855 7.95133,-14.26644 27.01572,-17.82137 44.04876,-17.82137 16.92674,0 31.84555,3.51241 31.84555,3.51241 3.53578,1.55756 5.80728,2.93231 7.08434,4.21364 -1.26646,-0.30357 -2.54134,-0.45897 -3.82478,-0.45897 -2.38414,0 -4.79796,0.53125 -7.22884,1.61062 -1.99955,-0.50354 -4.33049,-0.80952 -6.84846,-0.80952 -4.4538,0 -9.49401,0.95619 -14.31745,3.45501 -3.74829,-0.76279 -8.15528,-1.33868 -12.92138,-1.33868 -7.05464,0 -14.89327,1.26007 -22.54073,5.0445 -22.94441,11.34894 -27.6319,39.96468 -25.16706,56.00328 1.42577,9.26657 3.5953,12.56227 8.02566,12.56227 3.23835,0 7.68359,-1.75729 13.93286,-4.23274 3.8184,-1.51292 8.30399,-1.9719 12.92349,-1.9719 3.59318,0 7.26497,0.27647 10.76889,0.55475 3.17879,0.25297 6.21741,0.50595 8.92662,0.55052 4.31983,7.88327 9.3983,14.14742 14.06032,17.09677 4.11588,2.60507 8.2084,3.58253 11.84405,3.58253 2.7071,0 5.15923,-0.5421 7.17998,-1.35994 2.82396,1.75091 5.59268,3.0535 8.18287,3.82906 0.98173,0.29333 1.9613,0.52282 2.93448,0.69057 -3.17879,5.31223 -14.04333,10.75402 -28.90685,10.75191"
       style="fill:#d01c33;fill-opacity:1;fill-rule:nonzero;stroke:none;stroke-width:0.212487"
       id="path1058" />
    <path
       d="m 286.18292,251.25829 c -0.97318,-0.16805 -1.95275,-0.39754 -2.93448,-0.69063 -2.59019,-0.77556 -5.35891,-2.07809 -8.18287,-3.829 3.59741,-1.45769 5.82427,-3.79292 5.67339,-5.5013 1.42155,1.07094 2.73047,1.99949 3.8673,2.76445 2.82396,1.90179 3.19156,4.56425 1.57666,7.25648 m -8.09577,-12.0842 c -4.01391,-1.35994 -9.55557,-6.27264 -14.45129,-14.04972 4.64708,5.59268 9.91468,10.40768 14.45129,14.04972 m -24.97582,-51.5772 c 1.82951,-18.13796 19.18342,-22.09236 19.18342,-22.09236 6.72944,-2.10995 3.76527,-6.17488 -3.09597,-7.90242 2.43088,-1.07943 4.8447,-1.61062 7.22884,-1.61062 1.28344,0 2.55832,0.1554 3.82478,0.45897 7.59433,7.61553 -20.06312,11.86321 -27.14107,31.14643"
       style="fill:#d01c33;fill-opacity:1;fill-rule:nonzero;stroke:none;stroke-width:0.212487"
       id="path1060" />
    <path
       d="m 267.88559,248.0986 c -3.63565,0 -7.72817,-0.97746 -11.84405,-3.58259 -4.66202,-2.94929 -9.74049,-9.21344 -14.06032,-17.09677 0.27827,0.004 0.55233,0.006 0.82447,0.006 4.94667,0 8.68225,-0.80104 9.9784,-3.76949 3.80141,-8.7099 -17.02455,-41.69228 7.40092,-59.70272 0,0 -4.81067,-2.21199 -12.15214,-3.70582 4.82344,-2.49882 9.86365,-3.45502 14.31745,-3.45502 2.51797,0 4.84891,0.30599 6.84846,0.80959 6.86124,1.72748 9.82541,5.79241 3.09597,7.90242 0,0 -17.35391,3.9544 -19.18342,22.09236 -0.1825,0.49692 -0.35055,1.00504 -0.50595,1.52353 -3.86942,12.99148 2.54772,25.7939 11.03024,36.00395 4.89572,7.77702 10.43738,12.68972 14.45129,14.04966 0.91795,0.73737 1.80614,1.42583 2.65181,2.06327 0.15118,1.70838 -2.07599,4.04367 -5.67339,5.5013 -2.02075,0.81808 -4.47288,1.35994 -7.17998,1.35994"
       style="fill:#ea1257;fill-opacity:1;fill-rule:nonzero;stroke:none;stroke-width:0.212487"
       id="path1062" />
    <path
       d="m 161.4738,254.89394 c 0.002,-0.002 0.002,-0.002 0.002,-0.002 0,0 0,0 -0.002,0.002 m 0.004,-0.002 c 1.11557,-0.35055 2.35648,-0.77134 3.65902,-1.24519 0.002,0 0.002,0 0.002,0 -1.3047,0.47584 -2.54561,0.89458 -3.66119,1.24519"
       style="fill:#6c381c;fill-opacity:1;fill-rule:nonzero;stroke:none;stroke-width:0.212487"
       id="path1064" />
    <path
       d="m 257.55019,285.52194 c -9.63418,0 -19.04103,-2.60085 -26.96043,-8.51649 -20.76646,-15.50952 -28.97275,-22.88285 -39.96264,-22.88285 -2.47755,0 -5.09545,0.37404 -8.03204,1.11557 -11.43182,2.88135 -17.19447,4.44524 -22.53856,4.44524 -2.1164,0 -4.1669,-0.24455 -6.48086,-0.75008 -2.705,-0.59088 -3.79292,-0.96469 -3.78865,-1.26218 0.004,-0.59932 4.41549,-0.88398 8.92445,-1.99316 0.77773,-0.19094 1.71694,-0.45657 2.76234,-0.78405 0.002,-0.002 0.002,-0.002 0.002,-0.002 0.002,0 0.002,0 0.002,0 1.11558,-0.35055 2.35649,-0.76923 3.66119,-1.24519 0.96469,1.16442 2.63272,1.92727 5.36319,1.92727 0.0422,0 0.0849,0 0.1295,0 7.72606,-0.0699 15.90681,-8.70779 26.2486,-8.70779 5.60755,0 11.84833,2.53712 19.00067,10.35455 8.67586,9.48118 21.67801,13.35698 35.45144,13.35698 18.52471,0 38.44121,-7.00995 51.09907,-16.82054 9.12213,-7.07157 13.47389,-16.68243 15.44579,-25.53039 0.25057,8.12342 -1.54268,16.90553 -6.90159,26.7501 v 0 c -9.69796,17.79372 -32.10485,30.54295 -53.42587,30.54512"
       style="fill:#9f1b31;fill-opacity:1;fill-rule:nonzero;stroke:none;stroke-width:0.212487"
       id="path1066" />
    <path
       d="m 195.42936,232.51897 c -4.43036,0 -6.59989,-3.2957 -8.02566,-12.56227 -2.46484,-16.0386 2.22265,-44.65434 25.16706,-56.00328 7.64746,-3.78443 15.48609,-5.0445 22.54073,-5.0445 4.7661,0 9.17309,0.57583 12.92138,1.33868 -3.45718,1.78915 -6.80601,4.36874 -9.7532,7.95765 -12.08209,14.71481 -6.17066,41.19506 3.70155,59.21399 -2.70921,-0.0422 -5.74783,-0.29755 -8.92662,-0.55053 -3.50392,-0.27827 -7.17571,-0.55474 -10.76889,-0.55474 -4.6195,0 -9.10509,0.45897 -12.92349,1.9719 -6.24927,2.47551 -10.69451,4.23274 -13.93286,4.23274"
       style="fill:#dc1743;fill-opacity:1;fill-rule:nonzero;stroke:none;stroke-width:0.212487"
       id="path1068" />
    <path
       d="m 242.80569,227.42563 c -0.27226,0 -0.54632,-0.002 -0.82447,-0.006 -9.87221,-18.01893 -15.78364,-44.49918 -3.70155,-59.21399 2.94719,-3.58891 6.29602,-6.1685 9.7532,-7.95765 7.34147,1.49377 12.15214,3.70576 12.15214,3.70576 -24.42547,18.0105 -3.59951,50.99288 -7.40092,59.70272 -1.29615,2.96845 -5.03173,3.76955 -9.9784,3.76955"
       style="fill:#ea1257;fill-opacity:1;fill-rule:nonzero;stroke:none;stroke-width:0.212487"
       id="path1070" />
  </g>
</svg>
