<?xml version="1.0" encoding="UTF-8" standalone="no"?>
<svg
   xmlns:dc="http://purl.org/dc/elements/1.1/"
   xmlns:cc="http://creativecommons.org/ns#"
   xmlns:rdf="http://www.w3.org/1999/02/22-rdf-syntax-ns#"
   xmlns:svg="http://www.w3.org/2000/svg"
   xmlns="http://www.w3.org/2000/svg"
   xmlns:sodipodi="http://sodipodi.sourceforge.net/DTD/sodipodi-0.dtd"
   xmlns:inkscape="http://www.inkscape.org/namespaces/inkscape"
   sodipodi:docname="repollo.svg"
   inkscape:version="1.0 (4035a4fb49, 2020-05-01)"
   id="svg890"
   version="1.1"
   viewBox="0 0 400 400"
   height="400mm"
   width="400mm">
  <defs
     id="defs884" />
  <sodipodi:namedview
     inkscape:window-maximized="0"
     inkscape:window-y="0"
     inkscape:window-x="90"
     inkscape:window-height="729"
     inkscape:window-width="1260"
     showgrid="false"
     inkscape:document-rotation="0"
     inkscape:current-layer="layer1"
     inkscape:document-units="mm"
     inkscape:cy="674.28571"
     inkscape:cx="400"
     inkscape:zoom="0.35"
     inkscape:pageshadow="2"
     inkscape:pageopacity="0.0"
     borderopacity="1.0"
     bordercolor="#666666"
     pagecolor="#ffffff"
     id="base" />
  <metadata
     id="metadata887">
    <rdf:RDF>
      <cc:Work
         rdf:about="">
        <dc:format>image/svg+xml</dc:format>
        <dc:type
           rdf:resource="http://purl.org/dc/dcmitype/StillImage" />
        <dc:title></dc:title>
      </cc:Work>
    </rdf:RDF>
  </metadata>
  <g
     id="layer1"
     inkscape:groupmode="layer"
     inkscape:label="Capa 1">
    <path
       d="m 215.3925,327.77675 c -80.84095,0 -146.372987,-12.79715 -146.372987,-28.58263 0,-5.52545 8.03212,-10.68585 21.93693,-15.05802 8.95471,7.71024 18.946087,14.6753 29.208697,20.59613 13.36244,10.58951 30.80299,16.95392 50.52215,19.66341 2.85398,0.50221 5.61412,0.85419 8.24508,1.04171 5.27701,0.38007 10.46277,0.5604 15.54975,0.5604 15.05299,0 29.23657,-1.57402 42.33031,-4.21504 37.39041,-6.97777 68.16041,-20.95608 86.38667,-41.92229 23.94944,5.08949 38.56647,11.87973 38.56647,19.33392 0,15.78548 -65.53204,28.5827 -146.37307,28.5827"
       style="fill:#525e20;fill-opacity:1;fill-rule:nonzero;stroke:none;stroke-width:0.253459"
       id="path834" />
    <path
       d="m 307.03097,165.1798 c 0,0 23.98234,-68.304895 -15.63345,-83.798895 -21.42237,-8.37936 -45.17416,-6.11093 -65.20255,-3.84496 -17.01729,1.92629 -31.35039,3.85258 -39.28372,-0.75281 -17.26315,-10.02688 -37.87451,-2.57262 -57.42642,13.12672 -19.55442,15.684095 -88.683037,31.398585 -92.130037,67.770065 -3.44455,36.37147 -18.27195,91.45338 25.94412,99.19905 44.223697,7.74323 240.454757,-59.37541 243.732057,-91.69917"
       style="fill:#48722b;fill-opacity:1;fill-rule:nonzero;stroke:none;stroke-width:0.253459"
       id="path836" />
    <path
       d="m 339.63091,215.03786 c 10.91146,58.49601 -35.09655,94.10964 -102.83623,106.74966 -67.74471,12.63751 -131.57096,-2.48899 -142.484927,-60.98499 -10.91146,-58.49083 35.157407,-116.1606 102.902117,-128.7981 67.75232,-12.64002 131.50759,24.54002 142.41904,83.03343"
       style="fill:#5aa834;fill-opacity:1;fill-rule:nonzero;stroke:none;stroke-width:0.253459"
       id="path838" />
    <path
       d="m 157.77095,139.36241 c 0,0 -16.97167,19.75969 1.34339,25.97962 18.30235,6.22244 46.75062,3.59148 47.55408,17.35188 0.81108,13.76787 8.92439,24.03558 28.38498,22.00785 19.46066,-2.03018 23.77198,-11.39298 36.52106,1.75399 12.74902,13.14439 19.55442,26.32686 34.58709,30.47853 15.03274,4.15921 33.3376,24.28906 15.4256,43.69899 -17.92214,19.3973 -72.18787,49.86317 -142.65478,44.80408 -70.4644,-5.0489 -228.59794,-125.83263 -21.16142,-186.07494"
       style="fill:#519d36;fill-opacity:1;fill-rule:nonzero;stroke:none;stroke-width:0.253459"
       id="path840" />
    <path
       d="m 284.10298,143.76749 c 0,0 52.45856,26.23567 21.49594,56.14646 -30.95509,29.92092 -67.54706,39.15447 -77.40668,48.62367 -9.85955,9.46676 -12.79974,29.68526 -12.79974,29.68526 0,0 37.0204,-26.97828 81.04386,-22.74801 44.031,4.23271 79.29229,-1.14316 78.5522,-25.09001 -0.75526,-23.94434 -12.58427,-22.54268 -5.77886,-45.89399 6.80792,-23.35124 -7.45174,-68.85489 -85.10672,-40.72338"
       style="fill:#75c92b;fill-opacity:1;fill-rule:nonzero;stroke:none;stroke-width:0.253459"
       id="path842" />
    <path
       d="m 173.57927,157.22369 c -6.17682,7.92061 34.37169,-4.83091 40.82728,12.05202 6.45055,16.87281 11.32968,21.35908 27.16588,21.57706 15.83864,0.22057 42.93354,15.46863 53.56616,7.45426 10.62507,-8.00684 16.29242,-31.24657 -16.00598,-49.03945 -32.29582,-17.79539 -80.65092,-23.97221 -105.55334,7.95611"
       style="fill:#75c92b;fill-opacity:1;fill-rule:nonzero;stroke:none;stroke-width:0.253459"
       id="path844" />
    <path
       d="m 228.50147,232.62799 c -7.91049,0 -16.76382,-0.52448 -25.70337,-1.47516 -3.65743,-0.38797 -8.33122,-0.53454 -13.7096,-0.53454 -8.8838,0 -19.69639,0.40522 -31.06408,0.81108 -11.36768,0.40809 -23.28787,0.81359 -34.38685,0.81359 -21.33629,0 -39.631017,-1.50303 -45.098137,-7.39088 -12.86562,-13.87687 -13.86932,-42.87269 70.763427,-79.60153 0,0 -7.24892,24.20284 8.38446,29.21373 15.63086,5.01599 43.01214,2.12401 43.94995,13.05321 0.94034,10.92921 12.86814,25.65264 25.26489,27.07967 12.38403,1.42443 31.99679,2.34953 30.92972,10.38417 -0.71703,5.40633 -13.01521,7.64688 -29.33041,7.64688"
       style="fill:#67b930;fill-opacity:1;fill-rule:nonzero;stroke:none;stroke-width:0.253459"
       id="path846" />
    <path
       d="m 101.46232,286.65548 c 0,0 27.83248,-22.28676 84.85835,-15.8311 57.01581,6.46069 85.18784,35.62628 86.30563,37.52469 1.11521,1.90602 -12.6679,20.43138 -77.55619,19.2148 -64.89332,-1.2191 -120.101897,-37.23328 -93.60779,-40.90839"
       style="fill:#48722b;fill-opacity:1;fill-rule:nonzero;stroke:none;stroke-width:0.253459"
       id="path848" />
    <path
       d="m 37.354793,157.67992 c 0,0 -7.14761,78.81329 48.72763,79.22648 55.870137,0.42102 100.593097,0.91246 138.944097,27.07205 38.36113,26.16965 48.7961,46.7101 48.7961,46.7101 0,0 -28.5041,-37.64892 -88.9238,-40.02389 -60.42229,-2.37741 -71.74435,26.63105 -115.532077,18.74593 -43.77508,-7.89274 -56.58998,-89.01002 -32.01195,-131.73067"
       style="fill:#6cc02e;fill-opacity:1;fill-rule:nonzero;stroke:none;stroke-width:0.253459"
       id="path850" />
    <path
       d="m 35.157283,212.86572 c 0,0 5.69523,24.62868 27.00617,28.58521 21.32099,3.95647 88.893407,1.82233 107.107017,8.88883 18.21362,7.07404 -38.77173,0.89219 -57.17546,12.57413 -18.391067,11.67692 -49.145847,14.23941 -62.493057,-6.10583 -13.34972,-20.35537 -14.44467,-43.94234 -14.44467,-43.94234"
       style="fill:#75c92b;fill-opacity:1;fill-rule:nonzero;stroke:none;stroke-width:0.253459"
       id="path852" />
    <path
       d="m 65.529333,175.93664 c 0,0 78.785487,-60.37157 143.222577,-57.63679 64.43961,2.72975 80.84355,2.05051 78.01493,-13.12923 -2.83112,-15.172035 -41.6561,-16.495095 -69.69384,-13.172255 -28.03774,3.32795 -32.49613,-5.8321 -47.29565,-8.30586 -14.78939,-2.47124 -37.1217,10.73651 -57.66718,21.706235 -20.555527,10.97231 -83.907807,51.79707 -46.580837,70.5379"
       style="fill:#519d36;fill-opacity:1;fill-rule:nonzero;stroke:none;stroke-width:0.253459"
       id="path854" />
    <path
       d="m 138.23937,156.83844 c -8.94716,12.00641 19.24771,28.50159 39.37497,26.91234 20.12474,-1.58408 16.24422,7.33513 22.64412,19.99549 6.40242,12.66028 -76.67412,32.1361 -86.29291,0.21769 -9.63402,-31.92078 32.49857,-58.17413 24.27382,-47.1258"
       style="fill:#75c92b;fill-opacity:1;fill-rule:nonzero;stroke:none;stroke-width:0.253459"
       id="path856" />
    <path
       d="m 192.7256,147.62265 c 19.90166,-4.89429 38.95423,-17.71428 63.37764,-1.02397 24.4158,16.68522 4.81324,51.43461 -12.98474,34.76958 -17.81062,-16.66747 -5.02102,-28.86398 -23.58446,-27.94901 -18.56846,0.91246 -48.23842,-0.52232 -26.80844,-5.7966"
       style="fill:#95d325;fill-opacity:1;fill-rule:nonzero;stroke:none;stroke-width:0.253459"
       id="path858" />
    <path
       d="m 167.55958,137.53491 c -0.35995,1.92378 -14.60431,22.8976 5.01089,26.85155 19.61528,3.95395 48.14977,-1.13044 46.59608,15.38249 -1.55879,16.51293 -0.002,25.92386 14.44215,25.03928 14.45229,-0.88206 24.20285,-5.69012 22.29179,-4.1567 -1.92377,1.52582 -38.71347,11.08634 -43.50134,3.17326 -4.78278,-7.90789 -1.63732,-29.09209 -23.36389,-32.71152 -21.73167,-3.61174 -35.39314,1.25466 -38.21162,-13.76284 -2.81596,-15.02764 18.69772,-30.20479 16.73594,-19.81552"
       style="fill:#3e5d27;fill-opacity:1;fill-rule:nonzero;stroke:none;stroke-width:0.253459"
       id="path860" />
  </g>
</svg>
