<?xml version="1.0" encoding="UTF-8" standalone="no"?>
<svg
   xmlns:dc="http://purl.org/dc/elements/1.1/"
   xmlns:cc="http://creativecommons.org/ns#"
   xmlns:rdf="http://www.w3.org/1999/02/22-rdf-syntax-ns#"
   xmlns:svg="http://www.w3.org/2000/svg"
   xmlns="http://www.w3.org/2000/svg"
   xmlns:sodipodi="http://sodipodi.sourceforge.net/DTD/sodipodi-0.dtd"
   xmlns:inkscape="http://www.inkscape.org/namespaces/inkscape"
   sodipodi:docname="sandia.svg"
   inkscape:version="1.0 (4035a4fb49, 2020-05-01)"
   id="svg1974"
   version="1.1"
   viewBox="0 0 400 400"
   height="400mm"
   width="400mm">
  <defs
     id="defs1968" />
  <sodipodi:namedview
     inkscape:window-maximized="0"
     inkscape:window-y="0"
     inkscape:window-x="90"
     inkscape:window-height="729"
     inkscape:window-width="1260"
     showgrid="false"
     inkscape:document-rotation="0"
     inkscape:current-layer="layer1"
     inkscape:document-units="mm"
     inkscape:cy="698.61389"
     inkscape:cx="400"
     inkscape:zoom="0.35"
     inkscape:pageshadow="2"
     inkscape:pageopacity="0.0"
     borderopacity="1.0"
     bordercolor="#666666"
     pagecolor="#ffffff"
     id="base" />
  <metadata
     id="metadata1971">
    <rdf:RDF>
      <cc:Work
         rdf:about="">
        <dc:format>image/svg+xml</dc:format>
        <dc:type
           rdf:resource="http://purl.org/dc/dcmitype/StillImage" />
        <dc:title></dc:title>
      </cc:Work>
    </rdf:RDF>
  </metadata>
  <g
     id="layer1"
     inkscape:groupmode="layer"
     inkscape:label="Capa 1">
    <path
       d="m 180.77731,206.48875 c 0,0 11.77226,-15.39967 24.90519,-18.11623 13.1281,-2.71651 17.20852,13.13293 28.97755,23.5493 11.77385,10.41159 13.58758,16.0744 10.41801,22.86337 -1.77033,3.79284 -7.28055,-2.22179 -14.4406,-8.23803 -5.66604,-4.75997 -12.36825,-9.51995 -19.06723,-9.41872 -15.16993,0.22632 -25.1317,7.69498 -11.54253,7.69498 13.57793,0 29.88362,-1.93417 37.35373,11.1457 7.46689,13.08316 7.46689,24.40396 -2.26354,17.60857 -9.73681,-6.79215 -25.13489,-4.98165 -14.03896,0 11.09753,4.9833 25.5863,14.71852 16.3025,35.77134 -9.28379,21.05606 -16.75555,7.92636 -20.83437,0 -4.07077,-7.92149 -3.8459,-7.01547 -14.48878,-1.58235 -10.63805,5.43307 -25.12686,7.24357 -21.28097,-10.63969 3.84913,-17.88648 7.33679,-30.56636 -0.63452,-33.95924 -7.97135,-3.39931 -14.537,2.188 -9.5537,-11.69836 4.98166,-13.89118 10.18822,-24.98064 10.18822,-24.98064"
       style="fill:#3e5d27;fill-opacity:1;fill-rule:nonzero;stroke:none;stroke-width:0.160647"
       id="path1754" />
    <path
       d="m 163.00171,219.76462 c 0,0 7.01383,-8.92555 6.64115,-16.76835 -0.3725,-7.83638 -9.95371,-7.83638 -17.57802,-12.99317 -7.62271,-5.15675 -11.09593,-5.35917 -14.48718,-2.57034 -3.38487,2.78564 12.81645,7.7882 14.90486,16.42299 2.08199,8.6348 -0.69883,15.37235 -2.68605,7.6709 -1.98076,-7.69981 -3.25632,-17.22943 -11.76256,-19.554 -8.50469,-2.32939 -14.92576,-0.68115 -9.65812,3.84909 5.27241,4.53029 6.49174,13.52169 2.04984,7.95851 -4.4419,-5.56322 -12.07586,-12.3586 -22.65771,-4.02422 -10.588284,8.33438 -2.05308,10.65571 3.03464,11.80919 5.0893,1.15666 4.54308,1.15985 3.01856,7.98738 -1.53581,6.82589 -0.44991,15.30167 9.1328,10.51596 9.57938,-4.79691 16.25751,-8.61712 19.34839,-4.59773 3.086,4.02582 0.87874,8.56412 8.0259,3.71097 7.14721,-4.84996 12.6735,-9.41718 12.6735,-9.41718"
       style="fill:#3e5d27;fill-opacity:1;fill-rule:nonzero;stroke:none;stroke-width:0.160647"
       id="path1756" />
    <path
       d="m 134.5912,180.5233 c 0,0 -21.13315,-37.95132 -45.582054,-36.93765 -24.45696,1.01532 -12.33775,16.10974 -15.98606,23.96056 -3.63701,7.84603 -10.2782,-6.94316 -19.93951,-7.85082 -9.66135,-0.90766 -3.62422,3.62258 -9.05729,9.0573 -5.43312,5.43307 -21.43362,-5.13271 -18.71865,9.6613 2.71975,14.78759 5.73672,25.85461 13.88635,20.62395 8.15287,-5.2307 12.68311,-4.93188 8.45328,-2.51574 -4.22504,2.4161 -12.67668,12.67988 0.90443,8.15282 13.58758,-4.52864 26.26905,-12.07745 26.86987,-8.15282 0.60406,3.92459 -25.05296,12.98352 -15.39484,20.83274 9.65653,7.84763 19.92513,2.11091 28.07795,-3.3238 8.14804,-5.43472 7.55846,-12.9771 18.874474,-11.77226 11.30796,1.20971 35.6396,-9.71113 27.61205,-21.73558"
       style="fill:#3e5d27;fill-opacity:1;fill-rule:nonzero;stroke:none;stroke-width:0.160647"
       id="path1758" />
    <path
       d="m 179.87289,215.39021 c 0,0 -7.24521,4.22824 -4.67965,6.18973 2.56715,1.96314 8.60105,1.8105 9.05888,4.53029 0.44992,2.71492 2.40973,3.7704 -1.96632,4.22341 -4.37605,0.45624 -9.2067,0.60401 -5.73513,0.90766 3.47163,0.30373 20.68179,4.67965 20.97897,15.69684 0.3051,11.02043 13.73694,14.03576 12.52727,33.81143 -1.20165,19.77413 -19.16683,28.97919 -23.54288,11.77067 -4.37764,-17.20533 -14.49196,-31.2411 -15.84944,-22.94369 -1.36067,8.30869 10.86619,16.90496 9.80912,32.00098 -1.05707,15.09602 -7.83797,12.68311 -11.61802,14.79238 -3.77682,2.11573 1.50849,13.58434 -8.45487,11.17143 -9.96013,-2.41774 -4.9833,-9.50871 -12.22687,-4.37605 -7.2452,5.13111 -13.73694,4.07404 -13.88635,-1.66427 -0.15118,-5.73513 0.30192,-6.03554 -3.9198,-9.0557 -4.22983,-3.01857 -1.81692,-6.04032 1.80566,-14.64142 3.62263,-8.59945 -2.11573,-14.03895 -5.58407,-10.71678 -3.46839,3.32381 -21.58298,19.31788 -19.31948,2.41615 2.26515,-16.90492 9.50871,-16.0005 22.64164,-23.39507 13.1297,-7.3978 22.48904,-19.92512 19.31783,-23.24406 -3.17116,-3.32061 -16.30249,0 -19.01582,7.24198 -2.71651,7.2468 -25.8128,17.35793 -36.680594,13.43653 -10.86619,-3.923 -7.39462,-17.96518 1.20967,-26.11322 8.602644,-8.15286 14.492004,-10.41637 22.940464,-10.71837 8.45487,-0.30374 -0.29873,-6.18814 7.7014,-8.6011 8.00027,-2.4161 10.56095,-1.50849 15.69685,-2.71975 2.26031,-0.53174 3.73023,0.46107 5.41704,1.45225 2.13982,1.25949 4.62664,2.51897 9.52478,0.66189 8.7537,-3.31898 13.43494,-10.41641 8.30228,-13.58275 -2.28604,-1.41208 -5.14072,-0.99924 -8.10951,-0.58634 -3.69809,0.51567 -7.57613,1.02974 -10.75855,-1.984 -5.73671,-5.42988 -12.98192,-4.22181 -22.49063,-3.16638 -9.50871,1.05707 -21.88498,8.30387 -21.73239,1.6579 0.15119,-6.6412 1.95831,-8.59946 -7.550404,-6.78897 -9.5103,1.8105 -6.64114,-0.15255 -10.26377,-1.66272 -3.62417,-1.51008 -16.75391,-5.28048 -6.63955,-13.58271 10.11277,-8.30227 13.73535,-13.58594 22.18863,-9.05569 8.451644,4.52864 20.072894,13.88475 18.415004,7.69498 -1.66273,-6.1865 -22.641644,-6.94156 -18.718654,-13.73535 3.924634,-6.78892 16.906564,-12.52728 27.621704,-2.86752 10.71843,9.66131 8.60588,13.28393 13.73535,12.98188 5.1343,-0.30374 2.26355,3.16957 10.11437,10.26218 7.84921,7.0958 11.1666,15.54744 14.03416,11.6228 2.87075,-3.9214 -2.40972,-10.10953 -8.75369,-15.69684 -6.33754,-5.58248 6.79862,-6.18814 -1.20484,-10.56578 -7.99863,-4.37601 -21.88658,-8.14804 -16.3025,-17.50893 5.58572,-9.3593 22.9549,-9.81077 30.94551,-1.20808 8.00022,8.60265 0,15.69844 6.0339,19.02066 2.55108,1.40083 4.2122,0.46107 6.08695,-0.47874 2.56715,-1.28517 5.53431,-2.57034 11.72563,2.13982 10.7136,8.14963 7.69662,13.73216 -0.60083,18.71382 -8.30705,4.98329 -14.04377,10.56737 -12.38105,16.6061 1.66108,6.03394 3.77682,7.84603 0.15255,9.65652"
       style="fill:#4b772c;fill-opacity:1;fill-rule:nonzero;stroke:none;stroke-width:0.160647"
       id="path1760" />
    <path
       d="m 152.74436,158.46806 c -7.85405,-3.11338 -14.44059,-7.27413 -6.4982,-9.41395 7.94562,-2.13823 24.4682,-0.33425 22.60953,6.88532 -1.85225,7.21952 -0.75342,18.41181 7.45245,17.50739 8.20423,-0.90288 17.96518,-1.37033 19.57325,5.05392 1.60649,6.42912 -10.28786,4.15273 -14.98035,14.98359 -4.6909,10.82603 -4.33106,19.49456 -6.13513,17.32582 -1.80567,-2.16714 -1.12292,-27.43536 -5.43631,-31.94952 -4.31179,-4.50939 -4.67323,-8.30228 -5.21622,-14.79566 -0.53817,-6.49979 -8.54645,-4.47882 -11.36902,-5.59691"
       style="fill:#519d36;fill-opacity:1;fill-rule:nonzero;stroke:none;stroke-width:0.160647"
       id="path1762" />
    <path
       d="m 169.66053,229.29747 c 9.36736,-1.84907 21.16689,6.42265 21.52997,12.19794 0.35974,5.77366 1.62415,15.15868 8.30063,20.93557 6.67813,5.77365 6.32147,11.73209 3.25149,20.57572 -3.07316,8.84682 -6.86123,8.66531 -9.02514,-3.42822 -2.16714,-12.09353 -9.38662,-22.92115 -20.3974,-25.0883 -11.01237,-2.16391 -20.33155,16.42618 -13.50401,23.28746 6.82753,6.85481 20.56288,10.10471 16.49207,19.84958 -4.06922,9.74805 -9.12642,9.81395 -10.20435,3.10367 -1.08598,-6.71182 -1.62893,-15.37712 -5.23871,-9.7818 -3.60651,5.59537 -1.25949,12.27345 1.44423,18.05193 2.7085,5.77206 -0.25046,14.80207 -4.81781,10.46942 -4.56881,-4.33588 -4.02582,-17.32906 -7.45245,-16.42459 -3.43301,0.89642 1.441,24.36698 -5.96159,13.71445 -7.39621,-10.64929 -8.42117,-11.37385 -2.49488,-26.71404 5.92789,-15.34183 -4.72464,-7.58096 7.36889,-28.87795 12.09517,-21.29705 17.58767,-31.25877 20.70906,-31.87084"
       style="fill:#519d36;fill-opacity:1;fill-rule:nonzero;stroke:none;stroke-width:0.160647"
       id="path1764" />
    <path
       d="m 143.53766,231.46939 c -10.06295,1.11491 -18.05034,-6.40016 -22.74123,9.1216 -4.6925,15.52334 -26.715644,22.92274 -29.600874,17.32742 -2.88683,-5.59214 2.71009,-23.66014 15.346614,-26.44902 12.63334,-2.78882 19.48815,-3.69325 20.75405,-7.48132 1.26268,-3.79289 0.53976,-7.94243 11.36902,-6.31668 10.82922,1.62255 11.01237,4.70697 18.22866,3.52622 7.22107,-1.18235 -7.57613,9.6292 -13.35624,10.27178"
       style="fill:#519d36;fill-opacity:1;fill-rule:nonzero;stroke:none;stroke-width:0.160647"
       id="path1766" />
    <path
       d="m 128.19746,177.2413 c -8.11912,-5.0572 -16.59972,-3.78005 -22.74287,-9.6501 -6.143144,-5.87488 -1.08116,-11.29029 4.33106,-10.7473 5.41705,0.54136 19.13309,10.46938 25.08989,16.24303 5.9568,5.7737 6.67972,5.14555 11.55218,11.77709 4.87081,6.63472 14.89201,11.68869 5.36881,9.70306 -9.51672,-1.98558 -34.42992,-5.64031 -44.53463,-7.24197 -10.109544,-1.60325 -11.912024,-9.28863 -18.051974,-7.70141 -6.13832,1.58877 -13.98435,4.29409 -8.61713,-1.30124 5.36887,-5.59537 10.4212,-10.65253 14.57557,-7.58096 4.15273,3.06675 15.160274,11.36903 23.823984,11.64212 8.66371,0.27004 9.20511,-5.14232 9.20511,-5.14232"
       style="fill:#519d36;fill-opacity:1;fill-rule:nonzero;stroke:none;stroke-width:0.160647"
       id="path1768" />
    <path
       d="m 375,182.15388 c 0,60.76163 -49.26574,110.02419 -110.02578,110.02419 -60.76163,0 -110.02419,-49.26256 -110.02419,-110.02419 0,-60.77129 49.26256,-110.02738 110.02419,-110.02738 C 325.73426,72.1265 375,121.38259 375,182.15388"
       style="fill:#658f2d;fill-opacity:1;fill-rule:nonzero;stroke:none;stroke-width:0.160647"
       id="path1770" />
    <path
       d="m 348.8739,174.10543 c 0,50.50433 -40.93614,91.44694 -91.45331,91.44694 -50.50274,0 -91.44048,-40.94261 -91.44048,-91.44694 0,-50.50428 40.93774,-91.44207 91.44048,-91.44207 50.51717,0 91.45331,40.93779 91.45331,91.44207"
       style="fill:#8fbf25;fill-opacity:1;fill-rule:nonzero;stroke:none;stroke-width:0.160647"
       id="path1772" />
    <path
       d="m 308.81327,156.33142 c 0,35.75849 -28.9888,64.73609 -64.73609,64.73609 -35.76651,0 -64.73923,-28.9776 -64.73923,-64.73609 0,-35.75048 28.97272,-64.73768 64.73923,-64.73768 35.74729,0 64.73609,28.9872 64.73609,64.73768"
       style="fill:#a2c81f;fill-opacity:1;fill-rule:nonzero;stroke:none;stroke-width:0.160647"
       id="path1774" />
    <path
       d="m 283.25907,140.21207 c 0,25.4899 -20.66243,46.15879 -46.16038,46.15879 -25.4883,0 -46.15077,-20.66889 -46.15077,-46.15879 0,-25.49472 20.66247,-46.154 46.15077,-46.154 25.49795,0 46.16038,20.65928 46.16038,46.154"
       style="fill:#cbe11f;fill-opacity:1;fill-rule:nonzero;stroke:none;stroke-width:0.160647"
       id="path1776" />
    <path
       d="m 220.95202,190.36776 c 3.48123,-2.32935 5.64674,-3.44106 6.0018,-3.44106 0.2377,0 -0.33425,0.49641 -1.86032,1.45548 -1.10684,0.70684 -2.49806,1.37515 -4.14148,1.98558"
       style="fill:#60812a;fill-opacity:1;fill-rule:nonzero;stroke:none;stroke-width:0.160647"
       id="path1778" />
    <path
       d="m 155.183,173.52068 c 0.10929,-1.41049 0.24591,-2.81292 0.40802,-4.20733 0.0319,0.0228 0.0628,0.0464 0.0933,0.0692 -0.15574,1.33818 -0.28597,2.68282 -0.39208,4.03548 -0.0364,0.0319 -0.0724,0.0692 -0.10929,0.10291"
       style="fill:#4f6122;fill-opacity:1;fill-rule:nonzero;stroke:none;stroke-width:0.160647"
       id="path1780" />
    <path
       d="m 155.15891,175.33281 c -0.0319,-0.0182 -0.066,-0.0364 -0.0979,-0.0546 0.0364,-0.58799 0.0769,-1.17274 0.12204,-1.75749 0.0364,-0.0319 0.0724,-0.0692 0.10929,-0.10292 -0.0496,0.63617 -0.0947,1.27552 -0.13343,1.91491 m 0.52533,-5.95038 c -0.0319,-0.0228 -0.061,-0.0464 -0.0934,-0.0692 0.4062,-3.48924 0.97511,-6.92871 1.69966,-10.30876 0.0319,0.003 0.0642,0.005 0.0979,0.009 -0.72774,3.39931 -1.29965,6.86287 -1.70448,10.36983"
       style="fill:#3a4e2a;fill-opacity:1;fill-rule:nonzero;stroke:none;stroke-width:0.160647"
       id="path1782" />
    <path
       d="m 161.39523,144.96081 c -0.0273,-0.009 -0.0592,-0.0228 -0.0883,-0.0319 3.19366,-8.88539 7.4958,-17.23748 12.73935,-24.89713 0.0228,0.0182 0.0455,0.0364 0.0692,0.0528 -5.23713,7.65163 -9.5328,15.99885 -12.72004,24.87463"
       style="fill:#4f6122;fill-opacity:1;fill-rule:nonzero;stroke:none;stroke-width:0.160647"
       id="path1784" />
    <path
       d="m 160.10846,148.76331 c -0.0319,-0.005 -0.0628,-0.009 -0.0933,-0.0182 0.40802,-1.28193 0.83858,-2.55426 1.29159,-3.81534 0.0273,0.009 0.0592,0.0228 0.0883,0.0319 -0.45128,1.25784 -0.88034,2.52375 -1.28681,3.8025"
       style="fill:#3a4e2a;fill-opacity:1;fill-rule:nonzero;stroke:none;stroke-width:0.160647"
       id="path1786" />
    <path
       d="m 157.38867,159.01264 c -0.0319,-0.003 -0.066,-0.005 -0.0979,-0.009 0.7454,-3.48447 1.65789,-6.90623 2.72457,-10.25895 0.0319,0.005 0.0628,0.009 0.0933,0.0182 -1.06508,3.34789 -1.97598,6.76965 -2.71974,10.24929"
       style="fill:#3d6629;fill-opacity:1;fill-rule:nonzero;stroke:none;stroke-width:0.160647"
       id="path1788" />
    <path
       d="m 166.18093,180.21328 c -1.48439,-0.55105 -3.12781,-1.19846 -4.95437,-1.95189 -2.16073,-0.88839 -4.17041,-1.87315 -6.06765,-2.92858 0.0364,-0.6394 0.0833,-1.27875 0.13343,-1.91491 0.1061,-1.35266 0.23634,-2.6973 0.39208,-4.03547 0.40483,-3.50696 0.97669,-6.97052 1.70443,-10.36979 0.74382,-3.47963 1.65471,-6.90144 2.7198,-10.24933 0.40619,-1.27875 0.83534,-2.54466 1.28676,-3.8025 3.18724,-8.87578 7.48296,-17.22301 12.72008,-24.87464 1.96633,1.52293 3.92459,3.3704 5.49414,5.96482 -8.64285,13.9635 -13.62933,30.42501 -13.62933,48.05444 0,2.05307 0.0674,4.08848 0.20082,6.10785"
       style="fill:#455e22;fill-opacity:1;fill-rule:nonzero;stroke:none;stroke-width:0.160647"
       id="path1790" />
    <path
       d="m 176.88164,182.83663 c -2.49488,0 -5.7078,-0.76791 -10.70071,-2.62335 -0.13342,-2.01937 -0.20082,-4.05478 -0.20082,-6.10785 0,-17.62943 4.98649,-34.09094 13.62929,-48.05444 0.74865,1.23859 1.41049,2.64907 1.94065,4.27646 0.49959,1.53094 1.00083,2.96552 1.51008,4.31498 -2.40973,6.78091 -3.72222,14.08235 -3.72222,21.68899 0,8.52555 1.64665,16.66717 4.64112,24.11962 -2.44825,1.44418 -4.33265,2.38559 -7.09739,2.38559"
       style="fill:#567b2b;fill-opacity:1;fill-rule:nonzero;stroke:none;stroke-width:0.160647"
       id="path1792" />
    <path
       d="m 183.97903,180.45104 c -2.99447,-7.45245 -4.64108,-15.59407 -4.64108,-24.11962 0,-7.60664 1.31245,-14.90808 3.72218,-21.68899 2.39365,6.34074 4.98971,10.7682 8.72637,14.37794 1.70124,8.80346 5.90215,16.71534 11.8381,22.96614 -1.81049,0.46749 -3.99371,1.15825 -6.68614,2.11892 -6.55439,2.33905 -10.13362,4.67806 -12.95943,6.34561"
       style="fill:#60812a;fill-opacity:1;fill-rule:nonzero;stroke:none;stroke-width:0.160647"
       id="path1794" />
    <path
       d="m 232.97324,179.64939 c -1.82334,0 -4.3985,-0.39345 -7.87974,-1.388 -10.61395,-3.02822 -11.00594,-7.05886 -16.41975,-7.05886 -1.31409,0 -2.9254,0.23634 -5.04915,0.78398 -5.93595,-6.2508 -10.13686,-14.16268 -11.8381,-22.96614 2.8483,2.75025 6.36004,5.02505 10.95134,7.31105 11.90878,5.93112 22.06491,16.55633 28.74139,17.77401 5.1664,0.943 7.72713,5.54396 1.49401,5.54396"
       style="fill:#7d9528;fill-opacity:1;fill-rule:nonzero;stroke:none;stroke-width:0.160647"
       id="path1796" />
    <path
       d="m 182.03521,109.85455 c -0.0182,-0.0228 -0.0319,-0.0455 -0.0496,-0.0674 9.56012,-10.92561 21.23274,-19.95399 34.40584,-26.42168 0,0.0137 0,0.0273 0,0.041 -13.14901,6.48053 -24.81521,15.51214 -34.35607,26.44737"
       style="fill:#4f6122;fill-opacity:1;fill-rule:nonzero;stroke:none;stroke-width:0.160647"
       id="path1798" />
    <path
       d="m 187.09236,115.65712 c -1.88918,-1.8105 -3.56474,-3.76074 -5.05715,-5.80257 9.54085,-10.93527 21.20706,-19.96688 34.35601,-26.44737 0.10292,3.14384 0.15438,6.16564 -0.14435,9.02837 -11.25012,5.68208 -21.1669,13.62288 -29.15428,23.22157"
       style="fill:#455e22;fill-opacity:1;fill-rule:nonzero;stroke:none;stroke-width:0.160647"
       id="path1800" />
    <path
       d="m 191.1359,119.05961 c -1.44747,-1.06508 -2.79207,-2.20407 -4.04354,-3.40249 7.98739,-9.59869 17.90416,-17.53949 29.15428,-23.22157 -0.18488,1.75909 -0.50119,3.45874 -1.02168,5.08931 -0.10747,0.3388 -0.21358,0.66991 -0.31831,0.99441 -9.51195,4.80816 -17.67283,11.89271 -23.77098,20.54034"
       style="fill:#567b2b;fill-opacity:1;fill-rule:nonzero;stroke:none;stroke-width:0.160647"
       id="path1802" />
    <path
       d="m 194.86932,121.56092 c -0.54459,-0.35338 -1.11491,-0.72292 -1.70927,-1.10849 -0.69723,-0.44809 -1.37037,-0.91408 -2.02415,-1.39282 6.09815,-8.64763 14.25903,-15.73218 23.77097,-20.54034 -0.16393,0.51085 -0.32149,1.00243 -0.47555,1.47793 -8.62673,4.87246 -15.52817,12.44376 -19.562,21.56372"
       style="fill:#60812a;fill-opacity:1;fill-rule:nonzero;stroke:none;stroke-width:0.160647"
       id="path1804" />
    <path
       d="m 234.11869,164.40879 c -4.17846,0 -9.83804,-2.97039 -16.57882,-14.05344 -12.64777,-20.80223 -5.96482,-17.91699 -22.67055,-28.79443 4.03383,-9.11996 10.93527,-16.69126 19.562,-21.56372 -3.67558,11.44935 -4.26193,13.90885 2.53505,28.5872 7.25645,15.67758 26.70279,30.18885 24.67704,32.22749 -0.9848,0.98157 -3.60172,3.59849 -7.52472,3.5969"
       style="fill:#7d9528;fill-opacity:1;fill-rule:nonzero;stroke:none;stroke-width:0.160647"
       id="path1806" />
    <path
       d="m 215.09964,280.29816 c -1.68358,-0.85461 -3.34148,-1.75102 -4.97205,-2.6876 0,-0.0182 0,-0.0364 0,-0.0578 1.6338,0.94136 3.29648,1.84423 4.98329,2.70208 -0.005,0.0137 -0.009,0.0273 -0.009,0.0455"
       style="fill:#313e29;fill-opacity:1;fill-rule:nonzero;stroke:none;stroke-width:0.160647"
       id="path1808" />
    <path
       d="m 210.12759,277.61056 c -1.80567,-1.03621 -3.58083,-2.12379 -5.319,-3.25955 10e-4,-0.0228 0.004,-0.041 0.005,-0.0642 1.73818,1.1374 3.50851,2.22657 5.31417,3.26597 0,0.0182 0,0.0364 0,0.0578"
       style="fill:#3a4e2a;fill-opacity:1;fill-rule:nonzero;stroke:none;stroke-width:0.160647"
       id="path1810" />
    <path
       d="m 204.80859,274.35101 c -6.59621,-4.30533 -12.696,-9.29828 -18.2094,-14.87753 0.009,-0.0228 0.0228,-0.0455 0.0364,-0.066 5.50056,5.57765 11.59553,10.5722 18.17725,14.87912 -0.001,0.0228 -0.004,0.0455 -0.005,0.0642"
       style="fill:#3d6629;fill-opacity:1;fill-rule:nonzero;stroke:none;stroke-width:0.160647"
       id="path1812" />
    <path
       d="m 215.11088,280.25481 c -1.68681,-0.85785 -3.34949,-1.76072 -4.98329,-2.70208 -1.80567,-1.0394 -3.576,-2.12858 -5.31418,-3.26598 -6.58176,-4.30696 -12.67673,-9.30146 -18.17729,-14.87917 0.31148,-0.54941 0.64099,-1.09076 1.01372,-1.63376 3.19689,-4.74713 7.93437,-8.50469 12.88552,-12.06625 6.04674,4.81139 12.71362,8.87096 19.86884,12.04212 -3.96156,7.58738 -3.79767,16.78283 -5.29332,22.50512"
       style="fill:#455e22;fill-opacity:1;fill-rule:nonzero;stroke:none;stroke-width:0.160647"
       id="path1814" />
    <path
       d="m 220.4042,257.74969 c -7.15522,-3.17116 -13.8221,-7.23073 -19.86884,-12.04212 8.97214,-6.45799 18.64151,-12.27504 21.08015,-22.19181 0.48835,-1.98882 1.13093,-3.91981 1.88759,-5.7849 2.85308,0.95584 5.79774,1.71891 8.81312,2.27156 0.0851,0.36795 0.19125,0.72451 0.31967,1.06509 3.78164,9.99705 10.15612,19.57808 -4.05633,27.99438 -3.8652,2.28764 -6.42429,5.33029 -8.17536,8.6878"
       style="fill:#567b2b;fill-opacity:1;fill-rule:nonzero;stroke:none;stroke-width:0.160647"
       id="path1816" />
    <path
       d="m 232.31622,220.00242 c -3.01538,-0.55265 -5.96004,-1.31572 -8.81312,-2.27156 5.09573,-12.54818 15.36109,-22.02638 18.14031,-25.56544 0.25547,-0.32605 0.38889,-0.4771 0.4194,-0.4771 0.33243,0 -11.93774,18.72183 -9.7465,28.3141"
       style="fill:#60812a;fill-opacity:1;fill-rule:nonzero;stroke:none;stroke-width:0.160647"
       id="path1818" />
    <path
       d="m 160.01206,215.57979 c -0.88034,-2.75991 -1.65466,-5.56805 -2.31815,-8.41954 0.0319,-0.0228 0.0642,-0.0465 0.0947,-0.0706 0.66189,2.85631 1.43458,5.66923 2.31496,8.43397 -0.0319,0.0182 -0.061,0.0364 -0.0915,0.0565"
       style="fill:#313e29;fill-opacity:1;fill-rule:nonzero;stroke:none;stroke-width:0.160647"
       id="path1820" />
    <path
       d="m 166.63071,231.75214 c -2.61209,-5.16964 -4.83388,-10.5738 -6.61865,-16.17235 0.0319,-0.0182 0.061,-0.0364 0.0915,-0.0565 1.77675,5.5905 3.98725,10.98505 6.59456,16.14826 -0.0228,0.0273 -0.0455,0.0528 -0.0674,0.0806"
       style="fill:#3a4e2a;fill-opacity:1;fill-rule:nonzero;stroke:none;stroke-width:0.160647"
       id="path1822" />
    <path
       d="m 166.7737,232.03329 c -0.0483,-0.0933 -0.0947,-0.18625 -0.14299,-0.28097 0.0228,-0.0273 0.0455,-0.0528 0.0674,-0.0802 0.0515,0.10292 0.10428,0.2072 0.15574,0.3083 -0.0273,0.0182 -0.0528,0.0364 -0.0806,0.0528"
       style="fill:#3d6629;fill-opacity:1;fill-rule:nonzero;stroke:none;stroke-width:0.160647"
       id="path1824" />
    <path
       d="m 166.85403,231.98028 c -0.0515,-0.10109 -0.10428,-0.20583 -0.15574,-0.30829 -2.60731,-5.16321 -4.81781,-10.55776 -6.59456,-16.14826 -0.88038,-2.76478 -1.65307,-5.5777 -2.31496,-8.43402 4.05796,-3.00572 7.55686,-6.50462 11.24534,-9.4557 2.70367,10.18185 7.11829,19.66483 12.91922,28.12453 -1.58076,1.18881 -4.00811,2.2105 -7.66607,3.02822 -2.68924,0.60242 -5.17606,1.73176 -7.43314,3.19366"
       style="fill:#455e22;fill-opacity:1;fill-rule:nonzero;stroke:none;stroke-width:0.160647"
       id="path1826" />
    <path
       d="m 181.95328,225.7584 c -5.80097,-8.4597 -10.21559,-17.94272 -12.91926,-28.12453 4.57363,-3.65955 9.43803,-6.47894 16.02458,-6.47894 1.45065,0 2.98482,0.13662 4.61858,0.43216 0.0319,0.005 0.0674,0.0137 0.1011,0.0182 2.82421,4.33912 6.15603,8.31835 9.90712,11.85418 -8.62191,2.41615 -15.89926,1.5181 -16.1097,6.99138 -0.21676,5.97447 3.44267,11.49753 -1.62255,15.30809"
       style="fill:#567b2b;fill-opacity:1;fill-rule:nonzero;stroke:none;stroke-width:0.160647"
       id="path1828" />
    <path
       d="m 199.68553,203.45894 c -3.75113,-3.53583 -7.08295,-7.51507 -9.90712,-11.85419 5.32706,0.95266 10.15289,1.35425 14.44378,1.35425 7.07012,0 12.69436,-1.08917 16.72983,-2.59124 -2.59447,1.74306 -5.92306,4.16562 -9.79145,7.31429 -3.76881,3.06675 -7.74644,4.73106 -11.47504,5.77689"
       style="fill:#60812a;fill-opacity:1;fill-rule:nonzero;stroke:none;stroke-width:0.160647"
       id="path1830" />
    <path
       d="m 336.61006,128.32898 c -3.98884,-6.88532 -8.85164,-13.20361 -14.43413,-18.79893 6.12389,-2.22981 11.40596,-3.70455 19.73715,-5.91988 6.96565,6.84038 13.03006,14.5932 17.99086,23.08022 -4.18165,-0.19126 -7.62112,-0.32787 -10.55613,-0.32787 -5.49896,0 -9.22756,0.4771 -12.73775,1.96632"
       style="fill:#455e22;fill-opacity:1;fill-rule:nonzero;stroke:none;stroke-width:0.160647"
       id="path1832" />
    <path
       d="m 308.28475,148.01794 c -1.20648,-9.39951 -4.42905,-18.17082 -9.21954,-25.86262 2.28919,-2.76956 5.53908,-5.42028 11.08946,-7.79785 4.76158,-2.04019 8.52878,-3.55673 12.02126,-4.82742 5.58249,5.59532 10.44529,11.91361 14.43413,18.79893 -1.92775,0.81608 -3.78806,1.93581 -5.84114,3.44912 -10.24929,7.56165 -4.4515,13.36103 -22.48417,16.23984"
       style="fill:#567b2b;fill-opacity:1;fill-rule:nonzero;stroke:none;stroke-width:0.160647"
       id="path1834" />
    <path
       d="m 281.4229,153.14901 c 1.11167,-3.81858 1.74464,-7.83797 1.82816,-11.99717 1.36067,-0.97993 2.60248,-1.886 3.67722,-2.69243 6.88214,-5.16804 7.72231,-10.95936 12.13693,-16.30409 4.79049,7.6918 8.01306,16.46311 9.21954,25.86262 -1.3639,0.21858 -2.86597,0.41941 -4.51903,0.60242 -7.19539,0.79842 -14.99161,2.52216 -22.34282,4.52865"
       style="fill:#60812a;fill-opacity:1;fill-rule:nonzero;stroke:none;stroke-width:0.160647"
       id="path1836" />
    <path
       d="m 250.35047,163.71156 c 0,0 21.02874,-14.01486 32.90059,-22.55972 -0.0833,4.1592 -0.71649,8.17859 -1.82816,11.99717 -16.67359,4.55114 -31.07243,10.56255 -31.07243,10.56255"
       style="fill:#7d9528;fill-opacity:1;fill-rule:nonzero;stroke:none;stroke-width:0.160647"
       id="path1838" />
    <path
       d="m 373.90596,196.9238 c -2.25226,-1.20324 -5.72065,-1.91008 -11.18104,-1.91008 -0.83216,0 -1.7125,0.0182 -2.64106,0.0496 -5.4604,0.20082 -9.94405,0.44673 -13.76427,0.59919 1.67074,-6.91264 2.55431,-14.13053 2.55431,-21.55725 0,-3.76557 -0.22632,-7.47972 -0.66991,-11.12803 5.44273,-3.65956 10.48067,-6.20421 18.85358,-10.29752 0.96066,-0.46585 2.10448,-1.00083 3.38164,-1.58717 2.89648,9.85247 4.44991,20.2769 4.44991,31.06117 0,5.00575 -0.34062,9.93604 -0.98316,14.76988"
       style="fill:#455e22;fill-opacity:1;fill-rule:nonzero;stroke:none;stroke-width:0.160647"
       id="path1840" />
    <path
       d="m 340.4142,195.80407 c -8.8597,0 -13.94737,-1.35584 -22.13398,-7.12471 -6.37771,-4.49331 -9.49746,-7.34958 -13.62451,-9.47337 1.24181,-3.28843 2.22498,-6.70381 2.92216,-10.22357 7.26128,2.49484 14.3089,4.90775 20.42795,4.90775 3.74148,0 7.13596,-0.90283 10.01314,-3.24184 3.96156,-3.21938 7.13596,-5.62105 10.18503,-7.67094 0.44354,3.64831 0.66991,7.36247 0.66991,11.12804 0,7.42677 -0.88357,14.64465 -2.55431,21.55729 -2.16232,0.0852 -4.11093,0.14117 -5.90539,0.14117"
       style="fill:#567b2b;fill-opacity:1;fill-rule:nonzero;stroke:none;stroke-width:0.160647"
       id="path1842" />
    <path
       d="m 304.65571,179.20599 c -4.13825,-2.13177 -9.28863,-3.52782 -19.75318,-5.10056 -4.92865,-0.73894 -9.92,-1.30766 -14.67675,-1.74783 2.47876,-2.55267 4.66521,-5.39291 6.50298,-8.46289 2.24907,-0.17213 4.45315,-0.27004 6.56246,-0.27004 3.00891,0 5.82347,0.199 8.28297,0.66508 5.25803,0.9976 10.68787,2.86756 16.00368,4.69249 -0.69718,3.5198 -1.68035,6.93514 -2.92216,10.22361"
       style="fill:#60812a;fill-opacity:1;fill-rule:nonzero;stroke:none;stroke-width:0.160647"
       id="path1844" />
    <path
       d="m 270.22578,172.3576 c -15.42057,-1.42975 -28.36069,-1.51491 -28.58237,-1.70927 -0.13661,-0.11885 6.70221,-2.10289 15.77718,-3.93264 5.92465,-1.19364 12.79554,-2.31975 19.30817,-2.82098 -1.83777,3.06998 -4.02422,5.91022 -6.50298,8.46289"
       style="fill:#7d9528;fill-opacity:1;fill-rule:nonzero;stroke:none;stroke-width:0.160647"
       id="path1846" />
    <path
       d="m 296.339,91.33031 c -9.52479,-4.4837 -19.94758,-7.37212 -30.92784,-8.32154 3.57922,-3.56316 6.86287,-5.76405 14.75066,-9.82201 13.61645,1.90371 26.44896,6.28454 37.9979,12.69599 -8.75364,1.20484 -17.25833,2.91092 -21.82072,5.44756"
       style="fill:#455e22;fill-opacity:1;fill-rule:nonzero;stroke:none;stroke-width:0.160647"
       id="path1848" />
    <path
       d="m 288.20544,108.96775 c -8.63161,-8.04681 -19.46406,-13.76104 -31.49493,-16.14185 0.55101,-0.78393 1.22734,-1.63057 2.0579,-2.56232 2.77918,-3.11492 4.75197,-5.37524 6.64275,-7.25481 10.98026,0.94942 21.40305,3.83784 30.92784,8.32154 -1.02652,0.57027 -1.85385,1.18393 -2.44024,1.84259 -6.81305,7.62914 4.03388,11.93128 -5.69332,15.79485"
       style="fill:#567b2b;fill-opacity:1;fill-rule:nonzero;stroke:none;stroke-width:0.160647"
       id="path1850" />
    <path
       d="m 274.94241,113.77112 c -5.05561,-7.21947 -12.12249,-12.92568 -20.39098,-16.3025 0.29873,-1.39118 0.90124,-2.85148 2.15908,-4.64272 12.03087,2.38081 22.86332,8.09504 31.49493,16.14185 -0.62975,0.25045 -1.343,0.49804 -2.15431,0.74541 -6.88532,2.09806 -9.44605,2.57357 -11.10872,4.05796"
       style="fill:#60812a;fill-opacity:1;fill-rule:nonzero;stroke:none;stroke-width:0.160647"
       id="path1852" />
    <path
       d="m 243.40409,158.81824 c -0.0137,0 -0.0182,-0.0137 -0.0182,-0.0455 0,-0.86426 -10.44529,-14.80526 3.19366,-36.57617 9.75134,-15.56997 6.89019,-19.70504 7.97295,-24.72845 8.26853,3.37681 15.33541,9.08297 20.39097,16.3025 -1.55989,1.39277 -2.33258,3.6724 -5.14395,9.00907 -5.80416,11.03486 -12.19795,11.89757 -16.54025,18.28649 -4.21057,6.1721 -9.49746,17.75156 -9.85407,17.75156"
       style="fill:#7d9528;fill-opacity:1;fill-rule:nonzero;stroke:none;stroke-width:0.160647"
       id="path1854" />
    <path
       d="m 275.09819,191.4425 c -6.39857,-5.82506 -11.18905,-11.52321 -12.30396,-12.87746 0.0182,-0.0137 0.0364,-0.0228 0.0528,-0.0364 1.3205,1.17752 6.76806,6.164 12.25095,12.91444"
       style="fill:#60812a;fill-opacity:1;fill-rule:nonzero;stroke:none;stroke-width:0.160647"
       id="path1856" />
    <path
       d="m 262.79423,178.56504 c -0.16211,-0.19763 -0.24727,-0.30374 -0.24727,-0.30374 0,0 0.10428,0.0915 0.30055,0.26686 -0.0182,0.0137 -0.0364,0.0228 -0.0528,0.0364"
       style="fill:#7d9528;fill-opacity:1;fill-rule:nonzero;stroke:none;stroke-width:0.160647"
       id="path1858" />
    <path
       d="m 333.54974,268.09862 c -0.65702,-0.80967 -1.30767,-1.6579 -1.91009,-2.54625 -6.76806,-9.95052 3.11333,-9.36736 -12.6622,-23.81278 4.92063,-4.48047 9.34964,-9.48945 13.19877,-14.9386 9.1328,5.72229 16.01493,13.64218 23.21515,17.88968 -6.10298,8.82118 -13.46709,16.71375 -21.84163,23.40795"
       style="fill:#455e22;fill-opacity:1;fill-rule:nonzero;stroke:none;stroke-width:0.160647"
       id="path1860" />
    <path
       d="m 318.97745,241.73959 c -1.15184,-1.05543 -2.44024,-2.19124 -3.88288,-3.41534 -21.19581,-17.99897 -23.22798,-12.77309 -29.04344,-28.74303 -0.35838,-0.99122 -0.76307,-1.97921 -1.20643,-2.96073 1.71732,-1.39282 3.3591,-2.8708 4.92382,-4.42905 12.60119,6.84515 7.2372,0.89641 16.90174,9.70629 9.86531,9.00429 9.28862,6.10462 22.34924,13.07187 1.08275,0.57673 2.1334,1.1904 3.15672,1.83139 -3.84913,5.44915 -8.27814,10.45813 -13.19877,14.9386"
       style="fill:#567b2b;fill-opacity:1;fill-rule:nonzero;stroke:none;stroke-width:0.160647"
       id="path1862" />
    <path
       d="m 284.8447,206.62049 c -2.45631,-5.43954 -6.11263,-10.70235 -9.74651,-15.17799 4.13188,3.76721 8.94486,7.57613 13.85744,10.30394 0.2796,0.15255 0.54941,0.30192 0.81289,0.4449 -1.56472,1.55831 -3.2065,3.03624 -4.92382,4.42906"
       style="fill:#60812a;fill-opacity:1;fill-rule:nonzero;stroke:none;stroke-width:0.160647"
       id="path1864" />
    <path
       d="m 268.10845,292.12666 c -0.23953,-0.92374 -0.53816,-1.91815 -0.91891,-2.99608 -2.73422,-7.81552 -4.77764,-15.86233 -6.10944,-23.65052 6.07411,-0.23771 11.98915,-1.06832 17.70338,-2.43541 0.16849,7.52471 0.061,14.55466 2.6314,19.69698 1.18235,2.36473 4.84031,4.49331 9.82839,6.24273 -7.4412,1.83782 -15.18118,2.91738 -23.13482,3.1423"
       style="fill:#455e22;fill-opacity:1;fill-rule:nonzero;stroke:none;stroke-width:0.160647"
       id="path1866" />
    <path
       d="m 261.0801,265.48006 c -2.62817,-15.3611 -2.48518,-29.71977 0.59604,-39.3554 0.93335,-2.91574 1.64342,-5.6098 2.14784,-8.12554 2.06915,-0.66185 4.09171,-1.42492 6.06605,-2.28281 -0.62009,11.33851 -0.13343,13.66791 5.42665,26.38476 2.92221,6.67489 3.31097,14.01809 3.4668,20.94358 -5.71423,1.36709 -11.62927,2.19765 -17.70338,2.43541"
       style="fill:#567b2b;fill-opacity:1;fill-rule:nonzero;stroke:none;stroke-width:0.160647"
       id="path1868" />
    <path
       d="m 263.82398,217.99912 c 2.00489,-10.00352 0.7486,-17.19568 -2.73423,-24.38628 -1.80566,-3.73342 -4.76157,-7.71589 -6.85481,-10.52721 0.67952,-0.27141 1.35266,-0.56066 2.0161,-0.86267 10.37944,7.94881 14.71209,15.50249 13.843,29.96877 -0.0756,1.26909 -0.14618,2.437 -0.20401,3.52458 -1.97434,0.85789 -3.9969,1.62096 -6.066,2.28281"
       style="fill:#60812a;fill-opacity:1;fill-rule:nonzero;stroke:none;stroke-width:0.160647"
       id="path1870" />
    <path
       d="m 254.23494,183.08563 c -1.69,-2.26833 -2.81774,-3.77359 -2.3294,-3.77359 0.36613,0 1.637,0.84341 4.25397,2.84184 0.0319,0.0228 0.061,0.0455 0.0915,0.0692 -0.66349,0.30191 -1.33658,0.59117 -2.01614,0.86266"
       style="fill:#7d9528;fill-opacity:1;fill-rule:nonzero;stroke:none;stroke-width:0.160647"
       id="path1872" />
    <path
       d="m 243.34466,161.10105 c -3.69972,1.42976 -2.24588,4.20897 -6.71346,6.53031 -4.46116,2.32617 -5.17765,7.25805 -2.43218,11.67904 2.76151,4.42906 9.29022,5.01704 15.53619,1.96314 6.24438,-3.04106 9.23562,-8.5898 6.90782,-14.3956 -2.33418,-5.82028 -13.29837,-5.77689 -13.29837,-5.77689"
       style="fill:#554a19;fill-opacity:1;fill-rule:nonzero;stroke:none;stroke-width:0.160647"
       id="path1874" />
    <path
       d="m 248.43556,166.90362 c -1.31249,-2.17193 -2.76797,-5.95038 -5.23066,-1.45065 -2.46432,4.50456 -5.08288,3.35431 -7.11346,6.68937 -2.03381,3.33023 -0.72934,7.68214 2.6105,7.97295 3.3463,0.28779 8.42113,-0.29099 10.88709,-3.04913 2.46592,-2.75831 0.58152,-7.54557 -2.3278,-5.95357 -2.9013,1.60325 1.17433,-4.20897 1.17433,-4.20897"
       style="fill:#7e6b1e;fill-opacity:1;fill-rule:nonzero;stroke:none;stroke-width:0.160647"
       id="path1876" />
  </g>
</svg>
