<?xml version="1.0" encoding="UTF-8" standalone="no"?>
<svg
   xmlns:dc="http://purl.org/dc/elements/1.1/"
   xmlns:cc="http://creativecommons.org/ns#"
   xmlns:rdf="http://www.w3.org/1999/02/22-rdf-syntax-ns#"
   xmlns:svg="http://www.w3.org/2000/svg"
   xmlns="http://www.w3.org/2000/svg"
   xmlns:sodipodi="http://sodipodi.sourceforge.net/DTD/sodipodi-0.dtd"
   xmlns:inkscape="http://www.inkscape.org/namespaces/inkscape"
   sodipodi:docname="tomate.svg"
   inkscape:version="1.0 (4035a4fb49, 2020-05-01)"
   id="svg4396"
   version="1.1"
   viewBox="0 0 400 400"
   height="400mm"
   width="400mm">
  <defs
     id="defs4390" />
  <sodipodi:namedview
     inkscape:window-maximized="0"
     inkscape:window-y="0"
     inkscape:window-x="90"
     inkscape:window-height="729"
     inkscape:window-width="1260"
     showgrid="false"
     inkscape:document-rotation="0"
     inkscape:current-layer="layer1"
     inkscape:document-units="mm"
     inkscape:cy="785.05501"
     inkscape:cx="400"
     inkscape:zoom="0.35"
     inkscape:pageshadow="2"
     inkscape:pageopacity="0.0"
     borderopacity="1.0"
     bordercolor="#666666"
     pagecolor="#ffffff"
     id="base" />
  <metadata
     id="metadata4393">
    <rdf:RDF>
      <cc:Work
         rdf:about="">
        <dc:format>image/svg+xml</dc:format>
        <dc:type
           rdf:resource="http://purl.org/dc/dcmitype/StillImage" />
        <dc:title></dc:title>
      </cc:Work>
    </rdf:RDF>
  </metadata>
  <g
     id="layer1"
     inkscape:groupmode="layer"
     inkscape:label="Capa 1">
    <path
       d="m 110.43843,319.77871 c -13.57746,0 -28.63982,-2.10903 -45.384748,-7.30234 -34.914956,-10.83129 -44.11829,-30.81386 -33.92415,-51.22819 11.218767,27.01968 36.836762,43.22112 68.576438,43.22112 5.31552,0 10.81308,-0.45483 16.43286,-1.39125 v 0 c 0.0575,-0.007 0.11441,-0.0221 0.17427,-0.0295 0.0155,-0.002 0.0361,-0.007 0.0523,-0.007 0.0413,-0.006 0.0858,-0.0147 0.13003,-0.0221 0.0155,-0.002 0.0339,-0.007 0.0494,-0.007 0.0597,-0.007 0.11441,-0.0221 0.17427,-0.0295 v 0 c 0.0627,-0.007 0.11964,-0.0221 0.182,-0.0295 0.0133,-0.002 0.0236,-0.006 0.0339,-0.007 0.0523,-0.007 0.0989,-0.0147 0.15341,-0.0295 0.008,-0.002 0.0206,-0.002 0.031,-0.006 0.18466,-0.0369 0.36924,-0.0663 0.5539,-0.0988 0.008,-0.002 0.0133,-0.006 0.0206,-0.006 35.72893,-6.57424 66.05651,-33.9398 72.22761,-64.16592 6.71722,-1.63053 12.97673,-3.98665 18.69273,-6.99546 10.80008,25.53732 38.22546,47.03344 69.64008,52.40102 0.01,0 0.0155,0.002 0.0258,0.006 0.0494,0.007 0.10394,0.0147 0.15348,0.0221 0.014,0.002 0.0258,0.006 0.0391,0.007 0.0597,0.007 0.11957,0.0221 0.17942,0.0295 v 0 c 5.61978,0.93619 11.11473,1.39132 16.43026,1.39132 26.38255,0.002 48.53662,-11.19537 61.70838,-30.48885 18.13623,8.74829 29.30038,25.36055 1.02982,38.39448 -7.56239,3.48479 -16.96596,4.83446 -27.39936,4.83446 -17.83716,0 -38.68835,-3.93984 -58.53312,-7.87968 -19.84479,-3.93984 -38.67795,-7.87969 -52.47126,-7.87969 -6.48577,0 -11.8533,0.8686 -15.69431,3.01928 -19.19984,10.75322 -47.94629,34.27779 -93.28424,34.27779"
       style="fill:#525e20;fill-opacity:1;fill-rule:nonzero;stroke:none;stroke-width:0.260054"
       id="path4244" />
    <path
       d="m 157.49014,113.75813 c -18.42488,1.3757 -60.07785,-4.74335 -74.83596,40.05369 -14.755506,44.79437 33.20119,87.4798 84.32016,87.4798 51.12156,0 85.37596,-36.36086 77.99822,-86.4292 -7.37775,-50.06576 -48.4118,-44.02471 -87.48242,-41.10429"
       style="fill:#dc1e26;fill-opacity:1;fill-rule:nonzero;stroke:none;stroke-width:0.260054"
       id="path4246" />
    <path
       d="m 230.34448,123.51802 c 2.32228,5.03726 4.08807,11.0133 5.14129,18.17004 7.38035,50.06569 -26.87667,86.42913 -77.99563,86.42913 -27.33956,0 -53.77152,-12.21214 -70.19138,-30.42375 14.01435,25.25388 46.17012,43.59818 79.67558,43.59818 51.12156,0 85.37596,-36.36086 77.99822,-86.4292 -2.19747,-14.91414 -7.40116,-24.82227 -14.62808,-31.3444"
       style="fill:#a91d2e;fill-opacity:1;fill-rule:nonzero;stroke:none;stroke-width:0.260054"
       id="path4248" />
    <path
       d="m 185.34721,203.69808 c -0.12746,-0.2499 -0.25742,-0.50201 -0.38746,-0.75412 -4.61077,-8.78986 -10.02771,-15.15866 -15.87634,-19.72258 0.52789,-0.26243 1.05582,-0.53592 1.58113,-0.81656 17.77734,-9.4634 27.59961,-19.25963 31.23778,-26.34355 1.4173,6.06184 4.94884,13.68145 8.72224,19.00222 -3.72659,6.02284 -8.68323,12.63343 -15.1898,19.85254 -3.13626,3.47698 -6.51957,6.38958 -10.08752,8.78205 m -89.1234,-27.25116 c -1.70076,-3.70055 -2.91521,-7.57796 -3.55495,-11.56977 -0.57211,-3.57576 -0.68652,-6.86549 -0.41089,-9.89251 1.09483,7.67682 5.25571,14.9193 11.51782,20.80179 -2.51473,0.22631 -5.03206,0.43935 -7.55199,0.66049 m 118.68899,-9.10971 c -1.02461,-3.32092 -1.77877,-6.69381 -1.54212,-9.45301 0.79056,-9.22154 -9.22154,-17.12459 -11.33059,-18.96839 -1.39129,-1.21963 4.46514,-2.32486 11.41381,-2.32486 2.02842,0 4.15047,0.0936 6.2101,0.30666 1.87759,6.78227 1.8984,16.83334 -4.7512,30.43945 M 186.15337,147.5104 c -2.23387,0 -4.57176,-0.18945 -6.97207,-0.53076 0.32767,-5.00084 1.47451,-8.16312 3.3391,-8.16312 0.55914,0 1.18065,0.28381 1.8672,0.88681 2.49132,2.1974 6.93565,3.82536 10.75586,6.51431 -0.24967,0.059 -0.50451,0.1349 -0.76196,0.21082 -2.49653,0.74896 -5.27131,1.08179 -8.22813,1.08179 m -29.96611,-6.99804 c -1.22486,-0.47325 -2.43671,-0.95698 -3.62517,-1.44587 0.63455,-0.0862 1.20146,-0.13269 1.69036,-0.13269 1.26387,0 1.99462,0.31182 1.94001,1.03505 -0.0133,0.17176 -0.0155,0.35089 -0.005,0.54329 m -50.48956,-7.74965 c 10.92489,-7.49473 26.26033,-9.94705 37.5415,-9.94705 2.3769,0 4.57697,0.1091 6.51437,0.3015 0.47068,1.60716 -5.6874,3.99181 -14.79451,8.13452 -3.05045,-0.90502 -7.30754,-1.47971 -11.96772,-1.47971 -5.6536,0 -11.89751,0.84774 -17.29364,2.9906 m 111.94837,-1.01419 c -11.35659,-4.90722 -15.62149,-7.6508 -22.88482,-7.6508 -0.62151,0 -1.26907,0.0147 -1.94261,0.059 -0.39785,0.0221 -0.75416,0.0369 -1.06882,0.0369 -2.86321,0 -2.45232,-0.93886 -0.27047,-1.87505 0.0989,-0.0442 0.20287,-0.0833 0.30946,-0.12753 0.74116,-0.0147 1.47191,-0.0221 2.20007,-0.0221 9.72865,0 18.12321,1.44587 21.99803,6.87324 0.54093,0.75677 1.11043,1.65913 1.65915,2.70716"
       style="fill:#ed1c24;fill-opacity:1;fill-rule:nonzero;stroke:none;stroke-width:0.260054"
       id="path4250" />
    <path
       d="m 92.25801,154.98464 c -0.0546,-0.38996 -0.10144,-0.78279 -0.14301,-1.17282 -1.13644,-11.25781 5.19849,-17.71757 13.58266,-21.04889 -7.21912,4.95404 -12.51384,12.11336 -13.43964,22.22171"
       style="fill:#ed1c24;fill-opacity:1;fill-rule:nonzero;stroke:none;stroke-width:0.260054"
       id="path4252" />
    <path
       d="m 169.08338,183.22138 c -0.22107,-0.17397 -0.44465,-0.34352 -0.66831,-0.51233 5.83042,-7.02406 12.05874,-16.70588 11.22916,-23.76901 -0.53569,-4.53532 -0.67878,-8.64943 -0.46286,-11.95988 2.4003,0.34057 4.73819,0.53075 6.97206,0.53075 2.95682,0 5.73161,-0.33246 8.22814,-1.08178 0.25742,-0.0752 0.51233,-0.14817 0.76196,-0.21083 3.05044,2.14544 5.6978,4.96708 6.63399,9.29695 0.0391,0.18208 0.0806,0.36416 0.12481,0.54624 -3.63817,7.08392 -13.46044,16.88015 -31.23778,26.34356 -0.52531,0.28085 -1.05323,0.5536 -1.58113,0.81655 m -6.98251,-4.53267 c -8.87567,-4.71224 -18.35726,-6.13732 -27.31875,-6.13732 -11.8559,0 -22.7964,2.49397 -30.21576,3.16486 -0.26265,0.0221 -0.52788,0.0442 -0.79057,0.0737 -6.26211,-5.88227 -10.423,-13.12475 -11.51782,-20.80157 0.92579,-10.10835 6.2205,-17.26767 13.43962,-22.2217 5.39614,-2.14286 11.64005,-2.9906 17.29364,-2.9906 4.66019,0 8.91728,0.57499 11.96773,1.47971 -5.1907,2.36128 -11.3384,5.29467 -17.76694,8.97967 -19.76156,11.32799 -21.3427,14.22762 -21.3427,14.22762 0,0 27.14191,-3.16228 35.17761,-7.6404 5.6848,-3.16752 16.04797,-6.99553 21.53513,-7.75223 1.18845,0.48874 2.40031,0.97254 3.62517,1.44587 0.182,3.62773 4.3117,10.80011 6.06447,21.06186 0.90239,5.29209 0.60595,11.5958 -0.15082,17.1142"
       style="fill:#ee283d;fill-opacity:1;fill-rule:nonzero;stroke:none;stroke-width:0.260054"
       id="path4254" />
    <path
       d="m 218.37676,132.06344 c -12.91172,-5.53403 -16.86455,-8.43101 -25.55818,-7.90571 -3.99965,0.24179 -3.76299,-0.79834 -1.33928,-1.83855 2.845,-1.21971 8.70143,-2.44193 14.251,-1.58638 5.29211,0.81398 8.48818,-0.75154 8.75864,-2.31189 0.25483,-1.47189 -2.08304,-2.94379 -7.70542,-2.43146 -11.59584,1.05319 -9.83267,-4.43396 -23.00705,-6.80564 -13.17437,-2.36909 -23.63377,-0.0368 -38.73515,2.68637 -12.06654,2.17663 -10.98471,5.17246 -21.25948,3.59132 -10.27736,-1.58115 19.76156,4.48077 25.03288,6.85244 5.2661,2.37168 -11.8585,6.58722 -31.62266,17.91778 -19.76156,11.32799 -21.3427,14.22762 -21.3427,14.22762 0,0 27.14191,-3.16228 35.17761,-7.6404 8.03829,-4.47819 25.42815,-10.2748 25.16549,-6.84987 -0.26523,3.42494 4.21289,10.80269 6.05928,21.60537 1.84379,10.80526 -1.31848,25.82599 -3.16226,29.77623 -1.8464,3.95289 22.13325,-18.97097 20.55472,-32.41063 -1.58373,-13.43701 0.26007,-23.18909 4.7434,-19.2362 4.48075,3.95282 15.28342,6.05926 17.38987,15.81134 2.10644,9.74942 10.0121,23.97704 15.54607,25.82341 5.53396,1.84379 -4.74341,-14.23019 -3.95284,-23.45432 0.79057,-9.22154 -9.22154,-17.12466 -11.33058,-18.96846 -2.10645,-1.84637 12.38381,-3.42751 22.13585,-1.31841 9.74947,2.10644 7.11251,0 -5.79921,-5.53396"
       style="fill:#3f5026;fill-opacity:1;fill-rule:nonzero;stroke:none;stroke-width:0.260054"
       id="path4256" />
    <path
       d="m 154.88179,87.666826 c 0,0 13.24719,8.19954 11.98853,25.693464 -0.65792,9.14089 -3.91123,13.32002 -3.91123,13.32002 h 14.05856 c 0,0 7.1125,-8.18399 3.16487,-23.20214 -3.95544,-15.020734 7.50518,-33.991774 -25.30073,-15.811344"
       style="fill:#468232;fill-opacity:1;fill-rule:nonzero;stroke:none;stroke-width:0.260054"
       id="path4258" />
    <path
       d="m 107.92631,145.72668 c -4.38453,4.43131 -9.64804,8.42836 -9.64804,8.42836 0,0 24.49716,-12.77386 39.25267,-15.10396 14.75811,-2.33268 26.92346,-15.10395 26.92346,-15.10395 0,0 -14.01175,3.02443 -25.33973,8.29308 -11.33058,5.27131 -26.80645,9.05775 -31.18836,13.48647"
       style="fill:#468232;fill-opacity:1;fill-rule:nonzero;stroke:none;stroke-width:0.260054"
       id="path4260" />
    <path
       d="m 142.01168,111.87018 c -13.43963,2.45232 -23.71179,2.1896 -23.71179,2.1896 0,0 15.28081,4.21554 28.19253,4.21554 12.91172,0 15.28602,-6.40514 15.28602,-6.40514 0,0 -6.32713,-2.45232 -19.76676,0"
       style="fill:#468232;fill-opacity:1;fill-rule:nonzero;stroke:none;stroke-width:0.260054"
       id="path4262" />
    <path
       d="m 162.29595,185.7699 c -0.22623,0.3332 -0.3615,0.51749 -0.3615,0.51749 0,0 0.14301,-0.10689 0.3615,-0.51749"
       style="fill:#468232;fill-opacity:1;fill-rule:nonzero;stroke:none;stroke-width:0.260054"
       id="path4264" />
    <path
       d="m 171.78795,154.15504 c -0.79057,-17.69929 -13.17698,-23.84177 -12.38381,-15.10396 0,0 5.35713,14.53443 5.05026,30.08053 -0.23146,11.58806 -1.51611,15.43163 -2.15845,16.63829 1.84379,-2.70458 10.19675,-15.85815 9.492,-31.61486"
       style="fill:#468232;fill-opacity:1;fill-rule:nonzero;stroke:none;stroke-width:0.260054"
       id="path4266" />
    <path
       d="m 173.30147,84.283546 c -6.57419,-2.37691 -9.4842,-0.59268 -13.04174,3.75518 0,0 10.07971,11.89229 9.48679,23.831454 -0.59555,11.9391 7.31014,8.97445 6.91746,-5.84865 -0.39792,-14.820514 3.21427,-19.361074 -3.36251,-21.737984"
       style="fill:#87c837;fill-opacity:1;fill-rule:nonzero;stroke:none;stroke-width:0.260054"
       id="path4268" />
    <path
       d="m 290.22209,156.74779 c -18.39889,-1.66437 -58.48373,-14.53966 -80.39073,27.23036 -21.90961,41.76479 18.39367,91.74467 68.82089,100.13144 50.42461,8.38944 90.18179,-21.85754 91.12319,-72.45642 0.9362,-50.59887 -40.52953,-51.37385 -79.55335,-54.90538"
       style="fill:#ed1c24;fill-opacity:1;fill-rule:nonzero;stroke:none;stroke-width:0.260054"
       id="path4270" />
    <path
       d="m 360.48887,178.33237 c 1.46412,5.34929 2.22609,11.53343 2.08825,18.7681 -0.9336,50.59629 -40.69337,80.84585 -91.1206,72.45907 -26.96766,-4.48593 -51.03834,-20.87461 -64.24911,-41.53331 9.68444,27.21473 38.39188,50.58582 71.44484,56.08336 50.42461,8.38944 90.18179,-21.85754 91.12319,-72.45642 0.27562,-15.07535 -3.22729,-25.70119 -9.28657,-33.3208"
       style="fill:#cf2027;fill-opacity:1;fill-rule:nonzero;stroke:none;stroke-width:0.260054"
       id="path4272" />
    <path
       d="m 281.40624,254.64541 c -32.30661,0 -63.69782,-28.45516 -63.51578,-58.10924 0.0236,-3.62515 0.44989,-6.89145 1.22225,-9.83523 -0.50709,21.37647 22.54154,43.35108 52.36462,43.35108 6.5586,0.003 13.44224,-1.06099 20.47672,-3.42493 37.71574,-12.67766 45.01549,-31.74224 31.49524,-31.74224 -0.68136,0 -1.41472,0.0442 -2.19747,0.14596 -0.97261,0.12458 -1.97122,0.18429 -2.99583,0.18429 -16.25863,0 -38.77937,-14.90898 -50.8147,-23.55841 -3.85922,-2.77475 -13.268,-5.52614 -22.7678,-5.52614 -2.93342,0 -5.87464,0.26243 -8.66502,0.8686 7.53899,-3.51856 16.46927,-4.79024 24.82483,-4.79024 9.32036,0 17.93337,1.58373 23.10847,3.38852 16.15979,5.63797 54.26302,1.10007 61.47695,15.82431 3.98923,8.14492 8.32694,30.23401 -31.08437,61.61217 -10.21494,8.12936 -21.62615,11.6115 -32.92811,11.6115"
       style="fill:#ef2e47;fill-opacity:1;fill-rule:nonzero;stroke:none;stroke-width:0.260054"
       id="path4274" />
    <path
       d="m 219.11271,186.70094 c 0.0103,-0.38996 0.0258,-0.78022 0.0523,-1.1729 0.72552,-11.28634 8.02788,-16.6175 16.84374,-18.52889 -7.93167,3.69798 -14.32381,9.88993 -16.89575,19.70179"
       style="fill:#ef2e47;fill-opacity:1;fill-rule:nonzero;stroke:none;stroke-width:0.260054"
       id="path4276" />
    <path
       d="m 271.47733,230.05202 c -29.82308,0 -52.87172,-21.97461 -52.36462,-43.35108 2.57195,-9.81186 8.96409,-16.00381 16.89576,-19.70179 2.79038,-0.60595 5.7316,-0.8686 8.66502,-0.8686 9.4998,0 18.90858,2.75139 22.7678,5.52622 12.03533,8.64942 34.55607,23.55833 50.8147,23.55833 1.02461,0 2.02322,-0.059 2.99583,-0.18429 0.78275,-0.0988 1.51611,-0.14596 2.19747,-0.14596 13.52025,0 6.2205,19.06458 -31.49524,31.74231 -7.03448,2.36387 -13.91812,3.42752 -20.47672,3.42486"
       style="fill:#f1435b;fill-opacity:1;fill-rule:nonzero;stroke:none;stroke-width:0.260054"
       id="path4278" />
    <path
       d="m 347.2833,184.79729 c -11.82989,-7.57797 -15.25482,-11.08612 -23.91724,-11.99114 -8.66762,-0.90752 3.42233,-4.5093 13.29921,-1.26121 9.87426,3.24543 13.42662,-3.64336 1.81778,-4.5068 -11.61145,-0.86336 -8.97189,-5.98642 -21.57675,-10.48798 -12.61004,-4.49898 -23.31131,-3.9164 -38.65193,-3.7058 -12.25899,0.1666 -11.68686,3.30013 -21.56114,0.0516 -9.88209,-3.24543 18.75255,7.66127 23.56876,10.86513 4.8084,3.20385 -12.77909,4.55095 -34.1374,12.48783 -21.35048,7.93166 -23.38932,10.53222 -23.38932,10.53222 0,0 27.29535,1.33404 35.95777,-1.7658 8.66243,-3.09984 26.77005,-5.96306 25.95088,-2.62917 -0.82438,3.33655 2.38209,11.34878 2.4289,22.30752 0.0472,10.9639 -5.53657,25.25911 -8.00448,28.85566 -2.46792,3.59654 24.94706,-15.08317 25.59198,-28.60083 0.64752,-13.51242 4.06466,-22.82758 7.83805,-18.1934 3.7682,4.63159 14.07938,8.48298 14.55787,18.4509 0.48115,9.9601 5.94226,25.29287 11.09914,28.02347 5.15689,2.72537 -2.3457,-14.81793 -0.0464,-23.78457 2.29107,-8.9667 -6.29074,-18.40932 -8.06689,-20.57296 -1.77618,-2.16623 12.77909,-1.3471 22.05003,2.33268 9.27356,3.67719 7.01627,1.16766 -4.80841,-6.41038"
       style="fill:#3f5026;fill-opacity:1;fill-rule:nonzero;stroke:none;stroke-width:0.260054"
       id="path4280" />
    <path
       d="m 291.93324,130.58366 c 0,0 11.72067,10.26183 7.6066,27.31101 -2.14804,8.90942 -6.04367,12.49823 -6.04367,12.49823 l 13.86873,2.30666 c 0,0 8.36076,-6.90442 6.92786,-22.36988 -1.43811,-15.46288 12.98452,-32.2988 -22.35952,-19.74602"
       style="fill:#468232;fill-opacity:1;fill-rule:nonzero;stroke:none;stroke-width:0.260054"
       id="path4282" />
    <path
       d="m 236.08388,180.15014 c -5.05286,3.65375 -10.90149,6.7328 -10.90149,6.7328 0,0 26.26554,-8.58183 41.20307,-8.45961 14.93755,0.12237 29.03252,-10.48275 29.03252,-10.48275 0,0 -14.31862,0.6863 -26.35656,4.02565 -12.04052,3.33905 -27.92727,4.53274 -32.97754,8.18391"
       style="fill:#468232;fill-opacity:1;fill-rule:nonzero;stroke:none;stroke-width:0.260054"
       id="path4284" />
    <path
       d="m 275.26373,152.34508 c -13.65806,0.21599 -23.7508,-1.73196 -23.7508,-1.73196 0,0 14.38364,6.66779 27.11851,8.78728 12.74008,2.11683 16.12859,-3.80981 16.12859,-3.80981 0,0 -5.83822,-3.45877 -19.4963,-3.24551"
       style="fill:#468232;fill-opacity:1;fill-rule:nonzero;stroke:none;stroke-width:0.260054"
       id="path4286" />
    <path
       d="m 283.146,228.57232 c -0.27828,0.29118 -0.44208,0.44967 -0.44208,0.44967 0,0 0.15857,-0.0804 0.44208,-0.44967"
       style="fill:#468232;fill-opacity:1;fill-rule:nonzero;stroke:none;stroke-width:0.260054"
       id="path4288" />
    <path
       d="m 297.69607,198.94691 c 2.12723,-17.59011 -9.08373,-25.6804 -9.73386,-16.93219 0,0 2.897,15.2132 0.0442,30.49924 -2.12985,11.393 -4.02826,14.97392 -4.86043,16.05836 2.26248,-2.36386 12.66207,-13.97013 14.55007,-29.62541"
       style="fill:#468232;fill-opacity:1;fill-rule:nonzero;stroke:none;stroke-width:0.260054"
       id="path4290" />
    <path
       d="m 310.65978,130.26904 c -6.09827,-3.42494 -9.26055,-2.14286 -13.48383,1.56293 0,0 7.98888,13.38762 5.44555,25.06406 -2.54334,11.68168 5.73941,10.05373 7.78604,-4.63417 2.03882,-14.68267 6.34794,-18.57054 0.25225,-21.99282"
       style="fill:#87c837;fill-opacity:1;fill-rule:nonzero;stroke:none;stroke-width:0.260054"
       id="path4292" />
    <path
       d="m 104.5664,175.71617 c 18.40147,-1.66429 58.48631,-14.537 80.39332,27.22779 21.90702,41.76736 -18.39367,91.74466 -68.82089,100.13409 -50.427215,8.38936 -90.184382,-21.8602 -91.123181,-72.45649 -0.9388,-50.59888 40.529536,-51.37644 79.550751,-54.90539"
       style="fill:#ed1c24;fill-opacity:1;fill-rule:nonzero;stroke:none;stroke-width:0.260054"
       id="path4294" />
    <path
       d="m 34.304803,197.29817 c -1.469306,5.35188 -2.228665,11.53602 -2.09344,18.7681 0.936197,50.59888 40.695966,80.84844 91.120587,72.45908 26.96768,-4.48593 51.03835,-20.87196 64.24913,-41.53332 -9.68185,27.21474 -38.38929,50.58841 -71.44225,56.08602 -50.427215,8.38936 -90.184382,-21.8602 -91.123181,-72.45649 -0.278279,-15.07536 3.227278,-25.70385 9.289154,-33.32339"
       style="fill:#cf2027;fill-opacity:1;fill-rule:nonzero;stroke:none;stroke-width:0.260054"
       id="path4296" />
    <path
       d="m 113.38485,273.61379 c -11.30458,0 -22.71318,-3.48213 -32.92813,-11.614 -39.411298,-31.37565 -35.073579,-53.46725 -31.08434,-61.60959 7.211313,-14.72431 45.31974,-10.18892 61.47434,-15.82696 5.17509,-1.80472 13.7907,-3.38587 23.11106,-3.38587 8.35556,0 17.28324,1.26903 24.82223,4.78758 -2.78779,-0.603 -5.7316,-0.86594 -8.66242,-0.86594 -9.4998,0 -18.90858,2.75131 -22.7678,5.52356 -12.03533,8.64936 -34.55607,23.56091 -50.81729,23.56091 -1.024622,0 -2.023227,-0.059 -2.993238,-0.18208 -0.785359,-0.10172 -1.518718,-0.14817 -2.200063,-0.14817 -13.515045,0 -6.215302,19.06201 31.495231,31.73967 7.03708,2.36651 13.91813,3.42758 20.47671,3.42758 29.82308,0 52.87434,-21.97468 52.36723,-43.35116 0.76976,2.94121 1.19625,6.21009 1.21966,9.83265 0.18466,29.65408 -31.20917,58.1119 -63.51318,58.1119"
       style="fill:#ef2e47;fill-opacity:1;fill-rule:nonzero;stroke:none;stroke-width:0.260054"
       id="path4298" />
    <path
       d="m 175.67837,205.66932 c -2.57194,-9.81709 -8.96409,-16.00381 -16.89836,-19.70437 8.81845,1.91139 16.12079,7.24256 16.84634,18.53147 0.0236,0.38996 0.0413,0.7828 0.0523,1.1729"
       style="fill:#ef2e47;fill-opacity:1;fill-rule:nonzero;stroke:none;stroke-width:0.260054"
       id="path4300" />
    <path
       d="m 123.31114,249.02041 c -6.55858,0 -13.43963,-1.061 -20.47671,-3.42751 -37.710533,-12.67766 -45.010276,-31.73967 -31.495231,-31.73967 0.68136,0 1.414704,0.0442 2.200063,0.14817 0.970011,0.12237 1.968616,0.18208 2.993238,0.18208 16.26122,0 38.78196,-14.91155 50.81729,-23.56098 3.85922,-2.77218 13.268,-5.52357 22.7678,-5.52357 2.93082,0 5.87463,0.26243 8.66242,0.86602 7.93427,3.70056 14.32642,9.88728 16.89836,19.7043 0.50709,21.37655 -22.54415,43.35116 -52.36723,43.35116"
       style="fill:#f1435b;fill-opacity:1;fill-rule:nonzero;stroke:none;stroke-width:0.260054"
       id="path4302" />
    <path
       d="m 47.510387,203.76309 c 11.827288,-7.57538 15.249612,-11.08354 23.91203,-11.99113 8.667633,-0.90495 -3.419714,-4.50672 -13.296594,-1.25864 -9.87688,3.24551 -13.42663,-3.64601 -1.817785,-4.50679 11.611446,-0.86595 8.971887,-5.98901 21.576742,-10.48799 12.60746,-4.50156 23.31131,-3.9164 38.65194,-3.70837 12.25898,0.1666 11.68425,3.30013 21.56113,0.059 9.88209,-3.24809 -18.75514,7.66119 -23.56616,10.86512 -4.81101,3.20386 12.77649,4.55095 34.13479,12.48519 21.3479,7.9343 23.38933,10.53479 23.38933,10.53479 0,0 -27.29535,1.33154 -35.95778,-1.76572 -8.66502,-3.09985 -26.77003,-5.96564 -25.95086,-2.62917 0.82437,3.33648 -2.3821,11.34877 -2.43151,22.30752 -0.0442,10.96132 5.53656,25.25911 8.00708,28.85307 2.46792,3.59655 -24.94705,-15.08058 -25.59198,-28.59824 -0.64494,-13.51507 -4.06726,-22.83023 -7.83805,-18.19606 -3.7682,4.63683 -14.079363,8.48563 -14.560465,18.4509 -0.475913,9.96269 -5.942257,25.29553 -11.096538,28.02355 -5.159486,2.72795 2.343095,-14.81536 0.04718,-23.78206 -2.291081,-8.96663 6.288127,-18.40925 8.066901,-20.5729 1.776173,-2.1663 -12.779091,-1.34967 -22.052646,2.33268 -9.270954,3.67719 -7.016275,1.16502 4.813616,-6.41295"
       style="fill:#3f5026;fill-opacity:1;fill-rule:nonzero;stroke:none;stroke-width:0.260054"
       id="path4304" />
    <path
       d="m 102.85524,149.55212 c 0,0 -11.72067,10.2591 -7.60661,27.31093 2.15066,8.90943 6.04627,12.49565 6.04627,12.49565 l -13.86871,2.30666 c 0,0 -8.36076,-6.90183 -6.92786,-22.36472 1.4355,-15.46804 -12.987131,-32.30403 22.35691,-19.74852"
       style="fill:#468232;fill-opacity:1;fill-rule:nonzero;stroke:none;stroke-width:0.260054"
       id="path4306" />
    <path
       d="m 158.70719,199.11852 c 5.05027,3.65117 10.9015,6.73023 10.9015,6.73023 0,0 -26.26293,-8.57918 -41.20307,-8.45696 -14.93755,0.12237 -29.03512,-10.48283 -29.03512,-10.48283 0,0 14.31862,0.68409 26.35655,4.02307 12.04313,3.34171 27.92728,4.53532 32.98014,8.18649"
       style="fill:#468232;fill-opacity:1;fill-rule:nonzero;stroke:none;stroke-width:0.260054"
       id="path4308" />
    <path
       d="m 119.52474,171.31347 c 13.66068,0.21599 23.75081,-1.73197 23.75081,-1.73197 0,0 -14.38103,6.66521 -27.11591,8.78463 -12.74008,2.11949 -16.1312,-3.80981 -16.1312,-3.80981 0,0 5.83823,-3.45346 19.4963,-3.24285"
       style="fill:#468232;fill-opacity:1;fill-rule:nonzero;stroke:none;stroke-width:0.260054"
       id="path4310" />
    <path
       d="m 111.64249,247.5407 c 0.28085,0.29118 0.44207,0.44967 0.44207,0.44967 0,0 -0.15606,-0.0803 -0.44207,-0.44967"
       style="fill:#468232;fill-opacity:1;fill-rule:nonzero;stroke:none;stroke-width:0.260054"
       id="path4312" />
    <path
       d="m 97.09243,217.91272 c -2.12466,-17.59011 9.08631,-25.68048 9.73904,-16.9322 0,0 -2.90221,15.21579 -0.0464,30.49924 2.12725,11.39558 4.02825,14.97392 4.85782,16.06094 -2.25987,-2.36386 -12.65946,-13.97012 -14.55006,-29.62798"
       style="fill:#468232;fill-opacity:1;fill-rule:nonzero;stroke:none;stroke-width:0.260054"
       id="path4314" />
    <path
       d="m 84.1339,149.23742 c 6.09568,-3.42493 9.25795,-2.14286 13.48123,1.56036 0,0 -7.99148,13.38762 -5.44555,25.06922 2.54074,11.67909 -5.7394,10.05114 -7.78603,-4.63676 C 82.34472,156.545 78.03301,152.6597 84.13387,149.23742"
       style="fill:#87c837;fill-opacity:1;fill-rule:nonzero;stroke:none;stroke-width:0.260054"
       id="path4316" />
  </g>
</svg>
