<?xml version="1.0" encoding="UTF-8" standalone="no"?>
<svg
   xmlns:dc="http://purl.org/dc/elements/1.1/"
   xmlns:cc="http://creativecommons.org/ns#"
   xmlns:rdf="http://www.w3.org/1999/02/22-rdf-syntax-ns#"
   xmlns:svg="http://www.w3.org/2000/svg"
   xmlns="http://www.w3.org/2000/svg"
   xmlns:sodipodi="http://sodipodi.sourceforge.net/DTD/sodipodi-0.dtd"
   xmlns:inkscape="http://www.inkscape.org/namespaces/inkscape"
   sodipodi:docname="zanahoria.svg"
   inkscape:version="1.0 (4035a4fb49, 2020-05-01)"
   id="svg1902"
   version="1.1"
   viewBox="0 0 400 400"
   height="400mm"
   width="400mm">
  <defs
     id="defs1896">
    <clipPath
       clipPathUnits="userSpaceOnUse"
       id="clipPath1532">
      <path
         d="m 3735.97,8981.28 c -296.9,0 -541.67,105.08 -541.67,105.08 -90.17,10.02 -317.25,108.6 -176.33,134.47 6.2,1.13 12.64,2.15 19.31,3.05 11.75,-26.74 32.7,-49.25 67.49,-64.2 26.72,-11.49 66.72,-19.83 109.93,-25.94 l -0.56,-1.44 c 0,0 55.35,-6.81 134.79,-15.3 -8.28,-27.18 7.07,-49.14 33.52,-68.87 12.41,-9.27 51.66,-12.9 105.55,-12.9 195.7,0 584.63,47.9 584.63,47.9 l -0.56,1.43 c 43.21,6.12 83.21,14.45 109.93,25.94 55.83,23.99 76.01,67.45 79.75,116.57 40.11,-5.87 80.68,-14.2 121.95,-25.67 249.05,-69.17 -245.89,-198.02 -574.62,-217.94 -24.64,-1.49 -49.05,-2.18 -73.11,-2.18"
         id="path1530" />
    </clipPath>
  </defs>
  <sodipodi:namedview
     inkscape:window-maximized="0"
     inkscape:window-y="0"
     inkscape:window-x="78"
     inkscape:window-height="729"
     inkscape:window-width="1260"
     showgrid="false"
     inkscape:document-rotation="0"
     inkscape:current-layer="layer1"
     inkscape:document-units="mm"
     inkscape:cy="730.6308"
     inkscape:cx="414.20408"
     inkscape:zoom="0.24748737"
     inkscape:pageshadow="2"
     inkscape:pageopacity="0.0"
     borderopacity="1.0"
     bordercolor="#666666"
     pagecolor="#ffffff"
     id="base" />
  <metadata
     id="metadata1899">
    <rdf:RDF>
      <cc:Work
         rdf:about="">
        <dc:format>image/svg+xml</dc:format>
        <dc:type
           rdf:resource="http://purl.org/dc/dcmitype/StillImage" />
        <dc:title></dc:title>
      </cc:Work>
    </rdf:RDF>
  </metadata>
  <g
     id="layer1"
     inkscape:groupmode="layer"
     inkscape:label="Capa 1">
    <g
       id="g1526"
       transform="matrix(0.21130536,0,0,-0.21130536,-565.58951,2186.4521)">
      <g
         id="g1528"
         clip-path="url(#clipPath1532)">
        <path
           d="m 2877.05,8981.28 h 1755.7 v 245.793 h -1755.7 z"
           style="fill:#525e20;fill-opacity:1;fill-rule:nonzero;stroke:none"
           id="path1534" />
      </g>
    </g>
    <path
       d="m 184.79573,122.84841 c -18.75757,-9.54887 -33.06506,3.52671 -44.48611,17.28902 -12.69522,15.29006 -17.84474,45.85327 10.9266,61.99698 4.7924,2.68995 9.4052,5.0629 13.78978,7.18442 l -0.0105,0.006 c 0,0 0.16904,0.0778 0.51561,0.24079 2.31168,1.11565 4.54939,2.14894 6.71105,3.11461 9.80245,4.55784 30.37304,14.1596 66.52104,31.14009 54.69427,25.69049 65.14755,17.66301 64.2326,0.46061 -0.80066,-15.14217 -98.971,-107.3727 -98.971,-107.3727 l -0.15849,0.28752 c -6.8336,-6.19336 -13.59327,-11.56264 -19.0703,-14.34979"
       style="fill:#dd2a24;fill-opacity:1;fill-rule:nonzero;stroke:none;stroke-width:0.211304"
       id="path1536" />
    <path
       d="m 130.66987,174.73025 v 0 c -0.80719,-4.81989 -0.6466,-9.69682 0.24301,-14.35612 -0.8896,4.6593 -1.05019,9.53623 -0.24301,14.35612"
       style="fill:#a6631d;fill-opacity:1;fill-rule:nonzero;stroke:none;stroke-width:0.211304"
       id="path1538" />
    <path
       d="m 174.94045,194.89088 c -0.0485,-0.0239 -0.0951,-0.0419 -0.1437,-0.0677 0.0252,-0.0239 0.0509,-0.0419 0.0761,-0.0635 0.0384,0.018 0.0867,0.0419 0.1437,0.0677 -0.0252,0.0239 -0.0509,0.0419 -0.0761,0.0635 m -37.74547,-17.53412 c -2.10672,-0.88115 -4.28105,-1.76015 -6.52511,-2.62651 -0.80719,-4.81989 -0.6466,-9.69682 0.24301,-14.35612 1.48336,-7.75914 4.98469,-14.92026 9.39674,-20.23461 1.03752,-1.24664 2.10461,-2.48281 3.19072,-3.70418 -4.60435,10.8886 -10.18492,27.38307 -6.30536,40.92142"
       style="fill:#ce2226;fill-opacity:1;fill-rule:nonzero;stroke:none;stroke-width:0.211304"
       id="path1540" />
    <path
       d="m 182.16075,123.67463 c 0,0 4.99315,15.76547 -8.26837,31.21617 -13.25941,15.45483 -1.24037,6.92865 4.94032,0.012 6.17222,-6.92027 15.10621,-25.96308 3.32805,-31.22885"
       style="fill:#ba2226;fill-opacity:1;fill-rule:nonzero;stroke:none;stroke-width:0.211304"
       id="path1542" />
    <path
       d="m 178.94891,155.00065 c -3.01743,3.37667 -7.41682,7.12524 -9.59748,8.28953 -1.98416,3.86477 8.63604,-4.64871 13.28054,-9.85531 5.81512,-6.51242 11.39781,-21.37775 2.50818,-27.75708 7.19284,6.94141 -0.62123,23.07668 -6.19124,29.32286"
       style="fill:#f2701b;fill-opacity:1;fill-rule:nonzero;stroke:none;stroke-width:0.211304"
       id="path1544" />
    <path
       d="m 217.56919,154.58017 c 0,0 4.99102,15.76337 -8.26838,31.22035 -13.26785,15.44854 -1.24246,6.93082 4.93609,0.012 6.17857,-6.92236 15.10622,-25.97153 3.33229,-31.23096"
       style="fill:#ba2226;fill-opacity:1;fill-rule:nonzero;stroke:none;stroke-width:0.211304"
       id="path1546" />
    <path
       d="m 214.35523,185.90828 c -3.01744,3.37458 -7.41681,7.12308 -9.59537,8.28952 -1.9905,3.86268 8.62759,-4.65296 13.27631,-9.8553 5.81724,-6.51661 11.40203,-21.382 2.51665,-27.76127 7.19283,6.94769 -0.62546,23.07661 -6.19759,29.32705"
       style="fill:#f2701b;fill-opacity:1;fill-rule:nonzero;stroke:none;stroke-width:0.211304"
       id="path1548" />
    <path
       d="m 253.83129,189.30818 c 0,0 4.16484,11.09987 -4.76281,22.66249 -8.91709,11.56264 -0.62335,5.01008 3.53936,-0.1755 4.16695,-5.18755 9.85105,-19.16327 1.22345,-22.4871"
       style="fill:#ba2226;fill-opacity:1;fill-rule:nonzero;stroke:none;stroke-width:0.211304"
       id="path1550" />
    <path
       d="m 252.69659,211.85867 c -2.03698,2.53145 -5.04385,5.37563 -6.56314,6.29272 -1.27628,2.84201 6.01163,-3.65352 9.14318,-7.55206 3.92605,-4.88119 7.35976,-15.73379 0.76492,-19.97046 5.4073,4.70154 0.41204,16.5473 -3.34496,21.2298"
       style="fill:#f2701b;fill-opacity:1;fill-rule:nonzero;stroke:none;stroke-width:0.211304"
       id="path1552" />
    <path
       d="m 195.54485,214.47679 c 0,0 16.49026,1.14949 28.40364,-15.36612 11.90283,-16.52197 6.44272,-2.83155 1.16641,4.7945 -5.27629,7.63023 -21.69472,20.78608 -29.57005,10.57162"
       style="fill:#ba2226;fill-opacity:1;fill-rule:nonzero;stroke:none;stroke-width:0.211304"
       id="path1554" />
    <path
       d="m 225.23535,203.99394 c 2.5737,-3.72114 5.18756,-8.87485 5.80878,-11.26895 3.2858,-2.83574 -2.49974,9.47914 -6.46806,15.22033 -4.96567,7.18651 -18.10041,16.10148 -26.3878,8.95936 8.43742,5.36083 22.28003,-6.02013 27.04708,-12.91074"
       style="fill:#f2701b;fill-opacity:1;fill-rule:nonzero;stroke:none;stroke-width:0.211304"
       id="path1556" />
    <path
       d="m 252.50641,247.1974 c 0,0 11.7507,-1.13896 18.1786,-14.18069 6.43002,-13.03545 4.20287,-2.75541 1.39461,3.24142 -2.81669,5.99263 -12.81988,17.19605 -19.57321,10.93927"
       style="fill:#ba2226;fill-opacity:1;fill-rule:nonzero;stroke:none;stroke-width:0.211304"
       id="path1558" />
    <path
       d="m 272.16838,236.3067 c 1.37136,-2.92654 2.6075,-6.86528 2.76176,-8.62124 1.98204,-2.38984 -0.63604,6.9731 -2.74909,11.48447 -2.65188,5.64396 -10.83996,13.47492 -17.51933,9.42632 6.5695,2.77865 14.96676,-6.88224 17.50666,-12.28955"
       style="fill:#f2701b;fill-opacity:1;fill-rule:nonzero;stroke:none;stroke-width:0.211304"
       id="path1560" />
    <path
       d="m 151.82999,198.33726 c 0,0 16.49238,1.14951 28.40366,-15.36612 11.90494,-16.52406 6.44481,-2.83573 1.16851,4.79241 -5.27628,7.62814 -21.69893,20.78398 -29.57217,10.57371"
       style="fill:#ba2226;fill-opacity:1;fill-rule:nonzero;stroke:none;stroke-width:0.211304"
       id="path1562" />
    <path
       d="m 181.52261,187.85441 c 2.57581,-3.72107 5.18332,-8.87694 5.80879,-11.27314 3.28791,-2.83148 -2.49553,9.48549 -6.46595,15.22453 -4.96991,7.18016 -18.10041,16.09939 -26.39204,8.95725 8.43743,5.35869 22.28426,-6.02221 27.0492,-12.90864"
       style="fill:#f2701b;fill-opacity:1;fill-rule:nonzero;stroke:none;stroke-width:0.211304"
       id="path1564" />
    <path
       d="m 215.13284,213.73508 c -0.0509,-0.0239 -0.0972,-0.0479 -0.14579,-0.0695 1.5383,-1.05438 3.00899,-2.22292 4.35712,-3.42524 0.0782,-0.012 0.16058,-0.0239 0.25145,-0.03 -1.37772,1.23611 -2.88431,2.43843 -4.46277,3.52456 m -5.37774,-2.51899 c -1.54675,-0.72476 -3.06392,-1.43479 -4.54728,-2.12996 -2.80615,-2.97098 -5.27842,-6.74699 -5.38618,-8.45646 -0.0593,-0.88745 -0.99525,-1.18544 -2.46382,-1.18544 -1.50237,0 -3.56049,0.31087 -5.80455,0.62335 -1.44957,0.20067 -2.97518,0.40132 -4.47968,0.51992 -3.31749,-1.55728 -6.411,-3.00895 -9.29533,-4.36342 -0.002,-0.26414 0.008,-0.53908 0.0336,-0.81569 1.20022,-1.19597 2.23562,-2.42153 3.05337,-3.60272 1.80455,-2.60751 3.9831,-6.5716 5.51297,-9.8574 2.67089,1.1326 7.50556,1.95667 10.65401,2.01586 4.76917,0.0868 7.70841,6.07714 6.54413,9.38408 -0.001,0.006 -0.005,0.012 -0.007,0.018 -0.30009,0.60856 -0.32753,0.94662 -0.14788,1.06498 0.0569,0.15872 0.18172,0.2282 0.3592,0.2282 0.22611,0 0.53884,-0.112 0.89806,-0.30008 -0.2599,0.56183 -0.20288,0.81137 0.0972,0.81137 0.72056,0 2.8336,-1.43473 5.27207,-3.402 2.17854,2.18279 5.77498,10.3772 7.26467,14.55049 -2.53989,2.14051 -5.11359,3.72533 -7.5584,4.89598 m 38.98162,-13.046 c -12.86427,-11.01959 -23.62817,-20.02753 -24.87698,-20.81572 -0.374,-0.2366 -0.72267,-0.45224 -1.04596,-0.64869 1.55309,-3.53306 2.54833,-7.476 2.35817,-11.09352 0.96777,0.94662 2.03065,2.0116 3.19705,3.20123 3.13577,3.19919 14.06659,13.16225 26.35399,25.10307 0.0359,0.43965 0.0614,0.90656 0.0719,1.39676 -1.7496,0.82622 -3.76334,1.77494 -6.05811,2.85687 m -81.21888,-6.76825 c -7.06817,-3.32593 -12.32332,-5.80239 -16.02962,-7.552 v 0 c -0.63604,-0.31266 -1.28051,-0.62552 -1.93345,-0.94033 -1.53407,-0.73746 -3.11675,-1.48127 -4.75437,-2.22718 v 0 c -0.007,-0.005 -0.0149,-0.006 -0.021,-0.012 -0.0168,-0.006 -0.0336,-0.012 -0.0485,-0.0239 -0.005,-0.002 -0.008,-0.005 -0.0126,-0.005 -0.28948,-0.13716 -0.43108,-0.20304 -0.43108,-0.20304 l -0.002,0.012 v 0 c -0.58107,-0.26175 -1.16852,-0.52591 -1.76228,-0.79029 1.59746,-0.95298 4.34654,-2.12996 8.70788,-4.67195 2.98786,-1.43905 7.06606,-4.02752 10.77024,-7.07876 1.28473,-0.97202 2.46805,-2.04753 3.5605,-3.20547 1.14105,7.64502 11.27736,9.29316 16.30219,10.32855 2.00107,0.41209 2.98575,0.94243 3.38723,1.55099 -1.12836,1.20867 -2.75964,3.25412 -5.01638,6.38568 -0.73746,1.02269 -1.49182,1.97782 -2.26097,2.86951 -1.925,0.88535 -5.21924,2.80189 -10.45539,5.56155 m 11.27737,-0.19647 c 0.0384,-0.11375 0.074,-0.2282 0.112,-0.3426 0.98256,-1.08397 1.82779,-2.13631 2.49552,-3.09982 1.35023,-1.95249 2.71317,-4.30011 3.79293,-6.43852 0.0401,0.03 0.0803,0.0539 0.1225,0.0827 -1.07766,2.1384 -2.44059,4.49029 -3.79505,6.44696 -0.71844,1.03958 -1.64395,2.18063 -2.72795,3.35126 m 41.95469,-15.69148 c -0.0443,-0.0239 -0.0867,-0.0479 -0.12681,-0.0695 1.65875,-3.812 2.79768,-7.94086 2.7026,-11.59437 0.0377,0.0359 0.0761,0.0701 0.1141,0.10547 0.093,3.64081 -1.03963,7.75494 -2.68992,11.55843 m -6.897,-3.31329 c -2.60963,0 -9.10938,-4.17541 -11.98525,-7.67037 -2.98151,-3.62602 -15.97258,-13.41999 -17.35028,-13.41999 -0.0317,0 -0.0569,0.005 -0.0761,0.012 0,0 0,0 -0.001,0 2.17221,-3.12731 4.08453,-7.24145 4.91285,-11.36826 0.59376,-0.73746 1.01426,-1.42419 1.11781,-1.91864 0.0401,-0.19647 0.16692,-0.28752 0.36555,-0.28752 2.14685,0 12.79243,10.8041 16.11625,14.4512 3.05548,3.35342 6.19337,10.21242 7.86267,10.21242 0.31063,0 0.57262,-0.23899 0.77127,-0.784 0.37824,-1.04168 0.91495,-1.57207 1.71157,-1.57207 0.33386,0 0.70999,0.0929 1.13895,0.27911 0.17327,3.03436 -0.0191,7.09565 -1.36505,11.6493 -0.15849,-0.0635 -0.33597,-0.091 -0.53668,-0.091 -0.55154,0 -1.2763,0.20725 -2.24196,0.45463 -0.13105,0.0359 -0.27679,0.048 -0.43953,0.048 M 181.64814,151.4321 c -0.0593,-0.005 -0.1162,-0.006 -0.17328,-0.012 1.58267,-2.38141 3.13789,-5.27206 4.3233,-8.29582 0.0698,-0.0479 0.13944,-0.10126 0.20917,-0.15453 -1.18331,3.07874 -2.75543,6.03067 -4.35923,8.46281 m -2.4025,-4.48813 c -0.4754,-1.95668 -1.4728,-4.43314 -2.27998,-6.27577 1.29952,-5.88062 1.54252,-10.19121 1.54252,-10.19121 0.34651,-0.0785 0.67195,-0.1162 0.97412,-0.1162 1.92077,0 2.96251,1.532 3.48231,3.58379 -0.31272,3.75696 -1.3122,8.25569 -3.71897,12.99945"
       style="fill:#e56a1a;fill-opacity:1;fill-rule:nonzero;stroke:none;stroke-width:0.211304"
       id="path1566" />
    <path
       d="m 181.47402,151.42746 c -1.37138,-0.10966 -2.57582,-0.5834 -2.08136,-1.79818 0.22611,-0.55765 0.12889,-1.52775 -0.14789,-2.67724 2.40677,-4.74383 3.40624,-9.2425 3.71898,-12.99952 0.7628,3.00058 0.41203,7.10835 0.0633,9.16008 -0.13316,0.7713 0.0972,1.08822 0.54728,1.08822 0.51978,0 1.33335,-0.42707 2.22293,-1.06917 -1.18541,3.02375 -2.74062,5.9144 -4.32329,8.29581"
       style="fill:#ce5520;fill-opacity:1;fill-rule:nonzero;stroke:none;stroke-width:0.211304"
       id="path1568" />
    <path
       d="m 182.16075,151.45286 c -0.17118,0 -0.34231,-0.005 -0.51351,-0.012 1.60382,-2.43214 3.17593,-5.38408 4.35924,-8.46282 1.17697,-0.88325 2.45537,-2.11091 3.34496,-3.22027 -0.82832,4.12676 -2.74062,8.24089 -4.91284,11.3682 -0.33387,0.17311 -1.28262,0.32764 -2.27788,0.32764"
       style="fill:#f2971c;fill-opacity:1;fill-rule:nonzero;stroke:none;stroke-width:0.211304"
       id="path1570" />
    <path
       d="m 203.4223,194.43236 c -0.17964,-0.11859 -0.15215,-0.45641 0.14788,-1.06497 -0.18173,0.5199 -0.21976,0.8621 -0.14788,1.06497 m 17.20026,-18.98789 c -2.34127,-1.2594 -2.24619,-0.90654 -2.64344,-2.33073 -0.2155,-0.76915 -0.49654,-1.16638 -0.90862,-1.32698 1.34603,-4.55365 1.53831,-8.61494 1.36505,-11.64929 1.1833,0.51332 2.76388,1.74116 4.8896,3.71263 0.0951,3.65352 -1.04386,7.78237 -2.70259,11.59437"
       style="fill:#ce5520;fill-opacity:1;fill-rule:nonzero;stroke:none;stroke-width:0.211304"
       id="path1572" />
    <path
       d="m 204.77676,195.17192 c -0.30002,0 -0.3571,-0.24918 -0.0972,-0.81143 1.24882,-0.65079 3.10195,-2.19759 4.14582,-3.0301 0.0908,-0.0719 0.19016,-0.10547 0.30002,-0.10547 0.262,0 0.57478,0.19647 0.9234,0.54507 -2.43846,1.96722 -4.55151,3.402 -5.27207,3.402 m 18.03702,-18.46589 c -0.83888,-0.50914 -1.51506,-0.89386 -2.06444,-1.19179 1.65028,-3.8035 2.78288,-7.91762 2.68991,-11.55843 0.54092,0.50493 1.11779,1.05653 1.7327,1.65665 0.19016,3.61757 -0.80507,7.5605 -2.35817,11.09357"
       style="fill:#f2971c;fill-opacity:1;fill-rule:nonzero;stroke:none;stroke-width:0.211304"
       id="path1574" />
    <path
       d="m 254.79485,195.31346 c -0.0117,-0.48996 -0.0359,-0.95717 -0.0719,-1.3967 0.32962,0.32106 0.65716,0.63816 0.99102,0.96358 -0.29793,0.14136 -0.60432,0.28511 -0.91917,0.43306"
       style="fill:#ce5520;fill-opacity:1;fill-rule:nonzero;stroke:none;stroke-width:0.211304"
       id="path1576" />
    <path
       d="m 214.98704,213.66536 c -1.78342,-0.83252 -3.5288,-1.6503 -5.23193,-2.44903 2.44481,-1.17065 5.01851,-2.75541 7.55841,-4.89598 0.25145,0.70578 0.44371,1.29535 0.55781,1.72218 0.24092,0.90014 0.59587,1.74326 1.18754,2.29899 0.0804,-0.0419 0.17538,-0.0785 0.28523,-0.10127 -1.34813,1.20232 -2.81882,2.37086 -4.35712,3.42524"
       style="fill:#ce5520;fill-opacity:1;fill-rule:nonzero;stroke:none;stroke-width:0.211304"
       id="path1578" />
    <path
       d="m 215.3695,213.84499 c -0.0803,-0.0359 -0.15639,-0.0736 -0.23666,-0.10966 1.57845,-1.08612 3.08505,-2.28844 4.46277,-3.52461 0.0384,-0.002 0.0782,-0.002 0.11836,-0.002 0.55573,0 1.33335,0.17969 2.30745,0.51752 -2.12572,0.99735 -4.33809,2.03484 -6.65189,3.11886"
       style="fill:#f2971c;fill-opacity:1;fill-rule:nonzero;stroke:none;stroke-width:0.211304"
       id="path1580" />
    <path
       d="m 178.90665,190.86336 c 0.32962,-1.00579 0.67618,-2.00105 0.95933,-2.93288 0.54518,-1.80453 0.61912,-2.64556 -0.16268,-2.64556 -0.36981,0 -0.93185,0.18988 -1.73059,0.55586 0.76915,-0.89169 1.5235,-1.84682 2.26097,-2.86952 2.25674,-3.13157 3.88802,-5.177 5.01638,-6.38568 0.6487,0.98471 -0.21342,2.1786 -0.75224,3.4274 -0.19443,0.45462 0.0888,0.89595 0.6973,1.31224 -1.07976,2.1384 -2.44269,4.48596 -3.79293,6.43845 -0.66772,0.96357 -1.51295,2.01585 -2.49552,3.09982"
       style="fill:#ce5520;fill-opacity:1;fill-rule:nonzero;stroke:none;stroke-width:0.211304"
       id="path1582" />
    <path
       d="m 177.8121,195.40858 c 0.1162,-1.31853 0.52194,-2.76602 0.98256,-4.20289 1.08399,-1.17059 2.00952,-2.31164 2.72795,-3.35128 1.35446,-1.95667 2.71739,-4.30849 3.79504,-6.44695 0.29374,0.18567 0.65293,0.36777 1.06077,0.54088 -1.52987,3.2858 -3.70842,7.24993 -5.51297,9.8574 -0.81775,1.18124 -1.85315,2.4068 -3.05335,3.60278"
       style="fill:#f2971c;fill-opacity:1;fill-rule:nonzero;stroke:none;stroke-width:0.211304"
       id="path1584" />
    <path
       d="m 165.5606,164.70592 c 0,-0.005 0,-0.006 0,-0.006 0.0677,-0.0695 0.13526,-0.13957 0.20498,-0.20904 -0.0677,0.0719 -0.13734,0.14555 -0.20498,0.21742 m 1.813,-2.09407 c 0.0866,-0.11387 0.17539,-0.22822 0.262,-0.34681 5.14741,-6.64133 7.88169,-15.08509 9.3249,-21.59966 0.002,0.005 0.002,0.006 0.005,0.012 -1.46435,6.62659 -4.27259,15.24782 -9.59116,21.93563"
       style="fill:#e56a1a;fill-opacity:1;fill-rule:nonzero;stroke:none;stroke-width:0.211304"
       id="path1586" />
    <path
       d="m 222.54753,210.47887 c 0.77127,-0.84948 1.45591,-1.70313 2.02854,-2.53355 3.56895,-5.16222 8.60648,-15.63872 7.19708,-15.63872 -0.15849,0 -0.39725,0.13118 -0.72902,0.41868 -0.62122,2.39411 -3.23508,7.54782 -5.80878,11.26895 -1.30164,1.88061 -3.27946,4.09718 -5.63974,6.2166 -0.0908,0.005 -0.17329,0.012 -0.25145,0.03 2.41945,-2.15536 4.44586,-4.4184 5.77074,-6.33495 3.45697,-4.99737 6.99422,-12.59592 5.67356,-12.59592 -0.6952,0 -2.7364,2.10462 -6.83996,7.80142 -2.10882,2.92235 -4.35711,5.28895 -6.63498,7.20975 -1.4897,-4.1733 -5.08612,-12.36771 -7.26467,-14.5505 2.76598,-2.23143 5.95035,-5.14742 7.98733,-7.42742 1.74115,-1.94823 3.45907,-4.64445 4.77761,-7.63652 0.32327,0.19646 0.67195,0.4121 1.04596,0.64869 1.24881,0.78813 12.01271,9.79612 24.87699,20.81566 -6.40468,3.01537 -15.00479,7.06181 -26.1892,12.30854 m -18.76602,-15.81832 c -0.17747,0 -0.30217,-0.0695 -0.3592,-0.22822 0.0485,0.03 0.1141,0.0479 0.19227,0.0479 1.36292,0 6.99843,-4.60857 10.62231,-8.66777 2.1194,-2.37506 4.5642,-6.18065 6.38566,-10.36659 0.0401,0.0239 0.0824,0.0479 0.1268,0.0695 -1.82146,4.19649 -4.27049,8.01268 -6.3941,10.39409 -3.01745,3.37457 -7.41682,7.12309 -9.59538,8.28953 -0.0294,0.0598 -0.0551,0.10967 -0.0804,0.16291 -0.35922,0.18808 -0.67197,0.30009 -0.89807,0.30009 m -0.21132,-1.29319 c 0.001,-0.006 0.005,-0.012 0.007,-0.018 1.16428,-3.30694 -1.77496,-9.29749 -6.54413,-9.3841 -3.14844,-0.0598 -7.98312,-0.88325 -10.65402,-2.01585 1.50027,-3.21818 2.38142,-5.78341 1.682,-5.78341 -0.15849,0 -0.39725,0.13117 -0.729,0.41629 -0.29585,1.13679 -1.03963,2.89485 -2.01375,4.82619 -0.0426,-0.03 -0.0825,-0.0539 -0.12249,-0.0827 1.68411,-3.33438 2.68357,-6.15741 1.88062,-6.15741 -0.31483,0 -0.90015,0.42707 -1.82568,1.41784 -0.40149,-0.60857 -1.38617,-1.13896 -3.38723,-1.55099 -5.02484,-1.0354 -15.16115,-2.68359 -16.30221,-10.32862 0.0677,-0.0719 0.13735,-0.14555 0.20497,-0.21743 0.54304,-0.56184 1.07978,-1.18968 1.60804,-1.87641 5.31856,-6.68781 8.1268,-15.30904 9.59115,-21.93557 0.80718,1.84256 1.80454,4.31903 2.27998,6.27577 -1.32066,2.6011 -3.06604,5.27416 -5.35236,7.9387 -5.48126,6.38988 -6.64344,8.68042 -5.682,8.68042 1.36293,0 6.99631,-4.61068 10.62231,-8.66772 0.84945,-0.95304 1.74962,-2.13422 2.64133,-3.47598 0.0569,0.005 0.1141,0.006 0.17328,0.012 -0.91072,1.37771 -1.83203,2.58847 -2.69837,3.56049 -3.01744,3.37666 -7.41681,7.12523 -9.59749,8.28952 -0.34866,0.67829 -0.30638,0.97622 0.021,0.97622 1.54042,0 9.43055,-6.53993 13.25941,-10.83152 0.61067,-0.68464 1.21924,-1.46013 1.80667,-2.30959 0.001,0 0.001,0 0.001,0 0.0191,-0.012 0.0443,-0.012 0.0761,-0.012 1.3777,0 14.36877,9.79404 17.35028,13.42005 2.87588,3.49497 9.37561,7.67037 11.98525,7.67037 0.16268,0 0.30848,-0.018 0.43953,-0.0479 0.96566,-0.24738 1.69045,-0.45463 2.24196,-0.45463 0.20071,0 0.37819,0.03 0.53668,0.091 -1.29318,4.37827 -3.65135,9.21081 -7.76969,14.01375 -3.383,3.93875 -5.11993,6.32015 -5.73059,7.56686"
       style="fill:#e89313;fill-opacity:1;fill-rule:nonzero;stroke:none;stroke-width:0.211304"
       id="path1588" />
    <path
       d="m 168.21038,163.57122 c -0.96145,0 0.20072,-2.29054 5.682,-8.68042 2.28632,-2.6646 4.0317,-5.3376 5.35236,-7.93876 0.27679,1.14949 0.374,2.11941 0.14789,2.67724 -0.49446,1.21501 0.70998,1.68833 2.08135,1.79818 -0.8917,1.34182 -1.79187,2.52301 -2.64132,3.47598 -3.626,4.0571 -9.2594,8.66778 -10.62231,8.66778"
       style="fill:#d68619;fill-opacity:1;fill-rule:nonzero;stroke:none;stroke-width:0.211304"
       id="path1590" />
    <path
       d="m 169.37256,164.26639 c -0.32753,0 -0.36981,-0.29769 -0.021,-0.97621 2.18066,-1.16429 6.58004,-4.91286 9.59749,-8.28953 0.86634,-0.97202 1.78763,-2.18279 2.69836,-3.56049 0.17118,0.006 0.34232,0.012 0.51351,0.012 0.99524,0 1.944,-0.15393 2.27787,-0.32763 -0.58742,0.84946 -1.19599,1.62496 -1.80667,2.30959 -3.82885,4.2916 -11.71899,10.83145 -13.25941,10.83145"
       style="fill:#f1b01c;fill-opacity:1;fill-rule:nonzero;stroke:none;stroke-width:0.211304"
       id="path1592" />
    <path
       d="m 203.61459,194.47885 c -0.078,0 -0.14375,-0.018 -0.19227,-0.048 -0.0719,-0.20305 -0.0335,-0.54507 0.14789,-1.06498 0.61066,-1.2467 2.34759,-3.62811 5.7306,-7.56686 4.11833,-4.80294 6.4765,-9.63553 7.76969,-14.01375 0.41203,0.16052 0.69309,0.55764 0.90862,1.32696 0.39724,1.42419 0.30212,1.07134 2.64342,2.33075 -1.82145,4.18594 -4.26624,7.99152 -6.38565,10.36659 -3.62387,4.05919 -9.25939,8.66777 -10.6223,8.66777"
       style="fill:#d68619;fill-opacity:1;fill-rule:nonzero;stroke:none;stroke-width:0.211304"
       id="path1594" />
    <path
       d="m 204.67957,194.36049 c 0.0252,-0.0539 0.0509,-0.10546 0.0803,-0.16292 2.17857,-1.16639 6.57795,-4.91496 9.59538,-8.28947 2.12363,-2.38147 4.57265,-6.1976 6.39412,-10.39415 0.54937,0.2977 1.22556,0.68253 2.06444,1.19178 -1.31855,2.99207 -3.03646,5.68836 -4.77761,7.63658 -2.03699,2.27995 -5.22137,5.196 -7.98735,7.42737 -0.34866,-0.3486 -0.66139,-0.54507 -0.9234,-0.54507 -0.1099,0 -0.20916,0.0359 -0.30004,0.10547 -1.04385,0.83258 -2.89699,2.37931 -4.1458,3.0301"
       style="fill:#f1b01c;fill-opacity:1;fill-rule:nonzero;stroke:none;stroke-width:0.211304"
       id="path1596" />
    <path
       d="m 219.0589,210.34152 c -0.59168,-0.55585 -0.94665,-1.39885 -1.18753,-2.29899 -0.1141,-0.42707 -0.30644,-1.0164 -0.55783,-1.72218 2.27787,-1.92073 4.52615,-4.28734 6.63497,-7.20968 4.10357,-5.6968 6.14478,-7.80142 6.83996,-7.80142 1.32067,0 -2.21659,7.59855 -5.67355,12.59592 -1.32488,1.91654 -3.35129,4.17959 -5.77074,6.33494 -0.1099,0.0239 -0.20497,0.06 -0.28524,0.10127"
       style="fill:#d68619;fill-opacity:1;fill-rule:nonzero;stroke:none;stroke-width:0.211304"
       id="path1598" />
    <path
       d="m 222.02139,210.72612 c -0.97411,-0.33782 -1.75172,-0.51751 -2.30746,-0.51751 -0.0401,0 -0.0803,0 -0.11836,0.002 2.36028,-2.11941 4.3381,-4.33597 5.63973,-6.21658 2.5737,-3.72108 5.18756,-8.87485 5.8088,-11.26895 0.33177,-0.28751 0.57052,-0.41868 0.729,-0.41868 1.4094,0 -3.62812,10.47656 -7.19707,15.63871 -0.57263,0.83042 -1.25726,1.68414 -2.02853,2.53354 -0.17329,0.0827 -0.35076,0.16473 -0.52613,0.24738"
       style="fill:#f1b01c;fill-opacity:1;fill-rule:nonzero;stroke:none;stroke-width:0.211304"
       id="path1600" />
    <path
       d="m 185.1951,181.32509 c -0.60857,-0.41628 -0.89172,-0.85791 -0.6973,-1.31223 0.53883,-1.2488 1.40094,-2.44268 0.75224,-3.42734 0.92552,-0.99106 1.51083,-1.4179 1.82568,-1.4179 0.80295,0 -0.19652,2.82303 -1.88062,6.15747"
       style="fill:#d68619;fill-opacity:1;fill-rule:nonzero;stroke:none;stroke-width:0.211304"
       id="path1602" />
    <path
       d="m 186.37842,181.94845 c -0.40785,-0.17311 -0.76705,-0.35519 -1.06077,-0.54087 0.97412,-1.93134 1.71791,-3.68939 2.01375,-4.82625 0.33171,-0.28511 0.57052,-0.41629 0.729,-0.41629 0.69942,0 -0.18173,2.56523 -1.68198,5.78341"
       style="fill:#f1b01c;fill-opacity:1;fill-rule:nonzero;stroke:none;stroke-width:0.211304"
       id="path1604" />
    <path
       d="m 147.58486,176.20518 c -1.84892,0 -0.35286,-2.70899 7.96621,-9.75391 20.01484,-16.94664 12.93189,-36.14166 12.93189,-36.14166 2.29478,-1.78764 4.08664,-2.57158 5.44323,-2.57158 7.46964,0 1.73481,23.75071 -6.29056,34.5273 -0.65294,0.84312 -1.34391,1.65456 -2.07503,2.43214 v 0 c -1.10723,1.10511 -2.31379,2.18489 -3.56049,3.21392 -0.17537,0.13118 -0.35286,0.26236 -0.53249,0.39114 -4.12468,2.95612 -7.49923,5.09033 -10.23774,6.6878 -1.60803,0.77549 -2.89911,1.21502 -3.64502,1.21502"
       style="fill:#e8be0d;fill-opacity:1;fill-rule:nonzero;stroke:none;stroke-width:0.211304"
       id="path1606" />
    <path
       d="m 151.22988,174.99015 c 2.73851,-1.59747 6.11306,-3.73168 10.23774,-6.6878 0.17963,-0.12879 0.35712,-0.25995 0.53249,-0.39113 -3.70419,3.05124 -7.78238,5.63977 -10.77023,7.07876"
       style="fill:#e7cd13;fill-opacity:1;fill-rule:nonzero;stroke:none;stroke-width:0.211304"
       id="path1608" />
    <path
       d="m 165.5606,164.69747 v 0 c 0.73112,-0.77758 1.42209,-1.58902 2.07503,-2.43214 -0.0867,0.11859 -0.17539,0.2324 -0.26199,0.3468 -0.51351,0.64445 -1.04809,1.27206 -1.60804,1.87635 -0.0698,0.0695 -0.13734,0.13957 -0.20497,0.20905"
       style="fill:#e7cd13;fill-opacity:1;fill-rule:nonzero;stroke:none;stroke-width:0.211304"
       id="path1610" />
    <path
       d="m 165.76558,164.48825 c 0.55997,-0.60431 1.09456,-1.23192 1.60802,-1.87635 -0.52823,0.68672 -1.06496,1.31427 -1.60802,1.87635"
       style="fill:#e6d917;fill-opacity:1;fill-rule:nonzero;stroke:none;stroke-width:0.211304"
       id="path1612" />
    <path
       d="m 156.33712,133.10941 c 2.01164,-2.19968 15.01537,8.10144 1.6503,23.52884 -13.36716,15.43165 -33.34397,11.06398 -1.6503,-23.52884"
       style="fill:#bd2426;fill-opacity:1;fill-rule:nonzero;stroke:none;stroke-width:0.211304"
       id="path1614" />
    <path
       d="m 118.68674,113.61652 c 3.27524,-5.03966 14.67305,3.11042 23.43799,5.35448 8.76072,2.23562 30.55476,19.10409 17.11996,35.47183 -13.44113,16.37191 -30.78508,8.47545 -35.81837,-3.38936 -5.03329,-11.86692 -43.824729,-20.18597 -41.335546,-27.29222 1.466454,-4.18169 54.943606,15.195 54.943606,15.195 0,0 -22.61177,-18.78082 -18.34764,-25.33973"
       style="fill:#3f8a37;fill-opacity:1;fill-rule:nonzero;stroke:none;stroke-width:0.211304"
       id="path1616" />
    <path
       d="m 152.22724,126.81249 c 0,0 10.65824,11.63025 0.69943,22.92454 -9.9546,11.29004 -16.79033,9.87856 -12.59592,5.02271 4.19019,-4.85368 9.16008,-13.15164 6.02643,-20.07185 -3.12943,-6.91602 2.17644,-14.0497 5.87006,-7.8754"
       style="fill:#87d04d;fill-opacity:1;fill-rule:nonzero;stroke:none;stroke-width:0.211304"
       id="path1618" />
    <path
       d="m 90.464802,250.96286 c -19.338664,-8.3106 -18.43639,-27.67256 -15.165384,-45.25316 3.632339,-19.53727 23.831022,-43.04923 54.641452,-31.25839 5.13682,1.96303 9.91022,3.99158 14.3434,6.00108 l 0.002,-0.012 c 0,0 0.16694,0.0785 0.51351,0.24079 2.33703,1.06498 4.5642,2.12362 6.68781,3.16744 9.77288,4.61913 30.31387,14.29061 66.48724,31.21408 54.73229,25.60806 55.25,38.77451 41.44118,49.07773 -12.15219,9.06931 -145.84086,-7.39354 -145.84086,-7.39354 l 0.11836,-0.30428 c -9.13045,-1.29103 -17.58267,-3.05328 -23.228751,-5.48117"
       style="fill:#dd2a24;fill-opacity:1;fill-rule:nonzero;stroke:none;stroke-width:0.211304"
       id="path1620" />
    <path
       d="m 205.20783,209.08847 c -6.6709,-3.12306 -12.70157,-5.95035 -18.13844,-8.50079 0.001,0 0.001,0 0.005,0 5.43478,2.55044 11.46332,5.37557 18.13423,8.49869 v 0.002 m -27.42957,-12.8603 c -0.18174,-0.0869 -0.36557,-0.17311 -0.5452,-0.25757 0,0 0,-0.002 0,-0.002 0.18173,0.0845 0.36346,0.16891 0.5452,0.25575 0,0.002 0,0.002 0,0.005"
       style="fill:#ce2226;fill-opacity:1;fill-rule:nonzero;stroke:none;stroke-width:0.211304"
       id="path1622" />
    <path
       d="m 174.93834,194.89298 c -0.0467,-0.0239 -0.0972,-0.048 -0.1437,-0.0677 0,-0.002 0,-0.002 0.002,-0.002 0.0485,0.0239 0.0951,0.0419 0.14369,0.0677 0,0 0,0 -0.002,0.002"
       style="fill:#c52226;fill-opacity:1;fill-rule:nonzero;stroke:none;stroke-width:0.211304"
       id="path1624" />
    <path
       d="m 170.25158,192.6912 c -0.94031,-0.44384 -1.85314,-0.87271 -2.73851,-1.28899 0.002,0 0.002,0 0.005,0 0.88326,0.41389 1.7961,0.84522 2.73641,1.28683 0,0 -0.002,0 -0.002,0.002"
       style="fill:#ce2226;fill-opacity:1;fill-rule:nonzero;stroke:none;stroke-width:0.211304"
       id="path1626" />
    <path
       d="m 174.79465,194.82535 c -1.58478,-0.7459 -3.09773,-1.45377 -4.54307,-2.13415 0,-0.002 0.002,-0.002 0.002,-0.002 1.44533,0.67835 2.96039,1.39041 4.54307,2.13422 -0.002,0 -0.002,0 -0.002,0.002"
       style="fill:#ba2226;fill-opacity:1;fill-rule:nonzero;stroke:none;stroke-width:0.211304"
       id="path1628" />
    <path
       d="m 177.23311,195.97066 c -0.78183,-0.36538 -1.54464,-0.72476 -2.29477,-1.07768 0.002,-0.002 0.002,-0.002 0.002,-0.002 0.74802,0.351 1.51506,0.71206 2.29267,1.07761 0,0 0,0.002 0,0.002"
       style="fill:#da4221;fill-opacity:1;fill-rule:nonzero;stroke:none;stroke-width:0.211304"
       id="path1630" />
    <path
       d="m 215.13284,213.73508 c -0.0509,-0.0239 -0.0972,-0.0479 -0.14579,-0.0695 v 0 c 0.0485,0.0239 0.0951,0.0479 0.14579,0.0695 v 0 m -5.37984,-2.51875 c -1.54675,-0.72267 -3.06181,-1.43263 -4.54517,-2.12786 v -0.002 c 1.48336,0.69517 3.00053,1.40519 4.54728,2.12996 -0.001,0 0,0 -0.001,0 m -22.68358,-10.62836 c -3.31327,-1.55524 -6.40889,-3.00692 -9.29109,-4.35923 0,-0.002 0,-0.002 0,-0.005 2.8843,1.35446 5.97782,2.80614 9.29531,4.36348 -0.001,0 -0.001,0 -0.005,0 m -19.55632,-9.18547 c -7.06605,-3.32384 -12.3191,-5.8003 -16.02539,-7.55201 3.70629,1.74961 8.96145,4.22608 16.02962,7.55201 -0.002,0 -0.002,0 -0.005,0"
       style="fill:#d43f22;fill-opacity:1;fill-rule:nonzero;stroke:none;stroke-width:0.211304"
       id="path1632" />
    <path
       d="m 214.98704,213.66536 c -1.78342,-0.83252 -3.5288,-1.6503 -5.23404,-2.44903 0.001,0 0,0 0.001,0 1.70313,0.79873 3.44851,1.61651 5.23194,2.44903 v 0"
       style="fill:#c83423;fill-opacity:1;fill-rule:nonzero;stroke:none;stroke-width:0.211304"
       id="path1634" />
    <path
       d="m 215.3695,213.84499 c -0.0803,-0.0359 -0.15639,-0.0736 -0.23666,-0.10966 v 0 c 0.0803,0.0359 0.1564,0.0719 0.23666,0.10966 v 0"
       style="fill:#dc5c1d;fill-opacity:1;fill-rule:nonzero;stroke:none;stroke-width:0.211304"
       id="path1636" />
    <path
       d="m 151.48766,183.8502 c -0.63602,-0.31266 -1.28049,-0.62551 -1.93343,-0.94033 0.65294,0.31506 1.29741,0.62755 1.93343,0.94033"
       style="fill:#d43f22;fill-opacity:1;fill-rule:nonzero;stroke:none;stroke-width:0.211304"
       id="path1638" />
    <path
       d="m 87.329032,182.76827 c 6.582168,-6.74483 15.564748,-11.48656 26.535718,-11.48656 4.96356,0 10.33495,0.97202 16.07612,3.1696 -5.74117,-2.19758 -11.11043,-3.1696 -16.07612,-3.1696 -10.96886,0 -19.95355,4.74383 -26.535718,11.48656"
       style="fill:#a6631d;fill-opacity:1;fill-rule:nonzero;stroke:none;stroke-width:0.211304"
       id="path1640" />
    <path
       d="m 144.79986,180.68269 c -0.007,-0.005 -0.0149,-0.006 -0.021,-0.012 0.007,0.002 0.0149,0.006 0.021,0.012 m -0.0698,-0.0359 c -0.005,-0.002 -0.008,-0.005 -0.0126,-0.005 0.005,0 0.008,0.002 0.0126,0.005"
       style="fill:#d43f22;fill-opacity:1;fill-rule:nonzero;stroke:none;stroke-width:0.211304"
       id="path1642" />
    <path
       d="m 130.66987,174.73025 c -0.16268,-0.0635 -0.32543,-0.12459 -0.48811,-0.18808 0.16268,0.0635 0.32543,0.12459 0.48811,0.18808 v 0"
       style="fill:#a6631d;fill-opacity:1;fill-rule:nonzero;stroke:none;stroke-width:0.211304"
       id="path1644" />
    <path
       d="m 142.52198,179.6621 c -1.72424,-0.76915 -3.49922,-1.53829 -5.327,-2.30324 v -0.002 c 1.82568,0.76705 3.60276,1.53619 5.327,2.30534 v 0"
       style="fill:#ce2226;fill-opacity:1;fill-rule:nonzero;stroke:none;stroke-width:0.211304"
       id="path1646" />
    <path
       d="m 130.66987,174.73025 v 0 0 0 0"
       style="fill:#b23f21;fill-opacity:1;fill-rule:nonzero;stroke:none;stroke-width:0.211304"
       id="path1648" />
    <path
       d="m 137.19498,177.35886 c -2.10672,-0.88325 -4.28105,-1.76225 -6.52511,-2.62861 v 0 c 2.24406,0.86636 4.41839,1.74536 6.52511,2.62651 v 0.002"
       style="fill:#c52226;fill-opacity:1;fill-rule:nonzero;stroke:none;stroke-width:0.211304"
       id="path1650" />
    <path
       d="m 144.28427,180.45239 c -0.58106,-0.26175 -1.16851,-0.5259 -1.76229,-0.79029 v 0 c 0.59377,0.26415 1.18121,0.52829 1.76229,0.79029"
       style="fill:#d43f22;fill-opacity:1;fill-rule:nonzero;stroke:none;stroke-width:0.211304"
       id="path1652" />
    <path
       d="m 207.323,217.61674 c -10.91603,-5.02062 -21.39256,-9.78127 -30.61392,-13.95884 -1.45589,-1.29528 -3.23509,-2.20602 -5.37983,-2.56523 0.89381,0.28752 1.70312,0.70368 2.43635,1.23192 -0.0782,-0.0359 -0.1585,-0.0719 -0.23666,-0.10547 -0.8748,-0.61491 -1.85737,-1.07132 -2.95828,-1.33967 -11.95565,-5.40731 -21.12207,-9.54043 -25.3017,-11.51405 -0.1036,-0.048 -0.20497,-0.0761 -0.30428,-0.0761 -0.91284,0 -1.62282,2.07929 -2.35394,4.15641 -0.23666,0.66983 -0.47546,1.33968 -0.72267,1.93979 -0.20921,-7.79716 -3.19494,-16.27477 -10.92871,-17.56796 6.60541,2.12151 8.67832,11.40839 8.57689,19.588 -0.0569,-0.03 -0.1057,-0.0479 -0.1437,-0.0677 0.1099,-9.29741 -2.58849,-20.00849 -11.5584,-20.00849 -0.14154,0 -0.2853,0.002 -0.42894,0.006 0,0 5.19178,5.42 7.02379,14.99212 -3.63233,-4.93185 -7.68517,-11.7803 -11.1548,-13.10937 -3.69996,-1.41364 -7.21397,-2.04759 -10.53145,-2.04759 -18.728,0 -31.412664,20.12049 -38.248391,33.35665 0.245101,-1.61435 0.513442,-3.22446 0.807186,-4.82192 1.460117,-7.85426 5.59959,-16.35295 12.027499,-22.93934 6.582166,-6.74273 15.566856,-11.48656 26.535736,-11.48656 4.96567,0 10.33494,0.97201 16.0761,3.1696 v 0 c 0.0803,0.03 0.16058,0.0611 0.24091,0.091 0.16268,0.0635 0.32543,0.12459 0.48811,0.18808 v 0 c 2.24406,0.86637 4.41839,1.74536 6.52511,2.62861 1.82779,0.76496 3.60276,1.5341 5.32701,2.30324 0.59376,0.26415 1.18119,0.5283 1.76228,0.79029 v 0 l 0.005,-0.012 c 0,0 0.13944,0.0653 0.42892,0.20306 0.005,0 0.008,0.002 0.0126,0.005 0.0149,0.006 0.0317,0.012 0.0485,0.0239 0.007,0.002 0.0149,0.006 0.021,0.012 v 0 c 1.6355,0.74806 3.22029,1.48972 4.75436,2.22717 0.65294,0.31507 1.29742,0.62761 1.93345,0.94033 v 0 c 3.70629,1.7517 8.95935,4.22823 16.02539,7.55201 0.88537,0.41629 1.79821,0.84527 2.73852,1.28899 1.44533,0.68038 2.95828,1.38825 4.54307,2.13416 0.0467,0.018 0.0972,0.0419 0.14368,0.0677 0.75013,0.3528 1.51296,0.71212 2.29478,1.07767 0.17963,0.0845 0.36346,0.17131 0.54518,0.25757 2.88222,1.35236 5.97784,2.80404 9.2911,4.35922 5.43688,2.55044 11.46754,5.37773 18.13845,8.50085 1.48337,0.69517 2.99842,1.40513 4.54518,2.1278 1.70523,0.79874 3.45061,1.61651 5.23404,2.44903 0.0485,0.0239 0.0951,0.048 0.14579,0.0695 0.0803,0.0359 0.15639,0.0719 0.23665,0.10966 -2.56313,1.20232 -5.24672,2.45963 -8.0465,3.77181"
       style="fill:#ce2226;fill-opacity:1;fill-rule:nonzero;stroke:none;stroke-width:0.211304"
       id="path1654" />
    <path
       d="m 89.416732,248.40817 c 0,0 15.311178,-6.24618 18.704738,-26.32229 3.39779,-20.08036 4.5325,-5.38617 3.16959,3.78871 -1.37138,9.17067 -10.2948,28.21983 -21.874328,22.53358"
       style="fill:#ba2226;fill-opacity:1;fill-rule:nonzero;stroke:none;stroke-width:0.211304"
       id="path1656" />
    <path
       d="m 111.44108,225.90207 c 0.66561,-4.47967 0.73323,-10.25889 0.23246,-12.68044 1.70101,-3.99582 1.94824,9.61225 0.91918,16.51137 -1.28685,8.6382 -9.14107,22.43853 -19.73169,19.68312 9.93769,1.09242 17.33971,-15.23512 18.58008,-23.51405"
       style="fill:#f2701b;fill-opacity:1;fill-rule:nonzero;stroke:none;stroke-width:0.211304"
       id="path1658" />
    <path
       d="m 135.82149,255.85667 c 0,0 15.30696,-6.24618 18.70687,-26.32439 3.38933,-20.08036 4.5325,-5.38832 3.16746,3.78445 -1.37137,9.17913 -10.30113,28.2262 -21.87433,22.53994"
       style="fill:#ba2226;fill-opacity:1;fill-rule:nonzero;stroke:none;stroke-width:0.211304"
       id="path1660" />
    <path
       d="m 157.84586,233.34842 c 0.66349,-4.47962 0.72899,-10.25674 0.2324,-12.67828 1.69677,-4.00002 1.94189,9.60805 0.91918,16.50927 -1.28897,8.64029 -9.14319,22.44062 -19.73169,19.68941 9.94191,1.08822 17.33971,-15.24141 18.58007,-23.5204"
       style="fill:#f2701b;fill-opacity:1;fill-rule:nonzero;stroke:none;stroke-width:0.211304"
       id="path1662" />
    <path
       d="m 185.70856,261.51543 c 0,0 11.19707,-3.89855 14.373,-18.15747 3.18438,-14.24831 3.45274,-3.68094 2.12996,2.83363 -1.32066,6.52088 -8.42897,19.83102 -16.50296,15.32384"
       style="fill:#ba2226;fill-opacity:1;fill-rule:nonzero;stroke:none;stroke-width:0.211304"
       id="path1664" />
    <path
       d="m 202.31717,246.21903 c 0.64237,-3.18433 0.9065,-7.31534 0.63814,-9.06921 1.36926,-2.7998 1.03751,6.95621 0.0443,11.85637 -1.24037,6.14052 -7.38302,15.72322 -14.86112,13.36291 7.07239,1.14739 12.98261,-10.26729 14.17859,-16.15007"
       style="fill:#f2701b;fill-opacity:1;fill-rule:nonzero;stroke:none;stroke-width:0.211304"
       id="path1666" />
    <path
       d="m 167.77298,200.61511 c 0,0 11.43161,11.93879 6.35606,31.65989 -5.08401,19.71906 1.94401,6.76603 4.43106,-2.17009 2.4913,-8.93396 2.10039,-29.97155 -10.78712,-29.4898"
       style="fill:#ba2226;fill-opacity:1;fill-rule:nonzero;stroke:none;stroke-width:0.211304"
       id="path1668" />
    <path
       d="m 178.70803,230.14294 c -1.21712,4.35504 -3.50768,9.66298 -4.94878,11.67464 -0.0761,4.33808 5.69046,-7.98734 7.56473,-14.70899 2.34549,-8.41417 0.79452,-24.21348 -9.99473,-26.01592 9.51929,3.0555 9.62495,20.97632 7.37878,29.05027"
       style="fill:#f2701b;fill-opacity:1;fill-rule:nonzero;stroke:none;stroke-width:0.211304"
       id="path1670" />
    <path
       d="m 229.36003,223.46993 c 0,0 6.63922,9.7581 0.7269,23.04284 -5.90809,13.28055 0.57052,4.99312 3.38298,-1.00161 2.80403,-5.99892 5.01851,-20.8558 -4.10988,-22.04123"
       style="fill:#ba2226;fill-opacity:1;fill-rule:nonzero;stroke:none;stroke-width:0.211304"
       id="path1672" />
    <path
       d="m 233.56501,245.54919 c -1.37348,2.92451 -3.60699,6.39413 -4.86002,7.63658 -0.56844,3.04916 4.95299,-4.94873 7.07027,-9.4601 2.64343,-5.64822 3.42315,-16.95095 -3.96198,-19.49503 6.33705,3.27309 4.28317,15.90705 1.75173,21.31855"
       style="fill:#f2701b;fill-opacity:1;fill-rule:nonzero;stroke:none;stroke-width:0.211304"
       id="path1674" />
    <path
       d="m 127.4052,177.33772 c 0,0 11.43373,11.93878 6.35607,31.66204 -5.08612,19.719 1.94401,6.76596 4.43107,-2.168 2.48918,-8.93612 2.09615,-29.97371 -10.78714,-29.49404"
       style="fill:#ba2226;fill-opacity:1;fill-rule:nonzero;stroke:none;stroke-width:0.211304"
       id="path1676" />
    <path
       d="m 138.34025,206.86345 c -1.21289,4.36133 -3.50766,9.66507 -4.95088,11.67882 -0.0719,4.33809 5.69468,-7.98734 7.56684,-14.70898 2.34338,-8.41418 0.79662,-24.21132 -9.99685,-26.01591 9.51508,3.05549 9.62495,20.98056 7.38089,29.04607"
       style="fill:#f2701b;fill-opacity:1;fill-rule:nonzero;stroke:none;stroke-width:0.211304"
       id="path1678" />
    <path
       d="m 140.64771,252.97027 c -1.42209,-0.71847 -1.62071,-1.66509 -0.83043,-3.02166 0.67828,-1.16853 -0.13316,-1.52984 -1.6989,-1.52984 -1.26149,0 -3.01532,0.23479 -4.87269,0.469 -1.85949,0.23479 -3.8204,0.47139 -5.50029,0.47139 -0.23874,0 -0.47331,-0.006 -0.69941,-0.012 -5.37984,-0.24318 -22.91184,-1.73697 -21.42847,-3.60913 0.31272,-0.39533 0.57052,-1.15794 0.76069,-2.08557 2.63921,-3.27526 4.5811,-7.37669 5.59536,-11.04704 v 0 c 0.20288,0.95297 16.53887,4.81984 21.40101,4.81775 0.0168,0 0.0336,0 0.0509,0 0.0233,0 0.0443,0 0.0677,0 4.81564,0 12.75861,2.60961 13.73696,4.6783 0.58322,1.22766 0.93608,2.06233 1.49815,2.37086 -2.6392,3.94504 -5.63763,6.692 -8.08031,8.50079 m 11.89015,-5.77706 c 0.45007,-0.7628 0.8748,-1.54465 1.27205,-2.33703 0.0443,0.018 0.0888,0.0359 0.13525,0.0539 -0.34865,0.69092 -0.71632,1.37345 -1.10301,2.04328 -0.10138,0.0803 -0.20497,0.16053 -0.30428,0.239 m -57.34426,-4.0359 c -1.17063,0 -2.18701,-0.54088 -2.88009,-1.91445 0,0 3.15902,-2.94349 6.8463,-7.70204 1.93344,-0.56005 4.47545,-1.37771 6.28421,-2.26522 -2.10671,4.88537 -4.92764,8.53254 -7.61332,11.17594 -0.91496,0.43725 -1.81512,0.70577 -2.6371,0.70577 m 11.52037,-4.13737 c -0.007,-0.0887 -0.0105,-0.17549 -0.0168,-0.26174 1.56579,-2.84629 2.79347,-5.88908 3.61122,-8.6297 0.0401,0.0419 0.0803,0.0827 0.12045,0.12459 -0.84311,2.7892 -2.10672,5.88908 -3.71475,8.76703 m 81.62938,-12.51135 c -2.64344,-1.11782 -4.80508,-2.13416 -6.31382,-3.01957 0.2853,-2.28628 0.32753,-4.81348 0.0654,-7.32594 3.68095,1.52989 9.07979,3.62601 15.34287,6.08349 -2.22081,1.03964 -4.50713,2.10882 -6.85896,3.20973 v 0 c -0.75647,0.3528 -1.50026,0.70368 -2.2356,1.05229 m -28.22193,-0.19887 c -0.18808,0 -0.36556,-0.006 -0.52615,-0.018 -0.0527,-3.54989 -0.36555,-6.34123 -0.95087,-6.34123 -0.14788,0 -0.31063,0.17549 -0.49235,0.55585 -0.13525,-0.62551 -0.33178,-1.0354 -0.62335,-1.0354 -0.0401,0 -0.0824,0.006 -0.12465,0.0239 -0.021,-0.006 -0.0443,-0.012 -0.0654,-0.012 -0.19228,0 -0.41413,0.25157 -0.66349,0.81137 -0.002,0.005 -0.005,0.006 -0.005,0.006 -1.06498,1.78129 -3.76758,3.05759 -6.44271,3.05759 -1.84892,0 -3.68516,-0.61066 -4.95933,-2.08558 -2.05811,-2.3835 -5.78343,-5.57216 -8.36346,-6.89912 1.54675,-3.27736 3.19916,-7.48864 4.05072,-10.54204 0.3846,-1.38405 0.6635,-2.96463 0.81564,-4.6508 0.97412,-0.96777 2.03909,-1.60383 3.2372,-1.60383 1.01849,0 2.13207,0.45643 3.3682,1.55735 4.80297,4.27255 8.41206,13.82568 10.8949,13.82568 0.20498,0 0.4015,-0.0653 0.58952,-0.20306 1.14738,-0.83887 4.42685,-1.33541 7.83731,-1.33541 2.2018,0 4.45643,0.20724 6.2314,0.66138 0.90015,2.97938 1.52351,6.49129 1.49603,10.4807 -3.94295,1.44324 -11.87324,3.74439 -15.30484,3.74439 m 19.75704,-4.47969 c -0.0551,-0.0719 -0.10138,-0.14376 -0.13944,-0.21323 0.0719,-2.14267 -0.002,-4.38881 -0.26624,-6.58005 0.0485,0.0239 0.0972,0.0419 0.14788,0.0677 0.26835,2.2419 0.33807,4.5388 0.2578,6.72584 m -47.99377,-4.88118 c -0.71633,0 -1.71157,-0.44803 -3.18226,-1.6228 -3.13366,-2.50187 -8.55364,-7.16327 -13.92503,-7.16327 -1.50026,0 -2.99841,0.36358 -4.43951,1.24036 0.19016,-1.58477 0.25988,-3.18859 0.18382,-4.79875 -0.0252,-4.79451 -0.64237,-9.57846 -1.44744,-12.79239 -1.45378,-8.65718 -2.96039,-10.92873 -1.46435,-12.50506 0.51559,-0.54087 2.1046,-0.89805 4.24512,-0.89805 6.3603,0 17.58694,3.14846 19.943,13.97998 1.43688,6.61384 2.12785,10.82302 2.72373,13.03539 -0.19443,1.1601 -0.44588,2.35397 -0.76069,3.57529 -0.96357,3.73587 -1.49182,6.29901 -1.6989,7.93877 -0.0569,0.006 -0.1162,0.012 -0.17749,0.012 m 3.92817,-3.0428 c -0.0485,-0.012 -0.0972,-0.03 -0.14369,-0.0419 0.95298,-2.19758 1.88696,-4.74591 2.52299,-7.03227 0.31482,-1.13044 0.58321,-2.45322 0.78605,-3.9028 0.0633,-0.10127 0.12889,-0.20306 0.19227,-0.30428 -0.20706,1.58058 -0.49236,3.02172 -0.83044,4.23883 -0.63814,2.29264 -1.57421,4.84524 -2.52721,7.04276"
       style="fill:#e56a1a;fill-opacity:1;fill-rule:nonzero;stroke:none;stroke-width:0.211304"
       id="path1680" />
    <path
       d="m 97.83091,242.45147 c 2.68569,-2.6434 5.50661,-6.29056 7.61333,-11.17593 1.05864,-0.5199 1.86583,-1.06498 2.14898,-1.59746 0.23875,-0.44384 0.55153,-0.62546 0.90015,-0.62546 0.56418,0 1.22346,0.469 1.81511,1.07553 -0.81775,2.74061 -2.04543,5.78341 -3.6112,8.62974 -0.10139,-1.49187 -0.42258,-2.61596 -1.01638,-2.61596 -0.21976,0 -0.47546,0.15213 -0.77126,0.49894 -1.35236,1.58057 -4.28527,4.47752 -7.07873,5.81091"
       style="fill:#ce5520;fill-opacity:1;fill-rule:nonzero;stroke:none;stroke-width:0.211304"
       id="path1682" />
    <path
       d="m 106.37821,243.6496 c 0.28103,-1.39249 0.40784,-3.16115 0.33596,-4.62971 1.60804,-2.87796 2.87165,-5.97784 3.71476,-8.76704 0.79661,0.85366 1.45166,1.92074 1.54463,2.34967 -1.01426,3.6704 -2.95616,7.77183 -5.59535,11.04708"
       style="fill:#f2971c;fill-opacity:1;fill-rule:nonzero;stroke:none;stroke-width:0.211304"
       id="path1684" />
    <path
       d="m 145.3091,254.16624 c -2.16588,-0.32943 -3.69573,-0.70996 -4.66139,-1.19597 2.4427,-1.80879 5.44111,-4.55576 8.08032,-8.50085 0.15848,0.0868 0.33597,0.13118 0.53884,0.13118 0.28948,0 0.63391,-0.091 1.06285,-0.28331 0.52615,-0.2366 0.79663,-0.35699 1.07767,-0.35699 0.43743,0 0.90227,0.2935 2.40254,0.89594 -0.39724,0.79239 -0.82198,1.57423 -1.27206,2.33703 -0.74379,0.59358 -1.44532,1.17698 -2.1067,1.7496 -0.005,0.005 -0.0105,0.006 -0.0168,0.012 -0.0105,0.012 -0.0191,0.018 -0.0294,0.03 -0.0126,0.012 -0.0275,0.0239 -0.0401,0.0359 h -0.002 c -2.07291,1.80669 -3.73589,3.51827 -5.0333,5.14742 m 11.36612,-33.87233 c 0.24935,-0.56005 0.47121,-0.81137 0.66349,-0.81137 0.021,0 0.0443,0.002 0.0654,0.012 -0.20071,0.0737 -0.44162,0.32525 -0.729,0.80083"
       style="fill:#ce5520;fill-opacity:1;fill-rule:nonzero;stroke:none;stroke-width:0.211304"
       id="path1686" />
    <path
       d="m 152.84214,246.9544 c 0.3867,-0.66985 0.75437,-1.35237 1.10301,-2.04335 0.30847,0.12279 0.65716,0.25576 1.05441,0.40371 -0.75646,0.55585 -1.4728,1.10092 -2.15742,1.63975 m 6.75332,-20.66568 c -0.6973,-0.0635 -1.10936,-0.27073 -1.11781,-0.66139 -0.0294,-1.33541 -0.0275,-3.74851 -0.32543,-5.12412 0.18174,-0.38034 0.34442,-0.55584 0.49236,-0.55584 0.58533,0 0.89805,2.79134 0.95088,6.34124"
       style="fill:#f2971c;fill-opacity:1;fill-rule:nonzero;stroke:none;stroke-width:0.211304"
       id="path1688" />
    <path
       d="m 175.42645,222.56553 c 0.0275,-3.98941 -0.59585,-7.50132 -1.49604,-10.48075 1.41786,0.36358 2.52932,0.8875 3.0597,1.58903 0.20071,0.26175 1.0692,0.72691 2.48284,1.3629 0.26415,2.19123 0.33812,4.43745 0.26625,6.58006 -0.0527,-0.0971 -0.0866,-0.19228 -0.10349,-0.28333 -0.1141,-0.012 -0.23031,-0.0239 -0.34657,-0.0239 -0.70786,0 -1.45378,0.24498 -2.18066,0.57921 -0.4015,0.18568 -0.97834,0.41629 -1.682,0.67409"
       style="fill:#ce5520;fill-opacity:1;fill-rule:nonzero;stroke:none;stroke-width:0.211304"
       id="path1690" />
    <path
       d="m 182.02975,223.48892 c -1.05442,-0.6212 -1.79187,-1.17693 -2.1511,-1.65875 0.0803,-2.18697 0.0105,-4.48387 -0.2578,-6.72583 0.70365,0.31267 1.53196,0.66774 2.47438,1.05863 0.262,2.51247 0.21977,5.03966 -0.0654,7.32595"
       style="fill:#f2971c;fill-opacity:1;fill-rule:nonzero;stroke:none;stroke-width:0.211304"
       id="path1692" />
    <path
       d="m 132.06237,216.93846 c 0.20706,-1.6397 0.73534,-4.20283 1.6989,-7.9387 0.31482,-1.22138 0.56627,-2.41525 0.76069,-3.57529 0.35077,1.30373 0.66984,1.91438 1.09035,1.91438 0.42472,0 0.95298,-0.62755 1.72636,-1.79608 0.53458,-0.81353 1.07554,-1.71577 1.63973,-2.61381 -0.20288,1.44951 -0.47122,2.77229 -0.78606,3.9028 -0.63603,2.2863 -1.56999,4.83463 -2.52298,7.03221 -0.24936,-0.0719 -0.47541,-0.1078 -0.67196,-0.1078 -0.36555,0 -0.63602,0.12698 -0.77972,0.41209 -0.617,1.21294 -0.98467,2.63921 -2.15531,2.77021"
       style="fill:#ce5520;fill-opacity:1;fill-rule:nonzero;stroke:none;stroke-width:0.211304"
       id="path1694" />
    <path
       d="m 136.90549,214.37532 c -0.39514,-0.20305 -0.76282,-0.36118 -1.09245,-0.469 0.95299,-2.19758 1.88907,-4.75011 2.52721,-7.04275 0.33813,-1.21712 0.62335,-2.65825 0.83044,-4.23883 0.8093,-1.27205 1.66296,-2.51031 2.60116,-3.44213 -0.15214,1.68617 -0.43108,3.26674 -0.81564,4.6508 -0.85155,3.0534 -2.50397,7.26468 -4.05072,10.54203"
       style="fill:#f2971c;fill-opacity:1;fill-rule:nonzero;stroke:none;stroke-width:0.211304"
       id="path1696" />
    <path
       d="m 99.14945,233.54285 c 4.09088,-5.28261 8.83891,-12.79874 10.64556,-21.01645 0.0359,-0.14555 0.0698,-0.2917 0.10138,-0.43725 -1.73058,8.38459 -6.5716,16.07615 -10.73642,21.45172 -0.002,0 -0.007,0 -0.0107,0.002 m 11.14635,-23.81833 c 0.0126,-0.10546 0.0233,-0.21144 0.0317,-0.31686 v 0 c 0.005,0 0.007,-0.005 0.0105,-0.005 -0.0149,0.1078 -0.0275,0.21323 -0.0426,0.32104"
       style="fill:#e56a1a;fill-opacity:1;fill-rule:nonzero;stroke:none;stroke-width:0.211304"
       id="path1698" />
    <path
       d="m 153.94515,244.91105 c -0.0468,-0.018 -0.0909,-0.0359 -0.13525,-0.0539 2.0539,-4.07603 3.4147,-8.38878 3.88591,-11.53932 0.84733,-5.69051 0.72901,-13.50667 -0.29158,-13.82365 0.0426,-0.018 0.0845,-0.0239 0.1247,-0.0239 0.29159,0 0.48811,0.4097 0.62335,1.03538 -0.0233,0.0479 -0.0485,0.1078 -0.074,0.16712 0.49654,2.4216 0.43108,8.19867 -0.23246,12.67834 -0.47332,3.15481 -1.84048,7.4781 -3.90069,11.56263 m -5.21714,-0.44144 c -0.56208,-0.30848 -0.91495,-1.14315 -1.49815,-2.37086 -0.97834,-2.06869 -8.92131,-4.67831 -13.73696,-4.67831 -0.0233,0 -0.0443,0 -0.0677,0 -0.0168,0 -0.0336,0 -0.0509,0 -4.86213,0.002 -21.19814,-3.86477 -21.401,-4.81774 v 0 c 0.27679,-0.99735 0.48391,-1.96092 0.61912,-2.86951 0.90228,-6.04337 0.82409,-17.23194 -0.35286,-17.23194 -0.16692,0 -0.355,0.22581 -0.56626,0.72051 0.5008,2.42159 0.43317,8.20076 -0.23247,12.68043 -0.19227,1.28901 -0.53458,2.77021 -1.01214,4.35078 -0.0401,-0.0419 -0.0803,-0.0827 -0.12046,-0.12459 0.46277,-1.54463 0.79451,-2.99205 0.98258,-4.25356 0.86423,-5.8109 0.72477,-13.83628 -0.35712,-13.83628 -0.62546,0 -1.56577,2.68569 -2.81247,10.04758 -0.58533,3.46118 -1.52352,6.51243 -2.67724,9.18967 -1.80878,0.88749 -4.35078,1.70522 -6.28422,2.2652 4.16483,-5.37563 9.00583,-13.06713 10.73643,-21.45171 0.18173,-0.81779 0.31697,-1.61018 0.39939,-2.36452 0.0149,-0.1078 0.0275,-0.21324 0.0426,-0.32105 1.4411,-0.87691 2.93925,-1.24036 4.43952,-1.24036 5.37138,0 10.79137,4.66141 13.92502,7.16327 1.47069,1.17483 2.46594,1.62281 3.18226,1.62281 0.0613,0 0.12046,-0.005 0.17747,-0.012 -0.2134,1.69253 -0.0845,2.40255 0.262,2.40255 0.63603,0 2.00952,-2.392 3.34496,-5.47703 0.0468,0.012 0.0951,0.03 0.1437,0.0419 -0.86213,1.98416 -1.73905,3.68094 -2.42368,4.63601 -0.0105,0.62336 0.10139,0.9023 0.30428,0.9044 0.56418,0 1.84681,-2.17225 3.21185,-5.07135 2.58003,1.32702 6.30535,4.51562 8.36346,6.89912 1.27417,1.47492 3.11041,2.08558 4.95933,2.08558 2.67513,0 5.37773,-1.27624 6.44271,-3.05754 0,-0.002 0.002,-0.005 0.005,-0.006 -0.56628,1.27204 -1.28474,4.13102 -2.14687,9.23824 -1.05653,6.23774 -3.26256,11.14 -5.80033,14.93721 m 8.31698,-0.61492 c 0.98046,-2.32222 1.64818,-4.64235 1.95245,-6.67516 0.44798,-3.02585 0.65294,-7.33649 0.59803,-10.89064 0.16058,0.012 0.33812,0.0239 0.52614,0.0239 3.4316,0 11.36189,-2.30115 15.30484,-3.74438 -0.0191,2.97733 -0.3994,6.22084 -1.29741,9.70951 -0.14154,0.54507 -0.27259,1.06708 -0.39515,1.56363 -6.74486,3.60704 -12.25782,6.93506 -16.68889,10.0159 m 21.09038,-12.31908 c 0.15214,-0.48397 0.29374,-0.96357 0.42474,-1.43053 0.62546,-2.24407 1.06919,-5.25098 1.17908,-8.48815 0.0384,0.0695 0.0845,0.14136 0.13944,0.21324 -0.12046,3.16954 -0.55783,6.10883 -1.17063,8.31276 -0.11836,0.42467 -0.2472,0.85786 -0.38455,1.29739 -0.0613,0.03 -0.12889,0.0635 -0.18808,0.0952 m 2.10461,-1.06918 c 0.42683,-1.19603 0.80085,-2.34127 1.084,-3.35768 0.30638,-1.09876 0.54518,-2.32013 0.70576,-3.61967 1.50872,0.88541 3.67038,1.90175 6.3138,3.01956 -2.85261,1.35446 -5.5531,2.67305 -8.10356,3.95779"
       style="fill:#e89313;fill-opacity:1;fill-rule:nonzero;stroke:none;stroke-width:0.211304"
       id="path1700" />
    <path
       d="m 105.44424,231.27554 c 1.15373,-2.67724 2.09192,-5.72848 2.67723,-9.18966 1.2467,-7.3619 2.18701,-10.04758 2.81249,-10.04758 1.08187,0 1.22133,8.02538 0.3571,13.83629 -0.18808,1.26149 -0.51978,2.70891 -0.98256,4.25356 -0.59168,-0.60647 -1.25094,-1.07553 -1.81512,-1.07553 -0.34867,0 -0.66138,0.1815 -0.90016,0.62546 -0.28314,0.53248 -1.09033,1.07768 -2.14898,1.59746"
       style="fill:#d68619;fill-opacity:1;fill-rule:nonzero;stroke:none;stroke-width:0.211304"
       id="path1702" />
    <path
       d="m 111.97357,232.60252 c -0.093,-0.42887 -0.74802,-1.49601 -1.54464,-2.34967 0.47756,-1.58057 0.81986,-3.06184 1.01215,-4.35078 0.66561,-4.47967 0.73323,-10.25889 0.23246,-12.68044 0.21132,-0.49475 0.3994,-0.72056 0.56628,-0.72056 1.17697,0 1.25515,11.18863 0.35286,17.23193 -0.13525,0.90864 -0.34233,1.87216 -0.61913,2.86952"
       style="fill:#f1b01c;fill-opacity:1;fill-rule:nonzero;stroke:none;stroke-width:0.211304"
       id="path1704" />
    <path
       d="m 153.80991,244.85612 c -1.50026,-0.60221 -1.96513,-0.89595 -2.40254,-0.89595 -0.28103,0 -0.55153,0.1204 -1.07766,0.35699 -0.42892,0.19228 -0.77337,0.28332 -1.06285,0.28332 -0.20288,0 -0.38036,-0.0419 -0.53884,-0.13118 2.53777,-3.79715 4.74379,-8.6994 5.80033,-14.93713 0.86212,-5.1073 1.58055,-7.9662 2.14686,-9.23831 0.28739,-0.47558 0.52823,-0.72686 0.72899,-0.80082 1.02062,0.31685 1.13894,8.13312 0.29159,13.82357 -0.47122,3.15056 -1.83202,7.4633 -3.8859,11.5394"
       style="fill:#d68619;fill-opacity:1;fill-rule:nonzero;stroke:none;stroke-width:0.211304"
       id="path1706" />
    <path
       d="m 154.99956,245.31469 c -0.39723,-0.14794 -0.7459,-0.28091 -1.05441,-0.4037 2.06023,-4.08453 3.42737,-8.40788 3.90071,-11.56263 0.66349,-4.47968 0.72899,-10.2568 0.2324,-12.67834 0.0252,-0.0599 0.0509,-0.1162 0.074,-0.16712 0.29794,1.37562 0.29584,3.78871 0.32542,5.12419 0.008,0.39112 0.42048,0.59778 1.11781,0.66138 0.0551,3.55415 -0.15005,7.86474 -0.59801,10.89064 -0.30428,2.03274 -0.97201,4.35288 -1.95246,6.67516 -0.70788,0.49236 -1.3904,0.98047 -2.04544,1.46013"
       style="fill:#f1b01c;fill-opacity:1;fill-rule:nonzero;stroke:none;stroke-width:0.211304"
       id="path1708" />
    <path
       d="m 173.7339,233.83868 c 0.12256,-0.49655 0.25355,-1.0185 0.39515,-1.56368 0.89804,-3.48862 1.27839,-6.73219 1.29741,-9.70947 0.70365,-0.25755 1.28051,-0.48815 1.682,-0.67408 0.72688,-0.33362 1.47278,-0.57921 2.18066,-0.57921 0.1162,0 0.23246,0.006 0.34657,0.0239 0.0168,0.091 0.0509,0.18567 0.1036,0.28331 -0.1099,3.23722 -0.55364,6.24408 -1.17909,8.48814 -0.131,0.46721 -0.27259,0.94668 -0.42473,1.43054 -1.52562,0.78184 -2.98787,1.5468 -4.40149,2.30324"
       style="fill:#d68619;fill-opacity:1;fill-rule:nonzero;stroke:none;stroke-width:0.211304"
       id="path1710" />
    <path
       d="m 178.32345,231.44038 c 0.13735,-0.43965 0.26624,-0.8727 0.3846,-1.29744 0.61278,-2.20393 1.05019,-5.14317 1.17063,-8.31277 0.35921,0.48158 1.09667,1.03755 2.15109,1.65875 -0.16059,1.29953 -0.3994,2.52091 -0.70576,3.61967 -0.28314,1.0164 -0.65716,2.16165 -1.084,3.35768 -0.65081,0.32764 -1.28684,0.65079 -1.91654,0.97411"
       style="fill:#f1b01c;fill-opacity:1;fill-rule:nonzero;stroke:none;stroke-width:0.211304"
       id="path1712" />
    <path
       d="m 132.32439,219.34101 c -0.34657,0 -0.47547,-0.70997 -0.26205,-2.40255 1.17063,-0.13117 1.53831,-1.55727 2.15532,-2.77021 0.14369,-0.28511 0.41413,-0.41209 0.77972,-0.41209 0.19652,0 0.42258,0.0359 0.67194,0.1078 -1.33545,3.08509 -2.70893,5.47704 -3.34496,5.47704"
       style="fill:#d68619;fill-opacity:1;fill-rule:nonzero;stroke:none;stroke-width:0.211304"
       id="path1714" />
    <path
       d="m 133.69365,219.44667 c -0.20287,-0.002 -0.31482,-0.28092 -0.30428,-0.9044 0.68463,-0.95505 1.56155,-2.6519 2.42367,-4.636 0.32962,0.1078 0.69731,0.26654 1.09245,0.469 -1.36503,2.89909 -2.64766,5.07129 -3.21184,5.07129"
       style="fill:#f1b01c;fill-opacity:1;fill-rule:nonzero;stroke:none;stroke-width:0.211304"
       id="path1716" />
    <path
       d="m 89.43575,240.5075 c -2.089815,0 -3.511898,-1.98417 -3.668266,-6.85689 0,0 19.283716,-6.8336 19.505596,-33.05874 0.0803,-9.2129 0.89594,-12.69942 1.85948,-12.69942 0.63814,0 1.3418,1.52349 1.94191,3.91969 0.52404,3.12522 1.04174,7.08511 1.4094,12.14585 0.0149,0.21564 0.0275,0.43127 0.0377,0.64661 0.008,1.62069 -0.0509,3.2414 -0.19443,4.80294 v 0 c -0.1268,1.04809 -0.30637,2.08983 -0.53249,3.11886 -2.74908,11.45913 -14.33073,27.9811 -20.359262,27.9811"
       style="fill:#e8be0d;fill-opacity:1;fill-rule:nonzero;stroke:none;stroke-width:0.211304"
       id="path1718" />
    <path
       d="m 110.5219,204.6046 c -0.0105,-0.21564 -0.0233,-0.43127 -0.0377,-0.64661 -0.36765,-5.06074 -0.88537,-9.02063 -1.40942,-12.14585 0.80509,3.21399 1.4221,7.99795 1.44745,12.79246"
       style="fill:#e7cd13;fill-opacity:1;fill-rule:nonzero;stroke:none;stroke-width:0.211304"
       id="path1720" />
    <path
       d="m 109.79501,212.5264 c 0.22611,-1.02903 0.40569,-2.07077 0.53249,-3.11886 v 0 c -0.008,0.10547 -0.0191,0.21144 -0.0317,0.31686 -0.1036,0.79454 -0.23875,1.58267 -0.3994,2.36451 -0.0317,0.14556 -0.0656,0.29171 -0.10138,0.43726"
       style="fill:#e7cd13;fill-opacity:1;fill-rule:nonzero;stroke:none;stroke-width:0.211304"
       id="path1722" />
    <path
       d="m 109.89644,212.08903 c 0.16059,-0.78184 0.29583,-1.57003 0.3994,-2.36452 -0.0824,0.75436 -0.21767,1.54675 -0.3994,2.36452"
       style="fill:#e6d917;fill-opacity:1;fill-rule:nonzero;stroke:none;stroke-width:0.211304"
       id="path1724" />
    <path
       d="m 80.148876,222.52541 c -0.40359,2.95193 15.833114,6.36028 19.144264,-13.78345 3.30904,-20.1459 -12.826231,-32.70797 -19.144264,13.78345"
       style="fill:#bd2426;fill-opacity:1;fill-rule:nonzero;stroke:none;stroke-width:0.211304"
       id="path1726" />
    <path
       d="m 34.36112,214.4366 c 0.731116,6.5991 18.497671,0.9044 25.829968,6.20605 7.321729,5.30374 34.229352,11.2647 38.216682,-9.53199 3.98733,-20.80087 -13.176998,-29.08195 -25.517235,-25.36087 -12.340231,3.72323 -41.445427,-9.7306 -47.41903,-14.31594 -5.975712,-4.58953 46.823152,32.51354 46.823152,32.51354 0,0 -39.019642,0.70793 -37.933537,10.48921"
       style="fill:#3f8a37;fill-opacity:1;fill-rule:nonzero;stroke:none;stroke-width:0.211304"
       id="path1728" />
    <path
       d="m 72.679228,223.39387 c 0,0 15.759155,0.75224 18.068722,-14.12577 2.31168,-14.87377 -3.146337,-19.22455 -4.19652,-12.89595 -1.050191,6.32225 -4.249357,15.45274 -11.573194,17.46858 -7.317508,2.02011 -9.407316,10.6625 -2.299008,9.55314"
       style="fill:#87d04d;fill-opacity:1;fill-rule:nonzero;stroke:none;stroke-width:0.211304"
       id="path1730" />
    <path
       d="m 318.08926,261.35485 c 19.33865,-8.31061 18.43849,-27.67256 15.16538,-45.25316 -3.63235,-19.53937 -23.82891,-43.04922 -54.64144,-31.25839 -5.13685,1.96303 -9.91024,3.99158 -14.34342,6.00318 l -0.001,-0.012 c 0,0 -0.16693,0.0803 -0.5135,0.24318 -2.33704,1.06498 -4.56209,2.12362 -6.68781,3.1675 -9.77289,4.61913 -30.31176,14.29055 -66.48724,31.21402 -54.73231,25.60597 -55.25,38.77451 -41.43909,49.07779 12.15006,9.06921 145.83871,-7.39573 145.83871,-7.39573 l -0.11836,-0.30189 c 9.13052,-1.29318 17.58273,-3.05333 23.22882,-5.48122"
       style="fill:#dd2a24;fill-opacity:1;fill-rule:nonzero;stroke:none;stroke-width:0.211304"
       id="path1732" />
    <path
       d="m 150.34239,249.01882 h 0.002 -0.002 m 0.0426,-0.0359 c 0.0105,-0.006 0.0191,-0.018 0.0294,-0.03 -0.008,0.012 -0.0191,0.018 -0.0294,0.03"
       style="fill:#c83423;fill-opacity:1;fill-rule:nonzero;stroke:none;stroke-width:0.211304"
       id="path1734" />
    <path
       d="m 152.53786,247.1953 v -0.002 c 0.0993,-0.0778 0.20287,-0.15873 0.30428,-0.23899 -0.002,0 -0.002,0 -0.002,0.002 -0.10139,0.0785 -0.20287,0.15872 -0.30218,0.23899"
       style="fill:#d43f22;fill-opacity:1;fill-rule:nonzero;stroke:none;stroke-width:0.211304"
       id="path1736" />
    <path
       d="m 150.43115,248.94276 c 0.66138,-0.57263 1.36292,-1.1558 2.10671,-1.74962 v 0.002 c -0.74379,0.59179 -1.44533,1.17483 -2.10671,1.74751"
       style="fill:#c83423;fill-opacity:1;fill-rule:nonzero;stroke:none;stroke-width:0.211304"
       id="path1738" />
    <path
       d="m 152.84003,246.95648 c 0,-0.002 0,-0.002 0.002,-0.002 0.68463,-0.53908 1.40096,-1.08403 2.15743,-1.63976 0,0 0,0 0.002,0 -0.75647,0.55586 -1.47491,1.10092 -2.16165,1.64186"
       style="fill:#dc5c1d;fill-opacity:1;fill-rule:nonzero;stroke:none;stroke-width:0.211304"
       id="path1740" />
    <path
       d="m 188.34355,226.50847 v 0 c 0.73535,-0.3486 1.47913,-0.69942 2.2356,-1.05227 -0.75435,0.3528 -1.50025,0.70577 -2.2356,1.05227"
       style="fill:#d43f22;fill-opacity:1;fill-rule:nonzero;stroke:none;stroke-width:0.211304"
       id="path1742" />
    <path
       d="m 157.045,243.85458 c 0,0 0,0 0,0 4.43108,-3.08083 9.94404,-6.40892 16.6889,-10.0159 v 0.002 c -6.74699,3.60913 -12.25571,6.93297 -16.6889,10.0138 m 21.08828,-12.31698 0.002,-0.002 c 0.0593,-0.03 0.1268,-0.0653 0.18808,-0.0952 v 0 c -0.0654,0.0359 -0.12465,0.0635 -0.19018,0.0971 m 2.10672,-1.07133 c 0,0 0,0 0,0 2.55045,-1.28475 5.25095,-2.60327 8.10356,-3.95773 v 0 c -2.85261,1.35446 -5.55311,2.67514 -8.10356,3.95773"
       style="fill:#d7591e;fill-opacity:1;fill-rule:nonzero;stroke:none;stroke-width:0.211304"
       id="path1744" />
    <path
       d="m 155.00168,245.31469 c -0.002,0 -0.002,0 -0.002,0 0.65505,-0.47978 1.33757,-0.96782 2.04545,-1.46011 0,0 0,0 0,0 -0.70788,0.49235 -1.3904,0.9804 -2.04334,1.46011"
       style="fill:#dd6f1b;fill-opacity:1;fill-rule:nonzero;stroke:none;stroke-width:0.211304"
       id="path1746" />
    <path
       d="m 173.7339,233.84078 v -0.002 c 1.41363,-0.7565 2.87586,-1.5214 4.40149,-2.30324 l -0.002,0.002 c -1.51929,0.77974 -2.98786,1.54679 -4.39938,2.30324"
       style="fill:#cd5120;fill-opacity:1;fill-rule:nonzero;stroke:none;stroke-width:0.211304"
       id="path1748" />
    <path
       d="m 178.32345,231.44038 v 0 c 0.62969,-0.32345 1.26571,-0.64659 1.91654,-0.97411 0,0 0,0 0,0 -0.6487,0.32764 -1.28896,0.65288 -1.91654,0.97411"
       style="fill:#dd6f1b;fill-opacity:1;fill-rule:nonzero;stroke:none;stroke-width:0.211304"
       id="path1750" />
    <path
       d="m 255.71402,194.88034 v 0 c 0.47122,-0.22162 0.92342,-0.43545 1.35237,-0.63815 -0.42893,0.20305 -0.87904,0.41629 -1.35237,0.63815"
       style="fill:#ba2226;fill-opacity:1;fill-rule:nonzero;stroke:none;stroke-width:0.211304"
       id="path1752" />
    <path
       d="m 248.73885,198.17242 -0.001,-0.002 c 2.29478,-1.08187 4.3085,-2.03065 6.0581,-2.85687 0,0 0,0 0,0.002 -1.74748,0.82406 -3.76332,1.77494 -6.056,2.8568"
       style="fill:#d43f22;fill-opacity:1;fill-rule:nonzero;stroke:none;stroke-width:0.211304"
       id="path1754" />
    <path
       d="m 254.79485,195.31562 c 0,-0.002 0,-0.002 0,-0.002 0.31481,-0.14795 0.62124,-0.29171 0.91917,-0.43306 v 0 c -0.29793,0.14135 -0.60432,0.2875 -0.91917,0.43545"
       style="fill:#c83423;fill-opacity:1;fill-rule:nonzero;stroke:none;stroke-width:0.211304"
       id="path1756" />
    <path
       d="m 215.37161,213.84499 h -0.001 c 2.3138,-1.08403 4.52617,-2.12151 6.65189,-3.11887 0.001,0 0.001,0 0.001,0 -2.12362,0.99736 -4.34022,2.03694 -6.65191,3.11887"
       style="fill:#dc5c1d;fill-opacity:1;fill-rule:nonzero;stroke:none;stroke-width:0.211304"
       id="path1758" />
    <path
       d="m 222.54332,210.48311 c 0.001,-0.002 0.005,-0.005 0.005,-0.005 11.1844,-5.24674 19.78452,-9.29318 26.18919,-12.30853 l 0.001,0.002 c -6.40679,3.01741 -15.00691,7.06181 -26.19552,12.31063"
       style="fill:#d7591e;fill-opacity:1;fill-rule:nonzero;stroke:none;stroke-width:0.211304"
       id="path1760" />
    <path
       d="m 222.02351,210.72612 c 0,0 0,0 -10e-4,0 0.17538,-0.0827 0.35285,-0.16471 0.52614,-0.24737 0,0 -0.001,0.002 -0.005,0.005 -0.17112,0.0803 -0.34441,0.16292 -0.51979,0.24319"
       style="fill:#dd6f1b;fill-opacity:1;fill-rule:nonzero;stroke:none;stroke-width:0.211304"
       id="path1762" />
    <path
       d="m 197.43812,222.24646 v 0 c 3.45063,-1.61645 6.74277,-3.15689 9.88488,-4.62972 h 0.001 c -3.14423,1.47283 -6.43636,3.01536 -9.88699,4.62972"
       style="fill:#ce2226;fill-opacity:1;fill-rule:nonzero;stroke:none;stroke-width:0.211304"
       id="path1764" />
    <path
       d="m 215.37161,213.84709 -0.001,-0.002 v 0 h 0.001 v 0.002"
       style="fill:#cf3823;fill-opacity:1;fill-rule:nonzero;stroke:none;stroke-width:0.211304"
       id="path1766" />
    <path
       d="m 207.32511,217.61674 h -0.001 c 2.79978,-1.31218 5.48337,-2.56943 8.0465,-3.77175 l 0.001,0.002 c -2.56524,1.20233 -5.24671,2.45747 -8.0465,3.76972"
       style="fill:#c52226;fill-opacity:1;fill-rule:nonzero;stroke:none;stroke-width:0.211304"
       id="path1768" />
    <path
       d="m 190.57915,225.4562 c 2.35184,-1.10092 4.63815,-2.1701 6.85897,-3.20974 v 0 c -2.22082,1.03964 -4.50713,2.10882 -6.85897,3.20974"
       style="fill:#d43f22;fill-opacity:1;fill-rule:nonzero;stroke:none;stroke-width:0.211304"
       id="path1770" />
    <path
       d="m 323.15846,195.27757 c -6.70894,-7.84579 -16.38461,-13.60171 -28.46705,-13.60171 -4.96778,0 -10.33706,0.96986 -16.07821,3.16744 5.74115,-2.19758 11.11255,-3.1696 16.07821,-3.1696 12.08455,0 21.75811,5.75389 28.46705,13.60387"
       style="fill:#a6631d;fill-opacity:1;fill-rule:nonzero;stroke:none;stroke-width:0.211304"
       id="path1772" />
    <path
       d="m 257.96232,193.80476 v 0 c 0.0168,-0.012 0.0359,-0.018 0.0551,-0.03 v 0 c -0.0191,0.006 -0.0384,0.018 -0.0551,0.03 m 0.70788,-0.34261 v 0 c 0.13518,-0.0677 0.27259,-0.13298 0.40993,-0.19886 -0.13739,0.0653 -0.27469,0.13117 -0.40993,0.19886"
       style="fill:#ce2226;fill-opacity:1;fill-rule:nonzero;stroke:none;stroke-width:0.211304"
       id="path1774" />
    <path
       d="m 257.06639,194.24219 c 0.29584,-0.14555 0.59586,-0.2917 0.89593,-0.43725 v 0 c -0.30002,0.14555 -0.59801,0.2917 -0.89593,0.43725"
       style="fill:#ba2226;fill-opacity:1;fill-rule:nonzero;stroke:none;stroke-width:0.211304"
       id="path1776" />
    <path
       d="m 258.01727,193.77732 v 0 c 0.2155,-0.10546 0.43318,-0.21143 0.65293,-0.31506 v 0 c -0.21976,0.10547 -0.43738,0.20905 -0.65293,0.31506"
       style="fill:#da4221;fill-opacity:1;fill-rule:nonzero;stroke:none;stroke-width:0.211304"
       id="path1778" />
    <path
       d="m 263.76899,191.06625 c 0.0143,-0.005 0.0275,-0.012 0.0377,-0.018 -0.0117,0.006 -0.0233,0.012 -0.0377,0.018 m 0.5008,-0.21983 c 4.36345,-1.98201 9.05867,-3.97678 14.10253,-5.91231 -5.04386,1.93553 -9.73908,3.9324 -14.10253,5.91231"
       style="fill:#a6631d;fill-opacity:1;fill-rule:nonzero;stroke:none;stroke-width:0.211304"
       id="path1780" />
    <path
       d="m 148.33923,273.91064 c -8.12469,-6.40258 -10.54204,-13.95883 2.00316,-24.89182 h 0.002 c 0.0126,-0.012 0.0275,-0.0239 0.0401,-0.0359 0.0105,-0.006 0.021,-0.018 0.0294,-0.03 0.007,-0.005 0.0126,-0.006 0.0168,-0.012 0.66138,-0.57262 1.36292,-1.15579 2.10672,-1.74746 0.0993,-0.0803 0.20071,-0.16052 0.30218,-0.23899 0.68675,-0.54088 1.40518,-1.08612 2.16166,-1.64185 0.65292,-0.47978 1.33545,-0.96776 2.04332,-1.46013 4.43318,-3.08082 9.94191,-6.40466 16.6889,-10.01373 1.41151,-0.7565 2.88009,-1.52355 4.39937,-2.30324 0.0654,-0.0359 0.12465,-0.0635 0.19018,-0.0971 0.62757,-0.32104 1.26783,-0.64659 1.91653,-0.97411 2.55046,-1.28264 5.25094,-2.60328 8.10357,-3.95774 0.73534,-0.3468 1.48124,-0.69942 2.23559,-1.05233 v 0 c 2.35184,-1.10093 4.63817,-2.1701 6.85897,-3.20974 3.45064,-1.61436 6.74277,-3.1569 9.88699,-4.62966 2.7998,-1.31224 5.48127,-2.56739 8.0465,-3.76972 v -0.002 c 2.31169,-1.08193 4.52829,-2.12152 6.6519,-3.11888 0.17539,-0.0803 0.34867,-0.16291 0.5198,-0.24318 11.18861,-5.24882 19.78873,-9.29323 26.19552,-12.31069 2.29266,-1.08187 4.30852,-2.03274 6.056,-2.85681 0.31488,-0.14795 0.62124,-0.2935 0.91917,-0.43546 0.47331,-0.22162 0.92341,-0.43545 1.35236,-0.63814 v 0 c 0.29793,-0.14556 0.59587,-0.29171 0.89593,-0.43726 0.0168,-0.006 0.0359,-0.018 0.0551,-0.03 0.21551,-0.10547 0.43317,-0.20905 0.65292,-0.31506 0.1352,-0.0677 0.27261,-0.13298 0.40995,-0.19886 1.50872,-0.72477 3.06604,-1.45377 4.67408,-2.18914 0.005,-0.002 0.0117,-0.006 0.0143,-0.006 0.0144,-0.005 0.0275,-0.012 0.0377,-0.018 0.31063,-0.14556 0.45852,-0.21564 0.45852,-0.21564 l 0.005,0.012 v 0 c 4.36345,-1.97992 9.05866,-3.97678 14.10252,-5.91231 0.0804,-0.03 0.16058,-0.0611 0.24091,-0.091 v 0 c 5.74115,-2.19758 11.11042,-3.16744 16.07822,-3.16744 12.08243,0 21.75811,5.75591 28.46705,13.60171 5.32912,6.23139 8.78819,13.78556 10.09406,20.82203 0.29584,1.59746 0.56417,3.20757 0.80718,4.82198 -6.83572,-13.23616 -19.52038,-33.35665 -38.24626,-33.35665 -3.31961,0 -6.83361,0.63389 -10.53358,2.04753 -3.46752,1.32913 -7.52246,8.17752 -11.15479,13.10937 1.832,-9.57212 7.02589,-14.99212 7.02589,-14.99212 -0.14579,-0.006 -0.28739,-0.006 -0.43109,-0.006 -8.9699,0 -11.66827,10.71108 -11.55838,20.0064 -0.0378,0.018 -0.0867,0.0419 -0.14376,0.0695 -0.10138,-8.1796 1.97148,-17.46649 8.57689,-19.588 -7.73379,1.29319 -10.71953,9.77079 -10.92872,17.56797 -0.2472,-0.60013 -0.48601,-1.26996 -0.72266,-1.9398 -0.73112,-2.07928 -1.44109,-4.1564 -2.35394,-4.1564 -0.0994,0 -0.20077,0.0239 -0.30218,0.0761 -4.18174,1.97362 -13.34816,6.10673 -25.30382,11.51405 -1.09879,0.26834 -2.08136,0.72476 -2.95616,1.33757 -0.0824,0.0359 -0.15849,0.0719 -0.23874,0.1078 0.73322,-0.5283 1.54254,-0.94452 2.43636,-1.23191 -2.14477,0.35939 -3.92395,1.26995 -5.37985,2.56524 -15.01958,6.8019 -33.36723,15.15696 -51.51201,23.6472 -1.18543,0.55346 -2.33914,1.10936 -3.46119,1.66293 0.94243,-3.46962 2.32437,-5.50027 2.32437,-5.50027 -4.0127,0.52171 -5.83414,3.68304 -6.3772,7.57112 -0.0336,0.018 -0.0654,0.0359 -0.0993,0.0539 0.42049,-3.03016 1.61859,-5.61863 4.02113,-6.86109 -3.4168,1.17694 -5.08611,4.22818 -5.63127,7.72954 -21.73488,11.89434 -28.62766,23.26896 -22.77027,31.55843"
       style="fill:#ce2226;fill-opacity:1;fill-rule:nonzero;stroke:none;stroke-width:0.211304"
       id="path1782" />
    <path
       d="m 319.13732,258.80016 c 0,0 -15.30907,-6.24618 -18.70474,-26.32229 -3.3978,-20.08036 -4.53252,-5.38617 -3.16959,3.78871 1.37138,9.17067 10.29479,28.21983 21.87433,22.53358"
       style="fill:#ba2226;fill-opacity:1;fill-rule:nonzero;stroke:none;stroke-width:0.211304"
       id="path1784" />
    <path
       d="m 297.11298,236.29406 c -0.66351,-4.47967 -0.73113,-10.25889 -0.23031,-12.68044 -1.70312,-3.99582 -1.95034,9.61225 -0.91919,16.51137 1.28475,8.63819 9.13897,22.43643 19.7296,19.68312 -9.93769,1.09242 -17.33973,-15.23513 -18.58008,-23.51405"
       style="fill:#f2701b;fill-opacity:1;fill-rule:nonzero;stroke:none;stroke-width:0.211304"
       id="path1786" />
    <path
       d="m 272.73256,266.24866 c 0,0 -15.30696,-6.24618 -18.70686,-26.32649 -3.38934,-20.07826 -4.5325,-5.38616 -3.16535,3.78656 1.36926,9.17912 10.29902,28.22619 21.87221,22.53993"
       style="fill:#ba2226;fill-opacity:1;fill-rule:nonzero;stroke:none;stroke-width:0.211304"
       id="path1788" />
    <path
       d="m 250.7082,243.74048 c -0.66349,-4.47969 -0.72899,-10.25681 -0.23245,-12.67835 -1.69679,-4.00002 -1.9419,9.60805 -0.91917,16.50927 1.28894,8.64029 9.14316,22.43853 19.73169,19.69157 -9.94193,1.08612 -17.3376,-15.24357 -18.58009,-23.52249"
       style="fill:#f2701b;fill-opacity:1;fill-rule:nonzero;stroke:none;stroke-width:0.211304"
       id="path1790" />
    <path
       d="m 222.84548,271.90958 c 0,0 -11.19496,-3.90071 -14.37299,-18.15963 -3.18436,-14.24831 -3.45272,-3.68304 -2.12996,2.83363 1.32066,6.52088 8.42898,19.83102 16.50295,15.326"
       style="fill:#ba2226;fill-opacity:1;fill-rule:nonzero;stroke:none;stroke-width:0.211304"
       id="path1792" />
    <path
       d="m 206.239,256.61108 c -0.64449,-3.18439 -0.90862,-7.31541 -0.64025,-9.07137 -1.36926,-2.7977 -1.03752,6.95831 -0.0443,11.85847 1.24036,6.14052 7.383,15.72322 14.8611,13.36296 -7.07239,1.1495 -12.9826,-10.26734 -14.17647,-16.15006"
       style="fill:#f2701b;fill-opacity:1;fill-rule:nonzero;stroke:none;stroke-width:0.211304"
       id="path1794" />
    <path
       d="m 240.78109,211.00716 c 0,0 -11.43163,11.93873 -6.35396,31.65983 5.08189,19.72116 -1.94612,6.76602 -4.43318,-2.17009 -2.49129,-8.93396 -2.10038,-29.97155 10.78714,-29.48974"
       style="fill:#ba2226;fill-opacity:1;fill-rule:nonzero;stroke:none;stroke-width:0.211304"
       id="path1796" />
    <path
       d="m 229.84604,240.53493 c 1.21711,4.35504 3.50766,9.66297 4.94875,11.67255 0.0761,4.34017 -5.69044,-7.98525 -7.56471,-14.7069 -2.3455,-8.41417 -0.79451,-24.21348 9.99474,-26.01592 -9.51931,3.0555 -9.62497,20.97632 -7.37878,29.05027"
       style="fill:#f2701b;fill-opacity:1;fill-rule:nonzero;stroke:none;stroke-width:0.211304"
       id="path1798" />
    <path
       d="m 179.19614,233.85982 c 0,0 -6.64132,9.7602 -0.72901,23.04494 5.90811,13.28055 -0.57052,4.99318 -3.38299,-1.00161 -2.80403,-5.99892 -5.0185,-20.8558 4.112,-22.04333"
       style="fill:#ba2226;fill-opacity:1;fill-rule:nonzero;stroke:none;stroke-width:0.211304"
       id="path1800" />
    <path
       d="m 174.99117,255.94118 c 1.37137,2.9266 3.60486,6.39413 4.8579,7.63659 0.56844,3.04915 -4.95089,-4.95084 -7.07028,-9.46011 -2.64342,-5.64822 -3.42102,-16.95095 3.96198,-19.49503 -6.33704,3.27309 -4.28316,15.90705 -1.7496,21.31855"
       style="fill:#f2701b;fill-opacity:1;fill-rule:nonzero;stroke:none;stroke-width:0.211304"
       id="path1802" />
    <path
       d="m 281.15097,187.72977 c 0,0 -11.43584,11.93872 -6.35818,31.66198 5.08612,19.719 -1.94402,6.76596 -4.43107,-2.168 -2.48918,-8.93612 -2.09616,-29.97371 10.78925,-29.49398"
       style="fill:#ba2226;fill-opacity:1;fill-rule:nonzero;stroke:none;stroke-width:0.211304"
       id="path1804" />
    <path
       d="m 270.21381,217.25544 c 1.21289,4.36133 3.50766,9.66507 4.95088,11.67883 0.0719,4.33598 -5.69469,-7.98735 -7.56474,-14.70893 -2.34337,-8.41424 -0.79873,-24.21138 9.99475,-26.01591 -9.51507,3.05543 -9.62495,20.9805 -7.38089,29.04601"
       style="fill:#f2701b;fill-opacity:1;fill-rule:nonzero;stroke:none;stroke-width:0.211304"
       id="path1806" />
    <path
       d="m 174.08043,272.6132 c -6.4596,0 -12.1416,-0.33184 -16.46278,-1.1347 6.35183,-0.24318 28.51354,-3.64082 49.69267,-7.14632 1.10301,2.21231 2.62018,4.39091 4.43107,6.02641 -12.85794,1.25516 -26.43219,2.25461 -37.66096,2.25461 m 39.53735,-2.44059 c -1.76862,-1.6355 -3.31751,-3.84788 -4.54729,-6.13208 0.0359,-0.006 0.0698,-0.012 0.1057,-0.018 1.23191,2.29054 2.785,4.50501 4.55575,6.13842 -0.0401,0.005 -0.0741,0.006 -0.1141,0.012 m 5.11358,-0.5283 c -1.88484,-1.32697 -4.13525,-3.31959 -6.11517,-6.19544 19.54785,-3.27527 37.00168,-6.41737 38.58858,-6.93297 0.42048,-0.13716 0.80931,-0.26595 1.16851,-0.38874 1.72004,3.45484 4.11623,6.74279 7.01958,8.90863 -1.34813,0.13956 -2.84841,0.27492 -4.50715,0.4097 -4.46699,0.36358 -19.11257,2.39201 -36.15435,4.19864 m 43.0429,-4.88112 c -2.85897,-2.25675 -5.29742,-5.76023 -7.16537,-9.46016 0.0468,-0.018 0.0908,-0.0359 0.1352,-0.0539 1.87005,3.71472 4.31486,7.23298 7.18227,9.49604 -0.0509,0.006 -0.10139,0.012 -0.15215,0.018 m 6.13209,-1.40303 c -2.44057,-1.8067 -5.44112,-4.55365 -8.08032,-8.49869 0.56209,-0.31087 0.91495,-1.1432 1.49815,-2.37086 0.97836,-2.06869 8.92344,-4.67831 13.73697,-4.67831 0.0233,0 0.0443,0 0.0677,0 0.0168,0 0.0336,0 0.0509,0 4.86214,0 21.20027,-3.86477 21.40101,-4.81774 0,0 0,0 0,-0.002 1.01637,3.67041 2.95616,7.77393 5.59748,11.04919 0.18808,0.92973 0.44589,1.69043 0.75858,2.08557 1.48335,1.87216 -16.04864,3.36612 -21.42847,3.60907 -0.22612,0.006 -0.46062,0.012 -0.69942,0.012 -1.67987,0 -3.64078,-0.2366 -5.50027,-0.47141 -1.85738,-0.23479 -3.61121,-0.46898 -4.8727,-0.46898 -1.56578,0 -2.37719,0.36117 -1.69679,1.52989 0.79029,1.35657 0.58951,2.30319 -0.83254,3.01956 m 45.456,-9.81092 c -0.82409,0 -1.72425,-0.26835 -2.63709,-0.70578 -2.6878,-2.6434 -5.50873,-6.29056 -7.61333,-11.17593 1.80666,0.88751 4.34866,1.70314 6.28211,2.26306 3.68728,4.76072 6.84629,7.70421 6.84629,7.70421 -0.69097,1.3735 -1.70947,1.91444 -2.87798,1.91444 m -11.52037,-4.13946 c -1.61014,-2.87802 -2.87376,-5.97365 -3.71687,-8.76499 0.0401,-0.0419 0.0803,-0.0826 0.12046,-0.12459 0.81775,2.74067 2.04544,5.78347 3.61122,8.62974 -0.007,0.0845 -0.0117,0.17311 -0.0143,0.25995"
       style="fill:#e56a1a;fill-opacity:1;fill-rule:nonzero;stroke:none;stroke-width:0.211304"
       id="path1808" />
    <path
       d="m 310.72526,252.84346 c -2.79347,-1.33331 -5.72849,-4.23032 -7.08084,-5.8109 -0.29583,-0.34681 -0.55154,-0.49895 -0.77127,-0.49895 -0.59376,0 -0.91495,1.12416 -1.01638,2.61597 -1.56577,-2.84628 -2.79345,-5.88907 -3.6112,-8.62969 0.59166,-0.60645 1.25093,-1.07557 1.81511,-1.07557 0.35077,0 0.66349,0.18149 0.90016,0.62551 0.28314,0.53249 1.09033,1.07761 2.15109,1.59747 2.1046,4.88537 4.92553,8.53246 7.61333,11.17593"
       style="fill:#ce5520;fill-opacity:1;fill-rule:nonzero;stroke:none;stroke-width:0.211304"
       id="path1810" />
    <path
       d="m 302.17797,254.04159 c -2.64132,-3.27525 -4.58111,-7.37878 -5.59748,-11.04918 0.0951,-0.42887 0.74802,-1.49391 1.54463,-2.34757 0.8431,2.79135 2.10672,5.88698 3.71687,8.76493 -0.0741,1.47067 0.0527,3.23932 0.33597,4.63182"
       style="fill:#f2971c;fill-opacity:1;fill-rule:nonzero;stroke:none;stroke-width:0.211304"
       id="path1812" />
    <path
       d="m 261.9264,264.74422 c -2.86741,-2.26311 -5.31221,-5.78132 -7.18226,-9.49611 1.50026,-0.60221 1.96514,-0.89588 2.40254,-0.89588 0.28103,0 0.55154,0.12039 1.07978,0.35699 0.42683,0.19226 0.77125,0.28331 1.06075,0.28331 0.20287,0 0.38034,-0.0419 0.53883,-0.13118 2.6392,3.94504 5.63974,6.692 8.08032,8.49869 -1.14951,0.58101 -3.10198,1.01005 -5.97996,1.38405"
       style="fill:#ce5520;fill-opacity:1;fill-rule:nonzero;stroke:none;stroke-width:0.211304"
       id="path1814" />
    <path
       d="m 259.39286,265.03579 c -2.90333,-2.16589 -5.29954,-5.45379 -7.01957,-8.90862 0.92764,-0.31926 1.65452,-0.59359 2.23561,-0.82407 1.86795,3.69993 4.30641,7.20341 7.16536,9.4601 -0.73534,0.0952 -1.52773,0.18389 -2.3814,0.27253"
       style="fill:#f2971c;fill-opacity:1;fill-rule:nonzero;stroke:none;stroke-width:0.211304"
       id="path1816" />
    <path
       d="m 213.7319,270.15997 c -1.77076,-1.63341 -3.32385,-3.84788 -4.55576,-6.13842 1.15373,-0.18987 2.299,-0.38036 3.44006,-0.57262 1.97993,2.87587 4.23032,4.86847 6.11517,6.19544 -1.64395,0.1755 -3.31539,0.34682 -4.99947,0.51573"
       style="fill:#ce5520;fill-opacity:1;fill-rule:nonzero;stroke:none;stroke-width:0.211304"
       id="path1818" />
    <path
       d="m 211.74139,270.35859 c -1.81089,-1.6355 -3.32806,-3.8141 -4.43107,-6.02641 0.58741,-0.0971 1.17485,-0.19467 1.76017,-0.29171 1.22978,2.2842 2.77867,4.49658 4.54729,6.13209 -0.62123,0.0611 -1.25093,0.12458 -1.87639,0.18567"
       style="fill:#f2971c;fill-opacity:1;fill-rule:nonzero;stroke:none;stroke-width:0.211304"
       id="path1820" />
    <path
       d="m 149.52464,267.85673 c -0.0719,-0.1036 -0.13734,-0.20724 -0.19652,-0.31266 -2.4765,-4.48603 7.87324,-11.21613 21.99689,-18.05817 0.33387,1.72637 0.84522,3.33019 1.45377,4.63183 0.0317,0.0695 0.0656,0.13716 0.0993,0.20725 -14.21241,5.3967 -25.12421,10.35604 -23.5521,13.20022 0.0634,0.1162 0.12891,0.22641 0.19863,0.33183 m 24.63186,-14.01376 c -0.51135,-1.5066 -0.9551,-3.27101 -1.24881,-5.11783 0.0317,-0.012 0.0654,-0.03 0.0951,-0.0419 0.29373,1.84892 0.73745,3.61758 1.25092,5.12419 -0.0336,0.012 -0.0633,0.0239 -0.0972,0.0359 m 2.82515,-1.05443 c -0.54304,-1.95668 -0.82621,-3.81195 -0.92552,-5.53832 18.15959,-8.37613 40.49878,-16.57689 50.40266,-20.69521 -0.26199,2.51241 -0.21976,5.0396 0.0654,7.32596 -7.40626,4.34862 -30.49982,11.8563 -49.54266,18.90757 m 71.45085,-16.0867 c -3.43161,0 -11.3619,-2.30108 -15.30486,-3.74431 -0.0275,-3.98942 0.59587,-7.50134 1.49604,-10.48077 1.77709,-0.45461 4.03171,-0.66138 6.2314,-0.66138 3.41046,0 6.68994,0.49655 7.83732,1.33547 0.19018,0.13717 0.3867,0.20306 0.59166,0.20306 2.48073,-0.002 6.08984,-9.55313 10.8928,-13.82569 1.23825,-1.10091 2.35182,-1.55733 3.36821,-1.55733 1.20021,0 2.26519,0.63599 3.23718,1.60167 0.15215,1.68833 0.43109,3.2689 0.81776,4.65295 0.84945,3.05335 2.50397,7.26469 4.04862,10.54204 -2.58004,1.32697 -6.30535,4.51556 -8.36346,6.89912 -1.27417,1.47492 -3.11043,2.08558 -4.95935,2.08558 -2.67513,0 -5.37771,-1.2763 -6.44058,-3.0555 -0.001,-0.005 -0.005,-0.006 -0.007,-0.012 -0.24935,-0.56003 -0.47122,-0.81137 -0.66138,-0.81137 -0.0233,0 -0.0443,0.005 -0.0655,0.012 -0.0443,-0.018 -0.0867,-0.0239 -0.12681,-0.0239 -0.29157,0 -0.4881,0.4097 -0.62335,1.03539 -0.18173,-0.38034 -0.34441,-0.55584 -0.49237,-0.55584 -0.58531,0 -0.89804,2.79134 -0.95086,6.33914 -0.16058,0.012 -0.33813,0.0239 -0.52615,0.0239 m -19.75494,-4.47759 c -0.0824,-2.18907 -0.0126,-4.48596 0.25571,-6.72793 0.0509,-0.0239 0.0994,-0.0419 0.14788,-0.0677 -0.26415,2.19123 -0.33806,4.43739 -0.26624,6.58005 -0.0359,0.0695 -0.0825,0.14135 -0.13741,0.21563"
       style="fill:#e56a1a;fill-opacity:1;fill-rule:nonzero;stroke:none;stroke-width:0.211304"
       id="path1822" />
    <path
       d="m 251.87884,230.68598 c -0.28739,-0.47739 -0.52615,-0.72686 -0.72688,-0.80084 0.021,-0.006 0.0426,-0.012 0.0654,-0.012 0.19018,0 0.41204,0.25156 0.66138,0.81144"
       style="fill:#ce5520;fill-opacity:1;fill-rule:nonzero;stroke:none;stroke-width:0.211304"
       id="path1824" />
    <path
       d="m 248.9586,236.67861 c 0.0527,-3.5478 0.36555,-6.33914 0.95088,-6.33914 0.14789,0 0.31063,0.1755 0.49236,0.55584 -0.29793,1.37561 -0.29585,3.78871 -0.32333,5.12418 -0.0117,0.39113 -0.42258,0.59779 -1.11991,0.65923"
       style="fill:#f2971c;fill-opacity:1;fill-rule:nonzero;stroke:none;stroke-width:0.211304"
       id="path1826" />
    <path
       d="m 233.1276,232.95752 c -0.70365,-0.25755 -1.28051,-0.48815 -1.68199,-0.67193 -0.7269,-0.33602 -1.47279,-0.581 -2.18067,-0.581 -0.11608,0 -0.2303,0.006 -0.34657,0.0239 -0.0144,0.091 -0.0509,0.18569 -0.10348,0.28333 -0.0719,-2.14267 0.001,-4.38883 0.26624,-6.58006 1.41363,-0.63815 2.28421,-1.10092 2.48285,-1.3629 0.53249,-0.70369 1.64395,-1.22557 3.05968,-1.58903 -0.90016,2.97937 -1.5235,6.49128 -1.49604,10.48075"
       style="fill:#ce5520;fill-opacity:1;fill-rule:nonzero;stroke:none;stroke-width:0.211304"
       id="path1828" />
    <path
       d="m 226.52431,233.88091 c -0.28522,-2.28629 -0.32751,-4.81348 -0.0654,-7.32595 0.94243,-0.39113 1.77076,-0.74591 2.47441,-1.05863 -0.26834,2.24196 -0.33812,4.53886 -0.25571,6.72799 -0.3613,0.47978 -1.09878,1.03539 -2.1532,1.65659"
       style="fill:#f2971c;fill-opacity:1;fill-rule:nonzero;stroke:none;stroke-width:0.211304"
       id="path1830" />
    <path
       d="m 174.25371,253.80493 c -0.5135,-1.50659 -0.95721,-3.27525 -1.25093,-5.12417 1.0037,-0.47738 2.02007,-0.95513 3.05335,-1.43053 0.0993,1.72636 0.38246,3.58163 0.92553,5.5383 -0.91707,0.34023 -1.83201,0.68038 -2.72795,1.0164"
       style="fill:#ce5520;fill-opacity:1;fill-rule:nonzero;stroke:none;stroke-width:0.211304"
       id="path1832" />
    <path
       d="m 172.87811,254.32473 c -0.0336,-0.0695 -0.0677,-0.13716 -0.0993,-0.20725 -0.60856,-1.30163 -1.11992,-2.90545 -1.45378,-4.63181 0.52404,-0.25577 1.05019,-0.50734 1.58268,-0.76071 0.29374,1.84683 0.73745,3.61123 1.24882,5.11783 -0.42684,0.16054 -0.8558,0.32106 -1.2784,0.48158"
       style="fill:#f2971c;fill-opacity:1;fill-rule:nonzero;stroke:none;stroke-width:0.211304"
       id="path1834" />
    <path
       d="m 276.67129,227.34105 c -0.0633,0 -0.12249,-0.005 -0.17964,-0.012 -0.20706,-1.63975 -0.73533,-4.20289 -1.69888,-7.93875 -0.31489,-1.22348 -0.56628,-2.4152 -0.76071,-3.57529 0.59587,-2.21238 1.28896,-6.42157 2.72584,-13.03755 2.35606,-10.82936 13.58059,-13.97782 19.94088,-13.97782 2.14053,0 3.73166,0.35699 4.24512,0.89804 1.49604,1.57633 -0.0117,3.84788 -1.46434,12.5029 -0.80508,3.21608 -1.4242,8.00639 -1.44744,12.80725 -0.0761,1.60592 -0.005,3.20547 0.18592,4.78605 -1.44321,-0.8769 -2.93925,-1.24035 -4.44164,-1.24035 -5.37138,0 -10.79136,4.6614 -13.925,7.16326 -1.47069,1.17483 -2.46594,1.62281 -3.18016,1.62281 m -3.92816,-3.04279 c -0.9551,-2.19758 -1.89119,-4.75012 -2.52932,-7.04282 -0.33812,-1.21713 -0.62336,-2.6582 -0.83043,-4.23878 0.0654,0.0994 0.12883,0.20306 0.19227,0.30429 0.20287,1.44957 0.47121,2.77235 0.78606,3.9028 0.63814,2.2842 1.57,4.83469 2.52298,7.03227 -0.0467,0.012 -0.0951,0.03 -0.14153,0.0419"
       style="fill:#e56a1a;fill-opacity:1;fill-rule:nonzero;stroke:none;stroke-width:0.211304"
       id="path1836" />
    <path
       d="m 276.49169,227.33045 c -1.17065,-0.13117 -1.53831,-1.55727 -2.15321,-2.77021 -0.14579,-0.28511 -0.41629,-0.41209 -0.77972,-0.41209 -0.19861,0 -0.42473,0.0359 -0.67405,0.1078 -0.95298,-2.19758 -1.88485,-4.74802 -2.52299,-7.03221 -0.31488,-1.13051 -0.58323,-2.45329 -0.78607,-3.9028 0.56418,0.89804 1.10513,1.80028 1.64185,2.61171 0.77128,1.17063 1.29953,1.79818 1.72637,1.79818 0.41838,0 0.73746,-0.61065 1.08822,-1.91438 0.19443,1.16004 0.44589,2.35181 0.7607,3.57528 0.96355,3.73588 1.49182,6.29901 1.6989,7.9387"
       style="fill:#ce5520;fill-opacity:1;fill-rule:nonzero;stroke:none;stroke-width:0.211304"
       id="path1838" />
    <path
       d="m 271.64856,224.76731 c -1.54464,-3.27729 -3.19916,-7.48863 -4.04861,-10.54197 -0.3867,-1.38405 -0.66562,-2.96463 -0.81775,-4.65296 0.9382,0.93183 1.79398,2.17008 2.60118,3.44429 0.20707,1.58052 0.49235,3.02164 0.83043,4.23877 0.63813,2.29264 1.57422,4.84524 2.52932,7.04282 -0.33176,0.1078 -0.69943,0.26654 -1.09457,0.469"
       style="fill:#f2971c;fill-opacity:1;fill-rule:nonzero;stroke:none;stroke-width:0.211304"
       id="path1840" />
    <path
       d="m 156.9626,271.49329 c -0.37826,0 -0.66562,-0.018 -0.85791,-0.0539 -3.43793,-1.35026 -5.39251,-1.75595 -6.58005,-3.58163 1.17697,1.70104 4.03805,2.86951 8.09301,3.62177 -0.24092,0.006 -0.46069,0.012 -0.65505,0.012 m 152.442,-27.5579 c -0.005,-0.002 -0.007,-0.002 -0.0117,-0.005 -4.1606,-5.36718 -8.99316,-13.04598 -10.72797,-21.41793 0.0294,0.13716 0.0614,0.27494 0.0951,0.4139 1.80666,8.21555 6.55469,15.72748 10.64345,21.00799 M 298.2529,220.08886 c -0.0126,-0.0994 -0.0233,-0.19646 -0.0359,-0.29589 0.001,0.002 0.005,0.002 0.008,0.005 v 0 c 0.008,0.0971 0.0168,0.19467 0.0275,0.2917"
       style="fill:#e56a1a;fill-opacity:1;fill-rule:nonzero;stroke:none;stroke-width:0.211304"
       id="path1842" />
    <path
       d="m 157.61765,271.4785 c -4.05496,-0.75226 -6.91604,-1.9208 -8.09301,-3.62177 -0.0698,-0.10546 -0.13524,-0.21563 -0.19861,-0.33183 -1.57212,-2.84418 9.33969,-7.80352 23.55209,-13.20023 1.84469,3.83519 5.94191,9.92922 6.83784,9.92922 0.16483,0 0.22186,-0.20904 0.13309,-0.67619 -1.25305,-1.24245 -3.48654,-4.70998 -4.85792,-7.63658 -0.28948,-0.6149 -0.57052,-1.32277 -0.83464,-2.09827 0.0336,-0.012 0.0634,-0.0239 0.0972,-0.0359 0.26205,0.77758 0.54303,1.48336 0.83043,2.09827 1.70524,3.63656 4.7607,8.11414 5.58057,8.11414 0.53459,0 0.1268,-1.88695 -2.19757,-7.11253 -0.6297,-1.41574 -1.1157,-2.78926 -1.48548,-4.11622 19.04284,-7.05127 42.1364,-14.55895 49.54266,-18.90763 0.16059,1.29954 0.3994,2.52085 0.70575,3.61966 1.60592,5.75383 6.06024,15.61123 7.26257,15.61123 0.20287,0 0.31273,-0.27912 0.30212,-0.90439 -1.44109,-2.0095 -3.73164,-7.31751 -4.94875,-11.67248 -0.6128,-2.20394 -1.0502,-5.14317 -1.16853,-8.31067 0.0551,-0.0737 0.10139,-0.14555 0.1374,-0.21563 0.1099,3.23722 0.55363,6.24408 1.17909,8.48814 1.52984,5.49608 4.77761,12.51141 5.86795,12.51141 0.6825,0 0.52189,-2.75122 -1.43478,-10.34132 -0.89803,-3.48861 -1.28049,-6.73219 -1.29951,-9.70945 3.94295,1.44322 11.87324,3.74431 15.30485,3.74431 0.18802,0 0.36556,-0.006 0.52614,-0.0239 -0.0551,3.5542 0.1501,7.86694 0.59802,10.8928 0.38669,2.58427 1.35869,5.62916 2.81669,8.55576 -0.3592,0.12279 -0.74803,0.25157 -1.16852,0.38874 -1.5869,0.51572 -19.04072,3.6577 -38.58857,6.93291 -1.73059,-2.51241 -3.25199,-5.69674 -4.1437,-9.69892 -1.16007,-5.18965 -1.93344,-7.0893 -2.38352,-7.0893 -0.78395,0 -0.58742,5.78131 0.25354,9.92293 0.41839,2.06024 1.41364,4.79876 2.83361,7.43796 -0.0359,0.006 -0.0698,0.012 -0.1057,0.018 -1.41998,-2.63711 -2.41522,-5.37138 -2.83149,-7.42952 -0.64449,-3.18439 -0.90862,-7.3154 -0.64025,-9.07131 -0.16693,-0.33782 -0.30853,-0.49415 -0.42683,-0.49415 -0.85156,0 -0.49021,8.04862 0.38245,12.35285 0.30428,1.51296 0.90861,3.23298 1.75595,4.93401 -21.17914,3.50557 -43.34085,6.90338 -49.69268,7.14638 m 96.99126,-16.17546 c -2.06023,-4.08453 -3.42738,-8.40783 -3.90069,-11.56263 -0.66351,-4.47967 -0.72901,-10.25674 -0.23247,-12.67827 -0.0252,-0.0599 -0.0485,-0.11375 -0.0741,-0.16712 0.13518,-0.62552 0.33177,-1.03545 0.62336,-1.03545 0.0401,0 0.0824,0.006 0.1268,0.0239 -1.02273,0.31687 -1.14105,8.13104 -0.29158,13.82365 0.46912,3.15054 1.82989,7.46329 3.88378,11.53938 -0.0443,0.018 -0.0888,0.0359 -0.13519,0.0539 m 5.21713,-0.44145 c -2.5377,-3.7969 -4.74372,-8.69916 -5.80026,-14.93899 -0.86213,-5.10729 -1.58055,-7.96619 -2.14686,-9.23615 0.001,0.002 0.005,0.006 0.007,0.012 1.06287,1.77913 3.76545,3.05543 6.44058,3.05543 1.84892,0 3.68517,-0.61066 4.95935,-2.08557 2.0581,-2.38351 5.78342,-5.57209 8.36346,-6.89913 1.36715,2.89911 2.64766,5.06919 3.21184,5.06919 0.20288,0 0.31482,-0.27911 0.30428,-0.90223 -0.68463,-0.95512 -1.56156,-2.6519 -2.42157,-4.63607 0.0467,-0.012 0.0951,-0.03 0.14154,-0.0419 1.33758,3.08509 2.70893,5.47704 3.34498,5.47704 0.34651,0 0.47546,-0.70997 0.262,-2.40249 0.0569,0.006 0.11608,0.012 0.17957,0.012 0.71421,0 1.70946,-0.44803 3.18015,-1.62286 3.13365,-2.50187 8.55363,-7.16321 13.92501,-7.16321 1.50238,0 2.99842,0.36358 4.44164,1.24036 0.0126,0.0994 0.0233,0.19646 0.0359,0.29589 0.0845,0.77334 0.22186,1.58268 0.41203,2.42154 1.73481,8.37195 6.56738,16.05075 10.72798,21.41794 -1.93345,-0.56004 -4.47545,-1.37561 -6.28212,-2.26311 -1.15583,-2.67724 -2.09402,-5.72848 -2.67935,-9.18967 -1.24669,-7.36189 -2.18701,-10.04758 -2.81246,-10.04758 -1.0819,0 -1.21925,8.02537 -0.35712,13.83628 0.18808,1.26151 0.5198,2.70893 0.98258,4.25357 -0.0401,0.0419 -0.0804,0.0827 -0.12046,0.12458 -0.47756,-1.58057 -0.81775,-3.06393 -1.01214,-4.35078 -0.66351,-4.47967 -0.73113,-10.25883 -0.23031,-12.68043 -0.21132,-0.49416 -0.40149,-0.72051 -0.56843,-0.72051 -1.17698,0 -1.25515,11.18857 -0.35075,17.23194 0.13309,0.90859 0.34231,1.87215 0.61701,2.86741 0,0.002 0,0.002 0,0.002 -0.20071,0.95297 -16.53886,4.81774 -21.40101,4.81774 -0.0168,0 -0.0336,0 -0.0509,0 -0.0233,0 -0.0443,0 -0.0677,0 -4.81354,0 -12.75861,2.60968 -13.73696,4.6783 -0.58323,1.22773 -0.93608,2.06024 -1.49815,2.37086"
       style="fill:#e89313;fill-opacity:1;fill-rule:nonzero;stroke:none;stroke-width:0.211304"
       id="path1844" />
    <path
       d="m 303.11193,241.66753 c -1.06076,-0.5199 -1.86795,-1.06498 -2.15109,-1.59746 -0.23664,-0.44384 -0.54937,-0.62546 -0.90016,-0.62546 -0.56418,0 -1.22345,0.469 -1.81511,1.07553 -0.46277,-1.54465 -0.79452,-2.99207 -0.98258,-4.25356 -0.86212,-5.81091 -0.72477,-13.83629 0.35711,-13.83629 0.62545,0 1.56578,2.68568 2.81246,10.04758 0.58533,3.46118 1.52353,6.51242 2.67936,9.18966"
       style="fill:#d68619;fill-opacity:1;fill-rule:nonzero;stroke:none;stroke-width:0.211304"
       id="path1846" />
    <path
       d="m 296.58049,242.99241 c -0.27469,-0.99526 -0.48392,-1.95878 -0.61703,-2.86742 -0.90438,-6.0433 -0.8262,-17.23193 0.35077,-17.23193 0.16693,0 0.35711,0.22581 0.56842,0.72056 -0.5008,2.42155 -0.43318,8.20077 0.2303,12.68044 0.19438,1.28685 0.53459,2.77021 1.01216,4.35078 -0.79661,0.85366 -1.44955,1.91864 -1.54463,2.34757"
       style="fill:#f1b01c;fill-opacity:1;fill-rule:nonzero;stroke:none;stroke-width:0.211304"
       id="path1848" />
    <path
       d="m 254.74414,255.24811 c -2.0539,-4.07603 -3.41469,-8.38877 -3.88379,-11.53938 -0.84944,-5.69255 -0.73113,-13.5066 0.29158,-13.82359 0.20072,0.0737 0.43953,0.32345 0.72688,0.80084 0.56634,1.26994 1.28474,4.12891 2.14687,9.23619 1.05652,6.23984 3.26256,11.1421 5.80033,14.9393 -0.15849,0.0869 -0.33597,0.13118 -0.53884,0.13118 -0.28948,0 -0.63391,-0.091 -1.06074,-0.28332 -0.52829,-0.2366 -0.79874,-0.35698 -1.07978,-0.35698 -0.43744,0 -0.90227,0.29349 -2.40255,0.89588"
       style="fill:#d68619;fill-opacity:1;fill-rule:nonzero;stroke:none;stroke-width:0.211304"
       id="path1850" />
    <path
       d="m 252.37329,256.12717 c -1.45801,-2.92659 -2.43001,-5.97149 -2.81669,-8.55577 -0.44798,-3.0259 -0.65294,-7.33865 -0.59802,-10.89279 0.6973,-0.0611 1.10936,-0.26835 1.1199,-0.65924 0.0275,-1.33547 0.0252,-3.74857 0.32333,-5.12417 0.0252,0.0539 0.0485,0.1078 0.0741,0.16711 -0.49656,2.42154 -0.43109,8.19866 0.23246,12.67834 0.47331,3.15475 1.84046,7.47809 3.90069,11.56262 -0.58106,0.23062 -1.30798,0.50495 -2.23562,0.82408"
       style="fill:#f1b01c;fill-opacity:1;fill-rule:nonzero;stroke:none;stroke-width:0.211304"
       id="path1852" />
    <path
       d="m 209.17614,264.02155 c -1.41997,-2.63921 -2.41522,-5.37773 -2.83361,-7.43797 -0.84099,-4.1416 -1.0375,-9.92293 -0.25354,-9.92293 0.45007,0 1.22345,1.89966 2.38353,7.0893 0.8917,4.00218 2.41311,7.18651 4.14369,9.69892 -1.14104,0.19227 -2.28633,0.38275 -3.44005,0.57262"
       style="fill:#d68619;fill-opacity:1;fill-rule:nonzero;stroke:none;stroke-width:0.211304"
       id="path1854" />
    <path
       d="m 207.31032,264.33218 c -0.84734,-1.70103 -1.45166,-3.42106 -1.75595,-4.934 -0.87269,-4.3043 -1.23402,-12.35292 -0.38245,-12.35292 0.11836,0 0.2599,0.15633 0.42684,0.49415 -0.26835,1.75596 -0.005,5.88698 0.64025,9.07137 0.41629,2.05808 1.41152,4.79241 2.83149,7.42946 -0.58533,0.0971 -1.17274,0.19466 -1.76017,0.2917"
       style="fill:#f1b01c;fill-opacity:1;fill-rule:nonzero;stroke:none;stroke-width:0.211304"
       id="path1856" />
    <path
       d="m 235.86191,253.0083 c -1.09035,0 -4.33813,-7.01532 -5.86796,-12.5114 -0.62548,-2.24406 -1.06921,-5.25092 -1.17908,-8.48814 0.0527,-0.0971 0.0888,-0.19228 0.10348,-0.28333 0.1162,-0.012 0.23031,-0.0239 0.34657,-0.0239 0.70787,0 1.45377,0.24498 2.18066,0.581 0.4015,0.18389 0.97835,0.4139 1.682,0.672 0.0191,2.97727 0.40149,6.22079 1.29952,9.70946 1.95669,7.5901 2.11728,10.34125 1.43478,10.34125"
       style="fill:#d68619;fill-opacity:1;fill-rule:nonzero;stroke:none;stroke-width:0.211304"
       id="path1858" />
    <path
       d="m 234.49265,253.11186 c -1.20235,0 -5.65667,-9.85739 -7.26257,-15.61128 -0.30638,-1.09876 -0.5452,-2.32014 -0.70577,-3.61967 1.05441,-0.6212 1.79186,-1.17693 2.1532,-1.65659 0.11836,3.16744 0.55573,6.10668 1.16853,8.31061 1.21711,4.35504 3.50766,9.66297 4.94875,11.67255 0.0117,0.62545 -0.0994,0.90438 -0.30212,0.90438"
       style="fill:#f1b01c;fill-opacity:1;fill-rule:nonzero;stroke:none;stroke-width:0.211304"
       id="path1860" />
    <path
       d="m 180.66471,264.01729 c -0.81986,0 -3.87534,-4.47751 -5.58057,-8.11414 -0.28739,-0.61485 -0.56842,-1.32062 -0.83043,-2.09822 0.89594,-0.33602 1.81088,-0.67617 2.72795,-1.0164 0.3698,1.32698 0.85579,2.70049 1.48547,4.11623 2.32436,5.22559 2.73218,7.11253 2.19758,7.11253"
       style="fill:#d68619;fill-opacity:1;fill-rule:nonzero;stroke:none;stroke-width:0.211304"
       id="path1862" />
    <path
       d="m 179.71596,264.25395 c -0.89595,0 -4.99315,-6.09404 -6.83785,-9.92922 0.42258,-0.16052 0.85156,-0.32105 1.2784,-0.48158 0.26415,0.7755 0.54518,1.48336 0.83466,2.09828 1.37137,2.92653 3.60486,6.39407 4.8579,7.63658 0.0888,0.4672 0.0317,0.67619 -0.13309,0.67619"
       style="fill:#f1b01c;fill-opacity:1;fill-rule:nonzero;stroke:none;stroke-width:0.211304"
       id="path1864" />
    <path
       d="m 276.22967,229.733 c -0.63603,0 -2.0074,-2.39195 -3.34496,-5.47704 0.24935,-0.0719 0.4754,-0.1078 0.67405,-0.1078 0.36346,0 0.63392,0.12698 0.77972,0.41209 0.6149,1.21294 0.98256,2.63921 2.15321,2.77021 0.21341,1.69259 0.0845,2.40255 -0.262,2.40255"
       style="fill:#d68619;fill-opacity:1;fill-rule:nonzero;stroke:none;stroke-width:0.211304"
       id="path1866" />
    <path
       d="m 274.86041,229.83656 c -0.56418,0 -1.8447,-2.17008 -3.21185,-5.06925 0.39515,-0.20305 0.76282,-0.36118 1.09457,-0.469 0.86001,1.98418 1.73693,3.68095 2.42156,4.63608 0.0117,0.62335 -0.10139,0.9023 -0.30428,0.9023"
       style="fill:#f1b01c;fill-opacity:1;fill-rule:nonzero;stroke:none;stroke-width:0.211304"
       id="path1868" />
    <path
       d="m 319.11831,250.89949 c -6.02854,-0.002 -17.60385,-16.51352 -20.35716,-27.97265 -0.2282,-1.03324 -0.40784,-2.07498 -0.53458,-3.12731 v 0 c -0.14375,-1.55728 -0.20287,-3.1738 -0.19436,-4.79025 0.0117,-0.22162 0.0233,-0.43965 0.0401,-0.66138 0.36555,-5.06082 0.88325,-9.01855 1.40729,-12.14586 0.6001,-2.3962 1.30375,-3.9176 1.94189,-3.9176 0.96354,0 1.77919,3.48652 1.8595,12.69942 0.22186,26.22514 19.50559,33.05874 19.50559,33.05874 -0.15639,4.87272 -1.57845,6.85898 -3.66827,6.85689"
       style="fill:#e8be0d;fill-opacity:1;fill-rule:nonzero;stroke:none;stroke-width:0.211304"
       id="path1870" />
    <path
       d="m 298.03216,215.00928 c 0.0233,-4.80085 0.64235,-9.59116 1.44744,-12.80724 -0.52405,3.12731 -1.04174,7.08504 -1.40731,12.14586 -0.0168,0.22162 -0.0293,0.43964 -0.0401,0.66138"
       style="fill:#e7cd13;fill-opacity:1;fill-rule:nonzero;stroke:none;stroke-width:0.211304"
       id="path1872" />
    <path
       d="m 298.76115,222.92684 c -0.0336,-0.13956 -0.0654,-0.27672 -0.0951,-0.41389 -0.16693,-0.80083 -0.30428,-1.60801 -0.41203,-2.42154 -0.0117,-0.0971 -0.0191,-0.19467 -0.0275,-0.2917 v 0 c 0.12681,1.05234 0.30644,2.09402 0.53465,3.12732"
       style="fill:#e7cd13;fill-opacity:1;fill-rule:nonzero;stroke:none;stroke-width:0.211304"
       id="path1874" />
    <path
       d="m 298.66607,222.51271 c -0.19018,-0.83887 -0.32752,-1.6482 -0.41203,-2.42154 0.1078,0.81353 0.24509,1.62071 0.41203,2.42154"
       style="fill:#e6d917;fill-opacity:1;fill-rule:nonzero;stroke:none;stroke-width:0.211304"
       id="path1876" />
    <path
       d="m 328.40729,232.9174 c 0.40149,2.95193 -15.83522,6.36028 -19.14637,-13.78345 -3.30904,-20.14584 12.82623,-32.70797 19.14637,13.78345"
       style="fill:#bd2426;fill-opacity:1;fill-rule:nonzero;stroke:none;stroke-width:0.211304"
       id="path1878" />
    <path
       d="m 362.7444,218.55498 c 0,0 -7.04914,7.17801 -14.38144,12.47966 -7.31961,5.3038 -34.22934,11.2647 -38.21667,-9.53199 -3.98523,-20.80087 13.17699,-29.08195 25.51933,-25.36087 12.33813,3.72323 12.81357,-0.0479 22.85267,7.24779 6.09194,4.42895 -22.25889,10.94988 -22.25889,10.94988 l 26.485,4.21553"
       style="fill:#3f8a37;fill-opacity:1;fill-rule:nonzero;stroke:none;stroke-width:0.211304"
       id="path1880" />
    <path
       d="m 335.87481,233.78586 c 0,0 -15.75914,0.75224 -18.06871,-14.12577 -2.30956,-14.87377 3.14633,-19.22455 4.19652,-12.89811 1.0502,6.32441 4.24935,15.4549 11.5732,17.47074 7.3175,2.02011 9.40732,10.6625 2.29899,9.55314"
       style="fill:#87d04d;fill-opacity:1;fill-rule:nonzero;stroke:none;stroke-width:0.211304"
       id="path1882" />
  </g>
</svg>
